<?xml version="1.0" encoding="UTF-8" standalone="no"?><!DOCTYPE svg PUBLIC "-//W3C//DTD SVG 1.1//EN" "http://www.w3.org/Graphics/SVG/1.1/DTD/svg11.dtd"><svg width="100%" height="100%" viewBox="0 0 695 676" version="1.1" xmlns="http://www.w3.org/2000/svg" xmlns:xlink="http://www.w3.org/1999/xlink" xml:space="preserve" xmlns:serif="http://www.serif.com/" style="fill-rule:evenodd;clip-rule:evenodd;stroke-linejoin:round;"><rect id="Artboard1" x="0" y="0" width="695" height="676" style="fill:none;"/><g id="color_1"><path d="M315,6l-0.5,1l-7.5,0l-0.5,1l-7.5,0l-0.5,1l-6.5,0l-0.5,1l-4.5,0l-0.5,1l-4.5,0l-0.5,1l-4.5,0l-0.5,1l-4.5,0l-0.5,1l-3.5,0l-0.5,1l-4.5,0l-0.5,1l-7.5,1l-0.5,1l-2.5,0l-0.5,1l-2.5,0l-0.5,1l-3.5,0l-0.5,1l-2.5,0l-0.5,1l-2.5,0l-0.5,1l-2.5,0l-0.5,1l-5.5,1l-2.5,2l-2.5,0l-0.5,1l-5.5,1l-2.5,2l-2.5,0l-2.5,2l-2.5,0l-0.5,1l-1.5,0l-0.5,1l-1.5,0l-0.5,1l-1.5,0l-2.5,2l-2.5,0l-0.5,1l-1.5,0l-0.5,1l-1.5,0l-0.5,1l-1.5,0l-0.5,1l-3.5,1l-1.5,2l-1.5,0l-0.5,1l-1.5,0l-0.5,1l-1.5,0l-0.5,1l-1.5,0l-0.5,1l-1.5,0l-0.5,1l-3.5,1l-1.5,2l-3.5,1l-1.5,2l-1.5,0l-4.5,4l-3.5,1l-1.5,2l-1.5,0l-1.5,2l-1.5,0l-2.5,3l-1.5,0l-1.5,2l-1.5,0l-2.5,3l-1.5,0l-3.5,4l-1.5,0l-2.5,3l-1.5,0l-2.5,3l-1.5,0l-4.5,5l-1.5,0l-7.5,8l-1.5,0l-21,21l0,1.5l-8,7.5l0,1.5l-5,4.5l0,1.5l-4,3.5l0,1.5l-3,2.5l0,1.5l-3,2.5l0,1.5l-3,2.5l0,1.5l-2,1.5l0,1.5l-2,1.5l0,1.5l-2,1.5l0,1.5l-4,4.5l-1,3.5l-4,4.5l-1,3.5l-2,1.5l0,1.5l-1,0.5l-1,3.5l-2,1.5l0,1.5l-1,0.5l0,1.5l-1,0.5l0,1.5l-1,0.5l0,1.5l-1,0.5l0,1.5l-1,0.5l0,1.5l-1,0.5l0,1.5l-1,0.5l0,1.5l-1,0.5l0,1.5l-2,2.5l0,2.5l-1,0.5l0,1.5l-2,2.5l0,2.5l-2,2.5l0,2.5l-1,0.5l0,1.5l-1,0.5l0,2.5l-2,2.5l0,2.5l-1,0.5l-1,5.5l-2,2.5l0,3.5l-1,0.5l0,2.5l-1,0.5l0,2.5l-1,0.5l0,2.5l-1,0.5l-1,7.5l-1,0.5l0,2.5l-1,0.5l0,3.5l-1,0.5l0,4.5l-1,0.5l0,4.5l-1,0.5l-1,9.5l-1,0.5l0,5.5l-1,0.5l0,6.5l-1,0.5l0,9.5l-1,0.5l0,11.5l-1,0.5l0,37.5l1,0.5l0,12.5l1,0.5l0,9.5l1,0.5l0,6.5l1,0.5l0,6.5l1,0.5l0,5.5l1,0.5l0,3.5l1,0.5l0,4.5l1,0.5l0,4.5l1,0.5l0,3.5l1,0.5l1,7.5l1,0.5l0,2.5l1,0.5l0,2.5l1,0.5l0,3.5l1,0.5l0,2.5l1,0.5l0,2.5l1,0.5l1,5.5l2,2.5l1,5.5l2,2.5l0,2.5l1,0.5l0,1.5l1,0.5l0,2.5l2,2.5l0,2.5l1,0.5l0,1.5l2,2.5l0,2.5l1,0.5l0,1.5l1,0.5l0,1.5l1,0.5l0,1.5l1,0.5l0,1.5l1,0.5l0,1.5l1,0.5l0,1.5l1,0.5l0,1.5l1,0.5l0,1.5l1,0.5l1,3.5l2,1.5l0,1.5l1,0.5l0,1.5l2,1.5l0,1.5l1,0.5l1,3.5l2,1.5l0,1.5l2,1.5l0,1.5l2,1.5l0,1.5l2,1.5l0,1.5l2,1.5l0,1.5l3,2.5l0,1.5l2,1.5l0,1.5l4,3.5l0,1.5l3,2.5l0,1.5l4,3.5l0,1.5l5,4.5l0,1.5l8,7.5l0,1.5l18,18l1.5,0l8.5,9l1.5,0l4.5,5l1.5,0l3.5,4l1.5,0l2.5,3l1.5,0l2.5,3l1.5,0l2.5,3l1.5,0l2.5,3l1.5,0l1.5,2l1.5,0l1.5,2l1.5,0l1.5,2l1.5,0l4.5,4l3.5,1l1.5,2l3.5,1l1.5,2l1.5,0l0.5,1l3.5,1l1.5,2l1.5,0l0.5,1l1.5,0l0.5,1l1.5,0l0.5,1l1.5,0l0.5,1l1.5,0l0.5,1l1.5,0l0.5,1l1.5,0l0.5,1l1.5,0l0.5,1l1.5,0l0.5,1l1.5,0l2.5,2l2.5,0l0.5,1l1.5,0l2.5,2l2.5,0l2.5,2l2.5,0l0.5,1l1.5,0l0.5,1l2.5,0l2.5,2l5.5,1l2.5,2l2.5,0l0.5,1l2.5,0l0.5,1l2.5,0l0.5,1l2.5,0l0.5,1l3.5,0l0.5,1l2.5,0l0.5,1l3.5,0l0.5,1l2.5,0l0.5,1l3.5,0l0.5,1l3.5,0l0.5,1l3.5,0l0.5,1l4.5,0l0.5,1l3.5,0l0.5,1l5.5,0l0.5,1l5.5,0l0.5,1l5.5,0l0.5,1l7.5,0l0.5,1l6.5,0l0.5,1l10.5,0l0.5,1l35.5,1l0.5,-1l19.5,0l0.5,-1l10.5,0l0.5,-1l13.5,-1l0.5,-1l5.5,0l0.5,-1l5.5,0l0.5,-1l4.5,0l0.5,-1l9.5,-1l0.5,-1l3.5,0l0.5,-1l7.5,-1l0.5,-1l2.5,0l0.5,-1l3.5,0l0.5,-1l2.5,0l0.5,-1l3.5,0l0.5,-1l2.5,0l0.5,-1l2.5,0l0.5,-1l5.5,-1l2.5,-2l2.5,0l0.5,-1l5.5,-1l0.5,-1l1.5,0l0.5,-1l2.5,0l2.5,-2l2.5,0l0.5,-1l1.5,0l0.5,-1l1.5,0l2.5,-2l2.5,0l0.5,-1l1.5,0l0.5,-1l1.5,0l0.5,-1l1.5,0l0.5,-1l1.5,0l0.5,-1l1.5,0l0.5,-1l1.5,0l0.5,-1l1.5,0l0.5,-1l1.5,0l0.5,-1l1.5,0l0.5,-1l1.5,0l0.5,-1l3.5,-1l1.5,-2l1.5,0l0.5,-1l3.5,-1l1.5,-2l1.5,0l0.5,-1l1.5,0l1.5,-2l3.5,-1l1.5,-2l1.5,0l1.5,-2l1.5,0l1.5,-2l1.5,0l1.5,-2l1.5,0l1.5,-2l1.5,0l1.5,-2l1.5,0l2.5,-3l1.5,0l2.5,-3l1.5,0l2.5,-3l1.5,0l3.5,-4l1.5,0l4.5,-5l1.5,0l7.5,-8l1.5,0l19,-19l0,-1.5l10,-9.5l0,-1.5l5,-4.5l0,-1.5l3,-2.5l0,-1.5l4,-3.5l0,-1.5l3,-2.5l0,-1.5l2,-1.5l0,-1.5l3,-2.5l0,-1.5l4,-4.5l1,-3.5l2,-1.5l0,-1.5l4,-4.5l0,-1.5l1,-0.5l1,-3.5l2,-1.5l0,-1.5l1,-0.5l0,-1.5l1,-0.5l1,-3.5l2,-1.5l0,-1.5l1,-0.5l0,-1.5l1,-0.5l0,-1.5l1,-0.5l0,-1.5l1,-0.5l0,-1.5l2,-2.5l0,-2.5l1,-0.5l0,-1.5l1,-0.5l0,-1.5l2,-2.5l0,-2.5l1,-0.5l0,-1.5l2,-2.5l0,-2.5l2,-2.5l0,-2.5l1,-0.5l0,-2.5l1,-0.5l0,-2.5l1,-0.5l0,-2.5l1,-0.5l0,-2.5l1,-0.5l0,-2.5l1,-0.5l0,-2.5l1,-0.5l0,-2.5l1,-0.5l0,-3.5l1,-0.5l0,-2.5l1,-0.5l0,-3.5l1,-0.5l0,-3.5l1,-0.5l0,-3.5l1,-0.5l0,-3.5l1,-0.5l0,-4.5l1,-0.5l0,-4.5l1,-0.5l0,-5.5l1,-0.5l0,-5.5l1,-0.5l0,-6.5l1,-0.5l0,-7.5l1,-0.5l0,-12.5l1,-0.5l0,-43.5l-1,-0.5l0,-11.5l-1,-0.5l0,-6.5l-1,-0.5l0,-6.5l-1,-0.5l0,-6.5l-1,-0.5l-1,-9.5l-1,-0.5l0,-3.5l-1,-0.5l0,-4.5l-1,-0.5l0,-3.5l-1,-0.5l-1,-7.5l-1,-0.5l0,-2.5l-1,-0.5l0,-3.5l-1,-0.5l0,-2.5l-1,-0.5l0,-2.5l-1,-0.5l0,-2.5l-1,-0.5l0,-3.5l-2,-2.5l-1,-5.5l-2,-2.5l-1,-5.5l-1,-0.5l0,-1.5l-1,-0.5l0,-2.5l-1,-0.5l0,-1.5l-2,-2.5l0,-2.5l-1,-0.5l0,-1.5l-1,-0.5l0,-1.5l-1,-0.5l0,-1.5l-1,-0.5l0,-1.5l-1,-0.5l0,-1.5l-1,-0.5l0,-1.5l-1,-0.5l0,-1.5l-1,-0.5l0,-1.5l-1,-0.5l0,-1.5l-1,-0.5l0,-1.5l-1,-0.5l0,-1.5l-1,-0.5l0,-1.5l-1,-0.5l-1,-3.5l-2,-1.5l0,-1.5l-1,-0.5l-1,-3.5l-2,-1.5l-1,-3.5l-2,-1.5l0,-1.5l-2,-1.5l0,-1.5l-2,-1.5l0,-1.5l-2,-1.5l0,-1.5l-2,-1.5l0,-1.5l-2,-1.5l0,-1.5l-3,-2.5l0,-1.5l-3,-2.5l0,-1.5l-3,-2.5l0,-1.5l-5,-4.5l0,-1.5l-5,-4.5l0,-1.5l-8,-7.5l0,-1.5l-17,-17l-1.5,0l-7.5,-8l-1.5,0l-4.5,-5l-1.5,0l-3.5,-4l-1.5,0l-2.5,-3l-1.5,0l-2.5,-3l-1.5,0l-2.5,-3l-1.5,0l-2.5,-3l-1.5,0l-1.5,-2l-1.5,0l-1.5,-2l-1.5,0l-4.5,-4l-3.5,-1l-4.5,-4l-1.5,0l-0.5,-1l-3.5,-1l-1.5,-2l-3.5,-1l-1.5,-2l-1.5,0l-0.5,-1l-1.5,0l-0.5,-1l-1.5,0l-0.5,-1l-1.5,0l-0.5,-1l-1.5,0l-0.5,-1l-1.5,0l-0.5,-1l-1.5,0l-0.5,-1l-1.5,0l-0.5,-1l-1.5,0l-0.5,-1l-1.5,0l-0.5,-1l-1.5,0l-0.5,-1l-1.5,0l-0.5,-1l-1.5,0l-2.5,-2l-2.5,0l-0.5,-1l-1.5,0l-2.5,-2l-2.5,0l-2.5,-2l-2.5,0l-0.5,-1l-1.5,0l-0.5,-1l-2.5,0l-2.5,-2l-2.5,0l-0.5,-1l-2.5,0l-0.5,-1l-2.5,0l-0.5,-1l-2.5,0l-0.5,-1l-2.5,0l-0.5,-1l-2.5,0l-0.5,-1l-2.5,0l-0.5,-1l-3.5,0l-0.5,-1l-3.5,0l-0.5,-1l-2.5,0l-0.5,-1l-3.5,0l-0.5,-1l-3.5,0l-0.5,-1l-4.5,0l-0.5,-1l-3.5,0l-0.5,-1l-4.5,0l-0.5,-1l-5.5,0l-0.5,-1l-4.5,0l-0.5,-1l-7.5,0l-0.5,-1l-7.5,0l-0.5,-1l-8.5,0l-0.5,-1l-14.5,0l-0.5,-1l-30.5,0l-0.5,1l-1,-1l-1.5,0l-0.5,1l-14.5,0Zm9,16.5l47.5,0l0.5,1l10.5,0l0.5,1l7.5,0l0.5,1l7.5,0l0.5,1l6.5,0l0.5,1l4.5,0l0.5,1l9.5,1l0.5,1l3.5,0l0.5,1l4.5,0l0.5,1l2.5,0l0.5,1l7.5,1l0.5,1l2.5,0l0.5,1l3.5,0l0.5,1l2.5,0l2.5,2l3.5,0l2.5,2l5.5,1l2.5,2l2.5,0l2.5,2l2.5,0l2.5,2l2.5,0l0.5,1l1.5,0l0.5,1l1.5,0l2.5,2l2.5,0l0.5,1l1.5,0l0.5,1l1.5,0l0.5,1l1.5,0l0.5,1l1.5,0l0.5,1l1.5,0l0.5,1l1.5,0l0.5,1l3.5,1l1.5,2l1.5,0l0.5,1l3.5,1l1.5,2l1.5,0l0.5,1l3.5,1l1.5,2l3.5,1l1.5,2l1.5,0l1.5,2l1.5,0l1.5,2l1.5,0l1.5,2l1.5,0l1.5,2l1.5,0l1.5,2l1.5,0l2.5,3l1.5,0l1.5,2l1.5,0l2.5,3l1.5,0l3.5,4l1.5,0l5.5,6l1.5,0l6.5,7l1.5,0l22.5,22.5l0,1.5l7,6.5l0,1.5l4,3.5l0,1.5l4,3.5l0,1.5l3,2.5l0,1.5l3,2.5l0,1.5l2,1.5l0,1.5l2,1.5l0,1.5l2,1.5l0,1.5l2,1.5l0,1.5l2,1.5l0,1.5l4,4.5l0,1.5l1,0.5l1,3.5l2,1.5l0,1.5l1,0.5l0,1.5l1,0.5l0,1.5l1,0.5l1,3.5l2,1.5l0,1.5l1,0.5l0,1.5l2,2.5l0,2.5l1,0.5l0,1.5l1,0.5l0,1.5l1,0.5l0,1.5l1,0.5l0,1.5l2,2.5l0,2.5l1,0.5l0,1.5l2,2.5l1,5.5l2,2.5l0,2.5l1,0.5l0,2.5l1,0.5l0,2.5l1,0.5l0,2.5l1,0.5l0,2.5l1,0.5l0,2.5l1,0.5l0,2.5l1,0.5l0,3.5l1,0.5l0,2.5l1,0.5l0,3.5l1,0.5l0,3.5l1,0.5l0,3.5l1,0.5l0,3.5l1,0.5l0,3.5l1,0.5l0,4.5l1,0.5l0,4.5l1,0.5l0,5.5l1,0.5l0,6.5l1,0.5l0,8.5l1,0.5l0,13.5l1,0.5l0,34.5l-1,0.5l0,13.5l-1,0.5l0,6.5l-1,0.5l0,6.5l-1,0.5l-1,11.5l-1,0.5l-1,9.5l-1,0.5l0,3.5l-1,0.5l-1,7.5l-1,0.5l0,2.5l-1,0.5l0,3.5l-1,0.5l0,2.5l-1,0.5l0,2.5l-1,0.5l0,2.5l-1,0.5l0,2.5l-1,0.5l0,2.5l-1,0.5l-1,5.5l-2,2.5l0,2.5l-1,0.5l0,1.5l-1,0.5l0,2.5l-2,2.5l0,2.5l-1,0.5l0,1.5l-1,0.5l0,1.5l-1,0.5l0,1.5l-1,0.5l0,1.5l-2,2.5l0,2.5l-1,0.5l0,1.5l-1,0.5l0,1.5l-1,0.5l0,1.5l-1,0.5l-1,3.5l-2,1.5l0,1.5l-1,0.5l-1,3.5l-2,1.5l0,1.5l-1,0.5l-1,3.5l-2,1.5l0,1.5l-4,4.5l-1,3.5l-3,2.5l0,1.5l-2,1.5l0,1.5l-2,1.5l0,1.5l-3,2.5l0,1.5l-3,2.5l0,1.5l-4,3.5l0,1.5l-4,3.5l0,1.5l-8,7.5l0,1.5l-18.5,18.5l-1.5,0l-7.5,8l-1.5,0l-4.5,5l-1.5,0l-3.5,4l-1.5,0l-2.5,3l-1.5,0l-2.5,3l-1.5,0l-2.5,3l-1.5,0l-1.5,2l-1.5,0l-1.5,2l-1.5,0l-1.5,2l-1.5,0l-1.5,2l-1.5,0l-4.5,4l-3.5,1l-1.5,2l-1.5,0l-0.5,1l-1.5,0l-1.5,2l-3.5,1l-1.5,2l-1.5,0l-0.5,1l-1.5,0l-0.5,1l-1.5,0l-0.5,1l-1.5,0l-0.5,1l-1.5,0l-0.5,1l-1.5,0l-0.5,1l-1.5,0l-0.5,1l-1.5,0l-0.5,1l-1.5,0l-2.5,2l-2.5,0l-0.5,1l-1.5,0l-0.5,1l-1.5,0l-2.5,2l-2.5,0l-0.5,1l-1.5,0l-2.5,2l-2.5,0l-2.5,2l-5.5,1l-2.5,2l-2.5,0l-0.5,1l-2.5,0l-0.5,1l-2.5,0l-0.5,1l-2.5,0l-0.5,1l-2.5,0l-0.5,1l-3.5,0l-0.5,1l-2.5,0l-0.5,1l-3.5,0l-0.5,1l-2.5,0l-0.5,1l-3.5,0l-0.5,1l-4.5,0l-0.5,1l-3.5,0l-0.5,1l-3.5,0l-0.5,1l-5.5,0l-0.5,1l-4.5,0l-0.5,1l-5.5,0l-0.5,1l-6.5,0l-0.5,1l-7.5,0l-0.5,1l-9.5,0l-0.5,1l-21.5,0l-0.5,1l-12.5,0l-0.5,-1l-19.5,0l-0.5,-1l-10.5,0l-0.5,-1l-7.5,0l-0.5,-1l-5.5,0l-0.5,-1l-5.5,0l-0.5,-1l-4.5,0l-0.5,-1l-9.5,-1l-0.5,-1l-3.5,0l-0.5,-1l-3.5,0l-0.5,-1l-7.5,-1l-0.5,-1l-2.5,0l-0.5,-1l-2.5,0l-0.5,-1l-3.5,0l-0.5,-1l-2.5,0l-0.5,-1l-2.5,0l-0.5,-1l-5.5,-1l-2.5,-2l-5.5,-1l-2.5,-2l-5.5,-1l-0.5,-1l-1.5,0l-2.5,-2l-2.5,0l-0.5,-1l-1.5,0l-0.5,-1l-1.5,0l-2.5,-2l-2.5,0l-0.5,-1l-1.5,0l-0.5,-1l-1.5,0l-0.5,-1l-1.5,0l-0.5,-1l-1.5,0l-0.5,-1l-1.5,0l-0.5,-1l-3.5,-1l-1.5,-2l-1.5,0l-0.5,-1l-1.5,0l-0.5,-1l-3.5,-1l-1.5,-2l-1.5,0l-0.5,-1l-1.5,0l-1.5,-2l-3.5,-1l-4.5,-4l-3.5,-1l-1.5,-2l-1.5,0l-1.5,-2l-1.5,0l-2.5,-3l-1.5,0l-1.5,-2l-1.5,0l-2.5,-3l-1.5,0l-3.5,-4l-1.5,0l-2.5,-3l-1.5,0l-5.5,-6l-1.5,0l-4.5,-5l-1.5,0l-25.5,-25.5l0,-1.5l-5,-4.5l0,-1.5l-6,-5.5l0,-1.5l-3,-2.5l0,-1.5l-3,-2.5l0,-1.5l-3,-2.5l0,-1.5l-3,-2.5l0,-1.5l-2,-1.5l0,-1.5l-2,-1.5l0,-1.5l-2,-1.5l0,-1.5l-4,-4.5l-1,-3.5l-2,-1.5l0,-1.5l-1,-0.5l0,-1.5l-1,-0.5l-1,-3.5l-2,-1.5l0,-1.5l-1,-0.5l0,-1.5l-1,-0.5l0,-1.5l-1,-0.5l0,-1.5l-1,-0.5l0,-1.5l-1,-0.5l0,-1.5l-1,-0.5l0,-1.5l-1,-0.5l0,-1.5l-1,-0.5l0,-1.5l-2,-2.5l0,-2.5l-1,-0.5l0,-1.5l-2,-2.5l0,-2.5l-2,-2.5l-1,-5.5l-2,-2.5l0,-2.5l-1,-0.5l0,-2.5l-1,-0.5l0,-2.5l-1,-0.5l0,-2.5l-1,-0.5l0,-2.5l-1,-0.5l0,-2.5l-1,-0.5l0,-3.5l-1,-0.5l0,-2.5l-1,-0.5l0,-3.5l-1,-0.5l0,-3.5l-1,-0.5l0,-3.5l-1,-0.5l0,-3.5l-1,-0.5l0,-3.5l-1,-0.5l-1,-9.5l-1,-0.5l0,-5.5l-1,-0.5l0,-7.5l-1,-0.5l0,-9.5l-1,-0.5l0,-12.5l-1,-0.5l0,-29.5l1,-0.5l0,-13.5l1,-0.5l0,-9.5l1,-0.5l0,-6.5l1,-0.5l0,-5.5l1,-0.5l0,-4.5l1,-0.5l1,-9.5l1,-0.5l0,-3.5l1,-0.5l0,-3.5l1,-0.5l0,-3.5l1,-0.5l1,-7.5l1,-0.5l0,-2.5l1,-0.5l0,-2.5l1,-0.5l0,-2.5l1,-0.5l0,-3.5l1,-0.5l0,-2.5l2,-2.5l0,-2.5l1,-0.5l0,-2.5l2,-2.5l0,-2.5l2,-2.5l0,-2.5l1,-0.5l0,-1.5l2,-2.5l0,-2.5l1,-0.5l0,-1.5l1,-0.5l0,-1.5l1,-0.5l0,-1.5l1,-0.5l0,-1.5l1,-0.5l0,-1.5l1,-0.5l0,-1.5l1,-0.5l0,-1.5l1,-0.5l0,-1.5l1,-0.5l0,-1.5l1,-0.5l1,-3.5l2,-1.5l0,-1.5l1,-0.5l0,-1.5l1,-0.5l1,-3.5l4,-4.5l1,-3.5l2,-1.5l0,-1.5l2,-1.5l0,-1.5l2,-1.5l0,-1.5l2,-1.5l0,-1.5l3,-2.5l0,-1.5l2,-1.5l0,-1.5l4,-3.5l0,-1.5l3,-2.5l0,-1.5l4,-3.5l0,-1.5l7,-6.5l0,-1.5l9,-8.5l0,-1.5l5.5,-5.5l1.5,0l14.5,-15l1.5,0l4.5,-5l1.5,0l3.5,-4l1.5,0l3.5,-4l1.5,0l2.5,-3l1.5,0l1.5,-2l1.5,0l2.5,-3l1.5,0l1.5,-2l1.5,0l1.5,-2l1.5,0l4.5,-4l3.5,-1l4.5,-4l1.5,0l0.5,-1l1.5,0l0.5,-1l3.5,-1l1.5,-2l3.5,-1l1.5,-2l1.5,0l0.5,-1l1.5,0l0.5,-1l1.5,0l0.5,-1l1.5,0l0.5,-1l1.5,0l0.5,-1l1.5,0l0.5,-1l1.5,0l0.5,-1l1.5,0l2.5,-2l2.5,0l0.5,-1l1.5,0l2.5,-2l2.5,0l2.5,-2l2.5,0l2.5,-2l2.5,0l2.5,-2l2.5,0l0.5,-1l5.5,-1l2.5,-2l2.5,0l0.5,-1l2.5,0l0.5,-1l3.5,0l0.5,-1l2.5,0l0.5,-1l3.5,0l0.5,-1l3.5,0l0.5,-1l3.5,0l0.5,-1l3.5,0l0.5,-1l3.5,0l0.5,-1l4.5,0l0.5,-1l9.5,-1l0.5,-1l6.5,0l0.5,-1l6.5,0l0.5,-1l8.5,0l0.5,-1l10.5,0l0.5,-1Z" style="fill:#fff;fill-rule:nonzero;stroke:#fff;stroke-width:1px;"/><path d="M393.623,551.021l0.597,-1.376l2.829,-1.498l0.994,-2.294l1.116,-0.061l1.392,-3.211l1.116,-0.061l102.005,-235.345l-0.719,-0.856l1.79,-4.129l-0.719,-0.856l0.597,-1.376l-0.719,-0.856l0.474,-3.609l-3.119,-7.891l-1.376,-0.597l-1.498,-2.829l-3.211,-1.392l-0.061,-1.116l-302.324,-131.035l-31.616,72.943l244.52,105.982l-78.679,182.786l0.719,0.856l-1.27,5.444l0.719,0.856l-0.597,1.376l1.758,3.487l-0.597,1.376l0.52,1.315l1.376,0.597l0.581,2.432l1.376,0.597l1.498,2.829l2.294,0.994l0.061,1.116l41.747,18.094l0.856,-0.719l5.444,1.27l2.172,-1.239l1.376,0.597l6.576,-2.599Z" style="fill:#fff;fill-rule:nonzero;stroke:#fff;stroke-width:1px;"/></g></svg>