<?xml version="1.0" encoding="UTF-8" standalone="no"?><!DOCTYPE svg PUBLIC "-//W3C//DTD SVG 1.1//EN" "http://www.w3.org/Graphics/SVG/1.1/DTD/svg11.dtd"><svg width="100%" height="100%" viewBox="0 0 874 868" version="1.1" xmlns="http://www.w3.org/2000/svg" xmlns:xlink="http://www.w3.org/1999/xlink" xml:space="preserve" xmlns:serif="http://www.serif.com/" style="fill-rule:evenodd;clip-rule:evenodd;stroke-linejoin:round;"><rect id="Artboard1" x="0" y="0" width="874" height="868" style="fill:none;"/><g id="color_1"><path d="M581.151,528.756l-1.528,0l-0.509,-1.019l-1.528,0l-2.547,-2.038l-2.547,0l-0.509,-1.019l-2.547,0l-0.509,-1.019l-5.604,0l-0.509,-1.019l-10.698,0l-0.509,1.019l-4.585,0l-0.509,1.019l-3.566,0l-2.547,2.038l-2.547,0l-0.509,1.019l-1.528,0l-4.585,4.075l-3.566,1.019l-3.566,4.075l-1.528,0l-8.151,8.151l0,1.528l-4.075,3.566l0,1.528l-3.057,2.547l0,1.528l-2.038,1.528l0,1.528l-1.019,0.509l0,1.528l-1.019,0.509l0,1.528l-1.019,0.509l0,1.528l-1.019,0.509l0,1.528l-2.038,2.547l0,2.547l-2.038,2.547l0,3.566l-1.019,0.509l0,3.566l-1.019,0.509l0,23.943l1.019,0.509l0,5.604l1.019,0.509l0,6.622l1.019,0.509l0,5.604l1.019,0.509l0,3.566l1.019,0.509l0,4.585l1.019,0.509l0,5.604l1.019,0.509l0,8.66l1.019,0.509l0,6.622l-1.019,0.509l0,9.679l-1.019,0.509l0,5.604l-1.019,0.509l0,3.566l-1.019,0.509l0,2.547l-1.019,0.509l-1.019,5.604l-1.019,0.509l0,1.528l-1.019,0.509l0,2.547l-1.019,0.509l0,1.528l-2.038,1.528l0,1.528l-1.019,0.509l-1.019,3.566l1.528,0l0.509,-1.019l2.547,0l0.509,-1.019l2.547,0l0.509,-1.019l2.547,0l2.547,-2.038l2.547,0l0.509,-1.019l1.528,0l0.509,-1.019l1.528,0l0.509,-1.019l1.528,0l0.509,-1.019l1.528,0l0.509,-1.019l1.528,0l0.509,-1.019l3.566,-1.019l1.528,-2.038l1.528,0l0.509,-1.019l1.528,0l1.528,-2.038l3.566,-1.019l2.547,-3.057l1.528,0l1.528,-2.038l1.528,0l2.547,-3.057l1.528,0l1.528,-2.038l1.528,0l3.566,-4.075l1.528,0l4.585,-5.094l1.528,0l8.66,-9.17l1.528,0l6.113,-6.113l0,-1.528l1.528,-1.528l1.528,0l0,-1.528l7.132,-6.622l0,-1.528l4.075,-3.566l0,-1.528l2.038,-1.528l0,-1.528l2.038,-1.528l0,-1.528l3.057,-2.547l1.019,-3.566l2.038,-1.528l0,-1.528l1.019,-0.509l0,-1.528l1.019,-0.509l0,-1.528l1.019,-0.509l0,-1.528l2.038,-2.547l0,-2.547l2.038,-2.547l0,-3.566l1.019,-0.509l0,-2.547l1.019,-0.509l0,-4.585l1.019,-0.509l0,-19.867l-1.019,-0.509l0,-4.585l-1.019,-0.509l0,-3.566l-1.019,-0.509l0,-2.547l-1.019,-0.509l0,-1.528l-2.038,-2.547l0,-2.547l-1.019,-0.509l0,-1.528l-2.038,-1.528l0,-1.528l-2.038,-1.528l0,-1.528l-4.075,-3.566l0,-1.528l-3.057,-3.057l-1.528,0l-1.528,-2.038l-1.528,0l-2.547,-3.057Zm-41.772,15.792l0.509,2.038l-2.038,1.528l0,1.528l-1.019,0.509l0,1.528l-1.019,0.509l-1.019,3.566l-2.038,1.528l0,2.547l-1.019,0.509l0,1.528l-1.019,0.509l0,1.528l-1.019,0.509l0,1.528l-2.038,2.547l0,2.547l-2.038,2.547l0,2.547l-1.019,0.509l0,2.547l-1.019,0.509l0,3.566l-1.019,0.509l0,2.547l-1.019,0.509l0,4.585l-1.019,0.509l0,4.585l-1.019,0.509l0,6.622l-1.019,0.509l0,10.698l-1.019,0.509l0,1.528l1.019,0.509l-1.019,1.019l1.019,9.679l-1.019,0.509l0,7.641l-1.019,0.509l-0.509,-5.094l-1.019,-0.509l0,-4.585l-1.019,-0.509l0,-5.604l-1.019,-0.509l0,-4.585l-1.019,-0.509l0,-5.604l-1.019,-0.509l0,-16.811l1.019,-0.509l0,-7.641l1.019,-0.509l0,-4.585l1.019,-0.509l0,-3.566l1.019,-0.509l1.019,-5.604l1.019,-0.509l0,-1.528l1.019,-0.509l1.019,-3.566l2.038,-1.528l0,-1.528l4.075,-3.566l0,-1.528l3.566,-3.566l1.528,0l3.566,-4.075l1.528,0l0.509,-1.019l3.566,-1.019Zm14.773,-101.374l-2.038,2.038l0,1.528l-1.019,0.509l0,3.566l-1.019,0.509l0,5.604l-1.019,0.509l0,4.585l-1.019,0.509l0,4.585l-1.019,0.509l0,4.585l-1.019,0.509l0,4.585l-1.019,0.509l0,4.585l-1.019,0.509l0,5.604l-1.019,0.509l0,5.604l-1.019,0.509l0,5.604l-1.019,0.509l0,6.622l-1.019,0.509l0,5.604l2.547,0l0.509,-1.019l3.566,0l0.509,-1.019l17.83,0l0.509,1.019l7.641,1.019l0.509,1.019l5.604,1.019l0.509,1.019l1.528,0l0.509,1.019l1.528,0l0.509,1.019l3.566,1.019l1.528,2.038l1.528,0l2.547,3.057l1.528,0l3.566,3.566l0,1.528l2.038,1.528l0,1.528l1.528,0l1.019,1.019l0,-2.547l2.038,-2.547l0,-2.547l2.038,-1.528l0,-2.547l1.019,-0.509l0,-1.528l1.019,-0.509l0,-1.528l2.038,-2.547l0,-2.547l2.038,-2.547l0,-2.547l1.019,-0.509l0,-1.528l2.038,-2.547l0,-2.547l2.038,-2.547l0,-2.547l1.019,-0.509l0,-1.528l2.038,-2.547l0,-2.547l2.038,-2.547l0,-2.547l1.019,-0.509l1.019,-5.604l2.038,-2.547l0,-3.566l1.019,-0.509l0,-2.547l2.038,-2.547l0,-3.566l1.019,-0.509l-1.019,-1.019l0,-1.528l-6.113,-6.113l-1.528,0l-4.585,-4.075l-3.566,-1.019l-1.528,-2.038l-1.528,0l-0.509,-1.019l-1.528,0l-2.547,-2.038l-2.547,0l-0.509,-1.019l-2.547,0l-0.509,-1.019l-3.566,0l-0.509,-1.019l-3.566,0l-0.509,-1.019l-5.604,0l-0.509,-1.019l-14.773,0l-0.509,1.019l-5.604,0l-0.509,1.019l-2.547,0l-0.509,1.019l-2.547,0l-0.509,1.019l-2.547,0l-0.509,1.019l-1.528,0Zm-232.294,-201.729l0,2.547l-2.038,1.528l0,1.528l-2.038,1.528l-1.019,3.566l-2.038,1.528l0,1.528l-1.019,0.509l0,1.528l-1.019,0.509l0,1.528l-1.019,0.509l-1.019,3.566l-2.038,1.528l0,1.528l-1.019,0.509l0,1.528l-1.019,0.509l-1.019,3.566l-2.038,1.528l-1.019,3.566l-2.038,1.528l0,1.528l-1.019,0.509l0,1.528l-1.019,0.509l-1.019,3.566l-4.075,4.585l0,1.528l-1.019,0.509l-1.019,3.566l-2.038,1.528l-1.019,3.566l-2.038,1.528l0,1.528l-2.038,1.528l-1.019,3.566l-4.075,4.585l-1.019,3.566l-2.038,1.528l-1.019,3.566l-2.038,1.528l-1.019,3.566l-2.038,1.528l-1.019,3.566l-2.038,1.528l-1.019,3.566l-2.038,1.528l-1.019,3.566l-2.038,1.528l-1.019,3.566l-2.038,1.528l0,1.528l-1.019,0.509l0,1.528l-1.019,0.509l0,1.528l-1.019,0.509l-1.019,3.566l-2.038,1.528l-1.019,3.566l-2.038,1.528l0,1.528l-1.019,0.509l0,1.528l-1.019,0.509l0,1.528l-1.019,0.509l0,1.528l-1.019,0.509l0,1.528l-1.019,0.509l0,1.528l-1.019,0.509l-1.019,3.566l-2.038,1.528l0,1.528l-1.019,0.509l0,1.528l-2.038,2.547l0,2.547l-2.038,1.528l0,1.528l-1.019,0.509l0,1.528l-2.038,2.547l0,2.547l-1.019,0.509l0,1.528l-1.019,0.509l0,1.528l-1.019,0.509l0,1.528l-1.019,0.509l0,1.528l-1.019,0.509l0,1.528l-1.019,0.509l0,1.528l-2.038,2.547l0,2.547l-1.019,0.509l0,1.528l-2.038,2.547l0,2.547l-1.019,0.509l0,1.528l-2.038,2.547l0,2.547l-2.038,2.547l0,2.547l-1.019,0.509l0,2.547l-1.019,0.509l-1.019,5.604l-2.038,2.547l0,3.566l-1.019,0.509l0,2.547l-1.019,0.509l0,3.566l-1.019,0.509l0,4.585l-1.019,0.509l0,3.566l-1.019,0.509l0,3.566l-1.019,0.509l0,6.622l-1.019,0.509l0,8.66l-1.019,0.509l1.019,1.019l0,1.528l-1.019,0.509l0,15.792l1.019,0.509l0,8.66l1.019,0.509l0,5.604l1.019,0.509l0,3.566l1.019,0.509l0,2.547l1.019,0.509l0,3.566l1.019,0.509l1.019,5.604l1.019,0.509l0,1.528l1.019,0.509l0,1.528l1.019,0.509l0,1.528l1.019,0.509l0,1.528l1.019,0.509l0,1.528l1.019,0.509l0,1.528l1.019,0.509l1.019,3.566l2.038,1.528l0,1.528l2.038,1.528l0,1.528l3.057,2.547l0,1.528l4.075,3.566l0,1.528l9.17,8.66l0,1.528l3.057,3.057l1.528,0l3.566,4.075l1.528,0l3.566,4.075l1.528,0l2.547,3.057l3.566,1.019l4.585,4.075l1.528,0l0.509,1.019l1.528,0l0.509,1.019l1.528,0l0.509,1.019l1.528,0l0.509,1.019l1.528,0l0.509,1.019l1.528,0l0.509,1.019l1.528,0l0.509,1.019l1.528,0l2.547,2.038l2.547,0l0.509,1.019l2.547,0l0.509,1.019l3.566,0l0.509,1.019l2.547,0l0.509,1.019l3.566,0l0.509,1.019l3.566,0l0.509,1.019l5.604,0l0.509,1.019l5.604,0l0.509,1.019l29.037,0l0.509,-1.019l5.604,0l0.509,-1.019l3.566,0l0.509,-1.019l3.566,0l0.509,-1.019l7.641,-1.019l2.547,-2.038l2.547,0l0.509,-1.019l1.528,0l0.509,-1.019l1.528,0l0.509,-1.019l1.528,0l0.509,-1.019l1.528,0l0.509,-1.019l1.528,0l0.509,-1.019l1.528,0l0.509,-1.019l1.528,0l0.509,-1.019l3.566,-1.019l1.528,-2.038l1.528,0l1.528,-2.038l1.528,0l2.547,-3.057l1.528,0l3.566,-4.075l1.528,0l17.32,-17.32l0,-1.528l4.075,-3.566l0,-1.528l3.057,-2.547l0,-1.528l2.038,-1.528l1.019,-3.566l2.038,-1.528l0,-1.528l1.019,-0.509l0,-1.528l1.019,-0.509l0,-1.528l1.019,-0.509l0,-1.528l2.038,-2.547l0,-2.547l1.019,-0.509l0,-1.528l2.038,-2.547l0,-2.547l1.019,-0.509l0,-2.547l1.019,-0.509l0,-2.547l1.019,-0.509l0,-3.566l1.019,-0.509l0,-4.585l1.019,-0.509l0,-5.604l1.019,-0.509l0,-9.679l1.019,-0.509l0,-16.811l-1.019,-0.509l0,-11.717l-1.019,-0.509l-1.019,-9.679l-1.019,-0.509l0,-3.566l-1.019,-0.509l-1.019,-7.641l-1.019,-0.509l0,-2.547l-1.019,-0.509l0,-2.547l-1.019,-0.509l-1.019,-5.604l-2.038,-2.547l0,-2.547l-2.038,-2.547l0,-2.547l-1.019,-0.509l0,-1.528l-2.038,-2.547l0,-2.547l-1.019,-0.509l0,-1.528l-1.019,-0.509l0,-1.528l-1.019,-0.509l0,-1.528l-2.038,-2.547l0,-2.547l-1.019,-0.509l0,-1.528l-1.019,-0.509l0,-1.528l-1.019,-0.509l0,-1.528l-1.019,-0.509l0,-1.528l-1.019,-0.509l0,-1.528l-1.019,-0.509l0,-1.528l-1.019,-0.509l0,-1.528l-1.019,-0.509l0,-1.528l-1.019,-0.509l0,-1.528l-1.019,-0.509l-1.019,-3.566l-2.038,-1.528l0,-1.528l-1.019,-0.509l0,-1.528l-1.019,-0.509l0,-1.528l-1.019,-0.509l0,-1.528l-1.019,-0.509l-1.019,-3.566l-2.038,-1.528l-1.019,-3.566l-2.038,-1.528l0,-1.528l-1.019,-0.509l0,-2.547l-2.038,-1.528l0,-1.528l-1.019,-0.509l0,-1.528l-2.038,-1.528l-1.019,-3.566l-4.075,-4.585l-1.019,-3.566l-2.038,-1.528l0,-1.528l-1.019,-0.509l0,-1.528l-2.038,-1.528l-1.019,-3.566l-4.075,-4.585l0,-1.528l-1.019,-0.509l0,-1.528l-2.038,-1.528l-1.019,-3.566l-2.038,-1.528l0,-1.528l-2.038,-1.528l0,-1.528l-4.075,-4.585l-1.019,-3.566l-2.038,-1.528l0,-1.528l-4.075,-4.585l-1.019,-3.566l-2.038,-1.528l0,-1.528l-2.038,-1.528l-1.019,-3.566l-4.075,-4.585l-1.019,-3.566l-4.075,-4.585l0,-1.528l-1.019,-0.509l-1.019,-3.566l-3.057,-2.547l0,-1.528l-2.038,-1.528l0,-1.528l-1.019,-0.509l-1.019,-3.566l-2.038,-1.528l-1.019,-3.566l-4.075,-4.585l-1.019,-3.566l-2.038,-1.528l0,-1.528l-2.038,-1.528l0,-1.528l-3.566,-3.057Zm350.989,-38.716l-3.566,-1.019l-0.509,1.019l-3.566,1.019l-1.019,1.019l0,1.528l-3.057,2.547l0,1.528l-2.038,1.528l0,1.528l-1.019,0.509l0,1.528l-1.019,0.509l-1.019,3.566l-2.038,1.528l-1.019,3.566l-2.038,1.528l0,1.528l-1.019,0.509l0,1.528l-1.019,0.509l-1.019,3.566l-2.038,1.528l0,1.528l-1.019,0.509l-1.019,3.566l-2.038,1.528l0,1.528l-1.019,0.509l0,1.528l-1.019,0.509l0,1.528l-1.019,0.509l0,1.528l-1.019,0.509l0,1.528l-1.019,0.509l-1.019,3.566l-2.038,1.528l0,1.528l-1.019,0.509l0,1.528l-1.019,0.509l0,1.528l-1.019,0.509l0,1.528l-1.019,0.509l-1.019,3.566l-2.038,1.528l0,1.528l-1.019,0.509l0,1.528l-1.019,0.509l0,1.528l-1.019,0.509l0,1.528l-1.019,0.509l0,1.528l-1.019,0.509l0,1.528l-1.019,0.509l0,1.528l-1.019,0.509l0,1.528l-1.019,0.509l0,1.528l-1.019,0.509l0,1.528l-1.019,0.509l0,1.528l-1.019,0.509l0,1.528l-1.019,0.509l0,1.528l-1.019,0.509l-1.019,3.566l-2.038,1.528l0,1.528l-1.019,0.509l0,2.547l-2.038,1.528l0,2.547l-1.019,0.509l0,1.528l-2.038,1.528l0,2.547l-2.038,1.528l0,1.528l-2.038,2.547l0,2.547l-1.019,0.509l0,1.528l-1.019,0.509l0,1.528l-1.019,0.509l0,1.528l-1.019,0.509l0,1.528l-1.019,0.509l0,1.528l-1.019,0.509l0,1.528l-1.019,0.509l0,1.528l-2.038,2.547l0,2.547l-1.019,0.509l0,1.528l-1.019,0.509l0,1.528l-2.038,2.547l0,2.547l-1.019,0.509l0,1.528l-1.019,0.509l0,2.547l-1.019,0.509l0,1.528l-2.038,2.547l0,2.547l-2.038,2.547l0,2.547l-2.038,2.547l0,2.547l-1.019,0.509l0,1.528l-1.019,0.509l0,1.528l-2.038,2.547l-1.019,5.604l-2.038,2.547l0,2.547l-1.019,0.509l-1.019,5.604l-2.038,2.547l0,3.566l-2.038,2.547l0,2.547l-1.019,0.509l0,2.547l-1.019,0.509l0,2.547l-1.019,0.509l-1.019,5.604l-1.019,0.509l0,1.528l-2.038,2.547l0,2.547l3.566,0l0.509,-1.019l4.585,0l0.509,-1.019l6.622,0l0.509,-1.019l10.698,0l0.509,1.019l7.641,0l0.509,1.019l4.585,0l0.509,1.019l2.547,0l0.509,1.019l3.566,0l2.547,2.038l2.547,0l0.509,1.019l1.528,0l0.509,1.019l1.528,0l0.509,1.019l3.566,1.019l1.528,2.038l3.566,1.019l1.528,2.038l1.528,0l2.547,3.057l1.528,0l0.509,2.038l3.057,3.057l1.528,-1.019l0,-1.528l1.019,-0.509l0,-2.547l1.019,-0.509l0,-3.566l1.019,-0.509l0,-2.547l1.019,-0.509l0,-2.547l1.019,-0.509l0,-2.547l1.019,-0.509l0,-3.566l1.019,-0.509l0,-2.547l1.019,-0.509l0,-2.547l1.019,-0.509l0,-3.566l1.019,-0.509l0,-2.547l1.019,-0.509l0,-2.547l1.019,-0.509l0,-4.585l1.019,-0.509l0,-2.547l1.019,-0.509l0,-4.585l1.019,-0.509l0,-3.566l1.019,-0.509l0,-3.566l1.019,-0.509l0,-3.566l1.019,-0.509l0,-3.566l1.019,-0.509l0,-3.566l1.019,-0.509l0,-4.585l1.019,-0.509l0,-3.566l1.019,-0.509l0,-4.585l1.019,-0.509l0,-3.566l1.019,-0.509l0,-3.566l1.019,-0.509l0,-4.585l1.019,-0.509l0,-4.585l1.019,-0.509l0,-4.585l1.019,-0.509l0,-5.604l1.019,-0.509l0,-4.585l1.019,-0.509l0,-4.585l1.019,-0.509l0,-5.604l1.019,-0.509l0,-4.585l1.019,-0.509l0,-5.604l1.019,-0.509l0,-3.566l1.019,-0.509l0,-5.604l1.019,-0.509l0,-7.641l1.019,-0.509l0,-5.604l1.019,-0.509l0,-7.641l1.019,-0.509l0,-6.622l1.019,-0.509l0,-9.679l1.019,-0.509l0,-19.867l1.019,-0.509l0,-9.679l-1.019,-0.509l0,-11.717l-1.019,-0.509l0,-5.604l-1.019,-0.509l0,-2.547l-2.038,-2.038Zm-273.557,-198.673l-0.509,1.019l-8.66,0l-0.509,1.019l-8.66,0l-0.509,1.019l-6.622,0l-0.509,1.019l-5.604,0l-0.509,1.019l-6.622,0l-0.509,1.019l-4.585,0l-0.509,1.019l-4.585,0l-0.509,1.019l-5.604,0l-0.509,1.019l-3.566,0l-0.509,1.019l-4.585,0l-0.509,1.019l-3.566,0l-0.509,1.019l-3.566,0l-0.509,1.019l-3.566,0l-0.509,1.019l-7.641,1.019l-0.509,1.019l-2.547,0l-0.509,1.019l-2.547,0l-0.509,1.019l-2.547,0l-0.509,1.019l-3.566,0l-0.509,1.019l-2.547,0l-0.509,1.019l-5.604,1.019l-2.547,2.038l-3.566,0l-2.547,2.038l-5.604,1.019l-0.509,1.019l-1.528,0l-0.509,1.019l-2.547,0l-2.547,2.038l-2.547,0l-0.509,1.019l-1.528,0l-2.547,2.038l-2.547,0l-0.509,1.019l-1.528,0l-0.509,1.019l-1.528,0l-2.547,2.038l-2.547,0l-0.509,1.019l-1.528,0l-0.509,1.019l-1.528,0l-0.509,1.019l-1.528,0l-0.509,1.019l-1.528,0l-0.509,1.019l-1.528,0l-0.509,1.019l-1.528,0l-0.509,1.019l-1.528,0l-0.509,1.019l-1.528,0l-0.509,1.019l-1.528,0l-0.509,1.019l-1.528,0l-0.509,1.019l-1.528,0l-0.509,1.019l-3.566,1.019l-1.528,2.038l-1.528,0l-0.509,1.019l-3.566,1.019l-1.528,2.038l-1.528,0l-0.509,1.019l-3.566,1.019l-4.585,4.075l-3.566,1.019l-1.528,2.038l-1.528,0l-1.528,2.038l-1.528,0l-1.528,2.038l-1.528,0l-1.528,2.038l-1.528,0l-2.547,3.057l-1.528,0l-1.528,2.038l-1.528,0l-1.528,2.038l-1.528,0l-1.528,2.038l-1.528,0l-3.566,4.075l-1.528,0l-4.585,5.094l-1.528,0l-2.547,3.057l-1.528,0l-3.566,4.075l-1.528,0l-5.604,6.113l-1.528,0l-0.509,2.038l-1.528,0l-4.585,5.094l-1.528,0l0,1.528l-3.566,3.566l-1.528,0l-17.32,17.32l0,1.528l-9.17,8.66l0,1.528l-6.113,5.604l0,1.528l-5.094,4.585l0,1.528l-4.075,3.566l0,1.528l-2.038,1.528l0,1.528l-5.094,4.585l0,1.528l-2.038,1.528l0,1.528l-3.057,2.547l0,1.528l-3.057,2.547l0,1.528l-2.038,1.528l0,1.528l-3.057,2.547l-1.019,3.566l-2.038,1.528l0,1.528l-2.038,1.528l0,1.528l-4.075,4.585l0,1.528l-1.019,0.509l0,1.528l-2.038,1.528l0,1.528l-1.019,0.509l0,1.528l-1.019,0.509l-1.019,3.566l-2.038,1.528l0,1.528l-1.019,0.509l0,1.528l-1.019,0.509l0,1.528l-1.019,0.509l0,1.528l-1.019,0.509l0,1.528l-1.019,0.509l0,1.528l-1.019,0.509l0,1.528l-1.019,0.509l-1.019,3.566l-2.038,1.528l0,1.528l-1.019,0.509l0,2.547l-1.019,0.509l0,1.528l-2.038,2.547l0,2.547l-1.019,0.509l0,1.528l-1.019,0.509l0,1.528l-2.038,2.547l-1.019,5.604l-1.019,0.509l0,1.528l-2.038,2.547l0,2.547l-1.019,0.509l0,2.547l-2.038,2.547l-1.019,5.604l-2.038,2.547l0,3.566l-1.019,0.509l0,2.547l-1.019,0.509l0,2.547l-1.019,0.509l0,2.547l-1.019,0.509l0,2.547l-1.019,0.509l-1.019,7.641l-2.038,2.547l0,4.585l-1.019,0.509l0,2.547l-1.019,0.509l0,3.566l-1.019,0.509l0,3.566l-1.019,0.509l0,4.585l-1.019,0.509l-1.019,9.679l-1.019,0.509l0,2.547l-1.019,0.509l0,6.622l-1.019,0.509l0,5.604l-1.019,0.509l0,6.622l-1.019,0.509l0,6.622l-1.019,0.509l0,6.622l-1.019,0.509l0,8.66l-1.019,0.509l0,14.773l-1.019,0.509l0,40.244l1.019,0.509l0,15.792l1.019,0.509l0,10.698l1.019,0.509l0,6.622l1.019,0.509l1.019,13.754l1.019,0.509l0,4.585l1.019,0.509l0,5.604l1.019,0.509l0,4.585l1.019,0.509l0,3.566l1.019,0.509l1.019,9.679l1.019,0.509l0,2.547l1.019,0.509l0,3.566l1.019,0.509l0,2.547l1.019,0.509l0,3.566l1.019,0.509l0,2.547l1.019,0.509l0,3.566l1.019,0.509l0,2.547l1.019,0.509l0,2.547l1.019,0.509l0,2.547l1.019,0.509l0,2.547l1.019,0.509l0,2.547l1.019,0.509l0,2.547l1.019,0.509l1.019,5.604l2.038,2.547l1.019,5.604l1.019,0.509l0,1.528l1.019,0.509l0,1.528l1.019,0.509l0,1.528l2.038,2.547l0,2.547l1.019,0.509l0,1.528l1.019,0.509l0,1.528l2.038,2.547l0,2.547l1.019,0.509l0,1.528l1.019,0.509l0,1.528l1.019,0.509l0,1.528l1.019,0.509l0,1.528l1.019,0.509l0,1.528l1.019,0.509l0,1.528l1.019,0.509l0,1.528l1.019,0.509l1.019,3.566l2.038,1.528l0,1.528l1.019,0.509l0,1.528l1.019,0.509l1.019,3.566l2.038,1.528l0,1.528l1.019,0.509l1.019,3.566l2.038,1.528l0,1.528l1.019,0.509l0,1.528l2.038,1.528l1.019,3.566l4.075,4.585l1.019,3.566l2.038,1.528l0,1.528l2.038,1.528l0,1.528l2.038,1.528l0,1.528l2.038,1.528l0,1.528l2.038,1.528l0,1.528l2.038,1.528l0,1.528l3.057,2.547l0,1.528l3.057,2.547l0,1.528l3.057,2.547l0,1.528l3.057,2.547l0,1.528l5.094,4.585l0,1.528l5.094,4.585l0,1.528l5.094,4.585l0,1.528l8.151,7.641l0,1.528l29.546,29.546l1.528,0l7.641,8.151l1.528,0l6.622,7.132l1.528,0l3.566,4.075l1.528,0l3.566,4.075l1.528,0l2.547,3.057l1.528,0l2.547,3.057l1.528,0l2.547,3.057l1.528,0l1.528,2.038l1.528,0l1.528,2.038l1.528,0l1.528,2.038l1.528,0l2.547,3.057l3.566,1.019l2.547,3.057l1.528,0l1.528,2.038l3.566,1.019l1.528,2.038l3.566,1.019l1.528,2.038l3.566,1.019l1.528,2.038l3.566,1.019l1.528,2.038l1.528,0l0.509,1.019l1.528,0l0.509,1.019l1.528,0l0.509,1.019l1.528,0l0.509,1.019l1.528,0l0.509,1.019l1.528,0l0.509,1.019l3.566,1.019l1.528,2.038l1.528,0l0.509,1.019l1.528,0l2.547,2.038l2.547,0l0.509,1.019l1.528,0l0.509,1.019l1.528,0l0.509,1.019l1.528,0l0.509,1.019l1.528,0l0.509,1.019l1.528,0l2.547,2.038l2.547,0l0.509,1.019l1.528,0l0.509,1.019l2.547,0l0.509,1.019l1.528,0l2.547,2.038l2.547,0l2.547,2.038l2.547,0l2.547,2.038l2.547,0l0.509,1.019l2.547,0l2.547,2.038l2.547,0l0.509,1.019l2.547,0l0.509,1.019l2.547,0l0.509,1.019l2.547,0l0.509,1.019l2.547,0l0.509,1.019l2.547,0l0.509,1.019l2.547,0l0.509,1.019l3.566,0l0.509,1.019l2.547,0l0.509,1.019l2.547,0l0.509,1.019l3.566,0l0.509,1.019l3.566,0l0.509,1.019l2.547,0l0.509,1.019l4.585,0l0.509,1.019l3.566,0l0.509,1.019l3.566,0l0.509,1.019l4.585,0l0.509,1.019l3.566,0l0.509,1.019l5.604,0l0.509,1.019l9.679,1.019l0.509,1.019l6.622,0l0.509,1.019l7.641,0l0.509,1.019l8.66,0l0.509,1.019l9.679,0l0.509,1.019l21.905,0l0.509,1.019l18.848,0l0.509,-1.019l14.773,0l0.509,-1.019l11.717,0l0.509,-1.019l9.679,0l0.509,-1.019l6.622,0l0.509,-1.019l5.604,0l0.509,-1.019l5.604,0l0.509,-1.019l6.622,0l0.509,-1.019l3.566,0l0.509,-1.019l4.585,0l0.509,-1.019l3.566,0l0.509,-1.019l3.566,0l0.509,-1.019l3.566,0l0.509,-1.019l4.585,0l0.509,-1.019l2.547,0l0.509,-1.019l3.566,0l0.509,-1.019l2.547,0l0.509,-1.019l3.566,0l0.509,-1.019l2.547,0l0.509,-1.019l2.547,0l0.509,-1.019l3.566,0l2.547,-2.038l2.547,0l0.509,-1.019l2.547,0l0.509,-1.019l5.604,-1.019l2.547,-2.038l2.547,0l0.509,-1.019l5.604,-1.019l0.509,-1.019l1.528,0l2.547,-2.038l2.547,0l0.509,-1.019l1.528,0l2.547,-2.038l2.547,0l0.509,-1.019l1.528,0l0.509,-1.019l1.528,0l0.509,-1.019l1.528,0l0.509,-1.019l1.528,0l0.509,-1.019l1.528,0l2.547,-2.038l2.547,0l0.509,-1.019l1.528,0l0.509,-1.019l1.528,0l0.509,-1.019l1.528,0l0.509,-1.019l1.528,0l0.509,-1.019l1.528,0l0.509,-1.019l1.528,0l0.509,-1.019l1.528,0l0.509,-1.019l3.566,-1.019l1.528,-2.038l1.528,0l0.509,-1.019l1.528,0l0.509,-1.019l3.566,-1.019l1.528,-2.038l1.528,0l0.509,-1.019l3.566,-1.019l1.528,-2.038l1.528,0l0.509,-1.019l1.528,0l1.528,-2.038l3.566,-1.019l1.528,-2.038l1.528,0l4.585,-4.075l3.566,-1.019l1.528,-2.038l1.528,0l1.528,-2.038l1.528,0l1.528,-2.038l1.528,0l2.547,-3.057l1.528,0l1.528,-2.038l1.528,0l2.547,-3.057l1.528,0l2.547,-3.057l1.528,0l4.585,-5.094l1.528,0l3.566,-4.075l1.528,0l6.622,-7.132l1.528,0l6.622,-7.132l1.528,0l16.301,-16.301l0,-1.528l1.528,-1.528l1.528,0l1.019,-1.019l0,-1.528l8.151,-7.641l0,-1.528l6.113,-5.604l0,-1.528l4.075,-3.566l0,-1.528l3.057,-2.547l0,-1.528l3.057,-2.547l0,-1.528l4.075,-3.566l0,-1.528l4.075,-3.566l0,-1.528l2.038,-1.528l0,-1.528l2.038,-1.528l0,-1.528l3.057,-2.547l0,-1.528l4.075,-4.585l1.019,-3.566l4.075,-4.585l1.019,-3.566l2.038,-1.528l1.019,-3.566l2.038,-1.528l1.019,-3.566l2.038,-1.528l0,-1.528l1.019,-0.509l0,-1.528l1.019,-0.509l0,-1.528l1.019,-0.509l0,-1.528l1.019,-0.509l0,-1.528l1.019,-0.509l0,-1.528l1.019,-0.509l0,-1.528l1.019,-0.509l1.019,-3.566l2.038,-1.528l0,-1.528l1.019,-0.509l0,-2.547l1.019,-0.509l0,-1.528l1.019,-0.509l0,-1.528l1.019,-0.509l0,-1.528l1.019,-0.509l0,-1.528l2.038,-2.547l0,-2.547l2.038,-2.547l0,-2.547l1.019,-0.509l0,-1.528l2.038,-2.547l0,-2.547l2.038,-2.547l0,-2.547l1.019,-0.509l0,-2.547l2.038,-2.547l0,-2.547l1.019,-0.509l0,-2.547l1.019,-0.509l0,-2.547l1.019,-0.509l0,-2.547l1.019,-0.509l0,-2.547l1.019,-0.509l0,-2.547l1.019,-0.509l0,-2.547l1.019,-0.509l0,-2.547l1.019,-0.509l0,-2.547l1.019,-0.509l0,-3.566l1.019,-0.509l0,-2.547l1.019,-0.509l0,-3.566l1.019,-0.509l0,-3.566l1.019,-0.509l0,-3.566l1.019,-0.509l0,-3.566l1.019,-0.509l0,-3.566l1.019,-0.509l0,-3.566l1.019,-0.509l0,-4.585l1.019,-0.509l0,-5.604l1.019,-0.509l0,-3.566l1.019,-0.509l0,-4.585l1.019,-0.509l0,-6.622l1.019,-0.509l0,-6.622l1.019,-0.509l0,-6.622l1.019,-0.509l0,-8.66l1.019,-0.509l0,-8.66l1.019,-0.509l0,-18.848l1.019,-0.509l0,-34.131l-1.019,-0.509l0,-16.811l-1.019,-0.509l-1.019,-17.83l-1.019,-0.509l-1.019,-13.754l-1.019,-0.509l0,-5.604l-1.019,-0.509l0,-4.585l-1.019,-0.509l0,-4.585l-1.019,-0.509l-1.019,-9.679l-1.019,-0.509l-1.019,-7.641l-1.019,-0.509l0,-2.547l-1.019,-0.509l-1.019,-7.641l-1.019,-0.509l0,-2.547l-1.019,-0.509l0,-3.566l-1.019,-0.509l0,-2.547l-1.019,-0.509l0,-2.547l-1.019,-0.509l0,-3.566l-1.019,-0.509l0,-2.547l-2.038,-2.547l0,-3.566l-2.038,-2.547l0,-2.547l-1.019,-0.509l-1.019,-5.604l-1.019,-0.509l0,-1.528l-2.038,-2.547l-1.019,-5.604l-1.019,-0.509l0,-1.528l-2.038,-2.547l0,-2.547l-2.038,-2.547l0,-2.547l-1.019,-0.509l0,-1.528l-1.019,-0.509l0,-1.528l-1.019,-0.509l0,-1.528l-2.038,-2.547l0,-2.547l-1.019,-0.509l0,-1.528l-1.019,-0.509l0,-1.528l-1.019,-0.509l0,-1.528l-1.019,-0.509l0,-1.528l-1.019,-0.509l0,-1.528l-1.019,-0.509l0,-1.528l-1.019,-0.509l0,-1.528l-1.019,-0.509l0,-1.528l-1.019,-0.509l-1.019,-3.566l-2.038,-1.528l0,-1.528l-1.019,-0.509l-1.019,-3.566l-2.038,-1.528l0,-1.528l-1.019,-0.509l-1.019,-3.566l-2.038,-1.528l-1.019,-3.566l-4.075,-4.585l-1.019,-3.566l-2.038,-1.528l0,-1.528l-2.038,-1.528l0,-1.528l-2.038,-1.528l0,-1.528l-2.038,-1.528l0,-1.528l-2.038,-1.528l0,-1.528l-3.057,-2.547l0,-1.528l-3.057,-2.547l0,-1.528l-3.057,-2.547l0,-1.528l-3.057,-2.547l0,-1.528l-4.075,-3.566l0,-1.528l-6.113,-5.604l0,-1.528l-4.075,-3.566l0,-1.528l-7.132,-6.622l0,-1.528l-13.245,-12.735l0,-1.528l-1.528,0l-7.641,-8.151l-1.528,0l-9.679,-10.188l-1.528,0l-5.604,-6.113l-1.528,0l-5.604,-6.113l-1.528,0l-3.566,-4.075l-1.528,0l-2.547,-3.057l-1.528,0l-2.547,-3.057l-1.528,0l-2.547,-3.057l-1.528,0l-2.547,-3.057l-1.528,0l-1.528,-2.038l-1.528,0l-1.528,-2.038l-1.528,0l-1.528,-2.038l-1.528,0l-1.528,-2.038l-1.528,0l-1.528,-2.038l-1.528,0l-4.585,-4.075l-3.566,-1.019l-1.528,-2.038l-1.528,0l-1.528,-2.038l-1.528,0l-0.509,-1.019l-3.566,-1.019l-1.528,-2.038l-3.566,-1.019l-1.528,-2.038l-1.528,0l-0.509,-1.019l-1.528,0l-0.509,-1.019l-1.528,0l-0.509,-1.019l-3.566,-1.019l-1.528,-2.038l-1.528,0l-0.509,-1.019l-1.528,0l-0.509,-1.019l-1.528,0l-0.509,-1.019l-1.528,0l-0.509,-1.019l-1.528,0l-0.509,-1.019l-1.528,0l-2.547,-2.038l-2.547,0l-0.509,-1.019l-1.528,0l-0.509,-1.019l-1.528,0l-0.509,-1.019l-1.528,0l-2.547,-2.038l-2.547,0l-0.509,-1.019l-1.528,0l-2.547,-2.038l-2.547,0l-0.509,-1.019l-1.528,0l-0.509,-1.019l-2.547,0l-2.547,-2.038l-5.604,-1.019l-2.547,-2.038l-2.547,0l-0.509,-1.019l-2.547,0l-0.509,-1.019l-2.547,0l-0.509,-1.019l-2.547,0l-0.509,-1.019l-2.547,0l-0.509,-1.019l-2.547,0l-0.509,-1.019l-2.547,0l-0.509,-1.019l-3.566,0l-0.509,-1.019l-2.547,0l-0.509,-1.019l-3.566,0l-0.509,-1.019l-2.547,0l-0.509,-1.019l-3.566,0l-0.509,-1.019l-3.566,0l-0.509,-1.019l-3.566,0l-0.509,-1.019l-3.566,0l-0.509,-1.019l-4.585,0l-0.509,-1.019l-9.679,-1.019l-0.509,-1.019l-5.604,0l-0.509,-1.019l-5.604,0l-0.509,-1.019l-7.641,0l-0.509,-1.019l-6.622,0l-0.509,-1.019l-8.66,0l-0.509,-1.019l-10.698,0l-0.509,-1.019l-16.811,0l-0.509,-1.019l-33.112,0l-0.509,1.019l-19.867,0Zm15.283,43.3l44.319,0l0.509,1.019l12.735,0l0.509,1.019l8.66,0l0.509,1.019l7.641,0l0.509,1.019l4.585,0l0.509,1.019l7.641,0l0.509,1.019l5.604,0l0.509,1.019l9.679,1.019l0.509,1.019l3.566,0l0.509,1.019l7.641,1.019l0.509,1.019l2.547,0l0.509,1.019l3.566,0l0.509,1.019l2.547,0l0.509,1.019l3.566,0l0.509,1.019l2.547,0l0.509,1.019l5.604,1.019l2.547,2.038l2.547,0l0.509,1.019l2.547,0l0.509,1.019l5.604,1.019l2.547,2.038l2.547,0l2.547,2.038l2.547,0l2.547,2.038l2.547,0l0.509,1.019l1.528,0l0.509,1.019l1.528,0l0.509,1.019l1.528,0l0.509,1.019l1.528,0l0.509,1.019l1.528,0l2.547,2.038l2.547,0l0.509,1.019l1.528,0l0.509,1.019l3.566,1.019l1.528,2.038l1.528,0l0.509,1.019l1.528,0l0.509,1.019l1.528,0l0.509,1.019l1.528,0l0.509,1.019l1.528,0l0.509,1.019l1.528,0l0.509,1.019l3.566,1.019l1.528,2.038l1.528,0l0.509,1.019l1.528,0l1.528,2.038l1.528,0l0.509,1.019l3.566,1.019l1.528,2.038l1.528,0l1.528,2.038l1.528,0l1.528,2.038l3.566,1.019l2.547,3.057l1.528,0l1.528,2.038l1.528,0l1.528,2.038l1.528,0l2.547,3.057l1.528,0l2.547,3.057l1.528,0l1.528,2.038l1.528,0l2.547,3.057l1.528,0l3.566,4.075l1.528,0l4.585,5.094l1.528,0l3.566,4.075l1.528,0l7.641,8.151l1.528,0l23.943,23.943l0,1.528l8.151,7.641l0,1.528l4.075,3.566l0,1.528l4.075,3.566l0,1.528l3.057,2.547l0,1.528l4.075,3.566l0,1.528l2.038,1.528l0,1.528l3.057,2.547l1.019,3.566l2.038,1.528l0,1.528l2.038,1.528l0,1.528l2.038,1.528l0,1.528l4.075,4.585l0,1.528l1.019,0.509l0,1.528l2.038,1.528l1.019,3.566l2.038,1.528l0,1.528l1.019,0.509l1.019,3.566l2.038,1.528l0,1.528l1.019,0.509l0,1.528l1.019,0.509l0,1.528l1.019,0.509l0,1.528l1.019,0.509l0,1.528l1.019,0.509l0,1.528l1.019,0.509l0,1.528l1.019,0.509l0,1.528l1.019,0.509l0,1.528l1.019,0.509l0,1.528l1.019,0.509l0,1.528l2.038,2.547l0,2.547l1.019,0.509l0,1.528l1.019,0.509l0,1.528l2.038,2.547l0,2.547l2.038,2.547l0,2.547l1.019,0.509l0,1.528l2.038,2.547l1.019,5.604l2.038,2.547l0,2.547l1.019,0.509l1.019,5.604l2.038,2.547l0,2.547l1.019,0.509l0,3.566l1.019,0.509l0,2.547l1.019,0.509l0,3.566l1.019,0.509l0,2.547l1.019,0.509l0,2.547l1.019,0.509l1.019,7.641l1.019,0.509l0,2.547l1.019,0.509l0,3.566l1.019,0.509l0,4.585l1.019,0.509l0,4.585l1.019,0.509l0,3.566l1.019,0.509l0,5.604l1.019,0.509l0,4.585l1.019,0.509l0,7.641l1.019,0.509l0,6.622l1.019,0.509l0,6.622l1.019,0.509l0,12.735l1.019,0.509l0,49.413l-1.019,0.509l0,13.754l-1.019,0.509l0,8.66l-1.019,0.509l0,7.641l-1.019,0.509l0,5.604l-1.019,0.509l0,6.622l-1.019,0.509l0,4.585l-1.019,0.509l0,3.566l-1.019,0.509l0,5.604l-1.019,0.509l0,3.566l-1.019,0.509l0,3.566l-1.019,0.509l0,3.566l-1.019,0.509l0,3.566l-1.019,0.509l-1.019,7.641l-1.019,0.509l0,2.547l-1.019,0.509l0,3.566l-1.019,0.509l0,2.547l-1.019,0.509l0,2.547l-1.019,0.509l0,2.547l-1.019,0.509l0,2.547l-1.019,0.509l-1.019,5.604l-2.038,2.547l0,2.547l-1.019,0.509l0,2.547l-2.038,2.547l0,2.547l-2.038,2.547l0,2.547l-1.019,0.509l0,1.528l-1.019,0.509l0,1.528l-1.019,0.509l0,1.528l-1.019,0.509l0,1.528l-1.019,0.509l0,1.528l-1.019,0.509l0,1.528l-2.038,2.547l0,2.547l-2.038,1.528l0,1.528l-1.019,0.509l0,2.547l-2.038,1.528l0,1.528l-1.019,0.509l0,1.528l-1.019,0.509l-1.019,3.566l-2.038,1.528l0,1.528l-1.019,0.509l0,1.528l-1.019,0.509l-1.019,3.566l-2.038,1.528l-1.019,3.566l-2.038,1.528l0,1.528l-2.038,1.528l0,1.528l-2.038,1.528l-1.019,3.566l-2.038,1.528l0,1.528l-2.038,1.528l0,1.528l-3.057,2.547l0,1.528l-2.038,1.528l0,1.528l-3.057,2.547l0,1.528l-3.057,2.547l0,1.528l-5.094,4.585l0,1.528l-5.094,4.585l0,1.528l-6.113,5.604l0,1.528l-26.999,26.999l-1.528,0l-5.604,6.113l-1.528,0l-4.585,5.094l-1.528,0l-3.566,4.075l-1.528,0l-2.547,3.057l-1.528,0l-2.547,3.057l-1.528,0l-2.547,3.057l-1.528,0l-1.528,2.038l-1.528,0l-1.528,2.038l-1.528,0l-1.528,2.038l-1.528,0l-2.547,3.057l-3.566,1.019l-1.528,2.038l-3.566,1.019l-1.528,2.038l-3.566,1.019l-1.528,2.038l-1.528,0l-0.509,1.019l-1.528,0l-1.528,2.038l-3.566,1.019l-1.528,2.038l-1.528,0l-0.509,1.019l-2.547,0l-1.528,2.038l-1.528,0l-0.509,1.019l-1.528,0l-0.509,1.019l-1.528,0l-0.509,1.019l-1.528,0l-0.509,1.019l-1.528,0l-0.509,1.019l-1.528,0l-0.509,1.019l-1.528,0l-0.509,1.019l-1.528,0l-2.547,2.038l-2.547,0l-0.509,1.019l-1.528,0l-0.509,1.019l-1.528,0l-2.547,2.038l-2.547,0l-0.509,1.019l-1.528,0l-2.547,2.038l-2.547,0l-0.509,1.019l-5.604,1.019l-2.547,2.038l-2.547,0l-0.509,1.019l-2.547,0l-0.509,1.019l-2.547,0l-0.509,1.019l-2.547,0l-0.509,1.019l-2.547,0l-0.509,1.019l-2.547,0l-0.509,1.019l-2.547,0l-0.509,1.019l-2.547,0l-0.509,1.019l-3.566,0l-0.509,1.019l-2.547,0l-0.509,1.019l-3.566,0l-0.509,1.019l-2.547,0l-0.509,1.019l-5.604,0l-0.509,1.019l-2.547,0l-0.509,1.019l-9.679,1.019l-0.509,1.019l-3.566,0l-0.509,1.019l-4.585,0l-0.509,1.019l-6.622,0l-0.509,1.019l-6.622,0l-0.509,1.019l-7.641,0l-0.509,1.019l-8.66,0l-0.509,1.019l-11.717,0l-0.509,1.019l-46.357,0l-0.509,-1.019l-12.735,0l-0.509,-1.019l-7.641,0l-0.509,-1.019l-6.622,0l-0.509,-1.019l-5.604,0l-0.509,-1.019l-4.585,0l-0.509,-1.019l-4.585,0l-0.509,-1.019l-5.604,0l-0.509,-1.019l-3.566,0l-0.509,-1.019l-4.585,0l-0.509,-1.019l-2.547,0l-0.509,-1.019l-3.566,0l-0.509,-1.019l-7.641,-1.019l-0.509,-1.019l-2.547,0l-0.509,-1.019l-2.547,0l-0.509,-1.019l-2.547,0l-0.509,-1.019l-3.566,0l-2.547,-2.038l-3.566,0l-2.547,-2.038l-2.547,0l-0.509,-1.019l-2.547,0l-0.509,-1.019l-5.604,-1.019l-2.547,-2.038l-5.604,-1.019l-0.509,-1.019l-1.528,0l-2.547,-2.038l-2.547,0l-2.547,-2.038l-2.547,0l-0.509,-1.019l-1.528,0l-0.509,-1.019l-1.528,0l-0.509,-1.019l-1.528,0l-2.547,-2.038l-2.547,0l-0.509,-1.019l-1.528,0l-0.509,-1.019l-1.528,0l-0.509,-1.019l-1.528,0l-0.509,-1.019l-1.528,0l-0.509,-1.019l-1.528,0l-0.509,-1.019l-1.528,0l-0.509,-1.019l-1.528,0l-0.509,-1.019l-1.528,0l-0.509,-1.019l-1.528,0l-0.509,-1.019l-1.528,0l-0.509,-1.019l-3.566,-1.019l-1.528,-2.038l-1.528,0l-0.509,-1.019l-1.528,0l-0.509,-1.019l-3.566,-1.019l-1.528,-2.038l-1.528,0l-0.509,-1.019l-3.566,-1.019l-1.528,-2.038l-1.528,0l-1.528,-2.038l-3.566,-1.019l-1.528,-2.038l-1.528,0l-2.547,-3.057l-1.528,0l-1.528,-2.038l-1.528,0l-1.528,-2.038l-1.528,0l-1.528,-2.038l-1.528,0l-2.547,-3.057l-1.528,0l-2.547,-3.057l-1.528,0l-3.566,-4.075l-1.528,0l-1.528,-2.038l-1.528,0l-5.604,-6.113l-1.528,0l-4.585,-5.094l-1.528,0l-11.717,-12.226l-1.528,0l-4.585,-4.585l0,-1.528l-15.283,-14.773l0,-1.528l-6.113,-5.604l0,-1.528l-5.094,-4.585l0,-1.528l-4.075,-3.566l0,-1.528l-3.057,-2.547l0,-1.528l-4.075,-3.566l0,-1.528l-3.057,-2.547l0,-1.528l-2.038,-1.528l0,-1.528l-3.057,-2.547l0,-1.528l-2.038,-1.528l0,-1.528l-2.038,-1.528l0,-1.528l-2.038,-1.528l0,-1.528l-2.038,-1.528l0,-1.528l-4.075,-4.585l0,-1.528l-1.019,-0.509l-1.019,-3.566l-2.038,-1.528l-1.019,-3.566l-2.038,-1.528l0,-1.528l-1.019,-0.509l0,-2.547l-4.075,-4.585l0,-1.528l-2.038,-2.547l0,-2.547l-1.019,-0.509l0,-1.528l-1.019,-0.509l0,-1.528l-1.019,-0.509l0,-1.528l-1.019,-0.509l0,-1.528l-1.019,-0.509l0,-1.528l-2.038,-2.547l0,-2.547l-1.019,-0.509l0,-1.528l-2.038,-2.547l0,-2.547l-2.038,-2.547l-1.019,-5.604l-2.038,-2.547l0,-2.547l-2.038,-2.547l0,-2.547l-1.019,-0.509l-1.019,-5.604l-2.038,-2.547l0,-2.547l-1.019,-0.509l0,-2.547l-1.019,-0.509l0,-2.547l-1.019,-0.509l0,-3.566l-1.019,-0.509l0,-3.566l-1.019,-0.509l0,-3.566l-1.019,-0.509l0,-3.566l-1.019,-0.509l0,-3.566l-1.019,-0.509l0,-4.585l-1.019,-0.509l0,-3.566l-1.019,-0.509l0,-4.585l-1.019,-0.509l0,-5.604l-1.019,-0.509l0,-4.585l-1.019,-0.509l0,-6.622l-1.019,-0.509l0,-5.604l-1.019,-0.509l0,-6.622l-1.019,-0.509l0,-9.679l-1.019,-0.509l1.019,-1.528l-1.019,-0.509l0,-23.943l-1.019,-0.509l0,-1.528l1.019,-1.019l-1.019,-0.509l0,-1.528l1.019,-0.509l0,-21.905l1.019,-0.509l0,-10.698l1.019,-0.509l0,-7.641l1.019,-0.509l0,-5.604l1.019,-0.509l0,-5.604l1.019,-0.509l0,-5.604l1.019,-0.509l0,-5.604l1.019,-0.509l0,-3.566l1.019,-0.509l1.019,-9.679l1.019,-0.509l0,-3.566l1.019,-0.509l0,-2.547l1.019,-0.509l0,-3.566l1.019,-0.509l0,-2.547l1.019,-0.509l0,-3.566l1.019,-0.509l0,-2.547l1.019,-0.509l0,-3.566l2.038,-2.547l0,-3.566l1.019,-0.509l0,-2.547l2.038,-2.547l0,-3.566l2.038,-2.547l0,-2.547l2.038,-2.547l0,-2.547l1.019,-0.509l0,-2.547l1.019,-0.509l0,-1.528l2.038,-2.547l0,-2.547l1.019,-0.509l0,-1.528l2.038,-2.547l0,-2.547l1.019,-0.509l0,-1.528l1.019,-0.509l0,-1.528l1.019,-0.509l0,-1.528l1.019,-0.509l0,-1.528l1.019,-0.509l0,-1.528l1.019,-0.509l0,-1.528l1.019,-0.509l0,-1.528l1.019,-0.509l0,-1.528l1.019,-0.509l0,-1.528l1.019,-0.509l0,-1.528l1.019,-0.509l0,-1.528l1.019,-0.509l1.019,-3.566l2.038,-1.528l0,-1.528l1.019,-0.509l0,-1.528l1.019,-0.509l1.019,-3.566l2.038,-1.528l0,-1.528l1.019,-0.509l0,-1.528l2.038,-1.528l1.019,-3.566l2.038,-1.528l0,-1.528l2.038,-1.528l0,-1.528l2.038,-1.528l1.019,-3.566l3.057,-2.547l0,-1.528l2.038,-1.528l0,-1.528l2.038,-1.528l0,-1.528l3.057,-2.547l0,-1.528l4.075,-3.566l0,-1.528l3.057,-2.547l0,-1.528l6.113,-5.604l0,-1.528l3.057,-2.547l0,-1.528l6.113,-5.604l0,-1.528l31.074,-31.074l1.528,0l7.641,-8.151l1.528,0l3.566,-4.075l1.528,0l3.566,-4.075l1.528,0l2.547,-3.057l1.528,0l3.566,-4.075l1.528,0l1.528,-2.038l1.528,0l1.528,-2.038l1.528,0l2.547,-3.057l3.566,-1.019l1.528,-2.038l1.528,0l4.585,-4.075l1.528,0l0.509,-1.019l1.528,0l1.528,-2.038l3.566,-1.019l4.585,-4.075l1.528,0l0.509,-1.019l1.528,0l0.509,-1.019l3.566,-1.019l1.528,-2.038l2.547,0l0.509,-1.019l1.528,0l1.528,-2.038l1.528,0l0.509,-1.019l1.528,0l0.509,-1.019l1.528,0l0.509,-1.019l1.528,0l0.509,-1.019l1.528,0l2.547,-2.038l2.547,0l0.509,-1.019l1.528,0l0.509,-1.019l1.528,0l0.509,-1.019l1.528,0l2.547,-2.038l2.547,0l0.509,-1.019l1.528,0l2.547,-2.038l2.547,0l2.547,-2.038l2.547,0l0.509,-1.019l1.528,0l2.547,-2.038l2.547,0l0.509,-1.019l2.547,0l0.509,-1.019l2.547,0l0.509,-1.019l2.547,0l2.547,-2.038l3.566,0l0.509,-1.019l2.547,0l0.509,-1.019l2.547,0l0.509,-1.019l3.566,0l0.509,-1.019l2.547,0l0.509,-1.019l7.641,-1.019l0.509,-1.019l2.547,0l0.509,-1.019l3.566,0l0.509,-1.019l4.585,0l0.509,-1.019l3.566,0l0.509,-1.019l4.585,0l0.509,-1.019l4.585,0l0.509,-1.019l6.622,0l0.509,-1.019l6.622,0l0.509,-1.019l7.641,0l0.509,-1.019l8.66,0l0.509,-1.019l10.698,0l0.509,-1.019Z" style="fill:#fff;fill-rule:nonzero;stroke:#fff;stroke-width:1.02px;"/></g></svg>