<?xml version="1.0" encoding="UTF-8" standalone="no"?><!DOCTYPE svg PUBLIC "-//W3C//DTD SVG 1.1//EN" "http://www.w3.org/Graphics/SVG/1.1/DTD/svg11.dtd"><svg width="100%" height="100%" viewBox="0 0 695 676" version="1.1" xmlns="http://www.w3.org/2000/svg" xmlns:xlink="http://www.w3.org/1999/xlink" xml:space="preserve" xmlns:serif="http://www.serif.com/" style="fill-rule:evenodd;clip-rule:evenodd;stroke-linejoin:round;"><rect id="Artboard1" x="0" y="0" width="695" height="676" style="fill:none;"/><g id="color_1"><path d="M315,6l-0.5,1l-7.5,0l-0.5,1l-7.5,0l-0.5,1l-6.5,0l-0.5,1l-4.5,0l-0.5,1l-4.5,0l-0.5,1l-4.5,0l-0.5,1l-4.5,0l-0.5,1l-3.5,0l-0.5,1l-4.5,0l-0.5,1l-7.5,1l-0.5,1l-2.5,0l-0.5,1l-2.5,0l-0.5,1l-3.5,0l-0.5,1l-2.5,0l-0.5,1l-2.5,0l-0.5,1l-2.5,0l-0.5,1l-5.5,1l-2.5,2l-2.5,0l-0.5,1l-5.5,1l-2.5,2l-2.5,0l-2.5,2l-2.5,0l-0.5,1l-1.5,0l-0.5,1l-1.5,0l-0.5,1l-1.5,0l-2.5,2l-2.5,0l-0.5,1l-1.5,0l-0.5,1l-1.5,0l-0.5,1l-1.5,0l-0.5,1l-3.5,1l-1.5,2l-1.5,0l-0.5,1l-1.5,0l-0.5,1l-1.5,0l-0.5,1l-1.5,0l-0.5,1l-1.5,0l-0.5,1l-3.5,1l-1.5,2l-3.5,1l-1.5,2l-1.5,0l-4.5,4l-3.5,1l-1.5,2l-1.5,0l-1.5,2l-1.5,0l-2.5,3l-1.5,0l-1.5,2l-1.5,0l-2.5,3l-1.5,0l-3.5,4l-1.5,0l-2.5,3l-1.5,0l-2.5,3l-1.5,0l-4.5,5l-1.5,0l-7.5,8l-1.5,0l-21,21l0,1.5l-8,7.5l0,1.5l-5,4.5l0,1.5l-4,3.5l0,1.5l-3,2.5l0,1.5l-3,2.5l0,1.5l-3,2.5l0,1.5l-2,1.5l0,1.5l-2,1.5l0,1.5l-2,1.5l0,1.5l-4,4.5l-1,3.5l-4,4.5l-1,3.5l-2,1.5l0,1.5l-1,0.5l-1,3.5l-2,1.5l0,1.5l-1,0.5l0,1.5l-1,0.5l0,1.5l-1,0.5l0,1.5l-1,0.5l0,1.5l-1,0.5l0,1.5l-1,0.5l0,1.5l-1,0.5l0,1.5l-1,0.5l0,1.5l-2,2.5l0,2.5l-1,0.5l0,1.5l-2,2.5l0,2.5l-2,2.5l0,2.5l-1,0.5l0,1.5l-1,0.5l0,2.5l-2,2.5l0,2.5l-1,0.5l-1,5.5l-2,2.5l0,3.5l-1,0.5l0,2.5l-1,0.5l0,2.5l-1,0.5l0,2.5l-1,0.5l-1,7.5l-1,0.5l0,2.5l-1,0.5l0,3.5l-1,0.5l0,4.5l-1,0.5l0,4.5l-1,0.5l-1,9.5l-1,0.5l0,5.5l-1,0.5l0,6.5l-1,0.5l0,9.5l-1,0.5l0,11.5l-1,0.5l0,37.5l1,0.5l0,12.5l1,0.5l0,9.5l1,0.5l0,6.5l1,0.5l0,6.5l1,0.5l0,5.5l1,0.5l0,3.5l1,0.5l0,4.5l1,0.5l0,4.5l1,0.5l0,3.5l1,0.5l1,7.5l1,0.5l0,2.5l1,0.5l0,2.5l1,0.5l0,3.5l1,0.5l0,2.5l1,0.5l0,2.5l1,0.5l1,5.5l2,2.5l1,5.5l2,2.5l0,2.5l1,0.5l0,1.5l1,0.5l0,2.5l2,2.5l0,2.5l1,0.5l0,1.5l2,2.5l0,2.5l1,0.5l0,1.5l1,0.5l0,1.5l1,0.5l0,1.5l1,0.5l0,1.5l1,0.5l0,1.5l1,0.5l0,1.5l1,0.5l0,1.5l1,0.5l0,1.5l1,0.5l1,3.5l2,1.5l0,1.5l1,0.5l0,1.5l2,1.5l0,1.5l1,0.5l1,3.5l2,1.5l0,1.5l2,1.5l0,1.5l2,1.5l0,1.5l2,1.5l0,1.5l2,1.5l0,1.5l3,2.5l0,1.5l2,1.5l0,1.5l4,3.5l0,1.5l3,2.5l0,1.5l4,3.5l0,1.5l5,4.5l0,1.5l8,7.5l0,1.5l18,18l1.5,0l8.5,9l1.5,0l4.5,5l1.5,0l3.5,4l1.5,0l2.5,3l1.5,0l2.5,3l1.5,0l2.5,3l1.5,0l2.5,3l1.5,0l1.5,2l1.5,0l1.5,2l1.5,0l1.5,2l1.5,0l4.5,4l3.5,1l1.5,2l3.5,1l1.5,2l1.5,0l0.5,1l3.5,1l1.5,2l1.5,0l0.5,1l1.5,0l0.5,1l1.5,0l0.5,1l1.5,0l0.5,1l1.5,0l0.5,1l1.5,0l0.5,1l1.5,0l0.5,1l1.5,0l0.5,1l1.5,0l0.5,1l1.5,0l2.5,2l2.5,0l0.5,1l1.5,0l2.5,2l2.5,0l2.5,2l2.5,0l0.5,1l1.5,0l0.5,1l2.5,0l2.5,2l5.5,1l2.5,2l2.5,0l0.5,1l2.5,0l0.5,1l2.5,0l0.5,1l2.5,0l0.5,1l3.5,0l0.5,1l2.5,0l0.5,1l3.5,0l0.5,1l2.5,0l0.5,1l3.5,0l0.5,1l3.5,0l0.5,1l3.5,0l0.5,1l4.5,0l0.5,1l3.5,0l0.5,1l5.5,0l0.5,1l5.5,0l0.5,1l5.5,0l0.5,1l7.5,0l0.5,1l6.5,0l0.5,1l10.5,0l0.5,1l35.5,1l0.5,-1l19.5,0l0.5,-1l10.5,0l0.5,-1l13.5,-1l0.5,-1l5.5,0l0.5,-1l5.5,0l0.5,-1l4.5,0l0.5,-1l9.5,-1l0.5,-1l3.5,0l0.5,-1l7.5,-1l0.5,-1l2.5,0l0.5,-1l3.5,0l0.5,-1l2.5,0l0.5,-1l3.5,0l0.5,-1l2.5,0l0.5,-1l2.5,0l0.5,-1l5.5,-1l2.5,-2l2.5,0l0.5,-1l5.5,-1l0.5,-1l1.5,0l0.5,-1l2.5,0l2.5,-2l2.5,0l0.5,-1l1.5,0l0.5,-1l1.5,0l2.5,-2l2.5,0l0.5,-1l1.5,0l0.5,-1l1.5,0l0.5,-1l1.5,0l0.5,-1l1.5,0l0.5,-1l1.5,0l0.5,-1l1.5,0l0.5,-1l1.5,0l0.5,-1l1.5,0l0.5,-1l1.5,0l0.5,-1l1.5,0l0.5,-1l3.5,-1l1.5,-2l1.5,0l0.5,-1l3.5,-1l1.5,-2l1.5,0l0.5,-1l1.5,0l1.5,-2l3.5,-1l1.5,-2l1.5,0l1.5,-2l1.5,0l1.5,-2l1.5,0l1.5,-2l1.5,0l1.5,-2l1.5,0l1.5,-2l1.5,0l2.5,-3l1.5,0l2.5,-3l1.5,0l2.5,-3l1.5,0l3.5,-4l1.5,0l4.5,-5l1.5,0l7.5,-8l1.5,0l19,-19l0,-1.5l10,-9.5l0,-1.5l5,-4.5l0,-1.5l3,-2.5l0,-1.5l4,-3.5l0,-1.5l3,-2.5l0,-1.5l2,-1.5l0,-1.5l3,-2.5l0,-1.5l4,-4.5l1,-3.5l2,-1.5l0,-1.5l4,-4.5l0,-1.5l1,-0.5l1,-3.5l2,-1.5l0,-1.5l1,-0.5l0,-1.5l1,-0.5l1,-3.5l2,-1.5l0,-1.5l1,-0.5l0,-1.5l1,-0.5l0,-1.5l1,-0.5l0,-1.5l1,-0.5l0,-1.5l2,-2.5l0,-2.5l1,-0.5l0,-1.5l1,-0.5l0,-1.5l2,-2.5l0,-2.5l1,-0.5l0,-1.5l2,-2.5l0,-2.5l2,-2.5l0,-2.5l1,-0.5l0,-2.5l1,-0.5l0,-2.5l1,-0.5l0,-2.5l1,-0.5l0,-2.5l1,-0.5l0,-2.5l1,-0.5l0,-2.5l1,-0.5l0,-2.5l1,-0.5l0,-3.5l1,-0.5l0,-2.5l1,-0.5l0,-3.5l1,-0.5l0,-3.5l1,-0.5l0,-3.5l1,-0.5l0,-3.5l1,-0.5l0,-4.5l1,-0.5l0,-4.5l1,-0.5l0,-5.5l1,-0.5l0,-5.5l1,-0.5l0,-6.5l1,-0.5l0,-7.5l1,-0.5l0,-12.5l1,-0.5l0,-43.5l-1,-0.5l0,-11.5l-1,-0.5l0,-6.5l-1,-0.5l0,-6.5l-1,-0.5l0,-6.5l-1,-0.5l-1,-9.5l-1,-0.5l0,-3.5l-1,-0.5l0,-4.5l-1,-0.5l0,-3.5l-1,-0.5l-1,-7.5l-1,-0.5l0,-2.5l-1,-0.5l0,-3.5l-1,-0.5l0,-2.5l-1,-0.5l0,-2.5l-1,-0.5l0,-2.5l-1,-0.5l0,-3.5l-2,-2.5l-1,-5.5l-2,-2.5l-1,-5.5l-1,-0.5l0,-1.5l-1,-0.5l0,-2.5l-1,-0.5l0,-1.5l-2,-2.5l0,-2.5l-1,-0.5l0,-1.5l-1,-0.5l0,-1.5l-1,-0.5l0,-1.5l-1,-0.5l0,-1.5l-1,-0.5l0,-1.5l-1,-0.5l0,-1.5l-1,-0.5l0,-1.5l-1,-0.5l0,-1.5l-1,-0.5l0,-1.5l-1,-0.5l0,-1.5l-1,-0.5l0,-1.5l-1,-0.5l0,-1.5l-1,-0.5l-1,-3.5l-2,-1.5l0,-1.5l-1,-0.5l-1,-3.5l-2,-1.5l-1,-3.5l-2,-1.5l0,-1.5l-2,-1.5l0,-1.5l-2,-1.5l0,-1.5l-2,-1.5l0,-1.5l-2,-1.5l0,-1.5l-2,-1.5l0,-1.5l-3,-2.5l0,-1.5l-3,-2.5l0,-1.5l-3,-2.5l0,-1.5l-5,-4.5l0,-1.5l-5,-4.5l0,-1.5l-8,-7.5l0,-1.5l-17,-17l-1.5,0l-7.5,-8l-1.5,0l-4.5,-5l-1.5,0l-3.5,-4l-1.5,0l-2.5,-3l-1.5,0l-2.5,-3l-1.5,0l-2.5,-3l-1.5,0l-2.5,-3l-1.5,0l-1.5,-2l-1.5,0l-1.5,-2l-1.5,0l-4.5,-4l-3.5,-1l-4.5,-4l-1.5,0l-0.5,-1l-3.5,-1l-1.5,-2l-3.5,-1l-1.5,-2l-1.5,0l-0.5,-1l-1.5,0l-0.5,-1l-1.5,0l-0.5,-1l-1.5,0l-0.5,-1l-1.5,0l-0.5,-1l-1.5,0l-0.5,-1l-1.5,0l-0.5,-1l-1.5,0l-0.5,-1l-1.5,0l-0.5,-1l-1.5,0l-0.5,-1l-1.5,0l-0.5,-1l-1.5,0l-0.5,-1l-1.5,0l-2.5,-2l-2.5,0l-0.5,-1l-1.5,0l-2.5,-2l-2.5,0l-2.5,-2l-2.5,0l-0.5,-1l-1.5,0l-0.5,-1l-2.5,0l-2.5,-2l-2.5,0l-0.5,-1l-2.5,0l-0.5,-1l-2.5,0l-0.5,-1l-2.5,0l-0.5,-1l-2.5,0l-0.5,-1l-2.5,0l-0.5,-1l-2.5,0l-0.5,-1l-3.5,0l-0.5,-1l-3.5,0l-0.5,-1l-2.5,0l-0.5,-1l-3.5,0l-0.5,-1l-3.5,0l-0.5,-1l-4.5,0l-0.5,-1l-3.5,0l-0.5,-1l-4.5,0l-0.5,-1l-5.5,0l-0.5,-1l-4.5,0l-0.5,-1l-7.5,0l-0.5,-1l-7.5,0l-0.5,-1l-8.5,0l-0.5,-1l-14.5,0l-0.5,-1l-30.5,0l-0.5,1l-1,-1l-1.5,0l-0.5,1l-14.5,0Zm9,16.5l47.5,0l0.5,1l10.5,0l0.5,1l7.5,0l0.5,1l7.5,0l0.5,1l6.5,0l0.5,1l4.5,0l0.5,1l9.5,1l0.5,1l3.5,0l0.5,1l4.5,0l0.5,1l2.5,0l0.5,1l7.5,1l0.5,1l2.5,0l0.5,1l3.5,0l0.5,1l2.5,0l2.5,2l3.5,0l2.5,2l5.5,1l2.5,2l2.5,0l2.5,2l2.5,0l2.5,2l2.5,0l0.5,1l1.5,0l0.5,1l1.5,0l2.5,2l2.5,0l0.5,1l1.5,0l0.5,1l1.5,0l0.5,1l1.5,0l0.5,1l1.5,0l0.5,1l1.5,0l0.5,1l1.5,0l0.5,1l3.5,1l1.5,2l1.5,0l0.5,1l3.5,1l1.5,2l1.5,0l0.5,1l3.5,1l1.5,2l3.5,1l1.5,2l1.5,0l1.5,2l1.5,0l1.5,2l1.5,0l1.5,2l1.5,0l1.5,2l1.5,0l1.5,2l1.5,0l2.5,3l1.5,0l1.5,2l1.5,0l2.5,3l1.5,0l3.5,4l1.5,0l5.5,6l1.5,0l6.5,7l1.5,0l22.5,22.5l0,1.5l7,6.5l0,1.5l4,3.5l0,1.5l4,3.5l0,1.5l3,2.5l0,1.5l3,2.5l0,1.5l2,1.5l0,1.5l2,1.5l0,1.5l2,1.5l0,1.5l2,1.5l0,1.5l2,1.5l0,1.5l4,4.5l0,1.5l1,0.5l1,3.5l2,1.5l0,1.5l1,0.5l0,1.5l1,0.5l0,1.5l1,0.5l1,3.5l2,1.5l0,1.5l1,0.5l0,1.5l2,2.5l0,2.5l1,0.5l0,1.5l1,0.5l0,1.5l1,0.5l0,1.5l1,0.5l0,1.5l2,2.5l0,2.5l1,0.5l0,1.5l2,2.5l1,5.5l2,2.5l0,2.5l1,0.5l0,2.5l1,0.5l0,2.5l1,0.5l0,2.5l1,0.5l0,2.5l1,0.5l0,2.5l1,0.5l0,2.5l1,0.5l0,3.5l1,0.5l0,2.5l1,0.5l0,3.5l1,0.5l0,3.5l1,0.5l0,3.5l1,0.5l0,3.5l1,0.5l0,3.5l1,0.5l0,4.5l1,0.5l0,4.5l1,0.5l0,5.5l1,0.5l0,6.5l1,0.5l0,8.5l1,0.5l0,13.5l1,0.5l0,34.5l-1,0.5l0,13.5l-1,0.5l0,6.5l-1,0.5l0,6.5l-1,0.5l-1,11.5l-1,0.5l-1,9.5l-1,0.5l0,3.5l-1,0.5l-1,7.5l-1,0.5l0,2.5l-1,0.5l0,3.5l-1,0.5l0,2.5l-1,0.5l0,2.5l-1,0.5l0,2.5l-1,0.5l0,2.5l-1,0.5l0,2.5l-1,0.5l-1,5.5l-2,2.5l0,2.5l-1,0.5l0,1.5l-1,0.5l0,2.5l-2,2.5l0,2.5l-1,0.5l0,1.5l-1,0.5l0,1.5l-1,0.5l0,1.5l-1,0.5l0,1.5l-2,2.5l0,2.5l-1,0.5l0,1.5l-1,0.5l0,1.5l-1,0.5l0,1.5l-1,0.5l-1,3.5l-2,1.5l0,1.5l-1,0.5l-1,3.5l-2,1.5l0,1.5l-1,0.5l-1,3.5l-2,1.5l0,1.5l-4,4.5l-1,3.5l-3,2.5l0,1.5l-2,1.5l0,1.5l-2,1.5l0,1.5l-3,2.5l0,1.5l-3,2.5l0,1.5l-4,3.5l0,1.5l-4,3.5l0,1.5l-8,7.5l0,1.5l-18.5,18.5l-1.5,0l-7.5,8l-1.5,0l-4.5,5l-1.5,0l-3.5,4l-1.5,0l-2.5,3l-1.5,0l-2.5,3l-1.5,0l-2.5,3l-1.5,0l-1.5,2l-1.5,0l-1.5,2l-1.5,0l-1.5,2l-1.5,0l-1.5,2l-1.5,0l-4.5,4l-3.5,1l-1.5,2l-1.5,0l-0.5,1l-1.5,0l-1.5,2l-3.5,1l-1.5,2l-1.5,0l-0.5,1l-1.5,0l-0.5,1l-1.5,0l-0.5,1l-1.5,0l-0.5,1l-1.5,0l-0.5,1l-1.5,0l-0.5,1l-1.5,0l-0.5,1l-1.5,0l-0.5,1l-1.5,0l-2.5,2l-2.5,0l-0.5,1l-1.5,0l-0.5,1l-1.5,0l-2.5,2l-2.5,0l-0.5,1l-1.5,0l-2.5,2l-2.5,0l-2.5,2l-5.5,1l-2.5,2l-2.5,0l-0.5,1l-2.5,0l-0.5,1l-2.5,0l-0.5,1l-2.5,0l-0.5,1l-2.5,0l-0.5,1l-3.5,0l-0.5,1l-2.5,0l-0.5,1l-3.5,0l-0.5,1l-2.5,0l-0.5,1l-3.5,0l-0.5,1l-4.5,0l-0.5,1l-3.5,0l-0.5,1l-3.5,0l-0.5,1l-5.5,0l-0.5,1l-4.5,0l-0.5,1l-5.5,0l-0.5,1l-6.5,0l-0.5,1l-7.5,0l-0.5,1l-9.5,0l-0.5,1l-21.5,0l-0.5,1l-12.5,0l-0.5,-1l-19.5,0l-0.5,-1l-10.5,0l-0.5,-1l-7.5,0l-0.5,-1l-5.5,0l-0.5,-1l-5.5,0l-0.5,-1l-4.5,0l-0.5,-1l-9.5,-1l-0.5,-1l-3.5,0l-0.5,-1l-3.5,0l-0.5,-1l-7.5,-1l-0.5,-1l-2.5,0l-0.5,-1l-2.5,0l-0.5,-1l-3.5,0l-0.5,-1l-2.5,0l-0.5,-1l-2.5,0l-0.5,-1l-5.5,-1l-2.5,-2l-5.5,-1l-2.5,-2l-5.5,-1l-0.5,-1l-1.5,0l-2.5,-2l-2.5,0l-0.5,-1l-1.5,0l-0.5,-1l-1.5,0l-2.5,-2l-2.5,0l-0.5,-1l-1.5,0l-0.5,-1l-1.5,0l-0.5,-1l-1.5,0l-0.5,-1l-1.5,0l-0.5,-1l-1.5,0l-0.5,-1l-3.5,-1l-1.5,-2l-1.5,0l-0.5,-1l-1.5,0l-0.5,-1l-3.5,-1l-1.5,-2l-1.5,0l-0.5,-1l-1.5,0l-1.5,-2l-3.5,-1l-4.5,-4l-3.5,-1l-1.5,-2l-1.5,0l-1.5,-2l-1.5,0l-2.5,-3l-1.5,0l-1.5,-2l-1.5,0l-2.5,-3l-1.5,0l-3.5,-4l-1.5,0l-2.5,-3l-1.5,0l-5.5,-6l-1.5,0l-4.5,-5l-1.5,0l-25.5,-25.5l0,-1.5l-5,-4.5l0,-1.5l-6,-5.5l0,-1.5l-3,-2.5l0,-1.5l-3,-2.5l0,-1.5l-3,-2.5l0,-1.5l-3,-2.5l0,-1.5l-2,-1.5l0,-1.5l-2,-1.5l0,-1.5l-2,-1.5l0,-1.5l-4,-4.5l-1,-3.5l-2,-1.5l0,-1.5l-1,-0.5l0,-1.5l-1,-0.5l-1,-3.5l-2,-1.5l0,-1.5l-1,-0.5l0,-1.5l-1,-0.5l0,-1.5l-1,-0.5l0,-1.5l-1,-0.5l0,-1.5l-1,-0.5l0,-1.5l-1,-0.5l0,-1.5l-1,-0.5l0,-1.5l-1,-0.5l0,-1.5l-2,-2.5l0,-2.5l-1,-0.5l0,-1.5l-2,-2.5l0,-2.5l-2,-2.5l-1,-5.5l-2,-2.5l0,-2.5l-1,-0.5l0,-2.5l-1,-0.5l0,-2.5l-1,-0.5l0,-2.5l-1,-0.5l0,-2.5l-1,-0.5l0,-2.5l-1,-0.5l0,-3.5l-1,-0.5l0,-2.5l-1,-0.5l0,-3.5l-1,-0.5l0,-3.5l-1,-0.5l0,-3.5l-1,-0.5l0,-3.5l-1,-0.5l0,-3.5l-1,-0.5l-1,-9.5l-1,-0.5l0,-5.5l-1,-0.5l0,-7.5l-1,-0.5l0,-9.5l-1,-0.5l0,-12.5l-1,-0.5l0,-29.5l1,-0.5l0,-13.5l1,-0.5l0,-9.5l1,-0.5l0,-6.5l1,-0.5l0,-5.5l1,-0.5l0,-4.5l1,-0.5l1,-9.5l1,-0.5l0,-3.5l1,-0.5l0,-3.5l1,-0.5l0,-3.5l1,-0.5l1,-7.5l1,-0.5l0,-2.5l1,-0.5l0,-2.5l1,-0.5l0,-2.5l1,-0.5l0,-3.5l1,-0.5l0,-2.5l2,-2.5l0,-2.5l1,-0.5l0,-2.5l2,-2.5l0,-2.5l2,-2.5l0,-2.5l1,-0.5l0,-1.5l2,-2.5l0,-2.5l1,-0.5l0,-1.5l1,-0.5l0,-1.5l1,-0.5l0,-1.5l1,-0.5l0,-1.5l1,-0.5l0,-1.5l1,-0.5l0,-1.5l1,-0.5l0,-1.5l1,-0.5l0,-1.5l1,-0.5l0,-1.5l1,-0.5l1,-3.5l2,-1.5l0,-1.5l1,-0.5l0,-1.5l1,-0.5l1,-3.5l4,-4.5l1,-3.5l2,-1.5l0,-1.5l2,-1.5l0,-1.5l2,-1.5l0,-1.5l2,-1.5l0,-1.5l3,-2.5l0,-1.5l2,-1.5l0,-1.5l4,-3.5l0,-1.5l3,-2.5l0,-1.5l4,-3.5l0,-1.5l7,-6.5l0,-1.5l9,-8.5l0,-1.5l5.5,-5.5l1.5,0l14.5,-15l1.5,0l4.5,-5l1.5,0l3.5,-4l1.5,0l3.5,-4l1.5,0l2.5,-3l1.5,0l1.5,-2l1.5,0l2.5,-3l1.5,0l1.5,-2l1.5,0l1.5,-2l1.5,0l4.5,-4l3.5,-1l4.5,-4l1.5,0l0.5,-1l1.5,0l0.5,-1l3.5,-1l1.5,-2l3.5,-1l1.5,-2l1.5,0l0.5,-1l1.5,0l0.5,-1l1.5,0l0.5,-1l1.5,0l0.5,-1l1.5,0l0.5,-1l1.5,0l0.5,-1l1.5,0l0.5,-1l1.5,0l2.5,-2l2.5,0l0.5,-1l1.5,0l2.5,-2l2.5,0l2.5,-2l2.5,0l2.5,-2l2.5,0l2.5,-2l2.5,0l0.5,-1l5.5,-1l2.5,-2l2.5,0l0.5,-1l2.5,0l0.5,-1l3.5,0l0.5,-1l2.5,0l0.5,-1l3.5,0l0.5,-1l3.5,0l0.5,-1l3.5,0l0.5,-1l3.5,0l0.5,-1l3.5,0l0.5,-1l4.5,0l0.5,-1l9.5,-1l0.5,-1l6.5,0l0.5,-1l6.5,0l0.5,-1l8.5,0l0.5,-1l10.5,0l0.5,-1Z" style="fill:#fff;fill-rule:nonzero;stroke:#fff;stroke-width:1px;"/><path d="M218,559l0,1.5l2,1.5l0,1.5l3,3l1.5,0l2.5,3l1.5,0l0.5,1l2.5,0l0.5,1l2.5,0l0.5,1l3.5,0l0.5,1l14.5,0l0.5,-1l3.5,0l0.5,-1l2.5,0l0.5,-1l3.5,-1l1.5,-2l1.5,0l5,-5l0,-1.5l1,-0.5l-51.5,-0.5l-0.5,-1l-3.5,0Zm-31,-88l0,8.5l-2,0.5l-2,2l0,1.5l-1,0.5l0,3.5l1,0.5l0,1.5l1,1l1.5,0l0.5,1l3.5,0l1.5,5l-1,0.5l-0.5,2l-1.5,0l-0.5,1l-2.5,0l-2,2l0,1.5l-1,0.5l0,3.5l1,0.5l0,1.5l1,1l6,1.5l0,6.5l-2,0.5l-0.5,1l-2.5,0l-2,2l0,1.5l-1,0.5l0,3.5l3,4l2.5,0l0.5,1l2,0.5l0,2.5l1,0.5l0,3.5l1,0.5l0,1.5l1,1l1.5,0l2.5,3l1.5,0l4.5,4l1.5,0l0.5,1l1.5,0l0.5,1l1.5,0l2.5,2l69.5,0l0.5,-1l2.5,0l0.5,-1l1.5,0l1.5,-2l3.5,-1l4.5,-4l1.5,0l4,-4l0,-2.5l1,-0.5l0,-4.5l1.5,-1.5l2.5,0l0.5,-1l1.5,0l1,-1l0,-1.5l1,-0.5l0,-4.5l-3,-3l-5,-1.5l0,-6.5l6,-1.5l1,-1l0,-1.5l1,-0.5l0,-4.5l-1,-0.5l0,-1.5l-1.5,0l-2.5,-2l-3,-0.5l0,-6.5l4,-0.5l4,-3l0,-5.5l-3,-3l-2,-0.5l0,-8.5l-117.5,0Zm15,-361l-0.5,1l-5.5,1l-2.5,2l-2.5,0l-2.5,2l-2.5,0l-0.5,1l-1.5,0l-0.5,1l-1.5,0l-0.5,1l-1.5,0l-0.5,1l-1.5,0l-0.5,1l-1.5,0l-0.5,1l-1.5,0l-0.5,1l-3.5,1l-1.5,2l-3.5,1l-1.5,2l-1.5,0l-1.5,2l-1.5,0l-2.5,3l-1.5,0l-3.5,4l-1.5,0l-4.5,5l-1.5,0l-10,10l0,1.5l-6,5.5l0,1.5l-3,2.5l0,1.5l-3,2.5l0,1.5l-4,4.5l-1,3.5l-2,1.5l0,1.5l-1,0.5l0,1.5l-1,0.5l0,1.5l-1,0.5l0,1.5l-1,0.5l0,1.5l-1,0.5l0,1.5l-2,2.5l0,2.5l-2,2.5l0,2.5l-1,0.5l0,2.5l-1,0.5l0,2.5l-1,0.5l0,2.5l-1,0.5l0,2.5l-1,0.5l0,3.5l-1,0.5l0,4.5l-1,0.5l0,4.5l-1,0.5l0,6.5l-1,0.5l0,10.5l-1,0.5l0,13.5l1,0.5l0,11.5l1,0.5l0,5.5l1,0.5l0,4.5l1,0.5l0,4.5l1,0.5l0,3.5l1,0.5l0,2.5l1,0.5l0,2.5l1,0.5l0,2.5l1,0.5l1,5.5l1,0.5l0,1.5l1,0.5l0,1.5l2,2.5l0,2.5l1,0.5l1,3.5l2,1.5l0,1.5l1,0.5l1,3.5l2,1.5l0,1.5l2,1.5l0,1.5l2,1.5l0,1.5l3,2.5l0,1.5l2,1.5l0,1.5l4,3.5l0,1.5l4,3.5l0,1.5l4,3.5l0,1.5l3,2.5l0,1.5l3,2.5l0,1.5l3,2.5l0,1.5l2,1.5l0,1.5l2,1.5l0,1.5l4,4.5l0,1.5l1,0.5l0,1.5l1,0.5l0,1.5l1,0.5l0,1.5l2,2.5l0,2.5l2,2.5l0,2.5l1,0.5l0,2.5l1,0.5l0,2.5l1,0.5l1,7.5l1,0.5l0,5.5l1,0.5l0,5.5l1,0.5l0,9.5l1,0.5l0,10.5l1,0.5l0,4.5l2,2.5l0,2.5l2,1.5l0,1.5l4,4l1.5,0l1.5,2l1.5,0l0.5,1l121.5,0l0.5,-1l3.5,-1l6,-6l0,-1.5l1,-0.5l0,-1.5l2,-2.5l0,-3.5l1,-0.5l0,-7.5l1,-0.5l0,-11.5l1,-0.5l0,-7.5l1,-0.5l1,-9.5l1,-0.5l0,-3.5l1,-0.5l0,-2.5l1,-0.5l0,-2.5l1,-0.5l1,-5.5l1,-0.5l0,-1.5l1,-0.5l0,-1.5l1,-0.5l0,-1.5l1,-0.5l0,-1.5l1,-0.5l0,-1.5l1,-0.5l1,-3.5l2,-1.5l1,-3.5l3,-2.5l0,-1.5l2,-1.5l0,-1.5l3,-2.5l0,-1.5l3,-2.5l0,-1.5l4,-3.5l0,-1.5l4,-3.5l0,-1.5l4,-3.5l0,-1.5l3,-2.5l0,-1.5l2,-1.5l0,-1.5l3,-2.5l0,-1.5l4,-4.5l1,-3.5l2,-1.5l0,-1.5l1,-0.5l0,-1.5l1,-0.5l0,-1.5l1,-0.5l0,-1.5l1,-0.5l0,-1.5l1,-0.5l0,-1.5l2,-2.5l0,-2.5l2,-2.5l0,-2.5l1,-0.5l0,-2.5l1,-0.5l0,-2.5l1,-0.5l0,-2.5l1,-0.5l0,-3.5l1,-0.5l0,-4.5l1,-0.5l0,-4.5l1,-0.5l0,-5.5l1,-0.5l0,-8.5l1,-0.5l0,-22.5l-1,-0.5l0,-8.5l-1,-0.5l0,-5.5l-1,-0.5l0,-3.5l-1,-0.5l0,-4.5l-1,-0.5l0,-2.5l-1,-0.5l0,-3.5l-1,-0.5l0,-2.5l-1,-0.5l-1,-5.5l-2,-2.5l0,-2.5l-1,-0.5l0,-1.5l-1,-0.5l0,-1.5l-1,-0.5l0,-1.5l-1,-0.5l0,-1.5l-1,-0.5l0,-1.5l-1,-0.5l0,-1.5l-1,-0.5l0,-1.5l-1,-0.5l-1,-3.5l-2,-1.5l0,-1.5l-2,-1.5l-1,-3.5l-3,-2.5l0,-1.5l-3,-2.5l0,-1.5l-5,-4.5l0,-1.5l-14,-14l-1.5,0l-4.5,-5l-1.5,0l-2.5,-3l-1.5,0l-1.5,-2l-1.5,0l-1.5,-2l-1.5,0l-4.5,-4l-1.5,0l-0.5,-1l-1.5,0l-0.5,-1l-1.5,0l-0.5,-1l-1.5,0l-0.5,-1l-1.5,0l-0.5,-1l-1.5,0l-0.5,-1l-1.5,0l-0.5,-1l-1.5,0l-2.5,-2l-2.5,0l-2.5,-2l-2.5,0l-0.5,-1l-2.5,0l-0.5,-1l-2.5,0l-0.5,-1l-2.5,0l-0.5,-1l-2.5,0l-0.5,-1l-3.5,0l-0.5,-1l-3.5,0l-0.5,-1l-4.5,0l-0.5,-1l-6.5,0l-0.5,-1l-9.5,0l-0.5,-1l-20.5,0l-0.5,1l-8.5,0l-0.5,1l-6.5,0l-0.5,1l-4.5,0l-0.5,1l-3.5,0l-0.5,1l-7.5,1Z" style="fill:#fff;fill-rule:nonzero;stroke:#fff;stroke-width:1px;"/><path d="M591.103,405.428l-2.163,10.567l-5.072,6.523l-74.968,44.392l-7.383,2.802l-10.606,-0.948l-4.779,-2.585l-5.269,-6.247l-2.214,-6.757l0.476,-24.296l-97.43,-3.737l-5.994,-2.624l-7.679,-6.932l-2.88,-4.955l-1.607,-6.737l0.263,-8.197l3.936,-8.99l7.52,-7.052l8.617,-3.37l96.862,2.503l1.064,-23.67l1.351,-4.211l5.718,-7.718l8.637,-3.977l8.804,0.283l3.604,1.331l66.314,45.283l5.083,2.594l6.484,6.286l2.273,4.935l1.039,5.503Z" style="fill:#fff;stroke:#fff;stroke-width:0.61px;"/></g></svg>