<?xml version="1.0" encoding="UTF-8" standalone="no"?><!DOCTYPE svg PUBLIC "-//W3C//DTD SVG 1.1//EN" "http://www.w3.org/Graphics/SVG/1.1/DTD/svg11.dtd"><svg width="100%" height="100%" viewBox="0 0 864 862" version="1.1" xmlns="http://www.w3.org/2000/svg" xmlns:xlink="http://www.w3.org/1999/xlink" xml:space="preserve" xmlns:serif="http://www.serif.com/" style="fill-rule:evenodd;clip-rule:evenodd;stroke-linejoin:round;"><rect id="Artboard1" x="0" y="0" width="864" height="862" style="fill:none;"/><g id="color_1"><path d="M174,32c-0.265,0.105 -0.895,0.735 -1,1c-0.11,0.28 0.135,1.23 0,1.5c-0.1,0.2 -0.945,0.285 -1,0.5c-0.17,0.68 0.17,2.82 0,3.5c-0.055,0.215 -0.93,0.29 -1,0.5c-0.16,0.475 0.16,2.025 0,2.5c-0.07,0.21 -0.945,0.285 -1,0.5c-0.17,0.68 0.17,2.82 0,3.5c-0.055,0.215 -0.945,0.285 -1,0.5c-0.17,0.68 0.17,2.82 0,3.5c-0.055,0.215 -0.945,0.285 -1,0.5c-0.17,0.68 0.17,2.82 0,3.5c-0.055,0.215 -0.945,0.285 -1,0.5c-0.365,1.47 -0.635,6.03 -1,7.5c-0.055,0.215 -0.93,0.29 -1,0.5c-0.16,0.475 0.16,2.025 0,2.5c-0.07,0.21 -0.945,0.285 -1,0.5c-0.17,0.68 0.17,2.82 0,3.5c-0.055,0.215 -0.93,0.29 -1,0.5c-0.16,0.475 0.16,2.025 0,2.5c-0.07,0.21 -0.93,0.29 -1,0.5c-0.16,0.475 0.16,2.025 0,2.5c-0.07,0.21 -0.945,0.285 -1,0.5c-0.17,0.68 0.17,2.82 0,3.5c-0.055,0.215 -0.93,0.29 -1,0.5c-0.16,0.475 0.16,2.025 0,2.5c-0.07,0.21 -0.93,0.29 -1,0.5c-0.355,1.06 -0.605,4.455 -1,5.5c-0.225,0.6 -1.76,1.905 -2,2.5c-0.185,0.465 0.16,2.025 0,2.5c-0.07,0.21 -0.9,0.3 -1,0.5c-0.135,0.27 0.135,1.23 0,1.5c-0.1,0.2 -0.9,0.3 -1,0.5c-0.135,0.27 0.135,1.23 0,1.5c-0.1,0.2 -0.9,0.3 -1,0.5c-0.135,0.27 0.135,1.23 0,1.5c-0.1,0.2 -0.9,0.3 -1,0.5c-0.135,0.27 0.135,1.23 0,1.5c-0.1,0.2 -0.9,0.3 -1,0.5c-0.135,0.27 0.135,1.23 0,1.5c-0.1,0.2 -0.9,0.3 -1,0.5c-0.325,0.65 -0.625,2.875 -1,3.5c-0.255,0.43 -1.745,1.07 -2,1.5c-0.375,0.625 -0.565,2.92 -1,3.5c-0.805,1.075 -4.14,3.465 -5,4.5c-0.19,0.23 0.195,1.27 0,1.5c-1.555,1.83 -6.67,6.945 -8.5,8.5c-0.23,0.195 -1.26,-0.18 -1.5,0c-0.625,0.47 -1.875,2.53 -2.5,3c-0.24,0.18 -1.25,-0.165 -1.5,0c-0.415,0.275 -1.07,1.745 -1.5,2c-0.625,0.375 -2.875,0.625 -3.5,1c-0.43,0.255 -1.085,1.725 -1.5,2c-0.25,0.165 -1.23,-0.135 -1.5,0c-0.2,0.1 -0.3,0.9 -0.5,1c-0.27,0.135 -1.23,-0.135 -1.5,0c-0.575,0.285 -1.905,1.76 -2.5,2c-0.465,0.185 -2.025,-0.16 -2.5,0c-0.21,0.07 -0.3,0.9 -0.5,1c-0.27,0.135 -1.23,-0.135 -1.5,0c-0.575,0.285 -1.905,1.76 -2.5,2c-0.465,0.185 -2.025,-0.16 -2.5,0c-0.21,0.07 -0.29,0.93 -0.5,1c-0.475,0.16 -2.035,-0.185 -2.5,0c-0.595,0.24 -1.895,1.8 -2.5,2c-0.665,0.22 -2.82,-0.17 -3.5,0c-0.215,0.055 -0.29,0.93 -0.5,1c-0.475,0.16 -2.025,-0.16 -2.5,0c-0.21,0.07 -0.29,0.93 -0.5,1c-0.475,0.16 -2.025,-0.16 -2.5,0c-0.21,0.07 -0.285,0.945 -0.5,1c-0.68,0.17 -2.82,-0.17 -3.5,0c-0.215,0.055 -0.29,0.93 -0.5,1c-0.475,0.16 -2.025,-0.16 -2.5,0c-0.21,0.07 -0.285,0.945 -0.5,1c-0.68,0.17 -2.82,-0.17 -3.5,0c-0.215,0.055 -0.29,0.93 -0.5,1c-0.475,0.16 -2.025,-0.16 -2.5,0c-0.21,0.07 -0.285,0.945 -0.5,1c-0.68,0.17 -2.82,-0.17 -3.5,0c-0.215,0.055 -0.285,0.945 -0.5,1c-0.68,0.17 -2.82,-0.17 -3.5,0c-0.215,0.055 -0.29,0.93 -0.5,1c-0.475,0.16 -2.025,-0.16 -2.5,0c-0.21,0.07 -0.285,0.945 -0.5,1c-0.68,0.17 -2.82,-0.17 -3.5,0c-0.215,0.055 -0.29,0.93 -0.5,1c-0.475,0.16 -2.025,-0.16 -2.5,0c-0.21,0.07 -0.29,0.93 -0.5,1c-0.475,0.16 -2.025,-0.16 -2.5,0c-0.21,0.07 -0.3,0.9 -0.5,1c-0.27,0.135 -1.5,0 -1.5,0c0,0 -0.11,1.22 0,1.5c0.105,0.265 0.735,0.895 1,1c0.28,0.11 1.23,-0.135 1.5,0c0.2,0.1 0.285,0.945 0.5,1c0.68,0.17 2.82,-0.17 3.5,0c0.215,0.055 0.29,0.93 0.5,1c0.475,0.16 2.035,-0.185 2.5,0c0.595,0.24 1.885,1.815 2.5,2c1.45,0.435 6.03,0.635 7.5,1c0.215,0.055 0.29,0.93 0.5,1c0.475,0.16 2.025,-0.16 2.5,0c0.21,0.07 0.29,0.93 0.5,1c0.475,0.16 2.025,-0.16 2.5,0c0.21,0.07 0.29,0.93 0.5,1c0.475,0.16 2.025,-0.16 2.5,0c0.21,0.07 0.285,0.945 0.5,1c0.68,0.17 2.82,-0.17 3.5,0c0.215,0.055 0.3,0.9 0.5,1c0.27,0.135 1.23,-0.135 1.5,0c0.2,0.1 0.29,0.93 0.5,1c0.475,0.16 2.025,-0.16 2.5,0c0.21,0.07 0.285,0.945 0.5,1c0.68,0.17 2.82,-0.17 3.5,0c0.215,0.055 0.29,0.93 0.5,1c0.475,0.16 2.025,-0.16 2.5,0c0.21,0.07 0.3,0.9 0.5,1c0.27,0.135 1.23,-0.135 1.5,0c0.575,0.285 1.905,1.76 2.5,2c0.465,0.185 2.025,-0.16 2.5,0c0.21,0.07 0.3,0.9 0.5,1c0.27,0.135 1.23,-0.135 1.5,0c0.575,0.285 1.905,1.76 2.5,2c0.465,0.185 2.025,-0.16 2.5,0c0.21,0.07 0.3,0.9 0.5,1c0.65,0.325 2.875,0.625 3.5,1c0.43,0.255 1.085,1.725 1.5,2c0.25,0.165 1.23,-0.135 1.5,0c0.2,0.1 0.3,0.9 0.5,1c0.27,0.135 1.23,-0.135 1.5,0c0.2,0.1 0.3,0.9 0.5,1c0.65,0.325 2.875,0.625 3.5,1c0.43,0.255 1.085,1.725 1.5,2c0.25,0.165 1.26,-0.18 1.5,0c0.625,0.47 1.875,2.53 2.5,3c0.24,0.18 1.275,-0.2 1.5,0c2.435,2.155 9.345,9.065 11.5,11.5c0.2,0.225 -0.165,1.25 0,1.5c0.275,0.415 1.725,1.085 2,1.5c0.165,0.25 -0.165,1.25 0,1.5c0.67,1 3.33,3.5 4,4.5c0.165,0.25 -0.135,1.23 0,1.5c0.1,0.2 0.9,0.3 1,0.5c0.135,0.27 -0.135,1.23 0,1.5c0.1,0.2 0.9,0.3 1,0.5c0.135,0.27 -0.135,1.23 0,1.5c0.1,0.2 0.9,0.3 1,0.5c0.135,0.27 -0.135,1.23 0,1.5c0.1,0.2 0.9,0.3 1,0.5c0.135,0.27 -0.135,1.23 0,1.5c0.1,0.2 0.9,0.3 1,0.5c0.135,0.27 -0.135,1.23 0,1.5c0.285,0.575 1.76,1.905 2,2.5c0.185,0.465 -0.185,2.035 0,2.5c0.24,0.595 1.76,1.905 2,2.5c0.185,0.465 -0.185,2.035 0,2.5c0.24,0.595 1.76,1.905 2,2.5c0.185,0.465 -0.16,2.025 0,2.5c0.07,0.21 0.93,0.29 1,0.5c0.16,0.475 -0.16,2.025 0,2.5c0.07,0.21 0.93,0.29 1,0.5c0.16,0.475 -0.16,2.025 0,2.5c0.07,0.21 0.93,0.29 1,0.5c0.16,0.475 -0.16,2.025 0,2.5c0.07,0.21 0.93,0.29 1,0.5c0.16,0.475 -0.16,2.025 0,2.5c0.07,0.21 0.945,0.285 1,0.5c0.17,0.68 -0.17,2.82 0,3.5c0.055,0.215 0.93,0.29 1,0.5c0.16,0.475 -0.16,2.025 0,2.5c0.07,0.21 0.945,0.285 1,0.5c0.17,0.68 -0.17,2.82 0,3.5c0.055,0.215 0.945,0.285 1,0.5c0.17,0.68 -0.17,2.82 0,3.5c0.055,0.215 0.945,0.285 1,0.5c0.17,0.68 -0.17,2.82 0,3.5c0.055,0.215 0.945,0.285 1,0.5c0.17,0.68 -0.17,2.82 0,3.5c0.055,0.215 0.945,0.285 1,0.5c0.17,0.68 -0.17,2.82 0,3.5c0.055,0.215 0.955,0.28 1,0.5c0.375,1.875 0.645,7.625 1,9.5c0.055,0.28 0.735,0.895 1,1c0.28,0.11 1.22,0.11 1.5,0c0.265,-0.105 0.95,-0.72 1,-1c0.16,-0.885 -0.175,-3.615 0,-4.5c0.045,-0.22 0.93,-0.29 1,-0.5c0.16,-0.475 -0.16,-2.025 0,-2.5c0.07,-0.21 0.93,-0.29 1,-0.5c0.16,-0.475 -0.16,-2.025 0,-2.5c0.07,-0.21 0.945,-0.285 1,-0.5c0.17,-0.68 -0.17,-2.82 0,-3.5c0.055,-0.215 0.955,-0.28 1,-0.5c0.175,-0.885 -0.175,-3.615 0,-4.5c0.045,-0.22 0.93,-0.29 1,-0.5c0.16,-0.475 -0.16,-2.025 0,-2.5c0.07,-0.21 0.955,-0.28 1,-0.5c0.175,-0.885 -0.175,-3.615 0,-4.5c0.045,-0.22 0.93,-0.29 1,-0.5c0.16,-0.475 -0.16,-2.025 0,-2.5c0.07,-0.21 0.945,-0.285 1,-0.5c0.17,-0.68 -0.17,-2.82 0,-3.5c0.055,-0.215 0.93,-0.29 1,-0.5c0.16,-0.475 -0.16,-2.025 0,-2.5c0.07,-0.21 0.945,-0.285 1,-0.5c0.17,-0.68 -0.17,-2.82 0,-3.5c0.055,-0.215 0.93,-0.29 1,-0.5c0.16,-0.475 -0.16,-2.025 0,-2.5c0.07,-0.21 0.93,-0.29 1,-0.5c0.16,-0.475 -0.16,-2.025 0,-2.5c0.07,-0.21 0.93,-0.29 1,-0.5c0.16,-0.475 -0.16,-2.025 0,-2.5c0.07,-0.21 0.93,-0.29 1,-0.5c0.355,-1.06 0.645,-4.44 1,-5.5c0.07,-0.21 0.9,-0.3 1,-0.5c0.135,-0.27 -0.135,-1.23 0,-1.5c0.285,-0.575 1.76,-1.905 2,-2.5c0.185,-0.465 -0.16,-2.025 0,-2.5c0.07,-0.21 0.9,-0.3 1,-0.5c0.135,-0.27 -0.135,-1.23 0,-1.5c0.1,-0.2 0.9,-0.3 1,-0.5c0.135,-0.27 -0.135,-1.23 0,-1.5c0.1,-0.2 0.9,-0.3 1,-0.5c0.135,-0.27 -0.135,-1.23 0,-1.5c0.1,-0.2 0.9,-0.3 1,-0.5c0.135,-0.27 -0.135,-1.23 0,-1.5c0.1,-0.2 0.9,-0.3 1,-0.5c0.325,-0.65 0.625,-2.875 1,-3.5c0.255,-0.43 1.725,-1.085 2,-1.5c0.165,-0.25 -0.165,-1.25 0,-1.5c0.275,-0.415 1.725,-1.085 2,-1.5c0.165,-0.25 -0.185,-1.265 0,-1.5c0.665,-0.83 3.335,-2.67 4,-3.5c0.185,-0.235 -0.185,-1.265 0,-1.5c0.96,-1.225 4.275,-4.54 5.5,-5.5c0.235,-0.185 1.27,0.19 1.5,0c1.035,-0.86 3.465,-4.14 4.5,-5c0.23,-0.19 1.25,0.165 1.5,0c0.415,-0.275 1.07,-1.745 1.5,-2c0.625,-0.375 2.875,-0.625 3.5,-1c0.43,-0.255 1.085,-1.725 1.5,-2c0.25,-0.165 1.23,0.135 1.5,0c0.2,-0.1 0.3,-0.9 0.5,-1c0.27,-0.135 1.23,0.135 1.5,0c0.2,-0.1 0.3,-0.9 0.5,-1c0.27,-0.135 1.23,0.135 1.5,0c0.575,-0.285 1.905,-1.76 2.5,-2c0.465,-0.185 2.025,0.16 2.5,0c0.21,-0.07 0.3,-0.9 0.5,-1c0.27,-0.135 1.23,0.135 1.5,0c0.575,-0.285 1.905,-1.76 2.5,-2c0.465,-0.185 2.035,0.185 2.5,0c0.595,-0.24 1.905,-1.76 2.5,-2c0.465,-0.185 2.025,0.16 2.5,0c0.21,-0.07 0.29,-0.93 0.5,-1c1.06,-0.355 4.455,-0.605 5.5,-1c0.6,-0.225 1.895,-1.8 2.5,-2c0.665,-0.22 2.82,0.17 3.5,0c0.215,-0.055 0.29,-0.93 0.5,-1c0.475,-0.16 2.035,0.185 2.5,0c0.595,-0.24 1.895,-1.8 2.5,-2c0.665,-0.22 2.82,0.17 3.5,0c0.215,-0.055 0.29,-0.93 0.5,-1c0.475,-0.16 2.025,0.16 2.5,0c0.21,-0.07 0.29,-0.93 0.5,-1c0.475,-0.16 2.025,0.16 2.5,0c0.21,-0.07 0.29,-0.93 0.5,-1c0.475,-0.16 2.025,0.16 2.5,0c0.21,-0.07 0.285,-0.945 0.5,-1c0.68,-0.17 2.82,0.17 3.5,0c0.215,-0.055 0.29,-0.93 0.5,-1c0.475,-0.16 2.025,0.16 2.5,0c0.21,-0.07 0.285,-0.945 0.5,-1c0.68,-0.17 2.82,0.17 3.5,0c0.215,-0.055 0.285,-0.945 0.5,-1c1.47,-0.365 6.08,-0.475 7.5,-1c0.6,-0.22 1.825,-1.885 2,-2.5c0.08,-0.27 -0.735,-0.895 -1,-1c-0.28,-0.11 -1.23,0.135 -1.5,0c-0.2,-0.1 -0.29,-0.93 -0.5,-1c-1.06,-0.355 -4.44,-0.645 -5.5,-1c-0.21,-0.07 -0.285,-0.945 -0.5,-1c-0.68,-0.17 -2.82,0.17 -3.5,0c-0.215,-0.055 -0.285,-0.945 -0.5,-1c-0.68,-0.17 -2.82,0.17 -3.5,0c-0.215,-0.055 -0.285,-0.945 -0.5,-1c-0.68,-0.17 -2.82,0.17 -3.5,0c-0.215,-0.055 -0.285,-0.945 -0.5,-1c-0.68,-0.17 -2.82,0.17 -3.5,0c-0.215,-0.055 -0.285,-0.945 -0.5,-1c-1.47,-0.365 -6.03,-0.635 -7.5,-1c-0.215,-0.055 -0.29,-0.93 -0.5,-1c-0.475,-0.16 -2.025,0.16 -2.5,0c-0.21,-0.07 -0.29,-0.93 -0.5,-1c-0.475,-0.16 -2.025,0.16 -2.5,0c-0.21,-0.07 -0.285,-0.945 -0.5,-1c-0.68,-0.17 -2.82,0.17 -3.5,0c-0.215,-0.055 -0.29,-0.93 -0.5,-1c-0.475,-0.16 -2.025,0.16 -2.5,0c-0.21,-0.07 -0.29,-0.93 -0.5,-1c-0.475,-0.16 -2.025,0.16 -2.5,0c-0.21,-0.07 -0.29,-0.93 -0.5,-1c-1.06,-0.355 -4.455,-0.605 -5.5,-1c-0.6,-0.225 -1.905,-1.76 -2.5,-2c-0.465,-0.185 -2.025,0.16 -2.5,0c-0.21,-0.07 -0.3,-0.9 -0.5,-1c-0.27,-0.135 -1.23,0.135 -1.5,0c-0.2,-0.1 -0.3,-0.9 -0.5,-1c-0.27,-0.135 -1.23,0.135 -1.5,0c-0.2,-0.1 -0.3,-0.9 -0.5,-1c-0.27,-0.135 -1.23,0.135 -1.5,0c-0.2,-0.1 -0.3,-0.9 -0.5,-1c-0.27,-0.135 -1.23,0.135 -1.5,0c-0.2,-0.1 -0.3,-0.9 -0.5,-1c-0.27,-0.135 -1.23,0.135 -1.5,0c-0.2,-0.1 -0.3,-0.9 -0.5,-1c-0.27,-0.135 -1.23,0.135 -1.5,0c-0.2,-0.1 -0.3,-0.9 -0.5,-1c-0.65,-0.325 -2.875,-0.625 -3.5,-1c-0.43,-0.255 -1.085,-1.725 -1.5,-2c-0.25,-0.165 -1.25,0.165 -1.5,0c-0.415,-0.275 -1.085,-1.725 -1.5,-2c-0.25,-0.165 -1.26,0.18 -1.5,0c-0.625,-0.47 -1.875,-2.53 -2.5,-3c-0.24,-0.18 -1.275,0.195 -1.5,0c-2.035,-1.755 -7.745,-7.465 -9.5,-9.5c-0.195,-0.225 0.18,-1.26 0,-1.5c-0.47,-0.625 -2.565,-1.85 -3,-2.5c-0.405,-0.605 -0.625,-2.875 -1,-3.5c-0.255,-0.43 -1.725,-1.085 -2,-1.5c-0.165,-0.25 0.135,-1.23 0,-1.5c-0.1,-0.2 -0.9,-0.3 -1,-0.5c-0.135,-0.27 0.135,-1.23 0,-1.5c-0.1,-0.2 -0.9,-0.3 -1,-0.5c-0.135,-0.27 0.135,-1.23 0,-1.5c-0.1,-0.2 -0.9,-0.3 -1,-0.5c-0.135,-0.27 0.135,-1.23 0,-1.5c-0.1,-0.2 -0.9,-0.3 -1,-0.5c-0.135,-0.27 0.135,-1.23 0,-1.5c-0.1,-0.2 -0.9,-0.3 -1,-0.5c-0.135,-0.27 0.135,-1.23 0,-1.5c-0.285,-0.575 -1.76,-1.905 -2,-2.5c-0.185,-0.465 0.16,-2.025 0,-2.5c-0.07,-0.21 -0.93,-0.29 -1,-0.5c-0.355,-1.06 -0.605,-4.455 -1,-5.5c-0.225,-0.6 -1.8,-1.895 -2,-2.5c-0.22,-0.665 0.17,-2.82 0,-3.5c-0.055,-0.215 -0.93,-0.29 -1,-0.5c-0.16,-0.475 0.16,-2.025 0,-2.5c-0.07,-0.21 -0.93,-0.29 -1,-0.5c-0.16,-0.475 0.16,-2.025 0,-2.5c-0.07,-0.21 -0.93,-0.29 -1,-0.5c-0.16,-0.475 0.16,-2.025 0,-2.5c-0.07,-0.21 -0.945,-0.285 -1,-0.5c-0.17,-0.68 0.17,-2.82 0,-3.5c-0.055,-0.215 -0.945,-0.285 -1,-0.5c-0.17,-0.68 0.17,-2.82 0,-3.5c-0.055,-0.215 -0.93,-0.29 -1,-0.5c-0.16,-0.475 0.16,-2.025 0,-2.5c-0.07,-0.21 -0.945,-0.285 -1,-0.5c-0.17,-0.68 0.17,-2.82 0,-3.5c-0.055,-0.215 -0.945,-0.285 -1,-0.5c-0.17,-0.68 0.17,-2.82 0,-3.5c-0.055,-0.215 -0.93,-0.29 -1,-0.5c-0.16,-0.475 0.16,-2.025 0,-2.5c-0.07,-0.21 -0.945,-0.285 -1,-0.5c-0.17,-0.68 0.17,-2.82 0,-3.5c-0.055,-0.215 -0.93,-0.29 -1,-0.5c-0.16,-0.475 0.16,-2.025 0,-2.5c-0.07,-0.21 -0.93,-0.29 -1,-0.5c-0.355,-1.06 -0.67,-4.43 -1,-5.5c-0.085,-0.27 -0.735,-0.895 -1,-1c-0.28,-0.11 -1.22,-0.11 -1.5,0Zm200,-25c-0.22,0.025 -0.28,0.965 -0.5,1c-1.085,0.18 -4.415,-0.18 -5.5,0c-0.22,0.035 -0.28,0.97 -0.5,1c-1.285,0.185 -5.215,-0.185 -6.5,0c-0.22,0.03 -0.28,0.965 -0.5,1c-1.085,0.18 -4.415,-0.18 -5.5,0c-0.22,0.035 -0.28,0.965 -0.5,1c-2.275,0.38 -9.225,0.62 -11.5,1c-0.22,0.035 -0.285,0.945 -0.5,1c-0.68,0.17 -2.82,-0.17 -3.5,0c-0.215,0.055 -0.28,0.955 -0.5,1c-0.885,0.175 -3.615,-0.175 -4.5,0c-0.22,0.045 -0.285,0.945 -0.5,1c-0.68,0.17 -2.82,-0.17 -3.5,0c-0.215,0.055 -0.28,0.955 -0.5,1c-0.885,0.175 -3.615,-0.175 -4.5,0c-0.22,0.045 -0.285,0.945 -0.5,1c-0.68,0.17 -2.82,-0.17 -3.5,0c-0.215,0.055 -0.285,0.945 -0.5,1c-0.68,0.17 -2.82,-0.17 -3.5,0c-0.215,0.055 -0.285,0.945 -0.5,1c-1.47,0.365 -6.03,0.635 -7.5,1c-0.215,0.055 -0.29,0.93 -0.5,1c-0.475,0.16 -2.025,-0.16 -2.5,0c-0.21,0.07 -0.29,0.93 -0.5,1c-0.475,0.16 -2.025,-0.16 -2.5,0c-0.21,0.07 -0.285,0.945 -0.5,1c-0.68,0.17 -2.82,-0.17 -3.5,0c-0.215,0.055 -0.29,0.93 -0.5,1c-0.475,0.16 -2.025,-0.16 -2.5,0c-0.21,0.07 -0.29,0.93 -0.5,1c-0.475,0.16 -2.025,-0.16 -2.5,0c-0.21,0.07 -0.29,0.93 -0.5,1c-0.475,0.16 -2.025,-0.16 -2.5,0c-0.21,0.07 -0.29,0.93 -0.5,1c-0.475,0.16 -2.025,-0.16 -2.5,0c-0.21,0.07 -0.29,0.93 -0.5,1c-0.475,0.16 -2.025,-0.16 -2.5,0c-0.21,0.07 -0.29,0.93 -0.5,1c-1.06,0.355 -4.455,0.605 -5.5,1c-0.6,0.225 -1.905,1.76 -2.5,2c-0.465,0.185 -2.025,-0.16 -2.5,0c-0.21,0.07 -0.29,0.93 -0.5,1c-1.06,0.355 -4.44,0.645 -5.5,1c-0.21,0.07 -0.3,0.9 -0.5,1c-0.27,0.135 -1.23,-0.135 -1.5,0c-0.2,0.1 -0.29,0.93 -0.5,1c-0.475,0.16 -2.025,-0.16 -2.5,0c-0.21,0.07 -0.3,0.9 -0.5,1c-0.27,0.135 -1.23,-0.135 -1.5,0c-0.575,0.285 -1.905,1.76 -2.5,2c-0.465,0.185 -2.035,-0.185 -2.5,0c-0.595,0.24 -1.905,1.76 -2.5,2c-0.465,0.185 -2.025,-0.16 -2.5,0c-0.21,0.07 -0.3,0.9 -0.5,1c-0.27,0.135 -1.23,-0.135 -1.5,0c-0.2,0.1 -0.3,0.9 -0.5,1c-0.27,0.135 -1.23,-0.135 -1.5,0c-0.2,0.1 -0.3,0.9 -0.5,1c-0.27,0.135 -1.23,-0.135 -1.5,0c-0.575,0.285 -1.905,1.76 -2.5,2c-0.465,0.185 -2.025,-0.16 -2.5,0c-0.21,0.07 -0.3,0.9 -0.5,1c-0.27,0.135 -1.23,-0.135 -1.5,0c-0.2,0.1 -0.3,0.9 -0.5,1c-0.27,0.135 -1.23,-0.135 -1.5,0c-0.2,0.1 -0.3,0.9 -0.5,1c-0.27,0.135 -1.23,-0.135 -1.5,0c-0.2,0.1 -0.3,0.9 -0.5,1c-0.27,0.135 -1.23,-0.135 -1.5,0c-0.2,0.1 -0.3,0.9 -0.5,1c-0.27,0.135 -1.23,-0.135 -1.5,0c-0.2,0.1 -0.3,0.9 -0.5,1c-0.27,0.135 -1.23,-0.135 -1.5,0c-0.2,0.1 -0.3,0.9 -0.5,1c-0.27,0.135 -1.23,-0.135 -1.5,0c-0.2,0.1 -0.3,0.9 -0.5,1c-0.27,0.135 -1.23,-0.135 -1.5,0c-0.2,0.1 -0.3,0.9 -0.5,1c-0.65,0.325 -2.875,0.625 -3.5,1c-0.43,0.255 -1.085,1.725 -1.5,2c-0.25,0.165 -1.23,-0.135 -1.5,0c-0.2,0.1 -0.3,0.9 -0.5,1c-0.27,0.135 -1.23,-0.135 -1.5,0c-0.2,0.1 -0.3,0.9 -0.5,1c-0.27,0.135 -1.23,-0.135 -1.5,0c-0.2,0.1 -0.3,0.9 -0.5,1c-0.65,0.325 -2.875,0.625 -3.5,1c-0.43,0.255 -1.085,1.725 -1.5,2c-0.25,0.165 -1.22,-0.11 -1.5,0c-0.265,0.105 -0.895,0.735 -1,1c-0.11,0.28 -0.135,1.23 0,1.5c0.285,0.575 1.76,1.905 2,2.5c0.185,0.465 -0.16,2.025 0,2.5c0.07,0.21 0.9,0.3 1,0.5c0.135,0.27 -0.135,1.23 0,1.5c0.285,0.575 1.76,1.905 2,2.5c0.185,0.465 -0.185,2.035 0,2.5c0.24,0.595 1.76,1.905 2,2.5c0.185,0.465 -0.16,2.025 0,2.5c0.07,0.21 0.9,0.3 1,0.5c0.135,0.27 -0.135,1.23 0,1.5c0.285,0.575 1.76,1.905 2,2.5c0.185,0.465 -0.16,2.025 0,2.5c0.07,0.21 0.9,0.3 1,0.5c0.135,0.27 -0.135,1.23 0,1.5c0.285,0.575 1.76,1.905 2,2.5c0.185,0.465 -0.16,2.025 0,2.5c0.07,0.21 0.9,0.3 1,0.5c0.135,0.27 -0.135,1.23 0,1.5c0.285,0.575 1.76,1.905 2,2.5c0.185,0.465 -0.16,2.025 0,2.5c0.07,0.21 0.9,0.3 1,0.5c0.135,0.27 -0.135,1.23 0,1.5c0.1,0.2 0.9,0.3 1,0.5c0.135,0.27 -0.135,1.23 0,1.5c0.1,0.2 0.9,0.3 1,0.5c0.135,0.27 -0.11,1.22 0,1.5c0.105,0.265 0.715,1 1,1c0.73,0 2.895,-0.595 3.5,-1c0.65,-0.435 1.875,-2.53 2.5,-3c0.24,-0.18 1.25,0.165 1.5,0c0.415,-0.275 1.085,-1.725 1.5,-2c0.25,-0.165 1.25,0.165 1.5,0c0.415,-0.275 1.085,-1.725 1.5,-2c0.25,-0.165 1.25,0.165 1.5,0c1,-0.67 3.48,-3.36 4.5,-4c0.615,-0.385 2.875,-0.625 3.5,-1c0.43,-0.255 1.085,-1.725 1.5,-2c0.25,-0.165 1.23,0.135 1.5,0c0.2,-0.1 0.3,-0.9 0.5,-1c0.65,-0.325 2.875,-0.625 3.5,-1c0.43,-0.255 1.085,-1.725 1.5,-2c0.25,-0.165 1.23,0.135 1.5,0c0.2,-0.1 0.3,-0.9 0.5,-1c0.27,-0.135 1.23,0.135 1.5,0c0.2,-0.1 0.3,-0.9 0.5,-1c0.27,-0.135 1.23,0.135 1.5,0c0.2,-0.1 0.3,-0.9 0.5,-1c0.65,-0.325 2.875,-0.625 3.5,-1c0.43,-0.255 1.085,-1.725 1.5,-2c0.25,-0.165 1.23,0.135 1.5,0c0.2,-0.1 0.3,-0.9 0.5,-1c0.27,-0.135 1.23,0.135 1.5,0c0.2,-0.1 0.3,-0.9 0.5,-1c0.27,-0.135 1.23,0.135 1.5,0c0.2,-0.1 0.3,-0.9 0.5,-1c0.27,-0.135 1.23,0.135 1.5,0c0.2,-0.1 0.3,-0.9 0.5,-1c0.27,-0.135 1.23,0.135 1.5,0c0.575,-0.285 1.905,-1.76 2.5,-2c0.465,-0.185 2.025,0.16 2.5,0c0.21,-0.07 0.3,-0.9 0.5,-1c0.27,-0.135 1.23,0.135 1.5,0c0.2,-0.1 0.3,-0.9 0.5,-1c0.27,-0.135 1.23,0.135 1.5,0c0.2,-0.1 0.3,-0.9 0.5,-1c0.27,-0.135 1.23,0.135 1.5,0c0.575,-0.285 1.905,-1.76 2.5,-2c0.465,-0.185 2.025,0.16 2.5,0c0.21,-0.07 0.3,-0.9 0.5,-1c0.27,-0.135 1.23,0.135 1.5,0c0.575,-0.285 1.905,-1.76 2.5,-2c0.465,-0.185 2.035,0.185 2.5,0c0.595,-0.24 1.905,-1.76 2.5,-2c0.465,-0.185 2.035,0.185 2.5,0c0.595,-0.24 1.9,-1.775 2.5,-2c1.045,-0.395 4.455,-0.605 5.5,-1c0.6,-0.225 1.905,-1.76 2.5,-2c0.465,-0.185 2.025,0.16 2.5,0c0.21,-0.07 0.29,-0.93 0.5,-1c0.475,-0.16 2.025,0.16 2.5,0c0.21,-0.07 0.29,-0.93 0.5,-1c0.475,-0.16 2.025,0.16 2.5,0c0.21,-0.07 0.29,-0.93 0.5,-1c0.475,-0.16 2.025,0.16 2.5,0c0.21,-0.07 0.285,-0.945 0.5,-1c0.68,-0.17 2.82,0.17 3.5,0c0.215,-0.055 0.29,-0.93 0.5,-1c0.475,-0.16 2.025,0.16 2.5,0c0.21,-0.07 0.285,-0.945 0.5,-1c0.68,-0.17 2.82,0.17 3.5,0c0.215,-0.055 0.29,-0.93 0.5,-1c0.475,-0.16 2.025,0.16 2.5,0c0.21,-0.07 0.285,-0.945 0.5,-1c0.68,-0.17 2.82,0.17 3.5,0c0.215,-0.055 0.285,-0.945 0.5,-1c0.68,-0.17 2.82,0.17 3.5,0c0.215,-0.055 0.285,-0.945 0.5,-1c0.68,-0.17 2.82,0.17 3.5,0c0.215,-0.055 0.28,-0.955 0.5,-1c0.885,-0.175 3.615,0.175 4.5,0c0.22,-0.045 0.285,-0.945 0.5,-1c0.68,-0.17 2.82,0.17 3.5,0c0.215,-0.055 0.28,-0.965 0.5,-1c1.085,-0.18 4.415,0.18 5.5,0c0.22,-0.035 0.28,-0.965 0.5,-1c1.085,-0.18 4.415,0.18 5.5,0c0.22,-0.035 0.28,-0.965 0.5,-1c1.085,-0.18 4.415,0.18 5.5,0c0.22,-0.035 0.28,-0.965 0.5,-1c1.085,-0.18 4.415,0.18 5.5,0c0.22,-0.035 0.28,-0.98 0.5,-1c1.89,-0.19 7.61,0.19 9.5,0c0.22,-0.02 0.275,-0.98 0.5,-1c2.29,-0.19 9.21,0.19 11.5,0c0.225,-0.02 0.275,-0.995 0.5,-1c11.3,-0.2 45.2,-0.2 56.5,0c0.225,0.005 0.275,0.98 0.5,1c2.29,0.19 9.21,-0.19 11.5,0c0.225,0.02 0.28,0.975 0.5,1c1.69,0.19 6.81,-0.19 8.5,0c0.22,0.025 0.28,0.97 0.5,1c1.49,0.185 6.01,-0.185 7.5,0c0.22,0.03 0.28,0.965 0.5,1c1.085,0.18 4.415,-0.18 5.5,0c0.22,0.035 0.28,0.965 0.5,1c1.085,0.18 4.415,-0.18 5.5,0c0.22,0.035 0.28,0.955 0.5,1c1.875,0.375 7.625,0.625 9.5,1c0.22,0.045 0.285,0.945 0.5,1c0.68,0.17 2.82,-0.17 3.5,0c0.215,0.055 0.28,0.955 0.5,1c0.885,0.175 3.615,-0.175 4.5,0c0.22,0.045 0.29,0.93 0.5,1c0.475,0.16 2.025,-0.16 2.5,0c0.21,0.07 0.285,0.945 0.5,1c0.68,0.17 2.82,-0.17 3.5,0c0.215,0.055 0.285,0.945 0.5,1c1.47,0.365 6.03,0.635 7.5,1c0.215,0.055 0.29,0.93 0.5,1c0.475,0.16 2.025,-0.16 2.5,0c0.21,0.07 0.29,0.93 0.5,1c0.475,0.16 2.025,-0.16 2.5,0c0.21,0.07 0.29,0.93 0.5,1c0.475,0.16 2.025,-0.16 2.5,0c0.21,0.07 0.29,0.93 0.5,1c0.475,0.16 2.025,-0.16 2.5,0c0.21,0.07 0.29,0.93 0.5,1c0.475,0.16 2.025,-0.16 2.5,0c0.21,0.07 0.285,0.945 0.5,1c0.68,0.17 2.82,-0.17 3.5,0c0.215,0.055 0.29,0.93 0.5,1c0.475,0.16 2.035,-0.185 2.5,0c0.595,0.24 1.9,1.775 2.5,2c1.045,0.395 4.44,0.645 5.5,1c0.21,0.07 0.3,0.9 0.5,1c0.27,0.135 1.23,-0.135 1.5,0c0.575,0.285 1.9,1.775 2.5,2c1.045,0.395 4.44,0.645 5.5,1c0.21,0.07 0.3,0.9 0.5,1c0.27,0.135 1.23,-0.135 1.5,0c0.2,0.1 0.3,0.9 0.5,1c0.27,0.135 1.23,-0.135 1.5,0c0.575,0.285 1.905,1.76 2.5,2c0.465,0.185 2.025,-0.16 2.5,0c0.21,0.07 0.3,0.9 0.5,1c0.27,0.135 1.23,-0.135 1.5,0c0.2,0.1 0.3,0.9 0.5,1c0.27,0.135 1.23,-0.135 1.5,0c0.2,0.1 0.3,0.9 0.5,1c0.27,0.135 1.23,-0.135 1.5,0c0.2,0.1 0.3,0.9 0.5,1c0.27,0.135 1.23,-0.135 1.5,0c0.2,0.1 0.3,0.9 0.5,1c0.27,0.135 1.23,-0.135 1.5,0c0.2,0.1 0.3,0.9 0.5,1c0.27,0.135 1.23,-0.135 1.5,0c0.2,0.1 0.3,0.9 0.5,1c0.27,0.135 1.23,-0.135 1.5,0c0.575,0.285 1.905,1.76 2.5,2c0.465,0.185 2.055,-0.225 2.5,0c0.445,0.225 1.085,1.725 1.5,2c0.25,0.165 1.23,-0.135 1.5,0c0.2,0.1 0.3,0.9 0.5,1c0.27,0.135 1.23,-0.135 1.5,0c0.2,0.1 0.3,0.9 0.5,1c0.27,0.135 1.23,-0.135 1.5,0c0.2,0.1 0.3,0.9 0.5,1c0.27,0.135 1.23,-0.135 1.5,0c0.2,0.1 0.3,0.9 0.5,1c0.65,0.325 2.875,0.625 3.5,1c0.43,0.255 1.085,1.725 1.5,2c0.25,0.165 1.23,-0.135 1.5,0c0.2,0.1 0.3,0.9 0.5,1c0.65,0.325 2.875,0.625 3.5,1c0.43,0.255 1.085,1.725 1.5,2c0.25,0.165 1.23,-0.135 1.5,0c0.2,0.1 0.3,0.9 0.5,1c0.65,0.325 2.885,0.615 3.5,1c1.02,0.64 3.48,3.36 4.5,4c0.615,0.385 2.875,0.625 3.5,1c0.43,0.255 1.085,1.725 1.5,2c0.25,0.165 1.25,-0.165 1.5,0c0.415,0.275 1.07,1.745 1.5,2c0.625,0.375 2.875,0.625 3.5,1c0.43,0.255 1.085,1.725 1.5,2c0.25,0.165 1.26,-0.18 1.5,0c0.625,0.47 1.875,2.53 2.5,3c0.24,0.18 1.25,-0.165 1.5,0c0.415,0.275 1.085,1.725 1.5,2c0.25,0.165 1.25,-0.165 1.5,0c0.415,0.275 1.085,1.725 1.5,2c0.25,0.165 1.26,-0.18 1.5,0c0.625,0.47 1.875,2.53 2.5,3c0.24,0.18 1.26,-0.18 1.5,0c0.625,0.47 1.875,2.53 2.5,3c0.24,0.18 1.26,-0.18 1.5,0c0.625,0.47 1.875,2.53 2.5,3c0.24,0.18 1.265,-0.185 1.5,0c0.83,0.665 2.67,3.335 3.5,4c0.235,0.185 1.27,-0.195 1.5,0c1.235,1.06 4.265,4.94 5.5,6c0.23,0.195 1.27,-0.195 1.5,0c1.235,1.06 4.265,4.94 5.5,6c0.23,0.195 1.28,-0.205 1.5,0c5.645,5.35 22.15,21.855 27.5,27.5c0.205,0.22 -0.2,1.275 0,1.5c1.26,1.44 5.74,5.06 7,6.5c0.2,0.225 -0.185,1.265 0,1.5c0.665,0.83 3.335,2.67 4,3.5c0.185,0.235 -0.185,1.265 0,1.5c0.665,0.83 3.335,2.67 4,3.5c0.185,0.235 -0.18,1.26 0,1.5c0.47,0.625 2.53,1.875 3,2.5c0.18,0.24 -0.18,1.26 0,1.5c0.47,0.625 2.53,1.875 3,2.5c0.18,0.24 -0.165,1.25 0,1.5c0.275,0.415 1.725,1.085 2,1.5c0.165,0.25 -0.18,1.26 0,1.5c0.47,0.625 2.565,1.85 3,2.5c0.405,0.605 0.625,2.875 1,3.5c0.255,0.43 1.725,1.085 2,1.5c0.165,0.25 -0.165,1.25 0,1.5c0.275,0.415 1.725,1.085 2,1.5c0.165,0.25 -0.165,1.25 0,1.5c0.67,1 3.36,3.48 4,4.5c0.385,0.615 0.615,2.885 1,3.5c0.64,1.02 3.36,3.48 4,4.5c0.385,0.615 0.625,2.875 1,3.5c0.255,0.43 1.775,1.055 2,1.5c0.225,0.445 -0.225,2.055 0,2.5c0.225,0.445 1.725,1.085 2,1.5c0.165,0.25 -0.135,1.23 0,1.5c0.1,0.2 0.9,0.3 1,0.5c0.325,0.65 0.625,2.875 1,3.5c0.255,0.43 1.725,1.085 2,1.5c0.165,0.25 -0.135,1.23 0,1.5c0.1,0.2 0.9,0.3 1,0.5c0.135,0.27 -0.135,1.23 0,1.5c0.1,0.2 0.9,0.3 1,0.5c0.135,0.27 -0.135,1.23 0,1.5c0.1,0.2 0.9,0.3 1,0.5c0.135,0.27 -0.135,1.23 0,1.5c0.1,0.2 0.9,0.3 1,0.5c0.135,0.27 -0.135,1.23 0,1.5c0.1,0.2 0.9,0.3 1,0.5c0.135,0.27 -0.135,1.23 0,1.5c0.285,0.575 1.76,1.905 2,2.5c0.185,0.465 -0.16,2.025 0,2.5c0.07,0.21 0.9,0.3 1,0.5c0.135,0.27 -0.135,1.23 0,1.5c0.1,0.2 0.9,0.3 1,0.5c0.135,0.27 -0.135,1.23 0,1.5c0.1,0.2 0.9,0.3 1,0.5c0.135,0.27 -0.135,1.23 0,1.5c0.285,0.575 1.76,1.905 2,2.5c0.185,0.465 -0.16,2.025 0,2.5c0.07,0.21 0.9,0.3 1,0.5c0.135,0.27 -0.135,1.23 0,1.5c0.1,0.2 0.9,0.3 1,0.5c0.135,0.27 -0.135,1.23 0,1.5c0.285,0.575 1.76,1.905 2,2.5c0.185,0.465 -0.185,2.035 0,2.5c0.24,0.595 1.76,1.905 2,2.5c0.185,0.465 -0.16,2.025 0,2.5c0.07,0.21 0.93,0.29 1,0.5c0.16,0.475 -0.185,2.035 0,2.5c0.24,0.595 1.76,1.905 2,2.5c0.185,0.465 -0.16,2.025 0,2.5c0.07,0.21 0.93,0.29 1,0.5c0.16,0.475 -0.16,2.025 0,2.5c0.07,0.21 0.93,0.29 1,0.5c0.16,0.475 -0.16,2.025 0,2.5c0.07,0.21 0.93,0.29 1,0.5c0.16,0.475 -0.16,2.025 0,2.5c0.07,0.21 0.93,0.29 1,0.5c0.355,1.06 0.605,4.455 1,5.5c0.225,0.6 1.8,1.895 2,2.5c0.22,0.665 -0.17,2.82 0,3.5c0.055,0.215 0.945,0.285 1,0.5c0.365,1.47 0.635,6.03 1,7.5c0.055,0.215 0.93,0.29 1,0.5c0.16,0.475 -0.16,2.025 0,2.5c0.07,0.21 0.945,0.285 1,0.5c0.17,0.68 -0.17,2.82 0,3.5c0.055,0.215 0.945,0.285 1,0.5c0.17,0.68 -0.17,2.82 0,3.5c0.055,0.215 0.945,0.285 1,0.5c0.17,0.68 -0.17,2.82 0,3.5c0.055,0.215 0.945,0.285 1,0.5c0.17,0.68 -0.17,2.82 0,3.5c0.055,0.215 0.955,0.28 1,0.5c0.175,0.885 -0.175,3.615 0,4.5c0.045,0.22 0.955,0.28 1,0.5c0.175,0.885 -0.175,3.615 0,4.5c0.045,0.22 0.965,0.28 1,0.5c0.18,1.085 -0.18,4.415 0,5.5c0.035,0.22 0.955,0.28 1,0.5c0.175,0.885 -0.175,3.615 0,4.5c0.045,0.22 0.955,0.28 1,0.5c0.175,0.885 -0.175,3.615 0,4.5c0.045,0.22 0.97,0.28 1,0.5c0.185,1.285 -0.185,5.215 0,6.5c0.03,0.22 0.97,0.28 1,0.5c0.185,1.285 -0.185,5.215 0,6.5c0.03,0.22 0.98,0.275 1,0.5c0.19,2.09 -0.19,8.41 0,10.5c0.02,0.225 0.98,0.275 1,0.5c0.19,2.29 -0.19,9.21 0,11.5c0.02,0.225 0.995,0.275 1,0.5c0.2,8.9 0.2,35.6 0,44.5c-0.005,0.225 -0.98,0.275 -1,0.5c-0.19,2.29 0.19,9.21 0,11.5c-0.02,0.225 -0.98,0.28 -1,0.5c-0.19,1.89 0.19,7.61 0,9.5c-0.02,0.22 -0.975,0.28 -1,0.5c-0.19,1.69 0.19,6.81 0,8.5c-0.025,0.22 -0.97,0.28 -1,0.5c-0.185,1.49 0.185,6.01 0,7.5c-0.03,0.22 -0.965,0.28 -1,0.5c-0.18,1.085 0.18,4.415 0,5.5c-0.035,0.22 -0.965,0.28 -1,0.5c-0.38,2.275 -0.62,9.225 -1,11.5c-0.035,0.22 -0.945,0.285 -1,0.5c-0.17,0.68 0.17,2.82 0,3.5c-0.055,0.215 -0.945,0.285 -1,0.5c-0.17,0.68 0.17,2.82 0,3.5c-0.055,0.215 -0.955,0.28 -1,0.5c-0.175,0.885 0.175,3.615 0,4.5c-0.045,0.22 -0.945,0.285 -1,0.5c-0.17,0.68 0.17,2.82 0,3.5c-0.055,0.215 -0.945,0.285 -1,0.5c-0.17,0.68 0.17,2.82 0,3.5c-0.055,0.215 -0.945,0.285 -1,0.5c-0.17,0.68 0.17,2.82 0,3.5c-0.055,0.215 -0.945,0.285 -1,0.5c-0.365,1.47 -0.635,6.03 -1,7.5c-0.055,0.215 -0.93,0.29 -1,0.5c-0.16,0.475 0.16,2.025 0,2.5c-0.07,0.21 -0.945,0.285 -1,0.5c-0.17,0.68 0.17,2.82 0,3.5c-0.055,0.215 -0.93,0.29 -1,0.5c-0.16,0.475 0.16,2.025 0,2.5c-0.07,0.21 -0.945,0.285 -1,0.5c-0.17,0.68 0.17,2.82 0,3.5c-0.055,0.215 -0.93,0.29 -1,0.5c-0.16,0.475 0.16,2.025 0,2.5c-0.07,0.21 -0.93,0.29 -1,0.5c-0.16,0.475 0.16,2.025 0,2.5c-0.07,0.21 -0.93,0.29 -1,0.5c-0.16,0.475 0.16,2.025 0,2.5c-0.07,0.21 -0.93,0.29 -1,0.5c-0.355,1.06 -0.605,4.455 -1,5.5c-0.225,0.6 -1.76,1.905 -2,2.5c-0.185,0.465 0.16,2.025 0,2.5c-0.07,0.21 -0.9,0.3 -1,0.5c-0.135,0.27 0.135,1.23 0,1.5c-0.1,0.2 -0.93,0.29 -1,0.5c-0.16,0.475 0.175,2.03 0,2.5c-0.15,0.395 -1.12,1.31 -1.5,1.5c-0.27,0.135 -1.285,0.205 -1.5,0c-4.045,-3.855 -15.455,-16.145 -19.5,-20c-0.215,-0.205 -1.28,0.205 -1.5,0c-2.845,-2.655 -10.655,-11.345 -13.5,-14c-0.22,-0.205 -1.29,0.21 -1.5,0c-0.29,-0.29 -0.21,-1.71 -0.5,-2c-0.21,-0.21 -1.28,0.205 -1.5,0c-2.845,-2.655 -10.575,-11.44 -13.5,-14c-0.375,-0.33 -2.07,-0.255 -2.5,0c-0.67,0.4 -1.875,2.53 -2.5,3c-0.24,0.18 -1.28,-0.205 -1.5,0c-2.24,2.055 -8.26,8.945 -10.5,11c-0.22,0.205 -1.28,-0.205 -1.5,0c-3.045,2.855 -11.455,12.145 -14.5,15c-0.22,0.205 -1.28,-0.205 -1.5,0c-2.645,2.455 -9.855,10.545 -12.5,13c-0.22,0.205 -1.5,0 -1.5,0c0,0 0.165,1.25 0,1.5c-0.275,0.415 -1.725,1.085 -2,1.5c-0.165,0.25 -0.195,1.27 0,1.5c1.46,1.73 6.27,6.54 8,8c0.23,0.195 1.285,-0.21 1.5,0c7.045,6.85 27.455,28.15 34.5,35c0.215,0.21 1.28,-0.205 1.5,0c4.845,4.55 19.045,18.57 23.5,23.5c0.335,0.37 0.255,2.07 0,2.5c-0.4,0.67 -2.53,1.875 -3,2.5c-0.18,0.24 0.18,1.26 0,1.5c-0.47,0.625 -2.53,1.875 -3,2.5c-0.18,0.24 0.18,1.26 0,1.5c-0.47,0.625 -2.53,1.875 -3,2.5c-0.18,0.24 0.18,1.26 0,1.5c-0.47,0.625 -2.53,1.875 -3,2.5c-0.18,0.24 0.18,1.26 0,1.5c-0.47,0.625 -2.53,1.875 -3,2.5c-0.18,0.24 0.19,1.27 0,1.5c-0.86,1.035 -4.14,3.465 -5,4.5c-0.19,0.23 0.19,1.27 0,1.5c-0.86,1.035 -4.14,3.465 -5,4.5c-0.19,0.23 0.195,1.27 0,1.5c-1.06,1.235 -4.94,4.265 -6,5.5c-0.195,0.23 0.18,1.26 0,1.5c-0.765,1.02 -3.48,3.735 -4.5,4.5c-0.24,0.18 -1.28,0.205 -1.5,0c-3.245,-3.055 -12.255,-12.945 -15.5,-16c-0.22,-0.205 -1.28,0.205 -1.5,0c-3.445,-3.255 -13.055,-13.745 -16.5,-17c-0.22,-0.205 -1.28,0.205 -1.5,0c-3.645,-3.455 -13.855,-14.545 -17.5,-18c-0.22,-0.205 -1.28,0.205 -1.5,0c-2.445,-2.255 -9.055,-9.745 -11.5,-12c-0.22,-0.205 -1.28,0.2 -1.5,0c-2.04,-1.855 -7.46,-8.145 -9.5,-10c-0.22,-0.2 -1.22,0.11 -1.5,0c-0.265,-0.105 -1,-1 -1,-1c0,0 -1.875,2.53 -2.5,3c-0.24,0.18 -1.275,-0.2 -1.5,0c-1.44,1.26 -5.06,5.74 -6.5,7c-0.225,0.2 -1.28,-0.205 -1.5,0c-2.24,2.055 -8.26,8.945 -10.5,11c-0.22,0.205 -1.28,-0.205 -1.5,0c-2.445,2.255 -9.055,9.745 -11.5,12c-0.22,0.205 -1.275,-0.2 -1.5,0c-2.335,2.055 -8.945,8.665 -11,11c-0.2,0.225 -0.205,1.285 0,1.5c5.65,5.945 23.055,23.35 29,29c0.215,0.205 1.285,-0.21 1.5,0c6.645,6.45 25.855,26.55 32.5,33c0.215,0.21 1.29,-0.21 1.5,0c0.29,0.29 0.315,1.63 0.5,2c0.125,0.255 0.735,0.895 1,1c0.28,0.11 1.23,-0.135 1.5,0c0.38,0.19 1.31,1.12 1.5,1.5c0.135,0.27 -0.175,1.255 0,1.5c0.665,0.915 3.085,3.335 4,4c0.245,0.175 1.23,-0.135 1.5,0c0.2,0.1 0.625,0.815 0.5,1c-0.55,0.825 -2.69,2.93 -3.5,3.5c-0.245,0.17 -1.23,-0.135 -1.5,0c-0.2,0.1 -0.3,0.9 -0.5,1c-0.65,0.325 -2.895,0.595 -3.5,1c-0.65,0.435 -1.85,2.565 -2.5,3c-0.605,0.405 -2.885,0.615 -3.5,1c-1.02,0.64 -3.5,3.33 -4.5,4c-0.25,0.165 -1.23,-0.135 -1.5,0c-0.2,0.1 -0.3,0.9 -0.5,1c-0.65,0.325 -2.875,0.625 -3.5,1c-0.43,0.255 -1.085,1.725 -1.5,2c-0.25,0.165 -1.23,-0.135 -1.5,0c-0.2,0.1 -0.3,0.9 -0.5,1c-0.65,0.325 -2.875,0.625 -3.5,1c-0.43,0.255 -1.085,1.725 -1.5,2c-0.25,0.165 -1.23,-0.135 -1.5,0c-0.2,0.1 -0.3,0.9 -0.5,1c-0.65,0.325 -2.875,0.625 -3.5,1c-0.43,0.255 -1.085,1.725 -1.5,2c-0.25,0.165 -1.23,-0.135 -1.5,0c-0.2,0.1 -0.3,0.9 -0.5,1c-0.27,0.135 -1.23,-0.135 -1.5,0c-0.2,0.1 -0.3,0.9 -0.5,1c-0.27,0.135 -1.23,-0.135 -1.5,0c-0.2,0.1 -0.3,0.9 -0.5,1c-0.65,0.325 -2.915,1.43 -3.5,1c-2.68,-1.965 -9.055,-9.745 -11.5,-12c-0.22,-0.205 -1.285,0.205 -1.5,0c-4.245,-4.055 -16.255,-16.945 -20.5,-21c-0.215,-0.205 -1.285,0.205 -1.5,0c-4.245,-4.055 -16.255,-16.945 -20.5,-21c-0.215,-0.205 -1.28,0.205 -1.5,0c-3.045,-2.855 -11.455,-12.145 -14.5,-15c-0.22,-0.205 -1.285,0.205 -1.5,0c-4.045,-3.855 -15.455,-16.145 -19.5,-20c-0.215,-0.205 -1.28,0.205 -1.5,0c-2.445,-2.255 -9.055,-9.745 -11.5,-12c-0.22,-0.205 -1.28,0.205 -1.5,0c-2.24,-2.055 -8.26,-8.945 -10.5,-11c-0.22,-0.205 -1.275,-0.2 -1.5,0c-1.44,1.26 -5.06,5.74 -6.5,7c-0.225,0.2 -1.24,-0.15 -1.5,0c-0.49,0.28 -1.72,1.51 -2,2c-0.15,0.26 0.21,1.29 0,1.5c-0.29,0.29 -1.7,0.22 -2,0.5c-2.64,2.46 -9.855,10.545 -12.5,13c-0.22,0.205 -1.28,-0.205 -1.5,0c-2.645,2.455 -9.855,10.545 -12.5,13c-0.22,0.205 -1.275,-0.2 -1.5,0c-1.44,1.26 -5.06,5.74 -6.5,7c-0.225,0.2 -1.5,0 -1.5,0c0,0 -0.34,2.135 0,2.5c6.955,7.435 28.655,28.95 36,36c0.215,0.21 1.23,-0.135 1.5,0c0.38,0.19 1.31,1.12 1.5,1.5c0.135,0.27 -0.15,1.24 0,1.5c0.28,0.49 1.51,1.72 2,2c0.26,0.15 1.23,-0.135 1.5,0c0.38,0.19 1.31,1.12 1.5,1.5c0.135,0.27 0,1.5 0,1.5c0,0 1.23,-0.135 1.5,0c0.38,0.19 1.31,1.12 1.5,1.5c0.135,0.27 -0.11,1.22 0,1.5c0.105,0.265 0.735,0.895 1,1c0.28,0.11 1.29,-0.21 1.5,0c0.29,0.29 0.315,1.63 0.5,2c0.125,0.255 0.735,0.895 1,1c0.28,0.11 1.245,-0.16 1.5,0c0.6,0.375 2.125,1.9 2.5,2.5c0.16,0.255 0,1.5 0,1.5c0,0 1.285,-0.21 1.5,0c6.045,5.85 23.455,24.145 29.5,30c0.295,0.285 1.71,0.21 2,0.5c0.21,0.21 -0.21,1.29 0,1.5c0.29,0.29 1.71,0.21 2,0.5c0.21,0.21 0,1.5 0,1.5c0,0 1.26,-0.18 1.5,0c0.625,0.47 2.5,3 2.5,3c0,0 -1.645,0.29 -2,0.5c-0.19,0.115 -0.285,0.945 -0.5,1c-1.47,0.365 -6.03,0.635 -7.5,1c-0.215,0.055 -0.28,0.955 -0.5,1c-0.885,0.175 -3.615,-0.175 -4.5,0c-0.22,0.045 -0.28,0.955 -0.5,1c-0.885,0.175 -3.615,-0.175 -4.5,0c-0.22,0.045 -0.28,0.955 -0.5,1c-0.885,0.175 -3.615,-0.175 -4.5,0c-0.22,0.045 -0.28,0.955 -0.5,1c-0.885,0.175 -3.615,-0.175 -4.5,0c-0.22,0.045 -0.28,0.965 -0.5,1c-1.085,0.18 -4.415,-0.18 -5.5,0c-0.22,0.035 -0.28,0.97 -0.5,1c-1.285,0.185 -5.215,-0.185 -6.5,0c-0.22,0.03 -0.28,0.965 -0.5,1c-1.085,0.18 -4.415,-0.18 -5.5,0c-0.22,0.035 -0.28,0.97 -0.5,1c-1.285,0.185 -5.215,-0.185 -6.5,0c-0.22,0.03 -0.28,0.955 -0.5,1c-0.885,0.175 -3.81,0.58 -4.5,0c-4.495,-3.775 -16.255,-16.945 -20.5,-21c-0.215,-0.205 -1.285,0.21 -1.5,0c-5.645,-5.45 -21.855,-22.55 -27.5,-28c-0.215,-0.21 -1.285,0.21 -1.5,0c-5.245,-5.05 -20.255,-20.95 -25.5,-26c-0.215,-0.21 -1.245,0.16 -1.5,0c-0.6,-0.375 -2.125,-1.9 -2.5,-2.5c-0.16,-0.255 0,-1.5 0,-1.5c0,0 -1.285,0.21 -1.5,0c-5.045,-4.85 -19.455,-20.15 -24.5,-25c-0.215,-0.21 -1.285,0.21 -1.5,0c-5.245,-5.05 -20.255,-20.95 -25.5,-26c-0.215,-0.21 -1.275,0.2 -1.5,0c-1.64,-1.455 -7.5,-8 -7.5,-8c0,0 -7.065,7.345 -9,9c-0.23,0.195 -1.28,-0.205 -1.5,0c-2.645,2.455 -9.855,10.545 -12.5,13c-0.22,0.205 -1.28,-0.205 -1.5,0c-2.445,2.255 -9.055,9.745 -11.5,12c-0.22,0.205 -1.28,-0.205 -1.5,0c-2.745,2.555 -13.99,9.885 -13,13.5c1.72,6.275 18.255,18.545 23,23c0.22,0.205 1.285,-0.21 1.5,0c7.65,7.45 29.85,30.55 37.5,38c0.215,0.21 1.26,-0.18 1.5,0c1.02,0.765 3.735,3.48 4.5,4.5c0.18,0.24 0,1.5 0,1.5c0,0 1.28,-0.2 1.5,0c3.04,2.755 11.75,11.455 14.5,14.5c0.15,0.165 -0.29,0.93 -0.5,1c-0.475,0.16 -2.025,0.16 -2.5,0c-0.21,-0.07 -0.285,-0.945 -0.5,-1c-0.68,-0.17 -2.82,0.17 -3.5,0c-0.215,-0.055 -0.285,-0.945 -0.5,-1c-0.68,-0.17 -2.82,0.17 -3.5,0c-0.215,-0.055 -0.285,-0.945 -0.5,-1c-0.68,-0.17 -2.82,0.17 -3.5,0c-0.215,-0.055 -0.29,-0.93 -0.5,-1c-0.475,-0.16 -2.025,0.16 -2.5,0c-0.21,-0.07 -0.29,-0.93 -0.5,-1c-0.475,-0.16 -2.025,0.16 -2.5,0c-0.21,-0.07 -0.29,-0.93 -0.5,-1c-0.475,-0.16 -2.025,0.16 -2.5,0c-0.21,-0.07 -0.29,-0.93 -0.5,-1c-0.475,-0.16 -2.025,0.16 -2.5,0c-0.21,-0.07 -0.285,-0.945 -0.5,-1c-0.68,-0.17 -2.835,0.22 -3.5,0c-0.605,-0.2 -1.905,-1.76 -2.5,-2c-0.465,-0.185 -2.025,0.16 -2.5,0c-0.21,-0.07 -0.29,-0.93 -0.5,-1c-1.06,-0.355 -4.455,-0.605 -5.5,-1c-0.6,-0.225 -1.9,-1.775 -2.5,-2c-1.045,-0.395 -4.455,-0.605 -5.5,-1c-0.6,-0.225 -1.905,-1.76 -2.5,-2c-0.465,-0.185 -2.025,0.16 -2.5,0c-0.21,-0.07 -0.3,-0.9 -0.5,-1c-0.27,-0.135 -1.23,0.135 -1.5,0c-0.575,-0.285 -1.9,-1.775 -2.5,-2c-1.045,-0.395 -4.44,-0.645 -5.5,-1c-0.21,-0.07 -0.3,-0.9 -0.5,-1c-0.27,-0.135 -1.23,0.135 -1.5,0c-0.2,-0.1 -0.3,-0.9 -0.5,-1c-0.27,-0.135 -1.23,0.135 -1.5,0c-0.2,-0.1 -0.3,-0.9 -0.5,-1c-0.27,-0.135 -1.23,0.135 -1.5,0c-0.2,-0.1 -0.3,-0.9 -0.5,-1c-0.27,-0.135 -1.23,0.135 -1.5,0c-0.575,-0.285 -1.905,-1.76 -2.5,-2c-0.465,-0.185 -2.025,0.16 -2.5,0c-0.21,-0.07 -0.3,-0.9 -0.5,-1c-0.27,-0.135 -1.23,0.135 -1.5,0c-0.2,-0.1 -0.3,-0.9 -0.5,-1c-0.27,-0.135 -1.23,0.135 -1.5,0c-0.2,-0.1 -0.3,-0.9 -0.5,-1c-0.27,-0.135 -1.23,0.135 -1.5,0c-0.2,-0.1 -0.3,-0.9 -0.5,-1c-0.27,-0.135 -1.23,0.135 -1.5,0c-0.2,-0.1 -0.3,-0.9 -0.5,-1c-0.27,-0.135 -1.23,0.135 -1.5,0c-0.2,-0.1 -0.3,-0.9 -0.5,-1c-0.27,-0.135 -1.23,0.135 -1.5,0c-0.2,-0.1 -0.3,-0.9 -0.5,-1c-0.27,-0.135 -1.23,0.135 -1.5,0c-0.2,-0.1 -0.3,-0.9 -0.5,-1c-0.27,-0.135 -1.23,0.135 -1.5,0c-0.2,-0.1 -0.3,-0.9 -0.5,-1c-0.65,-0.325 -2.875,-0.625 -3.5,-1c-0.43,-0.255 -1.085,-1.725 -1.5,-2c-0.25,-0.165 -1.23,0.135 -1.5,0c-0.2,-0.1 -0.3,-0.9 -0.5,-1c-0.65,-0.325 -2.875,-0.625 -3.5,-1c-0.43,-0.255 -1.085,-1.725 -1.5,-2c-0.25,-0.165 -1.23,0.135 -1.5,0c-0.2,-0.1 -0.3,-0.9 -0.5,-1c-0.65,-0.325 -2.875,-0.625 -3.5,-1c-0.43,-0.255 -1.07,-1.745 -1.5,-2c-0.625,-0.375 -2.885,-0.615 -3.5,-1c-1.02,-0.64 -3.48,-3.36 -4.5,-4c-0.615,-0.385 -2.875,-0.625 -3.5,-1c-0.43,-0.255 -1.085,-1.725 -1.5,-2c-0.25,-0.165 -1.25,0.165 -1.5,0c-0.415,-0.275 -1.085,-1.725 -1.5,-2c-0.25,-0.165 -1.25,0.165 -1.5,0c-0.415,-0.275 -1.085,-1.725 -1.5,-2c-0.25,-0.165 -1.25,0.165 -1.5,0c-0.415,-0.275 -1.085,-1.725 -1.5,-2c-0.25,-0.165 -1.25,0.165 -1.5,0c-0.415,-0.275 -1.085,-1.725 -1.5,-2c-0.25,-0.165 -1.26,0.18 -1.5,0c-0.625,-0.47 -1.875,-2.53 -2.5,-3c-0.24,-0.18 -1.25,0.165 -1.5,0c-0.415,-0.275 -1.085,-1.725 -1.5,-2c-0.25,-0.165 -1.26,0.18 -1.5,0c-0.625,-0.47 -1.875,-2.53 -2.5,-3c-0.24,-0.18 -1.265,0.185 -1.5,0c-0.83,-0.665 -2.67,-3.335 -3.5,-4c-0.235,-0.185 -1.26,0.18 -1.5,0c-0.625,-0.47 -1.875,-2.53 -2.5,-3c-0.24,-0.18 -1.265,0.185 -1.5,0c-0.83,-0.665 -2.67,-3.335 -3.5,-4c-0.235,-0.185 -1.27,0.19 -1.5,0c-1.035,-0.86 -3.465,-4.14 -4.5,-5c-0.23,-0.19 -1.27,0.19 -1.5,0c-1.035,-0.86 -3.465,-4.14 -4.5,-5c-0.23,-0.19 -1.275,0.2 -1.5,0c-1.64,-1.455 -5.86,-6.545 -7.5,-8c-0.225,-0.2 -1.28,0.205 -1.5,0c-4.845,-4.55 -18.95,-18.655 -23.5,-23.5c-0.205,-0.22 0.205,-1.28 0,-1.5c-2.055,-2.24 -8.945,-8.26 -11,-10.5c-0.205,-0.22 0.19,-1.27 0,-1.5c-0.86,-1.035 -4.14,-3.465 -5,-4.5c-0.19,-0.23 0.19,-1.27 0,-1.5c-0.86,-1.035 -4.14,-3.465 -5,-4.5c-0.19,-0.23 0.185,-1.265 0,-1.5c-0.665,-0.83 -3.335,-2.67 -4,-3.5c-0.185,-0.235 0.185,-1.265 0,-1.5c-0.665,-0.83 -3.335,-2.67 -4,-3.5c-0.185,-0.235 0.165,-1.25 0,-1.5c-0.275,-0.415 -1.725,-1.085 -2,-1.5c-0.165,-0.25 0.18,-1.26 0,-1.5c-0.47,-0.625 -2.53,-1.875 -3,-2.5c-0.18,-0.24 0.18,-1.26 0,-1.5c-0.47,-0.625 -2.53,-1.875 -3,-2.5c-0.18,-0.24 0.165,-1.25 0,-1.5c-0.275,-0.415 -1.725,-1.085 -2,-1.5c-0.165,-0.25 0.165,-1.25 0,-1.5c-0.275,-0.415 -1.725,-1.085 -2,-1.5c-0.165,-0.25 0.165,-1.25 0,-1.5c-0.275,-0.415 -1.725,-1.085 -2,-1.5c-0.165,-0.25 0.165,-1.25 0,-1.5c-0.275,-0.415 -1.725,-1.085 -2,-1.5c-0.165,-0.25 0.165,-1.25 0,-1.5c-0.67,-1 -3.33,-3.5 -4,-4.5c-0.165,-0.25 0.135,-1.23 0,-1.5c-0.1,-0.2 -0.9,-0.3 -1,-0.5c-0.135,-0.27 0.165,-1.25 0,-1.5c-0.275,-0.415 -1.745,-1.07 -2,-1.5c-0.375,-0.625 -0.625,-2.875 -1,-3.5c-0.255,-0.43 -1.725,-1.085 -2,-1.5c-0.165,-0.25 0.135,-1.23 0,-1.5c-0.1,-0.2 -0.9,-0.3 -1,-0.5c-0.325,-0.65 -0.625,-2.875 -1,-3.5c-0.255,-0.43 -1.725,-1.085 -2,-1.5c-0.165,-0.25 0.135,-1.23 0,-1.5c-0.1,-0.2 -0.9,-0.3 -1,-0.5c-0.135,-0.27 0.135,-1.23 0,-1.5c-0.1,-0.2 -0.9,-0.3 -1,-0.5c-0.135,-0.27 0.135,-1.23 0,-1.5c-0.1,-0.2 -0.9,-0.3 -1,-0.5c-0.135,-0.27 0.135,-1.23 0,-1.5c-0.1,-0.2 -0.9,-0.3 -1,-0.5c-0.135,-0.27 0.135,-1.23 0,-1.5c-0.1,-0.2 -0.9,-0.3 -1,-0.5c-0.325,-0.65 -0.625,-2.875 -1,-3.5c-0.255,-0.43 -1.775,-1.055 -2,-1.5c-0.225,-0.445 0.16,-2.025 0,-2.5c-0.07,-0.21 -0.9,-0.3 -1,-0.5c-0.135,-0.27 0.135,-1.23 0,-1.5c-0.1,-0.2 -0.9,-0.3 -1,-0.5c-0.135,-0.27 0.135,-1.23 0,-1.5c-0.1,-0.2 -0.9,-0.3 -1,-0.5c-0.135,-0.27 0.135,-1.23 0,-1.5c-0.1,-0.2 -0.9,-0.3 -1,-0.5c-0.135,-0.27 0.135,-1.23 0,-1.5c-0.1,-0.2 -0.9,-0.3 -1,-0.5c-0.135,-0.27 0.135,-1.23 0,-1.5c-0.285,-0.575 -1.76,-1.905 -2,-2.5c-0.185,-0.465 0.185,-2.035 0,-2.5c-0.24,-0.595 -1.76,-1.905 -2,-2.5c-0.185,-0.465 0.185,-2.035 0,-2.5c-0.24,-0.595 -1.76,-1.905 -2,-2.5c-0.185,-0.465 0.16,-2.025 0,-2.5c-0.07,-0.21 -0.9,-0.3 -1,-0.5c-0.135,-0.27 0.135,-1.23 0,-1.5c-0.1,-0.2 -0.93,-0.29 -1,-0.5c-0.16,-0.475 0.185,-2.035 0,-2.5c-0.24,-0.595 -1.76,-1.905 -2,-2.5c-0.185,-0.465 0.16,-2.025 0,-2.5c-0.07,-0.21 -0.93,-0.29 -1,-0.5c-0.16,-0.475 0.16,-2.025 0,-2.5c-0.07,-0.21 -0.93,-0.29 -1,-0.5c-0.16,-0.475 0.16,-2.025 0,-2.5c-0.07,-0.21 -0.93,-0.29 -1,-0.5c-0.16,-0.475 0.16,-2.025 0,-2.5c-0.07,-0.21 -0.93,-0.29 -1,-0.5c-0.16,-0.475 0.16,-2.025 0,-2.5c-0.07,-0.21 -0.93,-0.29 -1,-0.5c-0.16,-0.475 0.16,-2.025 0,-2.5c-0.07,-0.21 -0.93,-0.29 -1,-0.5c-0.16,-0.475 0.16,-2.025 0,-2.5c-0.07,-0.21 -0.945,-0.285 -1,-0.5c-0.17,-0.68 0.17,-2.82 0,-3.5c-0.055,-0.215 -0.93,-0.29 -1,-0.5c-0.16,-0.475 0.16,-2.025 0,-2.5c-0.07,-0.21 -0.945,-0.285 -1,-0.5c-0.365,-1.47 -0.635,-6.03 -1,-7.5c-0.055,-0.215 -0.93,-0.29 -1,-0.5c-0.16,-0.475 0.16,-2.025 0,-2.5c-0.07,-0.21 -0.945,-0.285 -1,-0.5c-0.17,-0.68 0.17,-2.82 0,-3.5c-0.055,-0.215 -0.955,-0.28 -1,-0.5c-0.175,-0.885 0.175,-3.615 0,-4.5c-0.045,-0.22 -0.945,-0.285 -1,-0.5c-0.17,-0.68 0.17,-2.82 0,-3.5c-0.055,-0.215 -0.955,-0.28 -1,-0.5c-0.175,-0.885 0.175,-3.615 0,-4.5c-0.045,-0.22 -0.955,-0.28 -1,-0.5c-0.175,-0.885 0.175,-3.615 0,-4.5c-0.045,-0.22 -0.955,-0.28 -1,-0.5c-0.175,-0.885 0.175,-3.615 0,-4.5c-0.045,-0.22 -0.97,-0.28 -1,-0.5c-0.185,-1.285 0.185,-5.215 0,-6.5c-0.03,-0.22 -0.955,-0.28 -1,-0.5c-0.175,-0.885 0.175,-3.615 0,-4.5c-0.045,-0.22 -0.97,-0.28 -1,-0.5c-0.185,-1.49 0.185,-6.01 0,-7.5c-0.03,-0.22 -0.975,-0.28 -1,-0.5c-0.19,-1.69 0.19,-6.81 0,-8.5c-0.025,-0.22 -0.985,-0.275 -1,-0.5c-0.19,-2.495 0.19,-10.005 0,-12.5c-0.015,-0.225 -0.995,-0.275 -1,-0.5c-0.2,-8.1 -0.2,-32.4 0,-40.5c0.005,-0.225 0.985,-0.275 1,-0.5c0.19,-2.695 -0.19,-10.805 0,-13.5c0.015,-0.225 0.98,-0.28 1,-0.5c0.19,-1.89 -0.19,-7.61 0,-9.5c0.02,-0.22 0.97,-0.28 1,-0.5c0.185,-1.285 -0.185,-5.215 0,-6.5c0.03,-0.22 0.955,-0.28 1,-0.5c0.175,-0.885 -0.175,-3.615 0,-4.5c0.045,-0.22 0.965,-0.28 1,-0.5c0.18,-1.085 -0.18,-4.415 0,-5.5c0.035,-0.22 0.955,-0.28 1,-0.5c0.175,-0.885 -0.175,-3.615 0,-4.5c0.045,-0.22 0.955,-0.28 1,-0.5c0.175,-0.885 -0.175,-3.615 0,-4.5c0.045,-0.22 0.965,-0.28 1,-0.5c0.18,-1.085 -0.18,-4.415 0,-5.5c0.035,-0.22 0.945,-0.285 1,-0.5c0.17,-0.68 -0.17,-2.82 0,-3.5c0.055,-0.215 0.945,-0.285 1,-0.5c0.17,-0.68 -0.17,-2.82 0,-3.5c0.055,-0.215 0.945,-0.285 1,-0.5c0.365,-1.47 0.635,-6.03 1,-7.5c0.055,-0.215 0.93,-0.29 1,-0.5c0.16,-0.475 -0.16,-2.025 0,-2.5c0.07,-0.21 0.945,-0.285 1,-0.5c0.17,-0.68 -0.17,-2.82 0,-3.5c0.055,-0.215 0.93,-0.29 1,-0.5c0.16,-0.475 -0.16,-2.025 0,-2.5c0.07,-0.21 0.945,-0.285 1,-0.5c0.17,-0.68 -0.17,-2.82 0,-3.5c0.055,-0.215 0.93,-0.29 1,-0.5c0.16,-0.475 -0.16,-2.025 0,-2.5c0.07,-0.21 0.93,-0.29 1,-0.5c0.16,-0.475 -0.16,-2.025 0,-2.5c0.07,-0.21 0.93,-0.29 1,-0.5c0.16,-0.475 -0.16,-2.025 0,-2.5c0.07,-0.21 0.93,-0.29 1,-0.5c0.16,-0.475 -0.16,-2.025 0,-2.5c0.07,-0.21 0.93,-0.29 1,-0.5c0.355,-1.06 0.605,-4.455 1,-5.5c0.225,-0.6 1.76,-1.905 2,-2.5c0.185,-0.465 -0.16,-2.025 0,-2.5c0.07,-0.21 0.9,-0.3 1,-0.5c0.135,-0.27 -0.135,-1.23 0,-1.5c0.1,-0.2 0.93,-0.29 1,-0.5c0.16,-0.475 -0.185,-2.035 0,-2.5c0.24,-0.595 1.76,-1.905 2,-2.5c0.185,-0.465 -0.16,-2.025 0,-2.5c0.07,-0.21 0.9,-0.3 1,-0.5c0.135,-0.27 -0.135,-1.23 0,-1.5c0.285,-0.575 1.76,-1.905 2,-2.5c0.185,-0.465 -0.16,-2.025 0,-2.5c0.07,-0.21 0.9,-0.3 1,-0.5c0.135,-0.27 -0.135,-1.23 0,-1.5c0.1,-0.2 0.9,-0.3 1,-0.5c0.135,-0.27 -0.135,-1.23 0,-1.5c0.1,-0.2 0.9,-0.3 1,-0.5c0.135,-0.27 -0.135,-1.23 0,-1.5c0.1,-0.2 0.9,-0.3 1,-0.5c0.135,-0.27 -0.135,-1.23 0,-1.5c0.1,-0.2 0.9,-0.3 1,-0.5c0.135,-0.27 -0.135,-1.23 0,-1.5c0.285,-0.575 1.76,-1.905 2,-2.5c0.185,-0.465 -0.16,-2.025 0,-2.5c0.07,-0.21 0.9,-0.3 1,-0.5c0.135,-0.27 -0.165,-1.25 0,-1.5c0.275,-0.415 1.725,-1.085 2,-1.5c0.165,-0.25 -0.135,-1.23 0,-1.5c0.1,-0.2 0.9,-0.3 1,-0.5c0.135,-0.27 -0.135,-1.23 0,-1.5c0.1,-0.2 0.9,-0.3 1,-0.5c0.135,-0.27 -0.135,-1.23 0,-1.5c0.1,-0.2 0.9,-0.3 1,-0.5c0.135,-0.27 -0.135,-1.23 0,-1.5c0.1,-0.2 0.9,-0.3 1,-0.5c0.325,-0.65 0.625,-2.875 1,-3.5c0.255,-0.43 1.775,-1.055 2,-1.5c0.225,-0.445 -0.225,-2.055 0,-2.5c0.225,-0.445 1.745,-1.07 2,-1.5c0.375,-0.625 0.625,-2.875 1,-3.5c0.255,-0.43 1.725,-1.085 2,-1.5c0.165,-0.25 -0.135,-1.23 0,-1.5c0.1,-0.2 0.9,-0.3 1,-0.5c0.325,-0.65 0.615,-2.885 1,-3.5c0.64,-1.02 3.36,-3.48 4,-4.5c0.385,-0.615 0.625,-2.875 1,-3.5c0.255,-0.43 1.725,-1.085 2,-1.5c0.165,-0.25 -0.18,-1.26 0,-1.5c0.47,-0.625 2.53,-1.875 3,-2.5c0.18,-0.24 -0.135,-1.23 0,-1.5c0.1,-0.2 0.9,-0.3 1,-0.5c0.135,-0.27 0.11,-1.22 0,-1.5c-0.105,-0.265 -0.735,-0.895 -1,-1c-0.28,-0.11 -1.23,0.135 -1.5,0c-0.2,-0.1 -0.3,-0.9 -0.5,-1c-0.27,-0.135 -1.23,0.135 -1.5,0c-0.575,-0.285 -1.905,-1.76 -2.5,-2c-0.465,-0.185 -2.035,0.185 -2.5,0c-0.595,-0.24 -1.905,-1.76 -2.5,-2c-0.465,-0.185 -2.025,0.16 -2.5,0c-0.21,-0.07 -0.3,-0.9 -0.5,-1c-0.27,-0.135 -1.23,0.135 -1.5,0c-0.575,-0.285 -1.905,-1.76 -2.5,-2c-0.465,-0.185 -2.025,0.16 -2.5,0c-0.21,-0.07 -0.3,-0.9 -0.5,-1c-0.27,-0.135 -1.23,0.135 -1.5,0c-0.575,-0.285 -1.905,-1.76 -2.5,-2c-0.465,-0.185 -2.025,0.16 -2.5,0c-0.21,-0.07 -0.3,-0.9 -0.5,-1c-0.27,-0.135 -1.23,0.135 -1.5,0c-0.2,-0.1 -0.3,-0.9 -0.5,-1c-0.27,-0.135 -1.23,0.135 -1.5,0c-0.575,-0.285 -1.905,-1.76 -2.5,-2c-0.465,-0.185 -2.035,0.185 -2.5,0c-0.595,-0.24 -1.905,-1.76 -2.5,-2c-0.465,-0.185 -2.045,-0.205 -2.5,0c-0.515,0.23 -1.72,1.51 -2,2c-0.15,0.26 0.185,1.265 0,1.5c-0.665,0.83 -3.335,2.67 -4,3.5c-0.185,0.235 0.165,1.25 0,1.5c-0.67,1 -3.36,3.48 -4,4.5c-0.385,0.615 -0.625,2.875 -1,3.5c-0.255,0.43 -1.745,1.07 -2,1.5c-0.375,0.625 -0.625,2.875 -1,3.5c-0.255,0.43 -1.745,1.07 -2,1.5c-0.375,0.625 -0.625,2.875 -1,3.5c-0.255,0.43 -1.725,1.085 -2,1.5c-0.165,0.25 0.135,1.23 0,1.5c-0.1,0.2 -0.9,0.3 -1,0.5c-0.325,0.65 -0.625,2.875 -1,3.5c-0.255,0.43 -1.725,1.085 -2,1.5c-0.165,0.25 0.135,1.23 0,1.5c-0.1,0.2 -0.9,0.3 -1,0.5c-0.135,0.27 0.135,1.23 0,1.5c-0.1,0.2 -0.9,0.3 -1,0.5c-0.135,0.27 0.135,1.23 0,1.5c-0.1,0.2 -0.9,0.3 -1,0.5c-0.135,0.27 0.135,1.23 0,1.5c-0.1,0.2 -0.9,0.3 -1,0.5c-0.135,0.27 0.135,1.23 0,1.5c-0.1,0.2 -0.9,0.3 -1,0.5c-0.135,0.27 0.135,1.23 0,1.5c-0.1,0.2 -0.9,0.3 -1,0.5c-0.135,0.27 0.135,1.23 0,1.5c-0.1,0.2 -0.9,0.3 -1,0.5c-0.135,0.27 0.135,1.23 0,1.5c-0.1,0.2 -0.9,0.3 -1,0.5c-0.135,0.27 0.135,1.23 0,1.5c-0.1,0.2 -0.9,0.3 -1,0.5c-0.135,0.27 0.135,1.23 0,1.5c-0.1,0.2 -0.9,0.3 -1,0.5c-0.135,0.27 0.135,1.23 0,1.5c-0.1,0.2 -0.9,0.3 -1,0.5c-0.135,0.27 0.135,1.23 0,1.5c-0.1,0.2 -0.9,0.3 -1,0.5c-0.135,0.27 0.135,1.23 0,1.5c-0.285,0.575 -1.76,1.905 -2,2.5c-0.185,0.465 0.16,2.025 0,2.5c-0.07,0.21 -0.9,0.3 -1,0.5c-0.135,0.27 0.135,1.23 0,1.5c-0.285,0.575 -1.76,1.905 -2,2.5c-0.185,0.465 0.16,2.025 0,2.5c-0.07,0.21 -0.9,0.3 -1,0.5c-0.135,0.27 0.135,1.23 0,1.5c-0.1,0.2 -0.93,0.29 -1,0.5c-0.16,0.475 0.185,2.035 0,2.5c-0.24,0.595 -1.775,1.9 -2,2.5c-0.395,1.045 -0.605,4.455 -1,5.5c-0.225,0.6 -1.76,1.905 -2,2.5c-0.185,0.465 0.16,2.025 0,2.5c-0.07,0.21 -0.93,0.29 -1,0.5c-0.16,0.475 0.16,2.025 0,2.5c-0.07,0.21 -0.93,0.29 -1,0.5c-0.16,0.475 0.16,2.025 0,2.5c-0.07,0.21 -0.93,0.29 -1,0.5c-0.16,0.475 0.16,2.025 0,2.5c-0.07,0.21 -0.93,0.29 -1,0.5c-0.16,0.475 0.16,2.025 0,2.5c-0.07,0.21 -0.93,0.29 -1,0.5c-0.16,0.475 0.16,2.025 0,2.5c-0.07,0.21 -0.93,0.29 -1,0.5c-0.16,0.475 0.16,2.025 0,2.5c-0.07,0.21 -0.945,0.285 -1,0.5c-0.17,0.68 0.17,2.82 0,3.5c-0.055,0.215 -0.93,0.29 -1,0.5c-0.16,0.475 0.16,2.025 0,2.5c-0.07,0.21 -0.945,0.285 -1,0.5c-0.17,0.68 0.17,2.82 0,3.5c-0.055,0.215 -0.93,0.29 -1,0.5c-0.16,0.475 0.16,2.025 0,2.5c-0.07,0.21 -0.945,0.285 -1,0.5c-0.17,0.68 0.17,2.82 0,3.5c-0.055,0.215 -0.945,0.285 -1,0.5c-0.17,0.68 0.17,2.82 0,3.5c-0.055,0.215 -0.945,0.285 -1,0.5c-0.17,0.68 0.17,2.82 0,3.5c-0.055,0.215 -0.945,0.285 -1,0.5c-0.17,0.68 0.17,2.82 0,3.5c-0.055,0.215 -0.955,0.28 -1,0.5c-0.375,1.875 -0.625,7.625 -1,9.5c-0.045,0.22 -0.945,0.285 -1,0.5c-0.17,0.68 0.17,2.82 0,3.5c-0.055,0.215 -0.955,0.28 -1,0.5c-0.175,0.885 0.175,3.615 0,4.5c-0.045,0.22 -0.97,0.28 -1,0.5c-0.185,1.285 0.185,5.215 0,6.5c-0.03,0.22 -0.965,0.28 -1,0.5c-0.18,1.085 0.18,4.415 0,5.5c-0.035,0.22 -0.97,0.28 -1,0.5c-0.185,1.285 0.185,5.215 0,6.5c-0.03,0.22 -0.975,0.28 -1,0.5c-0.19,1.69 0.19,6.81 0,8.5c-0.025,0.22 -0.975,0.28 -1,0.5c-0.19,1.69 0.19,6.81 0,8.5c-0.025,0.22 -0.985,0.275 -1,0.5c-0.195,3.095 0.195,12.405 0,15.5c-0.015,0.225 -0.995,0.275 -1,0.5c-0.195,7.095 -0.195,28.405 0,35.5c0.005,0.225 0.985,0.275 1,0.5c0.195,3.295 -0.195,13.205 0,16.5c0.015,0.225 0.98,0.275 1,0.5c0.19,2.09 -0.19,8.41 0,10.5c0.02,0.225 0.97,0.28 1,0.5c0.385,3.08 0.615,12.42 1,15.5c0.03,0.22 0.965,0.28 1,0.5c0.18,1.085 -0.18,4.415 0,5.5c0.035,0.22 0.97,0.28 1,0.5c0.185,1.285 -0.185,5.215 0,6.5c0.03,0.22 0.955,0.28 1,0.5c0.175,0.885 -0.175,3.615 0,4.5c0.045,0.22 0.955,0.28 1,0.5c0.175,0.885 -0.175,3.615 0,4.5c0.045,0.22 0.955,0.28 1,0.5c0.375,1.875 0.625,7.625 1,9.5c0.045,0.22 0.93,0.29 1,0.5c0.16,0.475 -0.16,2.025 0,2.5c0.07,0.21 0.945,0.285 1,0.5c0.17,0.68 -0.17,2.82 0,3.5c0.055,0.215 0.955,0.28 1,0.5c0.175,0.885 -0.175,3.615 0,4.5c0.045,0.22 0.945,0.285 1,0.5c0.17,0.68 -0.17,2.82 0,3.5c0.055,0.215 0.945,0.285 1,0.5c0.365,1.47 0.635,6.03 1,7.5c0.055,0.215 0.93,0.29 1,0.5c0.16,0.475 -0.16,2.025 0,2.5c0.07,0.21 0.945,0.285 1,0.5c0.17,0.68 -0.17,2.82 0,3.5c0.055,0.215 0.93,0.29 1,0.5c0.16,0.475 -0.16,2.025 0,2.5c0.07,0.21 0.93,0.29 1,0.5c0.16,0.475 -0.16,2.025 0,2.5c0.07,0.21 0.93,0.29 1,0.5c0.16,0.475 -0.16,2.025 0,2.5c0.07,0.21 0.93,0.29 1,0.5c0.16,0.475 -0.16,2.025 0,2.5c0.07,0.21 0.93,0.29 1,0.5c0.16,0.475 -0.16,2.025 0,2.5c0.07,0.21 0.93,0.29 1,0.5c0.16,0.475 -0.16,2.025 0,2.5c0.07,0.21 0.93,0.29 1,0.5c0.355,1.06 0.605,4.455 1,5.5c0.225,0.6 1.76,1.905 2,2.5c0.185,0.465 -0.185,2.035 0,2.5c0.24,0.595 1.76,1.905 2,2.5c0.185,0.465 -0.185,2.035 0,2.5c0.24,0.595 1.76,1.905 2,2.5c0.185,0.465 -0.185,2.035 0,2.5c0.24,0.595 1.76,1.905 2,2.5c0.185,0.465 -0.16,2.025 0,2.5c0.07,0.21 0.9,0.3 1,0.5c0.135,0.27 -0.135,1.23 0,1.5c0.285,0.575 1.76,1.905 2,2.5c0.185,0.465 -0.16,2.025 0,2.5c0.07,0.21 0.9,0.3 1,0.5c0.135,0.27 -0.135,1.23 0,1.5c0.1,0.2 0.9,0.3 1,0.5c0.135,0.27 -0.135,1.23 0,1.5c0.1,0.2 0.9,0.3 1,0.5c0.135,0.27 -0.135,1.23 0,1.5c0.1,0.2 0.9,0.3 1,0.5c0.135,0.27 -0.135,1.23 0,1.5c0.1,0.2 0.9,0.3 1,0.5c0.135,0.27 -0.135,1.23 0,1.5c0.1,0.2 0.9,0.3 1,0.5c0.135,0.27 -0.135,1.23 0,1.5c0.1,0.2 0.9,0.3 1,0.5c0.135,0.27 -0.135,1.23 0,1.5c0.1,0.2 0.9,0.3 1,0.5c0.135,0.27 -0.135,1.23 0,1.5c0.1,0.2 0.9,0.3 1,0.5c0.135,0.27 -0.135,1.23 0,1.5c0.1,0.2 0.9,0.3 1,0.5c0.135,0.27 -0.135,1.23 0,1.5c0.1,0.2 0.9,0.3 1,0.5c0.325,0.65 0.625,2.875 1,3.5c0.255,0.43 1.725,1.085 2,1.5c0.165,0.25 -0.135,1.23 0,1.5c0.1,0.2 0.9,0.3 1,0.5c0.135,0.27 -0.135,1.23 0,1.5c0.1,0.2 0.9,0.3 1,0.5c0.325,0.65 0.625,2.875 1,3.5c0.255,0.43 1.725,1.085 2,1.5c0.165,0.25 -0.135,1.23 0,1.5c0.1,0.2 0.9,0.3 1,0.5c0.135,0.27 -0.165,1.25 0,1.5c0.275,0.415 1.745,1.07 2,1.5c0.375,0.625 0.625,2.875 1,3.5c0.255,0.43 1.725,1.085 2,1.5c0.165,0.25 -0.165,1.25 0,1.5c0.275,0.415 1.725,1.085 2,1.5c0.165,0.25 -0.165,1.25 0,1.5c0.275,0.415 1.725,1.085 2,1.5c0.165,0.25 -0.165,1.25 0,1.5c0.275,0.415 1.725,1.085 2,1.5c0.165,0.25 -0.165,1.25 0,1.5c0.275,0.415 1.725,1.085 2,1.5c0.165,0.25 -0.165,1.25 0,1.5c0.275,0.415 1.745,1.07 2,1.5c0.375,0.625 0.595,2.895 1,3.5c0.435,0.65 2.53,1.875 3,2.5c0.18,0.24 -0.165,1.25 0,1.5c0.275,0.415 1.725,1.085 2,1.5c0.165,0.25 -0.18,1.26 0,1.5c0.47,0.625 2.53,1.875 3,2.5c0.18,0.24 -0.18,1.26 0,1.5c0.47,0.625 2.53,1.875 3,2.5c0.18,0.24 -0.185,1.265 0,1.5c0.665,0.83 3.335,2.67 4,3.5c0.185,0.235 -0.165,1.25 0,1.5c0.275,0.415 1.725,1.085 2,1.5c0.165,0.25 -0.185,1.265 0,1.5c0.665,0.83 3.335,2.67 4,3.5c0.185,0.235 -0.185,1.265 0,1.5c0.665,0.83 3.335,2.67 4,3.5c0.185,0.235 -0.195,1.27 0,1.5c1.06,1.235 4.94,4.265 6,5.5c0.195,0.23 -0.195,1.27 0,1.5c1.06,1.235 4.94,4.265 6,5.5c0.195,0.23 -0.205,1.28 0,1.5c2.055,2.24 8.945,8.26 11,10.5c0.205,0.22 -0.2,1.28 0,1.5c2.855,3.14 11.86,12.145 15,15c0.22,0.2 1.28,-0.205 1.5,0c2.445,2.255 9.055,9.745 11.5,12c0.22,0.205 1.275,-0.2 1.5,0c1.44,1.26 5.06,5.74 6.5,7c0.225,0.2 1.27,-0.195 1.5,0c1.235,1.06 4.265,4.94 5.5,6c0.23,0.195 1.27,-0.19 1.5,0c1.035,0.86 3.465,4.14 4.5,5c0.23,0.19 1.265,-0.185 1.5,0c0.83,0.665 2.67,3.335 3.5,4c0.235,0.185 1.26,-0.18 1.5,0c0.625,0.47 1.875,2.53 2.5,3c0.24,0.18 1.26,-0.18 1.5,0c0.625,0.47 1.875,2.53 2.5,3c0.24,0.18 1.26,-0.18 1.5,0c0.625,0.47 1.875,2.53 2.5,3c0.24,0.18 1.26,-0.18 1.5,0c0.625,0.47 1.875,2.53 2.5,3c0.24,0.18 1.26,-0.18 1.5,0c0.625,0.47 1.875,2.53 2.5,3c0.24,0.18 1.25,-0.165 1.5,0c0.415,0.275 1.085,1.725 1.5,2c0.25,0.165 1.25,-0.165 1.5,0c0.415,0.275 1.085,1.725 1.5,2c0.25,0.165 1.25,-0.165 1.5,0c0.415,0.275 1.085,1.725 1.5,2c0.25,0.165 1.25,-0.165 1.5,0c0.415,0.275 1.085,1.725 1.5,2c0.25,0.165 1.25,-0.165 1.5,0c0.415,0.275 1.085,1.725 1.5,2c0.25,0.165 1.25,-0.165 1.5,0c1,0.67 3.48,3.36 4.5,4c0.615,0.385 2.875,0.625 3.5,1c0.43,0.255 1.085,1.725 1.5,2c0.25,0.165 1.25,-0.165 1.5,0c0.415,0.275 1.085,1.725 1.5,2c0.25,0.165 1.23,-0.135 1.5,0c0.2,0.1 0.3,0.9 0.5,1c0.65,0.325 2.875,0.625 3.5,1c0.43,0.255 1.07,1.745 1.5,2c0.625,0.375 2.875,0.625 3.5,1c0.43,0.255 1.085,1.725 1.5,2c0.25,0.165 1.23,-0.135 1.5,0c0.2,0.1 0.3,0.9 0.5,1c0.27,0.135 1.23,-0.135 1.5,0c0.2,0.1 0.3,0.9 0.5,1c0.27,0.135 1.23,-0.135 1.5,0c0.2,0.1 0.3,0.9 0.5,1c0.65,0.325 2.875,0.625 3.5,1c0.43,0.255 1.055,1.775 1.5,2c0.445,0.225 2.055,-0.225 2.5,0c0.445,0.225 1.085,1.725 1.5,2c0.25,0.165 1.23,-0.135 1.5,0c0.2,0.1 0.3,0.9 0.5,1c0.27,0.135 1.23,-0.135 1.5,0c0.2,0.1 0.3,0.9 0.5,1c0.27,0.135 1.23,-0.135 1.5,0c0.2,0.1 0.3,0.9 0.5,1c0.27,0.135 1.23,-0.135 1.5,0c0.2,0.1 0.3,0.9 0.5,1c0.27,0.135 1.23,-0.135 1.5,0c0.2,0.1 0.3,0.9 0.5,1c0.27,0.135 1.23,-0.135 1.5,0c0.2,0.1 0.3,0.9 0.5,1c0.27,0.135 1.23,-0.135 1.5,0c0.2,0.1 0.3,0.9 0.5,1c0.27,0.135 1.23,-0.135 1.5,0c0.2,0.1 0.3,0.9 0.5,1c0.27,0.135 1.23,-0.135 1.5,0c0.575,0.285 1.905,1.76 2.5,2c0.465,0.185 2.025,-0.16 2.5,0c0.21,0.07 0.3,0.9 0.5,1c0.27,0.135 1.23,-0.135 1.5,0c0.2,0.1 0.3,0.9 0.5,1c0.27,0.135 1.23,-0.135 1.5,0c0.575,0.285 1.905,1.76 2.5,2c0.465,0.185 2.025,-0.16 2.5,0c0.21,0.07 0.3,0.9 0.5,1c0.27,0.135 1.23,-0.135 1.5,0c0.575,0.285 1.905,1.76 2.5,2c0.465,0.185 2.035,-0.185 2.5,0c0.595,0.24 1.905,1.76 2.5,2c0.465,0.185 2.025,-0.16 2.5,0c0.21,0.07 0.3,0.9 0.5,1c0.27,0.135 1.23,-0.135 1.5,0c0.2,0.1 0.29,0.93 0.5,1c0.475,0.16 2.035,-0.185 2.5,0c0.595,0.24 1.9,1.775 2.5,2c1.045,0.395 4.455,0.605 5.5,1c0.6,0.225 1.905,1.76 2.5,2c0.465,0.185 2.025,-0.16 2.5,0c0.21,0.07 0.29,0.93 0.5,1c0.475,0.16 2.025,-0.16 2.5,0c0.21,0.07 0.29,0.93 0.5,1c0.475,0.16 2.025,-0.16 2.5,0c0.21,0.07 0.29,0.93 0.5,1c0.475,0.16 2.025,-0.16 2.5,0c0.21,0.07 0.29,0.93 0.5,1c0.475,0.16 2.025,-0.16 2.5,0c0.21,0.07 0.29,0.93 0.5,1c0.475,0.16 2.025,-0.16 2.5,0c0.21,0.07 0.29,0.93 0.5,1c0.475,0.16 2.025,-0.16 2.5,0c0.21,0.07 0.285,0.945 0.5,1c0.68,0.17 2.82,-0.17 3.5,0c0.215,0.055 0.29,0.93 0.5,1c0.475,0.16 2.025,-0.16 2.5,0c0.21,0.07 0.285,0.945 0.5,1c0.68,0.17 2.82,-0.17 3.5,0c0.215,0.055 0.29,0.93 0.5,1c0.475,0.16 2.025,-0.16 2.5,0c0.21,0.07 0.285,0.945 0.5,1c0.68,0.17 2.82,-0.17 3.5,0c0.215,0.055 0.285,0.945 0.5,1c0.68,0.17 2.82,-0.17 3.5,0c0.215,0.055 0.285,0.945 0.5,1c0.68,0.17 2.82,-0.17 3.5,0c0.215,0.055 0.28,0.955 0.5,1c0.885,0.175 3.615,-0.175 4.5,0c0.22,0.045 0.285,0.945 0.5,1c0.68,0.17 2.82,-0.17 3.5,0c0.215,0.055 0.285,0.945 0.5,1c0.68,0.17 2.82,-0.17 3.5,0c0.215,0.055 0.28,0.965 0.5,1c1.085,0.18 4.415,-0.18 5.5,0c0.22,0.035 0.28,0.965 0.5,1c1.085,0.18 4.415,-0.18 5.5,0c0.22,0.035 0.28,0.955 0.5,1c0.885,0.175 3.615,-0.175 4.5,0c0.22,0.045 0.28,0.97 0.5,1c1.285,0.185 5.215,-0.185 6.5,0c0.22,0.03 0.28,0.97 0.5,1c1.285,0.185 5.215,-0.185 6.5,0c0.22,0.03 0.275,0.98 0.5,1c2.29,0.19 9.21,-0.19 11.5,0c0.225,0.02 0.275,0.985 0.5,1c2.895,0.195 11.605,-0.195 14.5,0c0.225,0.015 0.275,0.99 0.5,1c4.895,0.195 19.605,0.195 24.5,0c0.225,-0.01 0.275,-0.99 0.5,-1c3.495,-0.195 14.005,0.195 17.5,0c0.225,-0.01 0.28,-0.98 0.5,-1c1.89,-0.19 7.61,0.19 9.5,0c0.22,-0.02 0.28,-0.97 0.5,-1c2.68,-0.385 10.82,-0.615 13.5,-1c0.22,-0.03 0.28,-0.965 0.5,-1c1.085,-0.18 4.415,0.18 5.5,0c0.22,-0.035 0.28,-0.955 0.5,-1c0.885,-0.175 3.615,0.175 4.5,0c0.22,-0.045 0.28,-0.965 0.5,-1c1.085,-0.18 4.415,0.18 5.5,0c0.22,-0.035 0.28,-0.955 0.5,-1c0.885,-0.175 3.615,0.175 4.5,0c0.22,-0.045 0.28,-0.955 0.5,-1c1.875,-0.375 7.625,-0.625 9.5,-1c0.22,-0.045 0.285,-0.945 0.5,-1c0.68,-0.17 2.82,0.17 3.5,0c0.215,-0.055 0.285,-0.945 0.5,-1c1.47,-0.365 6.03,-0.635 7.5,-1c0.215,-0.055 0.29,-0.93 0.5,-1c0.475,-0.16 2.025,0.16 2.5,0c0.21,-0.07 0.28,-0.955 0.5,-1c0.885,-0.175 3.615,0.175 4.5,0c0.22,-0.045 0.29,-0.93 0.5,-1c0.475,-0.16 2.025,0.16 2.5,0c0.21,-0.07 0.29,-0.93 0.5,-1c0.475,-0.16 2.025,0.16 2.5,0c0.21,-0.07 0.29,-0.93 0.5,-1c0.475,-0.16 2.025,0.16 2.5,0c0.21,-0.07 0.285,-0.945 0.5,-1c0.68,-0.17 2.82,0.17 3.5,0c0.215,-0.055 0.29,-0.93 0.5,-1c0.475,-0.16 2.025,0.16 2.5,0c0.21,-0.07 0.29,-0.93 0.5,-1c1.06,-0.355 4.455,-0.605 5.5,-1c0.6,-0.225 1.905,-1.76 2.5,-2c0.465,-0.185 2.025,0.16 2.5,0c0.21,-0.07 0.29,-0.93 0.5,-1c1.06,-0.355 4.44,-0.645 5.5,-1c0.21,-0.07 0.3,-0.9 0.5,-1c0.27,-0.135 1.23,0.135 1.5,0c0.2,-0.1 0.29,-0.93 0.5,-1c0.475,-0.16 2.035,0.185 2.5,0c0.595,-0.24 1.9,-1.775 2.5,-2c1.045,-0.395 4.455,-0.605 5.5,-1c0.6,-0.225 1.905,-1.76 2.5,-2c0.465,-0.185 2.025,0.16 2.5,0c0.21,-0.07 0.3,-0.9 0.5,-1c0.27,-0.135 1.23,0.135 1.5,0c0.2,-0.1 0.3,-0.9 0.5,-1c0.27,-0.135 1.23,0.135 1.5,0c0.2,-0.1 0.3,-0.9 0.5,-1c0.27,-0.135 1.23,0.135 1.5,0c0.575,-0.285 1.905,-1.76 2.5,-2c0.465,-0.185 2.025,0.16 2.5,0c0.21,-0.07 0.3,-0.9 0.5,-1c0.27,-0.135 1.23,0.135 1.5,0c0.2,-0.1 0.3,-0.9 0.5,-1c0.27,-0.135 1.23,0.135 1.5,0c0.575,-0.285 1.905,-1.76 2.5,-2c0.465,-0.185 2.025,0.16 2.5,0c0.21,-0.07 0.3,-0.9 0.5,-1c0.27,-0.135 1.23,0.135 1.5,0c0.2,-0.1 0.3,-0.9 0.5,-1c0.27,-0.135 1.23,0.135 1.5,0c0.2,-0.1 0.3,-0.9 0.5,-1c0.27,-0.135 1.23,0.135 1.5,0c0.2,-0.1 0.3,-0.9 0.5,-1c0.65,-0.325 2.875,-0.625 3.5,-1c0.43,-0.255 1.085,-1.725 1.5,-2c0.25,-0.165 1.23,0.135 1.5,0c0.2,-0.1 0.3,-0.9 0.5,-1c0.27,-0.135 1.23,0.135 1.5,0c0.2,-0.1 0.3,-0.9 0.5,-1c0.27,-0.135 1.23,0.135 1.5,0c0.2,-0.1 0.3,-0.9 0.5,-1c0.27,-0.135 1.23,0.135 1.5,0c0.2,-0.1 0.3,-0.9 0.5,-1c0.65,-0.325 2.875,-0.625 3.5,-1c0.43,-0.255 1.085,-1.725 1.5,-2c0.25,-0.165 1.23,0.135 1.5,0c0.2,-0.1 0.3,-0.9 0.5,-1c0.65,-0.325 2.875,-0.625 3.5,-1c0.43,-0.255 1.07,-1.745 1.5,-2c0.625,-0.375 2.875,-0.625 3.5,-1c0.43,-0.255 1.07,-1.745 1.5,-2c0.625,-0.375 2.875,-0.625 3.5,-1c0.43,-0.255 1.07,-1.745 1.5,-2c0.625,-0.375 2.875,-0.625 3.5,-1c0.43,-0.255 1.085,-1.725 1.5,-2c0.25,-0.165 1.25,0.165 1.5,0c0.415,-0.275 1.085,-1.725 1.5,-2c0.25,-0.165 1.25,0.165 1.5,0c0.415,-0.275 1.085,-1.725 1.5,-2c0.25,-0.165 1.25,0.165 1.5,0c0.415,-0.275 1.085,-1.725 1.5,-2c0.25,-0.165 1.25,0.165 1.5,0c0.415,-0.275 1.085,-1.725 1.5,-2c0.25,-0.165 1.26,0.18 1.5,0c0.625,-0.47 1.875,-2.53 2.5,-3c0.24,-0.18 1.25,0.165 1.5,0c0.415,-0.275 1.085,-1.725 1.5,-2c0.25,-0.165 1.26,0.18 1.5,0c0.625,-0.47 1.875,-2.53 2.5,-3c0.24,-0.18 1.26,0.18 1.5,0c0.625,-0.47 1.875,-2.53 2.5,-3c0.24,-0.18 1.265,0.185 1.5,0c0.83,-0.665 2.67,-3.335 3.5,-4c0.235,-0.185 1.265,0.185 1.5,0c0.83,-0.665 2.67,-3.335 3.5,-4c0.235,-0.185 1.27,0.195 1.5,0c1.235,-1.06 4.265,-4.94 5.5,-6c0.23,-0.195 1.275,0.2 1.5,0c1.44,-1.26 5.06,-5.74 6.5,-7c0.225,-0.2 1.285,0.205 1.5,0c6.145,-5.85 24.15,-23.855 30,-30c0.205,-0.215 -0.2,-1.275 0,-1.5c1.26,-1.44 5.74,-5.06 7,-6.5c0.2,-0.225 -0.195,-1.27 0,-1.5c1.06,-1.235 4.94,-4.265 6,-5.5c0.195,-0.23 -0.185,-1.265 0,-1.5c0.665,-0.83 3.335,-2.67 4,-3.5c0.185,-0.235 -0.185,-1.265 0,-1.5c0.665,-0.83 3.335,-2.67 4,-3.5c0.185,-0.235 -0.18,-1.26 0,-1.5c0.47,-0.625 2.53,-1.875 3,-2.5c0.18,-0.24 -0.165,-1.25 0,-1.5c0.275,-0.415 1.725,-1.085 2,-1.5c0.165,-0.25 -0.18,-1.26 0,-1.5c0.47,-0.625 2.53,-1.875 3,-2.5c0.18,-0.24 -0.18,-1.26 0,-1.5c0.47,-0.625 2.53,-1.875 3,-2.5c0.18,-0.24 -0.165,-1.25 0,-1.5c0.275,-0.415 1.725,-1.085 2,-1.5c0.165,-0.25 -0.165,-1.25 0,-1.5c0.275,-0.415 1.725,-1.085 2,-1.5c0.165,-0.25 -0.165,-1.25 0,-1.5c0.275,-0.415 1.725,-1.085 2,-1.5c0.165,-0.25 -0.165,-1.25 0,-1.5c0.275,-0.415 1.725,-1.085 2,-1.5c0.165,-0.25 -0.165,-1.25 0,-1.5c0.67,-1 3.33,-3.5 4,-4.5c0.165,-0.25 -0.135,-1.23 0,-1.5c0.1,-0.2 0.9,-0.3 1,-0.5c0.135,-0.27 -0.165,-1.25 0,-1.5c0.275,-0.415 1.745,-1.07 2,-1.5c0.375,-0.625 0.625,-2.875 1,-3.5c0.255,-0.43 1.725,-1.085 2,-1.5c0.165,-0.25 -0.165,-1.25 0,-1.5c0.275,-0.415 1.745,-1.07 2,-1.5c0.375,-0.625 0.625,-2.875 1,-3.5c0.255,-0.43 1.725,-1.085 2,-1.5c0.165,-0.25 -0.135,-1.23 0,-1.5c0.1,-0.2 0.9,-0.3 1,-0.5c0.135,-0.27 -0.135,-1.23 0,-1.5c0.1,-0.2 0.9,-0.3 1,-0.5c0.135,-0.27 -0.135,-1.23 0,-1.5c0.1,-0.2 0.9,-0.3 1,-0.5c0.135,-0.27 -0.135,-1.23 0,-1.5c0.1,-0.2 0.9,-0.3 1,-0.5c0.135,-0.27 -0.135,-1.23 0,-1.5c0.1,-0.2 0.9,-0.3 1,-0.5c0.135,-0.27 -0.135,-1.23 0,-1.5c0.1,-0.2 0.9,-0.3 1,-0.5c0.325,-0.65 0.625,-2.875 1,-3.5c0.255,-0.43 1.775,-1.055 2,-1.5c0.225,-0.445 -0.16,-2.025 0,-2.5c0.07,-0.21 0.9,-0.3 1,-0.5c0.135,-0.27 -0.135,-1.23 0,-1.5c0.1,-0.2 0.9,-0.3 1,-0.5c0.135,-0.27 -0.135,-1.23 0,-1.5c0.1,-0.2 0.9,-0.3 1,-0.5c0.135,-0.27 -0.135,-1.23 0,-1.5c0.1,-0.2 0.9,-0.3 1,-0.5c0.135,-0.27 -0.135,-1.23 0,-1.5c0.1,-0.2 0.9,-0.3 1,-0.5c0.135,-0.27 -0.135,-1.23 0,-1.5c0.1,-0.2 0.9,-0.3 1,-0.5c0.135,-0.27 -0.135,-1.23 0,-1.5c0.285,-0.575 1.76,-1.905 2,-2.5c0.185,-0.465 -0.16,-2.025 0,-2.5c0.07,-0.21 0.9,-0.3 1,-0.5c0.135,-0.27 -0.135,-1.23 0,-1.5c0.1,-0.2 0.9,-0.3 1,-0.5c0.135,-0.27 -0.135,-1.23 0,-1.5c0.285,-0.575 1.76,-1.905 2,-2.5c0.185,-0.465 -0.16,-2.025 0,-2.5c0.07,-0.21 0.9,-0.3 1,-0.5c0.135,-0.27 -0.135,-1.23 0,-1.5c0.1,-0.2 0.93,-0.29 1,-0.5c0.16,-0.475 -0.185,-2.035 0,-2.5c0.24,-0.595 1.76,-1.905 2,-2.5c0.185,-0.465 -0.16,-2.025 0,-2.5c0.07,-0.21 0.93,-0.29 1,-0.5c0.16,-0.475 -0.185,-2.035 0,-2.5c0.24,-0.595 1.76,-1.905 2,-2.5c0.185,-0.465 -0.16,-2.025 0,-2.5c0.07,-0.21 0.93,-0.29 1,-0.5c0.16,-0.475 -0.16,-2.025 0,-2.5c0.07,-0.21 0.93,-0.29 1,-0.5c0.16,-0.475 -0.16,-2.025 0,-2.5c0.07,-0.21 0.93,-0.29 1,-0.5c0.16,-0.475 -0.16,-2.025 0,-2.5c0.07,-0.21 0.945,-0.285 1,-0.5c0.17,-0.68 -0.17,-2.82 0,-3.5c0.055,-0.215 0.93,-0.29 1,-0.5c0.16,-0.475 -0.16,-2.025 0,-2.5c0.07,-0.21 0.93,-0.29 1,-0.5c0.16,-0.475 -0.16,-2.025 0,-2.5c0.07,-0.21 0.93,-0.29 1,-0.5c0.16,-0.475 -0.16,-2.025 0,-2.5c0.07,-0.21 0.945,-0.285 1,-0.5c0.17,-0.68 -0.17,-2.82 0,-3.5c0.055,-0.215 0.93,-0.29 1,-0.5c0.16,-0.475 -0.16,-2.025 0,-2.5c0.07,-0.21 0.945,-0.285 1,-0.5c0.17,-0.68 -0.17,-2.82 0,-3.5c0.055,-0.215 0.955,-0.28 1,-0.5c0.175,-0.885 -0.175,-3.615 0,-4.5c0.045,-0.22 0.945,-0.285 1,-0.5c0.17,-0.68 -0.17,-2.82 0,-3.5c0.055,-0.215 0.945,-0.285 1,-0.5c0.17,-0.68 -0.17,-2.82 0,-3.5c0.055,-0.215 0.945,-0.285 1,-0.5c0.17,-0.68 -0.17,-2.82 0,-3.5c0.055,-0.215 0.965,-0.28 1,-0.5c0.18,-1.085 -0.18,-4.415 0,-5.5c0.035,-0.22 0.945,-0.285 1,-0.5c0.17,-0.68 -0.17,-2.82 0,-3.5c0.055,-0.215 0.955,-0.28 1,-0.5c0.175,-0.885 -0.175,-3.615 0,-4.5c0.045,-0.22 0.965,-0.28 1,-0.5c0.18,-1.085 -0.18,-4.415 0,-5.5c0.035,-0.22 0.97,-0.28 1,-0.5c0.185,-1.285 -0.185,-5.215 0,-6.5c0.03,-0.22 0.97,-0.28 1,-0.5c0.185,-1.285 -0.185,-5.215 0,-6.5c0.03,-0.22 0.97,-0.28 1,-0.5c0.185,-1.285 -0.185,-5.215 0,-6.5c0.03,-0.22 0.97,-0.28 1,-0.5c0.185,-1.49 -0.185,-6.01 0,-7.5c0.03,-0.22 0.98,-0.275 1,-0.5c0.19,-2.29 -0.19,-9.21 0,-11.5c0.02,-0.225 0.985,-0.275 1,-0.5c0.195,-3.295 -0.195,-13.205 0,-16.5c0.015,-0.225 0.995,-0.275 1,-0.5c0.195,-7.695 0.195,-30.805 0,-38.5c-0.005,-0.225 -0.985,-0.275 -1,-0.5c-0.19,-2.695 0.19,-10.805 0,-13.5c-0.015,-0.225 -0.985,-0.275 -1,-0.5c-0.19,-2.495 0.19,-10.005 0,-12.5c-0.015,-0.225 -0.98,-0.28 -1,-0.5c-0.19,-1.89 0.19,-7.61 0,-9.5c-0.02,-0.22 -0.965,-0.28 -1,-0.5c-0.18,-1.085 0.18,-4.415 0,-5.5c-0.035,-0.22 -0.97,-0.28 -1,-0.5c-0.185,-1.285 0.185,-5.215 0,-6.5c-0.03,-0.22 -0.965,-0.28 -1,-0.5c-0.18,-1.085 0.18,-4.415 0,-5.5c-0.035,-0.22 -0.965,-0.28 -1,-0.5c-0.18,-1.085 0.18,-4.415 0,-5.5c-0.035,-0.22 -0.955,-0.28 -1,-0.5c-0.175,-0.885 0.175,-3.615 0,-4.5c-0.045,-0.22 -0.955,-0.28 -1,-0.5c-0.175,-0.885 0.175,-3.615 0,-4.5c-0.045,-0.22 -0.955,-0.28 -1,-0.5c-0.375,-1.875 -0.625,-7.625 -1,-9.5c-0.045,-0.22 -0.945,-0.285 -1,-0.5c-0.17,-0.68 0.17,-2.82 0,-3.5c-0.055,-0.215 -0.945,-0.285 -1,-0.5c-0.17,-0.68 0.17,-2.82 0,-3.5c-0.055,-0.215 -0.945,-0.285 -1,-0.5c-0.365,-1.47 -0.635,-6.03 -1,-7.5c-0.055,-0.215 -0.93,-0.29 -1,-0.5c-0.16,-0.475 0.16,-2.025 0,-2.5c-0.07,-0.21 -0.945,-0.285 -1,-0.5c-0.17,-0.68 0.17,-2.82 0,-3.5c-0.055,-0.215 -0.93,-0.29 -1,-0.5c-0.16,-0.475 0.16,-2.025 0,-2.5c-0.07,-0.21 -0.93,-0.29 -1,-0.5c-0.16,-0.475 0.16,-2.025 0,-2.5c-0.07,-0.21 -0.93,-0.29 -1,-0.5c-0.16,-0.475 0.16,-2.025 0,-2.5c-0.07,-0.21 -0.93,-0.29 -1,-0.5c-0.16,-0.475 0.16,-2.025 0,-2.5c-0.07,-0.21 -0.93,-0.29 -1,-0.5c-0.355,-1.06 -0.605,-4.455 -1,-5.5c-0.225,-0.6 -1.8,-1.895 -2,-2.5c-0.22,-0.665 0.22,-2.835 0,-3.5c-0.2,-0.605 -1.76,-1.905 -2,-2.5c-0.185,-0.465 0.16,-2.025 0,-2.5c-0.07,-0.21 -0.93,-0.29 -1,-0.5c-0.16,-0.475 0.16,-2.025 0,-2.5c-0.07,-0.21 -0.9,-0.3 -1,-0.5c-0.135,-0.27 0.135,-1.23 0,-1.5c-0.285,-0.575 -1.76,-1.905 -2,-2.5c-0.185,-0.465 0.16,-2.025 0,-2.5c-0.07,-0.21 -0.9,-0.3 -1,-0.5c-0.135,-0.27 0.135,-1.23 0,-1.5c-0.285,-0.575 -1.76,-1.905 -2,-2.5c-0.185,-0.465 0.185,-2.035 0,-2.5c-0.24,-0.595 -1.76,-1.905 -2,-2.5c-0.185,-0.465 0.16,-2.025 0,-2.5c-0.07,-0.21 -0.9,-0.3 -1,-0.5c-0.135,-0.27 0.135,-1.23 0,-1.5c-0.1,-0.2 -0.9,-0.3 -1,-0.5c-0.135,-0.27 0.135,-1.23 0,-1.5c-0.1,-0.2 -0.9,-0.3 -1,-0.5c-0.135,-0.27 0.135,-1.23 0,-1.5c-0.1,-0.2 -0.9,-0.3 -1,-0.5c-0.135,-0.27 0.135,-1.23 0,-1.5c-0.285,-0.575 -1.76,-1.905 -2,-2.5c-0.185,-0.465 0.16,-2.025 0,-2.5c-0.07,-0.21 -0.9,-0.3 -1,-0.5c-0.135,-0.27 0.165,-1.25 0,-1.5c-0.275,-0.415 -1.775,-1.055 -2,-1.5c-0.225,-0.445 0.225,-2.055 0,-2.5c-0.225,-0.445 -1.725,-1.085 -2,-1.5c-0.165,-0.25 0.135,-1.23 0,-1.5c-0.1,-0.2 -0.9,-0.3 -1,-0.5c-0.135,-0.27 0.135,-1.23 0,-1.5c-0.1,-0.2 -0.9,-0.3 -1,-0.5c-0.135,-0.27 0.135,-1.23 0,-1.5c-0.1,-0.2 -0.9,-0.3 -1,-0.5c-0.135,-0.27 0.135,-1.23 0,-1.5c-0.1,-0.2 -0.9,-0.3 -1,-0.5c-0.135,-0.27 0.135,-1.23 0,-1.5c-0.1,-0.2 -0.9,-0.3 -1,-0.5c-0.135,-0.27 0.135,-1.23 0,-1.5c-0.1,-0.2 -0.9,-0.3 -1,-0.5c-0.325,-0.65 -0.615,-2.885 -1,-3.5c-0.64,-1.02 -3.33,-3.5 -4,-4.5c-0.165,-0.25 0.135,-1.23 0,-1.5c-0.1,-0.2 -0.9,-0.3 -1,-0.5c-0.325,-0.65 -0.625,-2.875 -1,-3.5c-0.255,-0.43 -1.745,-1.07 -2,-1.5c-0.375,-0.625 -0.625,-2.875 -1,-3.5c-0.255,-0.43 -1.725,-1.085 -2,-1.5c-0.165,-0.25 0.165,-1.25 0,-1.5c-0.275,-0.415 -1.725,-1.085 -2,-1.5c-0.165,-0.25 0.165,-1.25 0,-1.5c-0.275,-0.415 -1.725,-1.085 -2,-1.5c-0.165,-0.25 0.165,-1.25 0,-1.5c-0.275,-0.415 -1.725,-1.085 -2,-1.5c-0.165,-0.25 0.165,-1.25 0,-1.5c-0.275,-0.415 -1.725,-1.085 -2,-1.5c-0.165,-0.25 0.165,-1.25 0,-1.5c-0.275,-0.415 -1.725,-1.085 -2,-1.5c-0.165,-0.25 0.165,-1.25 0,-1.5c-0.275,-0.415 -1.725,-1.085 -2,-1.5c-0.165,-0.25 0.18,-1.26 0,-1.5c-0.47,-0.625 -2.53,-1.875 -3,-2.5c-0.18,-0.24 0.18,-1.26 0,-1.5c-0.47,-0.625 -2.53,-1.875 -3,-2.5c-0.18,-0.24 0.165,-1.25 0,-1.5c-0.275,-0.415 -1.725,-1.085 -2,-1.5c-0.165,-0.25 0.185,-1.265 0,-1.5c-0.665,-0.83 -3.335,-2.67 -4,-3.5c-0.185,-0.235 0.185,-1.265 0,-1.5c-0.665,-0.83 -3.335,-2.67 -4,-3.5c-0.185,-0.235 0.185,-1.265 0,-1.5c-0.665,-0.83 -3.335,-2.67 -4,-3.5c-0.185,-0.235 0.195,-1.27 0,-1.5c-1.06,-1.235 -4.94,-4.265 -6,-5.5c-0.195,-0.23 0.2,-1.275 0,-1.5c-1.26,-1.44 -5.74,-5.06 -7,-6.5c-0.2,-0.225 0.205,-1.285 0,-1.5c-6.05,-6.345 -24.655,-24.95 -31,-31c-0.215,-0.205 -1.275,0.2 -1.5,0c-1.44,-1.26 -5.06,-5.74 -6.5,-7c-0.225,-0.2 -1.27,0.19 -1.5,0c-1.035,-0.86 -3.465,-4.14 -4.5,-5c-0.23,-0.19 -1.265,0.185 -1.5,0c-0.83,-0.665 -2.67,-3.335 -3.5,-4c-0.235,-0.185 -1.26,0.18 -1.5,0c-0.625,-0.47 -1.875,-2.53 -2.5,-3c-0.24,-0.18 -1.26,0.18 -1.5,0c-0.625,-0.47 -1.875,-2.53 -2.5,-3c-0.24,-0.18 -1.25,0.165 -1.5,0c-0.415,-0.275 -1.085,-1.725 -1.5,-2c-0.25,-0.165 -1.26,0.18 -1.5,0c-0.625,-0.47 -1.875,-2.53 -2.5,-3c-0.24,-0.18 -1.26,0.18 -1.5,0c-0.625,-0.47 -1.875,-2.53 -2.5,-3c-0.24,-0.18 -1.25,0.165 -1.5,0c-0.415,-0.275 -1.085,-1.725 -1.5,-2c-0.25,-0.165 -1.25,0.165 -1.5,0c-0.415,-0.275 -1.085,-1.725 -1.5,-2c-0.25,-0.165 -1.25,0.165 -1.5,0c-0.415,-0.275 -1.085,-1.725 -1.5,-2c-0.25,-0.165 -1.25,0.165 -1.5,0c-0.415,-0.275 -1.085,-1.725 -1.5,-2c-0.25,-0.165 -1.25,0.165 -1.5,0c-1,-0.67 -3.5,-3.33 -4.5,-4c-0.25,-0.165 -1.23,0.135 -1.5,0c-0.2,-0.1 -0.3,-0.9 -0.5,-1c-0.65,-0.325 -2.885,-0.615 -3.5,-1c-1.02,-0.64 -3.5,-3.33 -4.5,-4c-0.25,-0.165 -1.23,0.135 -1.5,0c-0.2,-0.1 -0.3,-0.9 -0.5,-1c-0.65,-0.325 -2.875,-0.625 -3.5,-1c-0.43,-0.255 -1.085,-1.725 -1.5,-2c-0.25,-0.165 -1.23,0.135 -1.5,0c-0.2,-0.1 -0.3,-0.9 -0.5,-1c-0.65,-0.325 -2.875,-0.625 -3.5,-1c-0.43,-0.255 -1.085,-1.725 -1.5,-2c-0.25,-0.165 -1.23,0.135 -1.5,0c-0.2,-0.1 -0.3,-0.9 -0.5,-1c-0.27,-0.135 -1.23,0.135 -1.5,0c-0.2,-0.1 -0.3,-0.9 -0.5,-1c-0.27,-0.135 -1.23,0.135 -1.5,0c-0.2,-0.1 -0.3,-0.9 -0.5,-1c-0.27,-0.135 -1.23,0.135 -1.5,0c-0.2,-0.1 -0.3,-0.9 -0.5,-1c-0.27,-0.135 -1.23,0.135 -1.5,0c-0.2,-0.1 -0.3,-0.9 -0.5,-1c-0.27,-0.135 -1.23,0.135 -1.5,0c-0.2,-0.1 -0.3,-0.9 -0.5,-1c-0.27,-0.135 -1.23,0.135 -1.5,0c-0.2,-0.1 -0.3,-0.9 -0.5,-1c-0.27,-0.135 -1.23,0.135 -1.5,0c-0.2,-0.1 -0.3,-0.9 -0.5,-1c-0.27,-0.135 -1.23,0.135 -1.5,0c-0.2,-0.1 -0.3,-0.9 -0.5,-1c-0.27,-0.135 -1.23,0.135 -1.5,0c-0.575,-0.285 -1.905,-1.76 -2.5,-2c-0.465,-0.185 -2.025,0.16 -2.5,0c-0.21,-0.07 -0.3,-0.9 -0.5,-1c-0.27,-0.135 -1.23,0.135 -1.5,0c-0.2,-0.1 -0.3,-0.9 -0.5,-1c-0.27,-0.135 -1.23,0.135 -1.5,0c-0.2,-0.1 -0.3,-0.9 -0.5,-1c-0.27,-0.135 -1.23,0.135 -1.5,0c-0.575,-0.285 -1.905,-1.76 -2.5,-2c-0.465,-0.185 -2.035,0.185 -2.5,0c-0.595,-0.24 -1.905,-1.76 -2.5,-2c-0.465,-0.185 -2.035,0.185 -2.5,0c-0.595,-0.24 -1.905,-1.76 -2.5,-2c-0.465,-0.185 -2.025,0.16 -2.5,0c-0.21,-0.07 -0.3,-0.9 -0.5,-1c-0.27,-0.135 -1.23,0.135 -1.5,0c-0.575,-0.285 -1.905,-1.76 -2.5,-2c-0.465,-0.185 -2.035,0.185 -2.5,0c-0.595,-0.24 -1.905,-1.76 -2.5,-2c-0.465,-0.185 -2.025,0.16 -2.5,0c-0.21,-0.07 -0.29,-0.93 -0.5,-1c-0.475,-0.16 -2.025,0.16 -2.5,0c-0.21,-0.07 -0.29,-0.93 -0.5,-1c-0.475,-0.16 -2.025,0.16 -2.5,0c-0.21,-0.07 -0.29,-0.93 -0.5,-1c-0.475,-0.16 -2.025,0.16 -2.5,0c-0.21,-0.07 -0.29,-0.93 -0.5,-1c-0.475,-0.16 -2.025,0.16 -2.5,0c-0.21,-0.07 -0.29,-0.93 -0.5,-1c-0.475,-0.16 -2.025,0.16 -2.5,0c-0.21,-0.07 -0.29,-0.93 -0.5,-1c-0.475,-0.16 -2.025,0.16 -2.5,0c-0.21,-0.07 -0.29,-0.93 -0.5,-1c-0.475,-0.16 -2.025,0.16 -2.5,0c-0.21,-0.07 -0.29,-0.93 -0.5,-1c-0.475,-0.16 -2.025,0.16 -2.5,0c-0.21,-0.07 -0.285,-0.945 -0.5,-1c-0.68,-0.17 -2.82,0.17 -3.5,0c-0.215,-0.055 -0.29,-0.93 -0.5,-1c-0.475,-0.16 -2.025,0.16 -2.5,0c-0.21,-0.07 -0.285,-0.945 -0.5,-1c-1.47,-0.365 -6.03,-0.635 -7.5,-1c-0.215,-0.055 -0.29,-0.93 -0.5,-1c-0.475,-0.16 -2.025,0.16 -2.5,0c-0.21,-0.07 -0.285,-0.945 -0.5,-1c-0.68,-0.17 -2.82,0.17 -3.5,0c-0.215,-0.055 -0.285,-0.945 -0.5,-1c-0.68,-0.17 -2.82,0.17 -3.5,0c-0.215,-0.055 -0.28,-0.955 -0.5,-1c-0.885,-0.175 -3.615,0.175 -4.5,0c-0.22,-0.045 -0.28,-0.955 -0.5,-1c-0.885,-0.175 -3.615,0.175 -4.5,0c-0.22,-0.045 -0.28,-0.955 -0.5,-1c-0.885,-0.175 -3.615,0.175 -4.5,0c-0.22,-0.045 -0.28,-0.965 -0.5,-1c-2.275,-0.38 -9.225,-0.62 -11.5,-1c-0.22,-0.035 -0.28,-0.97 -0.5,-1c-1.285,-0.185 -5.215,0.185 -6.5,0c-0.22,-0.03 -0.28,-0.97 -0.5,-1c-1.285,-0.185 -5.215,0.185 -6.5,0c-0.22,-0.03 -0.28,-0.97 -0.5,-1c-1.49,-0.185 -6.01,0.185 -7.5,0c-0.22,-0.03 -0.275,-0.985 -0.5,-1c-2.495,-0.19 -10.005,0.19 -12.5,0c-0.225,-0.015 -0.275,-0.985 -0.5,-1c-2.695,-0.19 -10.805,0.19 -13.5,0c-0.225,-0.015 -0.275,-0.995 -0.5,-1c-9.9,-0.2 -39.6,-0.2 -49.5,0c-0.225,0.005 -0.275,0.985 -0.5,1c-2.495,0.19 -10.005,-0.19 -12.5,0c-0.225,0.015 -0.28,0.98 -0.5,1c-1.89,0.19 -7.61,-0.19 -9.5,0c-0.22,0.02 -0.28,0.975 -0.5,1c-1.69,0.19 -6.81,-0.19 -8.5,0Z" style="fill:#fff;fill-rule:nonzero;stroke:#fff;stroke-width:1px;"/></g></svg>