<?xml version="1.0" encoding="UTF-8" standalone="no"?><!DOCTYPE svg PUBLIC "-//W3C//DTD SVG 1.1//EN" "http://www.w3.org/Graphics/SVG/1.1/DTD/svg11.dtd"><svg width="100%" height="100%" viewBox="0 0 856 856" version="1.1" xmlns="http://www.w3.org/2000/svg" xmlns:xlink="http://www.w3.org/1999/xlink" xml:space="preserve" xmlns:serif="http://www.serif.com/" style="fill-rule:evenodd;clip-rule:evenodd;stroke-linejoin:round;"><rect id="Artboard1" x="0" y="0" width="856" height="856" style="fill:none;"/><g id="color_1"><path d="M247,298l-1,1l0,1.5l-1,0.5l0,2.5l-1,0.5l0,181.5l1,0.5l0,16.5l1,0.5l0,7.5l1,0.5l1,9.5l1,0.5l0,3.5l1,0.5l0,2.5l1,0.5l0,2.5l1,0.5l0,3.5l1,0.5l1,5.5l2,2.5l0,2.5l2,2.5l0,2.5l2,2.5l0,2.5l1,0.5l0,1.5l1,0.5l0,1.5l1,0.5l0,1.5l1,0.5l1,3.5l2,1.5l0,1.5l1,0.5l0,1.5l1,0.5l1,3.5l2,1.5l0,1.5l2,1.5l0,1.5l2,1.5l0,1.5l2,1.5l0,1.5l2,1.5l0,1.5l4,3.5l0,1.5l3,2.5l0,1.5l19,19l1.5,0l3.5,4l1.5,0l2.5,3l1.5,0l3.5,4l1.5,0l1.5,2l1.5,0l4.5,4l1.5,0l0.5,1l3.5,1l1.5,2l1.5,0l0.5,1l1.5,0l0.5,1l1.5,0l0.5,1l1.5,0l0.5,1l1.5,0l0.5,1l1.5,0l2.5,2l2.5,0l2.5,2l5.5,1l2.5,2l2.5,0l0.5,1l2.5,0l0.5,1l2.5,0l0.5,1l2.5,0l0.5,1l4.5,0l0.5,1l3.5,0l0.5,1l3.5,0l0.5,1l5.5,0l0.5,1l4.5,0l0.5,1l8.5,0l0.5,1l38.5,0l0.5,-1l7.5,0l0.5,-1l11.5,-1l0.5,-1l3.5,0l0.5,-1l7.5,-1l0.5,-1l2.5,0l0.5,-1l5.5,-1l2.5,-2l5.5,-1l2.5,-2l2.5,0l0.5,-1l1.5,0l0.5,-1l1.5,0l0.5,-1l1.5,0l0.5,-1l1.5,0l0.5,-1l1.5,0l0.5,-1l1.5,0l0.5,-1l3.5,-1l1.5,-2l3.5,-1l1.5,-2l3.5,-1l1.5,-2l1.5,0l1.5,-2l1.5,0l2.5,-3l1.5,0l3.5,-4l1.5,0l23,-23l0,-1.5l4,-3.5l0,-1.5l3,-2.5l0,-1.5l3,-2.5l0,-1.5l2,-1.5l0,-1.5l2,-1.5l0,-1.5l4,-4.5l0,-1.5l1,-0.5l0,-1.5l1,-0.5l0,-1.5l1,-0.5l0,-1.5l1,-0.5l0,-1.5l1,-0.5l0,-1.5l1,-0.5l0,-1.5l1,-0.5l0,-1.5l1,-0.5l0,-1.5l1,-0.5l0,-1.5l2,-2.5l0,-2.5l1,-0.5l0,-1.5l1,-0.5l0,-2.5l2,-2.5l0,-2.5l1,-0.5l0,-2.5l1,-0.5l0,-2.5l1,-0.5l0,-2.5l1,-0.5l1,-7.5l1,-0.5l0,-4.5l1,-0.5l0,-4.5l1,-0.5l0,-5.5l1,-0.5l0,-5.5l1,-0.5l0,-198.5l-5,-4l-99.5,0l-0.5,1l-1.5,0l-1,1l0,1.5l-1,0.5l0,185.5l-1,0.5l0,7.5l-1,0.5l0,4.5l-1,0.5l0,2.5l-1,0.5l0,2.5l-1,0.5l-1,5.5l-1,0.5l0,1.5l-1,0.5l0,1.5l-1,0.5l-1,3.5l-2,1.5l0,1.5l-2,1.5l0,1.5l-3,2.5l0,1.5l-9.5,9.5l-1.5,0l-2.5,3l-1.5,0l-4.5,4l-1.5,0l-2.5,2l-2.5,0l-2.5,2l-2.5,0l-0.5,1l-5.5,1l-0.5,1l-3.5,0l-0.5,1l-5.5,0l-0.5,1l-20.5,0l-0.5,-1l-5.5,0l-0.5,-1l-3.5,0l-2.5,-2l-5.5,-1l-0.5,-1l-1.5,0l-0.5,-1l-1.5,0l-0.5,-1l-3.5,-1l-2.5,-3l-3.5,-1l-1.5,-2l-1.5,0l-9.5,-9.5l0,-1.5l-4,-3.5l0,-1.5l-2,-1.5l0,-1.5l-1,-0.5l0,-1.5l-1,-0.5l0,-1.5l-1,-0.5l0,-1.5l-1,-0.5l0,-1.5l-2,-2.5l0,-2.5l-1,-0.5l0,-2.5l-1,-0.5l0,-3.5l-1,-0.5l0,-4.5l-1,-0.5l0,-9.5l-1,-0.5l0,-183.5l-1,-0.5l0,-1.5l-1,-1l-1.5,0l-1.5,-2l-98.5,0l-0.5,1l-1.5,0Zm16.5,73l1.5,-1.5l67,0.5l0,20.5l1,0.5l0,2.5l-1,0.5l1,1l-1,1l0,2.5l1,0.5l0,1.5l-1,0.5l0,2.5l1,0.5l-1,1l1,1l0,3.5l-1,0.5l0,1.5l1,0.5l-1,1l0,1.5l1,0.5l0,2.5l-1,0.5l0,1.5l1,0.5l0,4.5l-1,0.5l0,2.5l1,0.5l0,20.5l-1,0.5l1,1l0,3.5l-1,0.5l1,1l0,1.5l-1,0.5l0,1.5l1,0.5l0,35.5l1,0.5l0,8.5l1,0.5l1,7.5l1,0.5l1,5.5l1,0.5l0,1.5l2,2.5l0,2.5l1,0.5l1,3.5l2,1.5l0,1.5l1,0.5l1,3.5l2,1.5l0,1.5l5,4.5l0,1.5l11,11l1.5,0l2.5,3l1.5,0l2.5,3l1.5,0l1.5,2l1.5,0l0.5,1l1.5,0l0.5,1l1.5,0l0.5,1l1.5,0l0.5,1l1.5,0l2.5,2l2.5,0l0.5,1l2.5,0l2.5,2l2.5,0l0.5,1l3.5,0l0.5,1l4.5,0l0.5,1l5.5,0l0.5,1l24.5,0l0.5,-1l5.5,0l0.5,-1l7.5,-1l0.5,-1l5.5,-1l0.5,-1l1.5,0l2.5,-2l2.5,0l0.5,-1l1.5,0l1.5,-2l1.5,0l0.5,-1l3.5,-1l1.5,-2l1.5,0l2.5,-3l1.5,0l2.5,-3l1.5,0l11,-11l0,-1.5l5,-4.5l0,-1.5l2,-1.5l0,-1.5l1,-0.5l0,-1.5l1,-0.5l1,-3.5l2,-1.5l0,-1.5l1,-0.5l0,-1.5l2,-2.5l0,-2.5l1,-0.5l0,-2.5l1,-0.5l0,-2.5l1,-0.5l0,-3.5l1,-0.5l0,-3.5l1,-0.5l0,-6.5l1,-0.5l0,-126.5l2,-0.5l0.5,1l1.5,0l0.5,-1l3.5,0l1,1l0.5,-1l58.5,0l1.5,1.5l0,115.5l-1,0.5l0,12.5l-1,0.5l0,6.5l-1,0.5l0,4.5l-1,0.5l-1,7.5l-1,0.5l0,2.5l-1,0.5l0,2.5l-1,0.5l-1,5.5l-2,2.5l-1,5.5l-1,0.5l0,1.5l-1,0.5l0,1.5l-1,0.5l0,1.5l-1,0.5l0,1.5l-1,0.5l0,1.5l-1,0.5l0,1.5l-1,0.5l0,1.5l-1,0.5l-1,3.5l-2,1.5l-1,3.5l-3,2.5l0,1.5l-2,1.5l0,1.5l-3,2.5l0,1.5l-3,2.5l0,1.5l-6,5.5l0,1.5l-11.5,11.5l-1.5,0l-5.5,6l-1.5,0l-2.5,3l-1.5,0l-2.5,3l-1.5,0l-4.5,4l-1.5,0l-0.5,1l-1.5,0l-0.5,1l-3.5,1l-1.5,2l-1.5,0l-0.5,1l-1.5,0l-0.5,1l-1.5,0l-2.5,2l-2.5,0l-2.5,2l-2.5,0l-2.5,2l-2.5,0l-0.5,1l-2.5,0l-0.5,1l-2.5,0l-0.5,1l-2.5,0l-0.5,1l-2.5,0l-0.5,1l-4.5,0l-0.5,1l-3.5,0l-0.5,1l-3.5,0l-0.5,1l-5.5,0l-0.5,1l-8.5,0l-0.5,1l-36.5,0l-0.5,-1l-8.5,0l-0.5,-1l-9.5,-1l-0.5,-1l-3.5,0l-0.5,-1l-3.5,0l-0.5,-1l-3.5,0l-0.5,-1l-2.5,0l-0.5,-1l-5.5,-1l-2.5,-2l-5.5,-1l-0.5,-1l-1.5,0l-0.5,-1l-1.5,0l-0.5,-1l-1.5,0l-0.5,-1l-1.5,0l-0.5,-1l-1.5,0l-0.5,-1l-1.5,0l-0.5,-1l-1.5,0l-0.5,-1l-3.5,-1l-1.5,-2l-3.5,-1l-2.5,-3l-1.5,0l-2.5,-3l-1.5,0l-2.5,-3l-1.5,0l-3.5,-4l-1.5,0l-14.5,-14.5l0,-1.5l-7,-6.5l0,-1.5l-3,-2.5l0,-1.5l-2,-1.5l0,-1.5l-4,-4.5l-1,-3.5l-4,-4.5l0,-1.5l-2,-2.5l0,-2.5l-1,-0.5l0,-1.5l-1,-0.5l0,-1.5l-1,-0.5l0,-1.5l-1,-0.5l0,-1.5l-2,-2.5l-1,-5.5l-2,-2.5l0,-3.5l-1,-0.5l0,-2.5l-1,-0.5l0,-3.5l-1,-0.5l0,-3.5l-1,-0.5l0,-3.5l-1,-0.5l0,-4.5l-1,-0.5l0,-4.5l-1,-0.5l0,-6.5l-1,-0.5l0,-8.5l-1,-0.5l0,-6.5l1,-0.5l-1,-1l0,-14.5l1,-0.5l-1,-1l0,-2.5l1,-0.5l0,-2.5l-1,-0.5l1,-1l0,-2.5l-1,-0.5l0,-9.5l1,-0.5l-1,-1l1,-1l0,-5.5l-1,-0.5l1,-1l-1,-1l1,-1l0,-1.5l-1,-0.5l0,-5.5l1,-0.5l0,-4.5l-1,-0.5l0,-10.5l1,-0.5l-1,-1l1,-1l0,-1.5l-1,-0.5l0,-18.5l1,-0.5l0,-1.5l-1,-0.5l0,-9.5Zm0,-55l68,-0.5l0.5,36l-1,0.5l-0.5,-1l-14.5,0l-0.5,1l-1.5,0l-0.5,-1l-16.5,0l-0.5,1l-1.5,0l-0.5,-1l-13.5,0l-1,1l-1,-1l-1,1l-0.5,-1l-13.5,0l-0.5,-1l1,-0.5l0,-25.5l-1,-0.5l0,-1.5l1,-1l-1,-0.5l0,-4.5Zm254,0l1.5,-1.5l1,1l66.5,0l0.5,35l-1.5,1.5l-1,-1l-4.5,0l-0.5,1l-1.5,0l-0.5,-1l-1,1l-1.5,0l-0.5,-1l-3.5,0l-0.5,1l-1,-1l-7.5,0l-0.5,1l-1.5,0l-0.5,-1l-6.5,0l-0.5,1l-1,-1l-5.5,0l-0.5,1l-5.5,0l-0.5,-1l-1,1l-1,-1l-7.5,0l-0.5,1l-2.5,0l-0.5,-1l-4.5,0l-0.5,1l-3.5,0l-0.5,-36Zm106,-72l-5,-4l-5.5,0l-0.5,1l-1.5,0l-0.5,1l-3.5,1l-1.5,2l-1.5,0l-1.5,2l-1.5,0l-1.5,2l-1.5,0l-1.5,2l-3.5,1l-2.5,3l-1.5,0l-1.5,2l-1.5,0l-2.5,3l-1.5,0l-2.5,3l-3.5,1l-4.5,5l-1.5,0l0,1.5l-1,0.5l0,2.5l1,0.5l0,1.5l3,3l5.5,-1l0.5,-1l1.5,0l0.5,-1l1.5,0l0.5,-1l3.5,-1l1.5,-2l2.5,0l1.5,-2l1.5,0l0.5,-1l1.5,0l0.5,-1l3.5,-1l1.5,-2l1.5,0l0.5,-1l1.5,0l0.5,-1l1.5,0l0.5,-1l1.5,0l0.5,-1l3.5,-1l1.5,-2l1.5,0l0.5,-1l3.5,-1l1.5,-2l1.5,0l0,-1.5l1,-0.5l0,-7.5Zm-396.5,1l0,5.5l1,0.5l0,1.5l2,2l1.5,0l1.5,2l3.5,1l1.5,2l1.5,0l0.5,1l1.5,0l0.5,1l1.5,0l0.5,1l1.5,0l0.5,1l3.5,1l1.5,2l1.5,0l0.5,1l1.5,0l0.5,1l1.5,0l0.5,1l1.5,0l0.5,1l1.5,0l0.5,1l1.5,0l0.5,1l1.5,0l0.5,1l3.5,1l1.5,2l1.5,0l0.5,1l7.5,0l1,-1l0,-1.5l1,-0.5l0,-1.5l1,-1l-1,-0.5l0,-1.5l-4,-4l-1.5,0l-2.5,-3l-1.5,0l-1.5,-2l-3.5,-1l-1.5,-2l-1.5,0l-1.5,-2l-1.5,0l-1.5,-2l-1.5,0l-1.5,-2l-1.5,0l-2.5,-3l-1.5,0l-1.5,-2l-1.5,0l-1.5,-2l-1.5,0l-2.5,-3l-1.5,0l-2.5,-2l-3.5,0l-1,-1l-0.5,1l-3.5,1l-1,1l0,1.5l-2,1.5Zm289,-11l-0.5,1l-3.5,1l0,1.5l-2,1.5l0,3.5l1,0.5l1,5.5l1,0.5l0,1.5l2,1.5l0,2.5l1,0.5l1,3.5l2,1.5l0,2.5l1,0.5l0,1.5l1,0.5l1,3.5l2,1.5l0,1.5l3,3l5.5,0l0.5,-1l1.5,0l1,-1l0,-2.5l1,-0.5l0,-4.5l-1,-0.5l0,-2.5l-2,-2.5l0,-2.5l-1,-0.5l0,-1.5l-2,-2.5l0,-2.5l-2,-2.5l0,-2.5l-1,-0.5l0,-1.5l-1,-0.5l0,-1.5l-1,-0.5l-1,-3.5l-3,-3l-5.5,0Zm-178.5,1l-2.5,0l-0.5,-1l-4.5,0l-2,2l0,1.5l-1,0.5l0,1.5l-1,0.5l0,1.5l-1,0.5l0,1.5l-1,0.5l0,1.5l-2,2.5l0,2.5l-1,0.5l0,1.5l-1,0.5l0,1.5l-2,2.5l0,2.5l-2,2.5l0,3.5l-1,0.5l1,5.5l3,3l2.5,0l1,1l0.5,-1l2.5,0l3,-3l0,-2.5l2,-1.5l0,-2.5l1,-0.5l0,-1.5l1,-0.5l0,-1.5l1,-0.5l0,-1.5l1,-0.5l0,-1.5l1,-0.5l0,-1.5l1,-0.5l0,-1.5l1,-0.5l0,-1.5l1,-0.5l0,-1.5l1,-0.5l0,-1.5l2,-2.5l0,-5.5l-1,-0.5l0,-1.5l-1,-1l-1.5,0l-0.5,-1Zm236,-17l-3.5,0l-0.5,-1l-2.5,0l-5,4l0,1.5l-1,0.5l0,2.5l-2,2.5l0,2.5l-1,0.5l0,1.5l-2,2.5l0,2.5l-1,0.5l0,1.5l-2,2.5l0,2.5l-2,2.5l0,2.5l-1,0.5l0,1.5l-2,2.5l0,6.5l2,2l1.5,0l0.5,1l2.5,0l4,-4l1,-3.5l2,-1.5l0,-1.5l2,-1.5l0,-1.5l1,-0.5l1,-3.5l2,-1.5l0,-1.5l1,-0.5l1,-3.5l2,-1.5l0,-1.5l1,-0.5l0,-1.5l1,-0.5l0,-1.5l2,-2.5l0,-2.5l2,-2.5l-1,-3.5l-3,-3Zm-296.5,1l-1,1l0,1.5l-1,0.5l0,5.5l1,0.5l1,3.5l2,1.5l0,1.5l1,0.5l0,1.5l1,0.5l1,3.5l2,1.5l0,1.5l1,0.5l1,3.5l2,1.5l1,3.5l2,1.5l1,3.5l2,1.5l0,1.5l2,2l6.5,0l1,-1l0,-7.5l-1,-0.5l0,-2.5l-2,-2.5l0,-2.5l-2,-2.5l0,-2.5l-1,-0.5l0,-1.5l-2,-2.5l0,-2.5l-1,-0.5l0,-1.5l-2,-2.5l0,-2.5l-1,-0.5l0,-1.5l-1,-0.5l0,-1.5l-1,-0.5l-1,-3.5l-1,-1l-1.5,0l-0.5,-1l-4.5,0l-0.5,1l-3.5,1Zm116,-213l-0.5,1l-10.5,0l-0.5,1l-7.5,0l-0.5,1l-6.5,0l-0.5,1l-5.5,0l-0.5,1l-11.5,1l-0.5,1l-3.5,0l-0.5,1l-5.5,0l-0.5,1l-3.5,0l-0.5,1l-4.5,0l-0.5,1l-3.5,0l-0.5,1l-4.5,0l-0.5,1l-3.5,0l-0.5,1l-7.5,1l-0.5,1l-2.5,0l-0.5,1l-3.5,0l-2.5,2l-3.5,0l-2.5,2l-3.5,0l-0.5,1l-2.5,0l-0.5,1l-2.5,0l-0.5,1l-5.5,1l-2.5,2l-2.5,0l-2.5,2l-5.5,1l-2.5,2l-2.5,0l-0.5,1l-1.5,0l-0.5,1l-1.5,0l-2.5,2l-2.5,0l-0.5,1l-1.5,0l-2.5,2l-2.5,0l-1.5,2l-2.5,0l-0.5,1l-1.5,0l-0.5,1l-1.5,0l-0.5,1l-1.5,0l-0.5,1l-1.5,0l-0.5,1l-1.5,0l-0.5,1l-3.5,1l-1.5,2l-1.5,0l-0.5,1l-1.5,0l-0.5,1l-1.5,0l-0.5,1l-3.5,1l-1.5,2l-1.5,0l-0.5,1l-1.5,0l-0.5,1l-3.5,1l-1.5,2l-3.5,1l-4.5,4l-3.5,1l-2.5,3l-1.5,0l-1.5,2l-1.5,0l-2.5,3l-1.5,0l-1.5,2l-1.5,0l-1.5,2l-1.5,0l-2.5,3l-1.5,0l-1.5,2l-1.5,0l-3.5,4l-1.5,0l-3.5,4l-1.5,0l-3.5,4l-1.5,0l-4.5,5l-1.5,0l-7.5,8l-1.5,0l0,1.5l-2,0.5l-7.5,8l-1.5,0l-3,3l0,1.5l-15,14.5l0,1.5l-8,7.5l0,1.5l-4,3.5l0,1.5l-6,5.5l0,1.5l-2,1.5l0,1.5l-5,4.5l0,1.5l-3,2.5l0,1.5l-2,1.5l0,1.5l-2,1.5l0,1.5l-3,2.5l0,1.5l-3,2.5l0,1.5l-2,1.5l-1,3.5l-3,2.5l-1,3.5l-2,1.5l-1,3.5l-2,1.5l0,1.5l-1,0.5l-1,3.5l-2,1.5l0,1.5l-1,0.5l0,1.5l-1,0.5l-1,3.5l-2,1.5l0,1.5l-1,0.5l0,1.5l-1,0.5l0,1.5l-1,0.5l0,1.5l-1,0.5l0,1.5l-1,0.5l0,1.5l-1,0.5l0,1.5l-2,2.5l0,2.5l-1,0.5l0,1.5l-1,0.5l0,1.5l-2,2.5l0,2.5l-1,0.5l0,1.5l-2,2.5l0,2.5l-1,0.5l0,1.5l-1,0.5l0,2.5l-2,2.5l0,2.5l-1,0.5l0,2.5l-1,0.5l-1,5.5l-1,0.5l0,1.5l-1,0.5l0,2.5l-1,0.5l0,3.5l-1,0.5l0,2.5l-1,0.5l0,2.5l-1,0.5l0,2.5l-1,0.5l0,3.5l-1,0.5l0,2.5l-1,0.5l0,3.5l-1,0.5l0,2.5l-1,0.5l0,2.5l-1,0.5l0,4.5l-1,0.5l0,3.5l-1,0.5l0,3.5l-1,0.5l0,4.5l-1,0.5l0,3.5l-1,0.5l0,5.5l-1,0.5l0,4.5l-1,0.5l0,6.5l-1,0.5l0,5.5l-1,0.5l-1,13.5l-1,0.5l0,8.5l-1,0.5l0,16.5l-1,0.5l0,32.5l1,0.5l0,20.5l1,0.5l0,10.5l1,0.5l0,7.5l1,0.5l0,6.5l1,0.5l0,5.5l1,0.5l0,4.5l1,0.5l0,5.5l1,0.5l0,5.5l1,0.5l0,3.5l1,0.5l0,4.5l1,0.5l0,3.5l1,0.5l0,3.5l1,0.5l0,4.5l1,0.5l0,2.5l1,0.5l0,2.5l1,0.5l0,3.5l1,0.5l0,2.5l1,0.5l0,3.5l1,0.5l0,2.5l1,0.5l0,2.5l1,0.5l0,2.5l1,0.5l0,2.5l1,0.5l1,5.5l2,2.5l1,5.5l2,2.5l1,5.5l2,2.5l0,2.5l1,0.5l0,1.5l1,0.5l0,1.5l1,0.5l0,1.5l2,2.5l0,2.5l1,0.5l0,1.5l1,0.5l0,1.5l1,0.5l0,1.5l1,0.5l0,1.5l1,0.5l0,1.5l1,0.5l1,3.5l2,1.5l0,1.5l1,0.5l0,1.5l1,0.5l0,1.5l1,0.5l0,1.5l1,0.5l1,3.5l2,1.5l0,1.5l1,0.5l1,3.5l2,1.5l0,1.5l1,0.5l0,1.5l2,1.5l1,3.5l4,4.5l1,3.5l2,1.5l0,1.5l2,1.5l0,1.5l2,1.5l0,1.5l2,1.5l0,1.5l3,2.5l0,1.5l3,2.5l0,1.5l3,2.5l0,1.5l2,1.5l0,1.5l4,3.5l0,1.5l4,3.5l0,1.5l4,3.5l0,1.5l6,5.5l0,1.5l5,4.5l0,1.5l17,16.5l0,1.5l1.5,0l19.5,20l1.5,0l6.5,7l1.5,0l4.5,5l1.5,0l4.5,5l1.5,0l2.5,3l1.5,0l3.5,4l1.5,0l2.5,3l1.5,0l1.5,2l1.5,0l1.5,2l1.5,0l1.5,2l1.5,0l2.5,3l1.5,0l1.5,2l1.5,0l4.5,4l3.5,1l4.5,4l1.5,0l0.5,1l1.5,0l1.5,2l3.5,1l4.5,4l1.5,0l0.5,1l1.5,0l0.5,1l1.5,0l0.5,1l1.5,0l0.5,1l3.5,1l1.5,2l1.5,0l0.5,1l1.5,0l0.5,1l1.5,0l0.5,1l1.5,0l0.5,1l1.5,0l0.5,1l1.5,0l0.5,1l1.5,0l0.5,1l1.5,0l0.5,1l1.5,0l0.5,1l1.5,0l2.5,2l2.5,0l0.5,1l1.5,0l0.5,1l1.5,0l2.5,2l2.5,0l0.5,1l1.5,0l0.5,1l1.5,0l2.5,2l2.5,0l2.5,2l2.5,0l0.5,1l2.5,0l2.5,2l5.5,1l2.5,2l2.5,0l0.5,1l2.5,0l0.5,1l2.5,0l0.5,1l2.5,0l0.5,1l2.5,0l0.5,1l2.5,0l0.5,1l3.5,0l0.5,1l2.5,0l0.5,1l2.5,0l0.5,1l3.5,0l0.5,1l3.5,0l0.5,1l3.5,0l0.5,1l3.5,0l0.5,1l3.5,0l0.5,1l3.5,0l0.5,1l3.5,0l0.5,1l4.5,0l0.5,1l3.5,0l0.5,1l6.5,0l0.5,1l5.5,0l0.5,1l6.5,0l0.5,1l6.5,0l0.5,1l8.5,0l0.5,1l14.5,0l0.5,1l39.5,0l0.5,-1l12.5,0l0.5,-1l7.5,0l0.5,-1l7.5,0l0.5,-1l7.5,0l0.5,-1l11.5,-1l0.5,-1l4.5,0l0.5,-1l3.5,0l0.5,-1l4.5,0l0.5,-1l3.5,0l0.5,-1l3.5,0l0.5,-1l4.5,0l0.5,-1l2.5,0l0.5,-1l7.5,-1l0.5,-1l2.5,0l0.5,-1l2.5,0l0.5,-1l3.5,0l0.5,-1l2.5,0l0.5,-1l2.5,0l0.5,-1l2.5,0l0.5,-1l5.5,-1l2.5,-2l2.5,0l0.5,-1l5.5,-1l2.5,-2l5.5,-1l0.5,-1l1.5,0l0.5,-1l2.5,0l0.5,-1l1.5,0l0.5,-1l1.5,0l2.5,-2l2.5,0l0.5,-1l1.5,0l0.5,-1l1.5,0l0.5,-1l1.5,0l0.5,-1l1.5,0l0.5,-1l1.5,0l0.5,-1l1.5,0l0.5,-1l1.5,0l0.5,-1l1.5,0l2.5,-2l2.5,0l1.5,-2l1.5,0l0.5,-1l1.5,0l0.5,-1l1.5,0l0.5,-1l1.5,0l0.5,-1l1.5,0l0.5,-1l3.5,-1l1.5,-2l1.5,0l0.5,-1l3.5,-1l1.5,-2l1.5,0l0.5,-1l3.5,-1l1.5,-2l1.5,0l4.5,-4l3.5,-1l1.5,-2l1.5,0l1.5,-2l1.5,0l1.5,-2l1.5,0l1.5,-2l1.5,0l1.5,-2l1.5,0l1.5,-2l1.5,0l2.5,-3l1.5,0l1.5,-2l1.5,0l4.5,-5l1.5,0l1.5,-2l1.5,0l3.5,-4l1.5,0l5.5,-6l1.5,0l5.5,-6l1.5,0l8.5,-9l1.5,0l5,-5l0,-1.5l1.5,-1.5l1.5,0l0,-1.5l13,-12.5l0,-1.5l8,-7.5l0,-1.5l5,-4.5l0,-1.5l3,-2.5l0,-1.5l5,-4.5l0,-1.5l2,-1.5l0,-1.5l5,-4.5l1,-3.5l3,-2.5l0,-1.5l2,-1.5l0,-1.5l2,-1.5l0,-1.5l2,-1.5l0,-1.5l2,-1.5l0,-1.5l4,-4.5l0,-1.5l1,-0.5l0,-1.5l2,-1.5l1,-3.5l2,-1.5l0,-1.5l1,-0.5l1,-3.5l2,-1.5l0,-2.5l2,-1.5l0,-1.5l1,-0.5l0,-1.5l1,-0.5l0,-1.5l1,-0.5l0,-1.5l1,-0.5l0,-1.5l1,-0.5l0,-1.5l1,-0.5l0,-1.5l1,-0.5l0,-1.5l1,-0.5l0,-1.5l1,-0.5l0,-1.5l1,-0.5l0,-1.5l1,-0.5l0,-1.5l1,-0.5l0,-1.5l2,-2.5l0,-2.5l1,-0.5l0,-1.5l1,-0.5l0,-1.5l2,-2.5l1,-5.5l1,-0.5l0,-1.5l1,-0.5l0,-2.5l2,-2.5l0,-2.5l1,-0.5l0,-2.5l1,-0.5l0,-2.5l1,-0.5l0,-2.5l1,-0.5l0,-2.5l1,-0.5l0,-2.5l1,-0.5l0,-2.5l1,-0.5l0,-2.5l1,-0.5l0,-2.5l1,-0.5l0,-2.5l1,-0.5l0,-2.5l1,-0.5l1,-7.5l1,-0.5l0,-2.5l1,-0.5l0,-3.5l1,-0.5l0,-4.5l1,-0.5l0,-2.5l1,-0.5l0,-4.5l1,-0.5l0,-4.5l1,-0.5l1,-9.5l1,-0.5l0,-5.5l1,-0.5l0,-5.5l1,-0.5l0,-6.5l1,-0.5l0,-6.5l1,-0.5l0,-8.5l1,-0.5l0,-12.5l1,-0.5l0,-56.5l-1,-0.5l0,-11.5l-1,-0.5l-1,-17.5l-1,-0.5l0,-5.5l-1,-0.5l0,-6.5l-1,-0.5l-1,-11.5l-1,-0.5l0,-3.5l-1,-0.5l0,-4.5l-1,-0.5l0,-3.5l-1,-0.5l0,-3.5l-1,-0.5l0,-3.5l-1,-0.5l0,-3.5l-1,-0.5l-1,-7.5l-1,-0.5l0,-2.5l-1,-0.5l0,-3.5l-1,-0.5l0,-2.5l-1,-0.5l0,-2.5l-1,-0.5l0,-2.5l-1,-0.5l0,-2.5l-1,-0.5l0,-2.5l-1,-0.5l-1,-5.5l-2,-2.5l-1,-5.5l-2,-2.5l0,-2.5l-1,-0.5l0,-1.5l-2,-2.5l0,-2.5l-2,-2.5l0,-2.5l-1,-0.5l0,-1.5l-2,-2.5l0,-2.5l-1,-0.5l0,-1.5l-1,-0.5l0,-1.5l-1,-0.5l0,-1.5l-2,-2.5l0,-2.5l-1,-0.5l-1,-3.5l-2,-1.5l0,-1.5l-1,-0.5l0,-1.5l-1,-0.5l0,-1.5l-1,-0.5l0,-1.5l-1,-0.5l0,-1.5l-1,-0.5l-1,-3.5l-2,-1.5l-1,-3.5l-2,-1.5l0,-1.5l-1,-0.5l-1,-3.5l-4,-4.5l-1,-3.5l-2,-1.5l0,-1.5l-2,-1.5l0,-1.5l-2,-1.5l0,-1.5l-4,-4.5l-1,-3.5l-3,-2.5l0,-1.5l-3,-2.5l0,-1.5l-3,-2.5l0,-1.5l-3,-2.5l0,-1.5l-3,-2.5l0,-1.5l-4,-3.5l0,-1.5l-5,-4.5l0,-1.5l-5,-4.5l0,-1.5l-7,-6.5l0,-1.5l-2,-2l-1.5,0l-5.5,-5.5l0,-1.5l-9,-9l-1.5,0l-9.5,-10l-1.5,0l-5.5,-6l-1.5,0l-5.5,-6l-1.5,0l-4.5,-5l-1.5,0l-2.5,-3l-1.5,0l-3.5,-4l-1.5,0l-1.5,-2l-1.5,0l-2.5,-3l-1.5,0l-1.5,-2l-1.5,0l-2.5,-3l-3.5,-1l-1.5,-2l-1.5,0l-1.5,-2l-1.5,0l-2.5,-3l-3.5,-1l-4.5,-4l-1.5,0l-0.5,-1l-1.5,0l-1.5,-2l-1.5,0l-0.5,-1l-3.5,-1l-1.5,-2l-3.5,-1l-1.5,-2l-1.5,0l-0.5,-1l-1.5,0l-0.5,-1l-1.5,0l-0.5,-1l-1.5,0l-0.5,-1l-1.5,0l-0.5,-1l-1.5,0l-0.5,-1l-1.5,0l-0.5,-1l-1.5,0l-0.5,-1l-1.5,0l-0.5,-1l-1.5,0l-0.5,-1l-1.5,0l-0.5,-1l-1.5,0l-0.5,-1l-1.5,0l-0.5,-1l-1.5,0l-0.5,-1l-1.5,0l-2.5,-2l-2.5,0l-2.5,-2l-2.5,0l-0.5,-1l-1.5,0l-2.5,-2l-2.5,0l-2.5,-2l-5.5,-1l-2.5,-2l-2.5,0l-0.5,-1l-2.5,0l-0.5,-1l-2.5,0l-0.5,-1l-2.5,0l-0.5,-1l-2.5,0l-0.5,-1l-2.5,0l-0.5,-1l-2.5,0l-0.5,-1l-2.5,0l-0.5,-1l-2.5,0l-0.5,-1l-3.5,0l-0.5,-1l-2.5,0l-0.5,-1l-3.5,0l-0.5,-1l-3.5,0l-0.5,-1l-3.5,0l-0.5,-1l-3.5,0l-0.5,-1l-3.5,0l-0.5,-1l-4.5,0l-0.5,-1l-5.5,0l-0.5,-1l-3.5,0l-0.5,-1l-5.5,0l-0.5,-1l-5.5,0l-0.5,-1l-13.5,-1l-0.5,-1l-9.5,0l-0.5,-1l-10.5,0l-0.5,-1l-16.5,0l-0.5,-1l-29.5,0l-0.5,1l-18.5,0Zm9,42.5l52.5,0l0.5,1l10.5,0l0.5,1l8.5,0l0.5,1l6.5,0l0.5,1l4.5,0l0.5,1l7.5,0l0.5,1l5.5,0l0.5,1l3.5,0l0.5,1l4.5,0l0.5,1l3.5,0l0.5,1l7.5,1l0.5,1l2.5,0l0.5,1l3.5,0l0.5,1l2.5,0l0.5,1l2.5,0l0.5,1l2.5,0l0.5,1l2.5,0l0.5,1l2.5,0l0.5,1l2.5,0l0.5,1l5.5,1l2.5,2l5.5,1l0.5,1l1.5,0l0.5,1l2.5,0l0.5,1l1.5,0l2.5,2l2.5,0l0.5,1l1.5,0l0.5,1l1.5,0l0.5,1l1.5,0l0.5,1l1.5,0l0.5,1l1.5,0l0.5,1l1.5,0l2.5,2l2.5,0l1.5,2l1.5,0l0.5,1l1.5,0l0.5,1l1.5,0l0.5,1l1.5,0l0.5,1l1.5,0l0.5,1l3.5,1l1.5,2l1.5,0l0.5,1l1.5,0l0.5,1l3.5,1l1.5,2l1.5,0l0.5,1l1.5,0l1.5,2l3.5,1l2.5,3l3.5,1l1.5,2l1.5,0l1.5,2l1.5,0l2.5,3l1.5,0l1.5,2l1.5,0l2.5,3l1.5,0l2.5,3l1.5,0l1.5,2l1.5,0l2.5,3l1.5,0l4.5,5l1.5,0l3.5,4l1.5,0l4.5,5l1.5,0l7.5,8l1.5,0l20.5,20.5l0,1.5l9,8.5l0,1.5l5,4.5l0,1.5l4,3.5l0,1.5l3,2.5l0,1.5l4,3.5l0,1.5l2,1.5l0,1.5l3,2.5l0,1.5l2,1.5l0,1.5l4,4.5l1,3.5l3,2.5l1,3.5l4,4.5l0,1.5l1,0.5l1,3.5l2,1.5l1,3.5l2,1.5l0,1.5l1,0.5l0,1.5l1,0.5l0,1.5l1,0.5l0,1.5l1,0.5l0,1.5l1,0.5l0,1.5l1,0.5l0,1.5l1,0.5l0,1.5l1,0.5l0,1.5l1,0.5l0,1.5l1,0.5l0,1.5l1,0.5l0,1.5l1,0.5l0,1.5l2,2.5l0,2.5l1,0.5l0,1.5l1,0.5l0,2.5l1,0.5l0,1.5l1,0.5l0,1.5l2,2.5l0,2.5l2,2.5l1,5.5l2,2.5l0,2.5l1,0.5l0,2.5l1,0.5l0,2.5l1,0.5l0,2.5l1,0.5l0,2.5l1,0.5l0,3.5l1,0.5l0,2.5l1,0.5l0,3.5l1,0.5l0,2.5l1,0.5l1,7.5l1,0.5l0,2.5l1,0.5l0,4.5l1,0.5l0,4.5l1,0.5l0,4.5l1,0.5l0,4.5l1,0.5l0,5.5l1,0.5l0,5.5l1,0.5l0,6.5l1,0.5l0,6.5l1,0.5l0,10.5l1,0.5l0,19.5l1,0.5l0,21.5l-1,1l1,1l-1,0.5l0,16.5l-1,0.5l0,13.5l-1,0.5l0,9.5l-1,0.5l0,5.5l-1,0.5l0,5.5l-1,0.5l0,5.5l-1,0.5l-1,9.5l-1,0.5l0,3.5l-1,0.5l0,3.5l-1,0.5l0,3.5l-1,0.5l-1,7.5l-1,0.5l0,2.5l-1,0.5l0,3.5l-1,0.5l0,2.5l-1,0.5l0,2.5l-1,0.5l0,3.5l-1,0.5l0,2.5l-1,0.5l-1,5.5l-2,2.5l0,2.5l-1,0.5l-1,5.5l-1,0.5l0,1.5l-2,2.5l0,2.5l-1,0.5l0,1.5l-1,0.5l0,1.5l-1,0.5l0,1.5l-2,2.5l0,2.5l-1,0.5l0,1.5l-1,0.5l0,1.5l-1,0.5l0,1.5l-1,0.5l0,1.5l-1,0.5l0,1.5l-1,0.5l0,1.5l-1,0.5l0,1.5l-1,0.5l0,1.5l-1,0.5l0,1.5l-1,0.5l-1,3.5l-2,1.5l0,1.5l-1,0.5l0,1.5l-2,1.5l0,1.5l-1,0.5l0,1.5l-1,0.5l-1,3.5l-4,4.5l-1,3.5l-2,1.5l0,1.5l-1,0.5l0,1.5l-2,1.5l0,1.5l-3,2.5l0,1.5l-2,1.5l0,1.5l-3,2.5l0,1.5l-3,2.5l0,1.5l-3,2.5l0,1.5l-5,4.5l0,1.5l-6,5.5l0,1.5l-6,5.5l0,1.5l-23.5,23.5l-1.5,0l-7.5,8l-1.5,0l-3.5,4l-1.5,0l-3.5,4l-1.5,0l-2.5,3l-1.5,0l-2.5,3l-1.5,0l-2.5,3l-1.5,0l-1.5,2l-1.5,0l-1.5,2l-1.5,0l-1.5,2l-1.5,0l-1.5,2l-1.5,0l-1.5,2l-1.5,0l-4.5,4l-1.5,0l-0.5,1l-3.5,1l-4.5,4l-2.5,0l-1.5,2l-1.5,0l-0.5,1l-1.5,0l-0.5,1l-3.5,1l-1.5,2l-1.5,0l-0.5,1l-1.5,0l-0.5,1l-1.5,0l-0.5,1l-1.5,0l-0.5,1l-1.5,0l-0.5,1l-1.5,0l-2.5,2l-2.5,0l-0.5,1l-1.5,0l-0.5,1l-1.5,0l-0.5,1l-1.5,0l-2.5,2l-2.5,0l-0.5,1l-1.5,0l-2.5,2l-3.5,0l-0.5,1l-1.5,0l-2.5,2l-2.5,0l-0.5,1l-2.5,0l-0.5,1l-5.5,1l-2.5,2l-3.5,0l-2.5,2l-3.5,0l-0.5,1l-2.5,0l-0.5,1l-2.5,0l-0.5,1l-2.5,0l-0.5,1l-2.5,0l-0.5,1l-3.5,0l-0.5,1l-3.5,0l-0.5,1l-3.5,0l-0.5,1l-3.5,0l-0.5,1l-3.5,0l-0.5,1l-4.5,0l-0.5,1l-9.5,1l-0.5,1l-6.5,0l-0.5,1l-4.5,0l-0.5,1l-6.5,0l-0.5,1l-7.5,0l-0.5,1l-9.5,0l-0.5,1l-14.5,0l-0.5,1l-34.5,0l-0.5,-1l-14.5,0l-0.5,-1l-7.5,0l-0.5,-1l-7.5,0l-0.5,-1l-5.5,0l-0.5,-1l-4.5,0l-0.5,-1l-4.5,0l-0.5,-1l-6.5,0l-0.5,-1l-3.5,0l-0.5,-1l-4.5,0l-0.5,-1l-2.5,0l-0.5,-1l-3.5,0l-0.5,-1l-2.5,0l-0.5,-1l-4.5,0l-0.5,-1l-2.5,0l-0.5,-1l-2.5,0l-0.5,-1l-3.5,0l-0.5,-1l-2.5,0l-0.5,-1l-2.5,0l-0.5,-1l-2.5,0l-0.5,-1l-2.5,0l-0.5,-1l-2.5,0l-0.5,-1l-2.5,0l-0.5,-1l-5.5,-1l-2.5,-2l-2.5,0l-2.5,-2l-2.5,0l-2.5,-2l-2.5,0l-0.5,-1l-1.5,0l-2.5,-2l-2.5,0l-0.5,-1l-1.5,0l-0.5,-1l-1.5,0l-2.5,-2l-2.5,0l-0.5,-1l-1.5,0l-0.5,-1l-1.5,0l-0.5,-1l-1.5,0l-0.5,-1l-1.5,0l-2.5,-2l-2.5,0l-1.5,-2l-1.5,0l-0.5,-1l-1.5,0l-0.5,-1l-1.5,0l-0.5,-1l-3.5,-1l-1.5,-2l-1.5,0l-0.5,-1l-1.5,0l-0.5,-1l-1.5,0l-0.5,-1l-3.5,-1l-4.5,-4l-1.5,0l-0.5,-1l-1.5,0l-1.5,-2l-3.5,-1l-1.5,-2l-1.5,0l-1.5,-2l-1.5,0l-1.5,-2l-1.5,0l-2.5,-3l-1.5,0l-1.5,-2l-1.5,0l-2.5,-3l-1.5,0l-1.5,-2l-1.5,0l-4.5,-5l-1.5,0l-1.5,-2l-1.5,0l-6.5,-7l-1.5,0l-6.5,-7l-1.5,0l-27.5,-27.5l0,-1.5l-7,-6.5l0,-1.5l-5,-4.5l0,-1.5l-4,-3.5l0,-1.5l-2,-1.5l0,-1.5l-4,-3.5l0,-1.5l-3,-2.5l0,-1.5l-2,-1.5l0,-1.5l-3,-2.5l0,-1.5l-2,-1.5l0,-1.5l-2,-1.5l0,-1.5l-2,-1.5l0,-1.5l-4,-4.5l-1,-3.5l-2,-1.5l-1,-3.5l-2,-1.5l0,-1.5l-1,-0.5l0,-1.5l-1,-0.5l0,-1.5l-1,-0.5l0,-1.5l-1,-0.5l0,-1.5l-1,-0.5l-1,-3.5l-2,-1.5l0,-1.5l-2,-2.5l0,-2.5l-1,-0.5l0,-1.5l-1,-0.5l0,-1.5l-1,-0.5l0,-1.5l-2,-2.5l0,-2.5l-1,-0.5l0,-1.5l-1,-0.5l0,-1.5l-2,-2.5l-1,-5.5l-1,-0.5l0,-1.5l-2,-2.5l0,-2.5l-1,-0.5l0,-2.5l-2,-2.5l0,-2.5l-1,-0.5l0,-2.5l-1,-0.5l0,-2.5l-1,-0.5l0,-2.5l-1,-0.5l0,-2.5l-1,-0.5l0,-2.5l-1,-0.5l0,-3.5l-1,-0.5l0,-2.5l-1,-0.5l0,-3.5l-1,-0.5l0,-3.5l-1,-0.5l0,-3.5l-1,-0.5l0,-3.5l-1,-0.5l0,-3.5l-1,-0.5l0,-4.5l-1,-0.5l-1,-9.5l-1,-0.5l0,-6.5l-1,-0.5l0,-4.5l-1,-0.5l0,-7.5l-1,-0.5l0,-8.5l-1,-0.5l0,-10.5l-1,-0.5l0,-44.5l1,-0.5l0,-11.5l1,-0.5l1,-15.5l1,-0.5l0,-5.5l1,-0.5l0,-6.5l1,-0.5l0,-4.5l1,-0.5l0,-5.5l1,-0.5l0,-4.5l1,-0.5l0,-3.5l1,-0.5l0,-3.5l1,-0.5l0,-3.5l1,-0.5l0,-3.5l1,-0.5l0,-3.5l1,-0.5l1,-7.5l1,-0.5l0,-2.5l1,-0.5l0,-2.5l1,-0.5l0,-2.5l1,-0.5l0,-2.5l1,-0.5l0,-2.5l1,-0.5l0,-2.5l1,-0.5l0,-2.5l1,-0.5l1,-5.5l2,-2.5l0,-2.5l2,-2.5l0,-2.5l1,-0.5l0,-1.5l2,-2.5l0,-2.5l1,-0.5l0,-1.5l2,-2.5l0,-2.5l1,-0.5l0,-1.5l1,-0.5l0,-1.5l1,-0.5l0,-1.5l1,-0.5l0,-1.5l1,-0.5l0,-1.5l1,-0.5l0,-1.5l1,-0.5l0,-1.5l1,-0.5l0,-1.5l1,-0.5l1,-3.5l2,-1.5l0,-1.5l1,-0.5l0,-1.5l1,-0.5l1,-3.5l2,-1.5l0,-1.5l1,-0.5l1,-3.5l2,-1.5l1,-3.5l2,-1.5l0,-1.5l2,-1.5l0,-1.5l2,-1.5l0,-1.5l2,-1.5l0,-1.5l2,-1.5l0,-1.5l2,-1.5l0,-1.5l3,-2.5l0,-1.5l4,-3.5l0,-1.5l3,-2.5l0,-1.5l3,-2.5l0,-1.5l5,-4.5l0,-1.5l7,-6.5l0,-1.5l33.5,-33.5l1.5,0l6.5,-7l1.5,0l2.5,-3l1.5,0l4.5,-5l1.5,0l2.5,-3l1.5,0l3.5,-4l1.5,0l1.5,-2l1.5,0l1.5,-2l1.5,0l1.5,-2l1.5,0l2.5,-3l1.5,0l0.5,-1l3.5,-1l1.5,-2l1.5,0l4.5,-4l3.5,-1l4.5,-4l1.5,0l0.5,-1l1.5,0l0.5,-1l3.5,-1l1.5,-2l1.5,0l0.5,-1l1.5,0l0.5,-1l1.5,0l0.5,-1l1.5,0l0.5,-1l1.5,0l0.5,-1l1.5,0l0.5,-1l1.5,0l0.5,-1l1.5,0l0.5,-1l1.5,0l0.5,-1l1.5,0l2.5,-2l2.5,0l0.5,-1l1.5,0l2.5,-2l2.5,0l2.5,-2l2.5,0l0.5,-1l1.5,0l0.5,-1l1.5,0l2.5,-2l5.5,-1l2.5,-2l2.5,0l0.5,-1l2.5,0l0.5,-1l2.5,0l0.5,-1l2.5,0l0.5,-1l2.5,0l0.5,-1l2.5,0l0.5,-1l3.5,0l0.5,-1l2.5,0l0.5,-1l7.5,-1l0.5,-1l2.5,0l0.5,-1l3.5,0l0.5,-1l4.5,0l0.5,-1l3.5,0l0.5,-1l4.5,0l0.5,-1l5.5,0l0.5,-1l11.5,-1l0.5,-1l7.5,0l0.5,-1l8.5,0l0.5,-1l10.5,0l0.5,-1Z" style="fill:#fff;fill-rule:nonzero;stroke:#fff;stroke-width:1px;"/></g></svg>