<?xml version="1.0" encoding="UTF-8" standalone="no"?><!DOCTYPE svg PUBLIC "-//W3C//DTD SVG 1.1//EN" "http://www.w3.org/Graphics/SVG/1.1/DTD/svg11.dtd"><svg width="100%" height="100%" viewBox="0 0 661 651" version="1.1" xmlns="http://www.w3.org/2000/svg" xmlns:xlink="http://www.w3.org/1999/xlink" xml:space="preserve" xmlns:serif="http://www.serif.com/" style="fill-rule:evenodd;clip-rule:evenodd;stroke-linejoin:round;"><rect id="Artboard1" x="0" y="0" width="661" height="651" style="fill:none;"/><g id="color_1"><path d="M192,241l0,1.5l-1,0.5l0,139.5l1,0.5l0,9.5l1,0.5l0,6.5l1,0.5l0,4.5l1,0.5l0,3.5l1,0.5l1,7.5l2,2.5l0,2.5l1,0.5l0,2.5l1,0.5l0,1.5l2,2.5l0,2.5l1,0.5l1,3.5l2,1.5l0,1.5l1,0.5l1,3.5l2,1.5l1,3.5l3,2.5l0,1.5l2,1.5l0,1.5l4,3.5l0,1.5l18,18l1.5,0l2.5,3l1.5,0l2.5,3l1.5,0l1.5,2l3.5,1l1.5,2l3.5,1l1.5,2l1.5,0l0.5,1l1.5,0l0.5,1l1.5,0l2.5,2l2.5,0l2.5,2l2.5,0l2.5,2l2.5,0l0.5,1l2.5,0l0.5,1l3.5,0l0.5,1l2.5,0l0.5,1l3.5,0l0.5,1l3.5,0l0.5,1l5.5,0l0.5,1l6.5,0l0.5,1l36.5,0l0.5,-1l6.5,0l0.5,-1l5.5,0l0.5,-1l4.5,0l0.5,-1l7.5,-1l0.5,-1l2.5,0l0.5,-1l5.5,-1l0.5,-1l1.5,0l2.5,-2l2.5,0l0.5,-1l1.5,0l2.5,-2l2.5,0l0.5,-1l3.5,-1l1.5,-2l3.5,-1l1.5,-2l1.5,0l1.5,-2l1.5,0l4.5,-4l1.5,0l3.5,-4l1.5,0l7.5,-8l1.5,0l3,-3l0,-1.5l7,-6.5l0,-1.5l2,-1.5l0,-1.5l3,-2.5l0,-1.5l2,-1.5l1,-3.5l2,-1.5l1,-3.5l2,-1.5l0,-1.5l1,-0.5l0,-1.5l1,-0.5l0,-1.5l2,-2.5l0,-2.5l2,-2.5l1,-5.5l2,-2.5l0,-3.5l1,-0.5l0,-2.5l1,-0.5l0,-4.5l1,-0.5l0,-3.5l1,-0.5l0,-5.5l1,-0.5l0,-9.5l1,-0.5l0,-140.5l-1,-0.5l0,-2.5l-3,-3l-1.5,0l-0.5,-1l-73.5,0l-4,3l0,1.5l-1,0.5l0,136.5l-1,0.5l0,6.5l-1,0.5l0,3.5l-1,0.5l-1,5.5l-2,2.5l0,2.5l-2,1.5l-1,3.5l-3,2.5l0,1.5l-7.5,7.5l-1.5,0l-2.5,3l-1.5,0l-1.5,2l-1.5,0l-0.5,1l-1.5,0l-0.5,1l-1.5,0l-2.5,2l-2.5,0l-0.5,1l-2.5,0l-0.5,1l-4.5,0l-0.5,1l-18.5,0l-0.5,-1l-4.5,0l-0.5,-1l-2.5,0l-0.5,-1l-2.5,0l-2.5,-2l-2.5,0l-0.5,-1l-1.5,0l-1.5,-2l-1.5,0l-1.5,-2l-1.5,0l-2.5,-3l-1.5,0l-5.5,-5.5l0,-1.5l-3,-2.5l0,-1.5l-2,-1.5l0,-1.5l-1,-0.5l0,-1.5l-2,-2.5l0,-2.5l-2,-2.5l0,-2.5l-1,-0.5l0,-4.5l-1,-0.5l0,-7.5l-1,-0.5l0,-133.5l-1,-0.5l0,-1.5l-5,-4l-72.5,0l-5,4Zm206.5,65l1,-0.5l0.5,-7l57,0.5l-0.5,9l-56.5,0l-1.5,-2Zm-195,0l1,-0.5l0.5,-7l58,0.5l0,7.5l-1.5,1.5l-56.5,0l-1.5,-2Zm331,-87l-2,-2l-5.5,-1l-0.5,1l-7.5,1l-2.5,2l-3.5,0l-0.5,1l-2.5,0l-0.5,1l-2.5,0l-0.5,1l-2.5,0l-0.5,1l-2.5,0l-0.5,1l-3.5,0l-0.5,1l-2.5,0l-0.5,1l-5.5,1l-2,2l0,6.5l1,1l1.5,0l0.5,1l2.5,0l1,1l0.5,-1l3.5,0l0.5,-1l2.5,0l0.5,-1l3.5,0l0.5,-1l2.5,0l0.5,-1l2.5,0l0.5,-1l2.5,0l0.5,-1l3.5,0l0.5,-1l2.5,0l0.5,-1l2.5,0l0.5,-1l3.5,0l0.5,-1l2.5,0l0.5,-1l3.5,-1l0,-1.5l1,-0.5l0,-5.5Zm-408.5,0l0,5.5l3,3l2.5,0l0.5,1l2.5,0l0.5,1l2.5,0l0.5,1l3.5,0l0.5,1l2.5,0l0.5,1l2.5,0l0.5,1l2.5,0l0.5,1l3.5,0l0.5,1l2.5,0l0.5,1l2.5,0l0.5,1l3.5,0l0.5,1l2.5,0l0.5,1l5.5,-1l2,-2l0,-5.5l-5,-4l-2.5,0l-0.5,-1l-3.5,0l-0.5,-1l-2.5,0l-0.5,-1l-2.5,0l-0.5,-1l-3.5,0l-0.5,-1l-2.5,0l-0.5,-1l-2.5,0l-0.5,-1l-2.5,0l-0.5,-1l-2.5,0l-0.5,-1l-2.5,0l-0.5,-1l-2.5,0l-0.5,-1l-5.5,0l-4,3Zm387.5,-42l-2,-2l-2.5,0l-0.5,-1l-2.5,0l-0.5,1l-1.5,0l-1.5,2l-1.5,0l-4.5,5l-1.5,0l-2.5,3l-1.5,0l-2.5,3l-1.5,0l-3.5,4l-1.5,0l-4.5,5l-1.5,0l-2.5,3l-1.5,0l-5.5,6l-1.5,0l-4,4l0,5.5l4,3l3.5,0l0.5,-1l2.5,0l3.5,-4l1.5,0l3.5,-4l1.5,0l2.5,-3l1.5,0l3.5,-4l1.5,0l2.5,-3l1.5,0l3.5,-4l1.5,0l3.5,-4l1.5,0l3.5,-4l1.5,0l4,-4l0,-6.5Zm-365.5,0l0,6.5l4,4l1.5,0l3.5,4l1.5,0l3.5,4l1.5,0l3.5,4l1.5,0l3.5,4l1.5,0l2.5,3l1.5,0l2.5,3l1.5,0l3.5,4l1.5,0l2.5,3l1.5,0l1.5,2l5.5,0l0.5,-1l1.5,0l0,-1.5l1,-0.5l0,-4.5l-1,-0.5l0,-1.5l-2,-2l-1.5,0l-4.5,-5l-1.5,0l-3.5,-4l-1.5,0l-3.5,-4l-1.5,0l-3.5,-4l-1.5,0l-3.5,-4l-1.5,0l-3.5,-4l-1.5,0l-4.5,-5l-1.5,0l-1.5,-2l-1.5,0l-0.5,-1l-4.5,0l-3,3Zm313.5,-9l-1.5,0l-0.5,-1l-5.5,0l-27,27l0,1.5l-7,6.5l0,1.5l-1,0.5l0,3.5l1,0.5l0,1.5l1,1l1.5,0l0.5,1l3.5,0l0.5,-1l2.5,0l13,-13l0,-1.5l17,-16.5l0,-1.5l3,-2.5l0,-5.5l-1,-0.5l0,-1.5Zm-260.5,-1l-3,4l0,2.5l1,0.5l0,1.5l4,3.5l0,1.5l16,15.5l0,1.5l13,13l3.5,0l1,1l0.5,-1l3.5,-1l0,-1.5l1,-0.5l0,-4.5l-1,-0.5l0,-1.5l-7,-6.5l0,-1.5l-26,-26l-6.5,0Zm79,-159l-0.5,1l-6.5,0l-0.5,1l-4.5,0l-0.5,1l-3.5,0l-0.5,1l-4.5,0l-0.5,1l-4.5,0l-0.5,1l-3.5,0l-0.5,1l-3.5,0l-0.5,1l-7.5,1l-0.5,1l-2.5,0l-0.5,1l-3.5,0l-0.5,1l-2.5,0l-0.5,1l-2.5,0l-0.5,1l-2.5,0l-0.5,1l-2.5,0l-0.5,1l-5.5,1l-0.5,1l-1.5,0l-2.5,2l-5.5,1l-0.5,1l-1.5,0l-0.5,1l-2.5,0l-0.5,1l-1.5,0l-2.5,2l-2.5,0l-0.5,1l-1.5,0l-0.5,1l-1.5,0l-0.5,1l-1.5,0l-0.5,1l-1.5,0l-0.5,1l-1.5,0l-0.5,1l-1.5,0l-0.5,1l-1.5,0l-0.5,1l-1.5,0l-0.5,1l-1.5,0l-0.5,1l-3.5,1l-1.5,2l-1.5,0l-0.5,1l-3.5,1l-1.5,2l-3.5,1l-1.5,2l-1.5,0l-1.5,2l-1.5,0l-1.5,2l-1.5,0l-1.5,2l-1.5,0l-1.5,2l-1.5,0l-1.5,2l-1.5,0l-1.5,2l-1.5,0l-2.5,3l-1.5,0l-2.5,3l-1.5,0l-2.5,3l-1.5,0l-3.5,4l-1.5,0l-4.5,5l-1.5,0l-7.5,8l-1.5,0l-14,14l0,1.5l-8,7.5l0,1.5l-7,6.5l0,1.5l-4,3.5l0,1.5l-2,1.5l0,1.5l-4,3.5l0,1.5l-3,2.5l0,1.5l-4,4.5l-1,3.5l-3,2.5l0,1.5l-2,1.5l-1,3.5l-2,1.5l-1,3.5l-2,1.5l-1,3.5l-2,1.5l0,1.5l-1,0.5l0,1.5l-1,0.5l0,1.5l-1,0.5l0,1.5l-1,0.5l0,1.5l-1,0.5l0,1.5l-1,0.5l0,1.5l-2,2.5l0,2.5l-1,0.5l0,1.5l-1,0.5l0,1.5l-1,0.5l0,1.5l-2,2.5l0,2.5l-1,0.5l0,1.5l-2,2.5l0,2.5l-1,0.5l-1,5.5l-2,2.5l0,2.5l-1,0.5l0,2.5l-1,0.5l0,2.5l-1,0.5l0,2.5l-1,0.5l0,3.5l-1,0.5l0,2.5l-1,0.5l0,3.5l-1,0.5l0,2.5l-1,0.5l0,3.5l-1,0.5l0,2.5l-1,0.5l0,3.5l-1,0.5l0,4.5l-1,0.5l0,4.5l-1,0.5l0,3.5l-1,0.5l0,5.5l-1,0.5l0,6.5l-1,0.5l0,5.5l-1,0.5l0,8.5l-1,0.5l0,8.5l-1,0.5l0,49.5l1,0.5l0,10.5l1,0.5l0,6.5l1,0.5l0,5.5l1,0.5l0,5.5l1,0.5l0,5.5l1,0.5l1,9.5l1,0.5l0,3.5l1,0.5l1,7.5l1,0.5l0,2.5l1,0.5l0,2.5l1,0.5l0,3.5l1,0.5l0,2.5l1,0.5l0,2.5l1,0.5l0,2.5l1,0.5l0,2.5l1,0.5l1,5.5l1,0.5l0,1.5l2,2.5l1,5.5l1,0.5l0,1.5l1,0.5l0,2.5l1,0.5l0,1.5l1,0.5l0,1.5l2,2.5l0,2.5l1,0.5l0,1.5l1,0.5l0,1.5l1,0.5l0,1.5l1,0.5l0,1.5l1,0.5l1,3.5l2,1.5l0,1.5l1,0.5l0,1.5l1,0.5l0,1.5l1,0.5l1,3.5l2,1.5l1,3.5l2,1.5l1,3.5l2,1.5l1,3.5l2,1.5l0,1.5l3,2.5l0,1.5l2,1.5l0,1.5l3,2.5l0,1.5l2,1.5l0,1.5l5,4.5l0,1.5l4,3.5l0,1.5l6,5.5l0,1.5l10,9.5l0,1.5l4,4l1.5,0l1.5,1.5l0,1.5l1.5,0l10.5,11l1.5,0l4.5,5l1.5,0l4.5,5l1.5,0l2.5,3l1.5,0l2.5,3l1.5,0l2.5,3l1.5,0l2.5,3l1.5,0l1.5,2l1.5,0l1.5,2l1.5,0l1.5,2l1.5,0l4.5,4l3.5,1l1.5,2l3.5,1l1.5,2l1.5,0l0.5,1l1.5,0l0.5,1l3.5,1l1.5,2l1.5,0l0.5,1l1.5,0l0.5,1l1.5,0l0.5,1l1.5,0l0.5,1l1.5,0l0.5,1l1.5,0l0.5,1l1.5,0l2.5,2l2.5,0l0.5,1l1.5,0l0.5,1l1.5,0l0.5,1l1.5,0l2.5,2l2.5,0l0.5,1l1.5,0l0.5,1l2.5,0l2.5,2l5.5,1l2.5,2l2.5,0l0.5,1l2.5,0l0.5,1l2.5,0l0.5,1l2.5,0l0.5,1l2.5,0l0.5,1l3.5,0l0.5,1l2.5,0l0.5,1l3.5,0l0.5,1l2.5,0l0.5,1l3.5,0l0.5,1l3.5,0l0.5,1l4.5,0l0.5,1l4.5,0l0.5,1l4.5,0l0.5,1l5.5,0l0.5,1l5.5,0l0.5,1l6.5,0l0.5,1l9.5,0l0.5,1l14.5,0l0.5,1l33.5,0l0.5,-1l15.5,0l0.5,-1l8.5,0l0.5,-1l7.5,0l0.5,-1l5.5,0l0.5,-1l5.5,0l0.5,-1l9.5,-1l0.5,-1l3.5,0l0.5,-1l4.5,0l0.5,-1l7.5,-1l0.5,-1l2.5,0l0.5,-1l3.5,0l0.5,-1l2.5,0l0.5,-1l2.5,0l0.5,-1l3.5,0l0.5,-1l5.5,-1l2.5,-2l3.5,0l2.5,-2l2.5,0l2.5,-2l2.5,0l2.5,-2l2.5,0l0.5,-1l1.5,0l2.5,-2l2.5,0l0.5,-1l1.5,0l0.5,-1l1.5,0l0.5,-1l1.5,0l0.5,-1l1.5,0l0.5,-1l1.5,0l0.5,-1l1.5,0l0.5,-1l1.5,0l0.5,-1l1.5,0l0.5,-1l1.5,0l0.5,-1l1.5,0l0.5,-1l3.5,-1l1.5,-2l1.5,0l0.5,-1l3.5,-1l1.5,-2l3.5,-1l4.5,-4l3.5,-1l1.5,-2l1.5,0l1.5,-2l1.5,0l1.5,-2l1.5,0l2.5,-3l1.5,0l1.5,-2l1.5,0l2.5,-3l1.5,0l2.5,-3l1.5,0l2.5,-3l1.5,0l3.5,-4l1.5,0l8.5,-9l1.5,0l23,-23l0,-1.5l5,-4.5l0,-1.5l4,-3.5l0,-1.5l4,-3.5l0,-1.5l3,-2.5l0,-1.5l4,-3.5l0,-1.5l2,-1.5l0,-1.5l2,-1.5l0,-1.5l2,-1.5l0,-1.5l2,-1.5l0,-1.5l4,-4.5l1,-3.5l4,-4.5l0,-1.5l1,-0.5l1,-3.5l2,-1.5l0,-1.5l1,-0.5l0,-1.5l1,-0.5l0,-1.5l1,-0.5l0,-1.5l1,-0.5l0,-1.5l1,-0.5l0,-1.5l1,-0.5l0,-1.5l1,-0.5l0,-1.5l2,-2.5l0,-2.5l1,-0.5l0,-1.5l1,-0.5l0,-1.5l2,-2.5l0,-2.5l1,-0.5l0,-1.5l1,-0.5l0,-2.5l2,-2.5l0,-2.5l1,-0.5l1,-5.5l2,-2.5l0,-2.5l1,-0.5l0,-2.5l1,-0.5l0,-3.5l1,-0.5l0,-2.5l1,-0.5l0,-2.5l1,-0.5l0,-2.5l1,-0.5l1,-7.5l1,-0.5l0,-4.5l1,-0.5l0,-3.5l1,-0.5l0,-4.5l1,-0.5l0,-4.5l1,-0.5l0,-5.5l1,-0.5l0,-7.5l1,-0.5l0,-6.5l1,-0.5l0,-7.5l1,-0.5l0,-15.5l1,-0.5l0,-26.5l-1,-0.5l0,-14.5l-1,-0.5l0,-8.5l-1,-0.5l0,-7.5l-1,-0.5l0,-6.5l-1,-0.5l0,-4.5l-1,-0.5l0,-5.5l-1,-0.5l0,-4.5l-1,-0.5l0,-3.5l-1,-0.5l0,-4.5l-1,-0.5l-1,-7.5l-1,-0.5l0,-2.5l-1,-0.5l0,-2.5l-1,-0.5l0,-3.5l-1,-0.5l0,-2.5l-1,-0.5l0,-2.5l-1,-0.5l0,-2.5l-1,-0.5l0,-2.5l-1,-0.5l0,-2.5l-1,-0.5l-1,-5.5l-2,-2.5l0,-2.5l-1,-0.5l0,-2.5l-2,-2.5l0,-2.5l-1,-0.5l0,-1.5l-1,-0.5l0,-1.5l-2,-2.5l0,-2.5l-1,-0.5l0,-1.5l-1,-0.5l0,-1.5l-1,-0.5l0,-1.5l-1,-0.5l0,-1.5l-1,-0.5l-1,-3.5l-2,-1.5l0,-1.5l-1,-0.5l0,-1.5l-1,-0.5l0,-1.5l-1,-0.5l0,-1.5l-1,-0.5l0,-1.5l-1,-0.5l-1,-3.5l-2,-1.5l0,-1.5l-2,-1.5l0,-1.5l-2,-1.5l0,-1.5l-2,-1.5l0,-1.5l-4,-4.5l-1,-3.5l-3,-2.5l0,-1.5l-3,-2.5l0,-1.5l-2,-1.5l0,-1.5l-5,-4.5l0,-1.5l-3,-2.5l0,-1.5l-7,-6.5l0,-1.5l-10,-9.5l0,-1.5l-6,-6l-1.5,0l-9.5,-10l-1.5,0l-6.5,-7l-1.5,0l-3.5,-4l-1.5,0l-2.5,-3l-1.5,0l-3.5,-4l-1.5,0l-1.5,-2l-1.5,0l-1.5,-2l-1.5,0l-1.5,-2l-1.5,0l-1.5,-2l-1.5,0l-4.5,-4l-3.5,-1l-4.5,-4l-3.5,-1l-1.5,-2l-1.5,0l-0.5,-1l-1.5,0l-0.5,-1l-3.5,-1l-1.5,-2l-1.5,0l-0.5,-1l-1.5,0l-0.5,-1l-1.5,0l-0.5,-1l-1.5,0l-2.5,-2l-2.5,0l-1.5,-2l-1.5,0l-2.5,-2l-2.5,0l-2.5,-2l-2.5,0l-0.5,-1l-1.5,0l-2.5,-2l-5.5,-1l-2.5,-2l-2.5,0l-0.5,-1l-2.5,0l-0.5,-1l-2.5,0l-0.5,-1l-2.5,0l-0.5,-1l-2.5,0l-0.5,-1l-2.5,0l-0.5,-1l-2.5,0l-0.5,-1l-2.5,0l-0.5,-1l-3.5,0l-0.5,-1l-2.5,0l-0.5,-1l-3.5,0l-0.5,-1l-4.5,0l-0.5,-1l-3.5,0l-0.5,-1l-3.5,0l-0.5,-1l-4.5,0l-0.5,-1l-4.5,0l-0.5,-1l-4.5,0l-0.5,-1l-7.5,0l-0.5,-1l-7.5,0l-0.5,-1l-10.5,0l-0.5,-1l-12.5,0l-0.5,-1l-37.5,0l-0.5,1l-11.5,0l-0.5,1l-9.5,0l-0.5,1l-8.5,0Zm35,14.5l31.5,0l0.5,1l14.5,0l0.5,1l8.5,0l0.5,1l13.5,1l0.5,1l4.5,0l0.5,1l9.5,1l0.5,1l3.5,0l0.5,1l4.5,0l0.5,1l2.5,0l0.5,1l7.5,1l0.5,1l2.5,0l0.5,1l2.5,0l0.5,1l3.5,0l0.5,1l2.5,0l0.5,1l5.5,1l0.5,1l1.5,0l2.5,2l2.5,0l2.5,2l2.5,0l2.5,2l2.5,0l2.5,2l2.5,0l0.5,1l1.5,0l0.5,1l1.5,0l0.5,1l1.5,0l0.5,1l1.5,0l0.5,1l1.5,0l0.5,1l1.5,0l0.5,1l1.5,0l0.5,1l1.5,0l0.5,1l1.5,0l0.5,1l3.5,1l1.5,2l3.5,1l1.5,2l1.5,0l0.5,1l3.5,1l1.5,2l1.5,0l1.5,2l3.5,1l2.5,3l1.5,0l1.5,2l1.5,0l1.5,2l1.5,0l2.5,3l1.5,0l2.5,3l1.5,0l3.5,4l1.5,0l2.5,3l1.5,0l4.5,5l1.5,0l9.5,10l1.5,0l13.5,13.5l0,1.5l9,8.5l0,1.5l4,3.5l0,1.5l4,3.5l0,1.5l3,2.5l0,1.5l3,2.5l0,1.5l2,1.5l0,1.5l2,1.5l0,1.5l2,1.5l0,1.5l3,2.5l0,1.5l4,4.5l1,3.5l2,1.5l1,3.5l2,1.5l0,1.5l1,0.5l0,1.5l1,0.5l0,1.5l1,0.5l0,1.5l1,0.5l0,1.5l1,0.5l0,1.5l1,0.5l0,1.5l1,0.5l0,1.5l1,0.5l0,1.5l1,0.5l0,1.5l2,2.5l0,2.5l1,0.5l0,1.5l1,0.5l0,1.5l1,0.5l0,1.5l2,2.5l1,5.5l2,2.5l0,2.5l1,0.5l0,2.5l1,0.5l0,2.5l1,0.5l0,2.5l1,0.5l0,2.5l1,0.5l0,2.5l1,0.5l0,2.5l1,0.5l0,3.5l1,0.5l0,2.5l1,0.5l0,4.5l1,0.5l0,2.5l1,0.5l0,3.5l1,0.5l0,5.5l1,0.5l0,3.5l1,0.5l0,5.5l1,0.5l0,5.5l1,0.5l0,6.5l1,0.5l0,6.5l1,0.5l0,11.5l1,0.5l0,41.5l-1,0.5l0,10.5l-1,0.5l0,7.5l-1,0.5l0,6.5l-1,0.5l0,5.5l-1,0.5l0,4.5l-1,0.5l0,4.5l-1,0.5l0,4.5l-1,0.5l0,3.5l-1,0.5l0,2.5l-1,0.5l0,3.5l-1,0.5l0,2.5l-1,0.5l0,3.5l-1,0.5l0,2.5l-1,0.5l0,2.5l-1,0.5l0,2.5l-1,0.5l0,2.5l-1,0.5l-1,5.5l-2,2.5l-1,5.5l-1,0.5l0,1.5l-1,0.5l0,1.5l-2,2.5l0,2.5l-1,0.5l0,1.5l-1,0.5l0,1.5l-2,2.5l0,2.5l-1,0.5l-1,3.5l-2,1.5l0,1.5l-1,0.5l0,1.5l-1,0.5l0,1.5l-1,0.5l-1,3.5l-2,1.5l0,1.5l-1,0.5l-1,3.5l-2,1.5l-1,3.5l-2,1.5l0,1.5l-2,1.5l0,1.5l-2,1.5l0,1.5l-2,1.5l0,1.5l-2,1.5l0,1.5l-3,2.5l0,1.5l-3,2.5l0,1.5l-4,3.5l0,1.5l-4,3.5l0,1.5l-9,8.5l0,1.5l-22.5,22.5l-1.5,0l-5.5,6l-1.5,0l-4.5,5l-1.5,0l-3.5,4l-1.5,0l-1.5,2l-1.5,0l-2.5,3l-1.5,0l-2.5,3l-1.5,0l-1.5,2l-1.5,0l-1.5,2l-1.5,0l-1.5,2l-1.5,0l-4.5,4l-1.5,0l-0.5,1l-3.5,1l-1.5,2l-3.5,1l-1.5,2l-1.5,0l-0.5,1l-1.5,0l-0.5,1l-1.5,0l-0.5,1l-1.5,0l-0.5,1l-1.5,0l-0.5,1l-1.5,0l-0.5,1l-1.5,0l-0.5,1l-1.5,0l-0.5,1l-1.5,0l-0.5,1l-1.5,0l-0.5,1l-1.5,0l-0.5,1l-1.5,0l-2.5,2l-2.5,0l-0.5,1l-1.5,0l-0.5,1l-1.5,0l-2.5,2l-2.5,0l-0.5,1l-2.5,0l-0.5,1l-5.5,1l-2.5,2l-2.5,0l-0.5,1l-2.5,0l-0.5,1l-2.5,0l-0.5,1l-2.5,0l-0.5,1l-2.5,0l-0.5,1l-3.5,0l-0.5,1l-2.5,0l-0.5,1l-3.5,0l-0.5,1l-7.5,1l-0.5,1l-4.5,0l-0.5,1l-3.5,0l-0.5,1l-5.5,0l-0.5,1l-5.5,0l-0.5,1l-13.5,1l-0.5,1l-8.5,0l-0.5,1l-15.5,0l-0.5,1l-19.5,0l-0.5,-1l-18.5,0l-0.5,-1l-8.5,0l-0.5,-1l-7.5,0l-0.5,-1l-4.5,0l-0.5,-1l-5.5,0l-0.5,-1l-5.5,0l-0.5,-1l-4.5,0l-0.5,-1l-3.5,0l-0.5,-1l-7.5,-1l-0.5,-1l-2.5,0l-0.5,-1l-3.5,0l-0.5,-1l-2.5,0l-0.5,-1l-3.5,0l-0.5,-1l-2.5,0l-0.5,-1l-3.5,0l-0.5,-1l-2.5,0l-2.5,-2l-5.5,-1l-2.5,-2l-2.5,0l-2.5,-2l-2.5,0l-0.5,-1l-1.5,0l-2.5,-2l-2.5,0l-0.5,-1l-1.5,0l-0.5,-1l-1.5,0l-0.5,-1l-1.5,0l-2.5,-2l-2.5,0l-1.5,-2l-1.5,0l-0.5,-1l-1.5,0l-0.5,-1l-1.5,0l-0.5,-1l-3.5,-1l-1.5,-2l-1.5,0l-0.5,-1l-3.5,-1l-1.5,-2l-3.5,-1l-1.5,-2l-3.5,-1l-1.5,-2l-1.5,0l-1.5,-2l-1.5,0l-1.5,-2l-1.5,0l-1.5,-2l-1.5,0l-1.5,-2l-1.5,0l-2.5,-3l-1.5,0l-1.5,-2l-1.5,0l-3.5,-4l-1.5,0l-3.5,-4l-1.5,0l-3.5,-4l-1.5,0l-9.5,-10l-1.5,0l-14.5,-14.5l0,-1.5l-8,-7.5l0,-1.5l-5,-4.5l0,-1.5l-4,-3.5l0,-1.5l-4,-3.5l0,-1.5l-3,-2.5l0,-1.5l-2,-1.5l0,-1.5l-2,-1.5l0,-1.5l-2,-1.5l0,-1.5l-3,-2.5l-1,-3.5l-2,-1.5l-1,-3.5l-2,-1.5l0,-1.5l-1,-0.5l-1,-3.5l-2,-1.5l0,-1.5l-1,-0.5l0,-1.5l-1,-0.5l0,-1.5l-1,-0.5l0,-1.5l-1,-0.5l0,-1.5l-1,-0.5l0,-1.5l-1,-0.5l0,-1.5l-1,-0.5l0,-1.5l-1,-0.5l0,-1.5l-1,-0.5l0,-1.5l-1,-0.5l0,-1.5l-1,-0.5l0,-1.5l-2,-2.5l0,-2.5l-1,-0.5l0,-1.5l-1,-0.5l0,-2.5l-2,-2.5l0,-2.5l-1,-0.5l0,-2.5l-1,-0.5l-1,-5.5l-2,-2.5l0,-2.5l-1,-0.5l0,-3.5l-1,-0.5l0,-2.5l-1,-0.5l0,-2.5l-1,-0.5l0,-2.5l-1,-0.5l0,-3.5l-1,-0.5l0,-3.5l-1,-0.5l0,-3.5l-1,-0.5l0,-3.5l-1,-0.5l0,-4.5l-1,-0.5l0,-5.5l-1,-0.5l0,-4.5l-1,-0.5l0,-6.5l-1,-0.5l0,-7.5l-1,-0.5l0,-11.5l-1,-0.5l0,-36.5l1,-0.5l0,-11.5l1,-0.5l0,-8.5l1,-0.5l0,-6.5l1,-0.5l0,-5.5l1,-0.5l0,-5.5l1,-0.5l1,-9.5l1,-0.5l0,-2.5l1,-0.5l0,-4.5l1,-0.5l0,-2.5l1,-0.5l0,-3.5l1,-0.5l0,-2.5l1,-0.5l0,-2.5l1,-0.5l0,-3.5l1,-0.5l0,-2.5l1,-0.5l1,-5.5l2,-2.5l0,-2.5l1,-0.5l1,-5.5l1,-0.5l0,-1.5l1,-0.5l0,-2.5l1,-0.5l0,-1.5l2,-2.5l0,-2.5l1,-0.5l0,-1.5l1,-0.5l0,-1.5l1,-0.5l0,-1.5l1,-0.5l0,-1.5l1,-0.5l0,-1.5l1,-0.5l0,-1.5l1,-0.5l0,-1.5l1,-0.5l1,-3.5l2,-1.5l0,-1.5l1,-0.5l0,-1.5l1,-0.5l0,-1.5l1,-0.5l1,-3.5l2,-1.5l1,-3.5l2,-1.5l0,-1.5l2,-1.5l0,-1.5l2,-1.5l0,-1.5l2,-1.5l0,-1.5l2,-1.5l0,-1.5l3,-2.5l0,-1.5l2,-1.5l0,-1.5l3,-2.5l0,-1.5l4,-3.5l0,-1.5l5,-4.5l0,-1.5l6,-5.5l0,-1.5l20.5,-20.5l1.5,0l7.5,-8l1.5,0l3.5,-4l1.5,0l3.5,-4l1.5,0l2.5,-3l1.5,0l2.5,-3l1.5,0l2.5,-3l1.5,0l1.5,-2l1.5,0l1.5,-2l1.5,0l2.5,-3l1.5,0l4.5,-4l3.5,-1l1.5,-2l1.5,0l0.5,-1l3.5,-1l1.5,-2l1.5,0l0.5,-1l1.5,0l0.5,-1l1.5,0l0.5,-1l1.5,0l0.5,-1l1.5,0l0.5,-1l1.5,0l0.5,-1l1.5,0l0.5,-1l1.5,0l0.5,-1l1.5,0l0.5,-1l1.5,0l0.5,-1l1.5,0l0.5,-1l1.5,0l2.5,-2l2.5,0l2.5,-2l2.5,0l2.5,-2l2.5,0l0.5,-1l1.5,0l0.5,-1l2.5,0l2.5,-2l3.5,0l0.5,-1l2.5,0l0.5,-1l2.5,0l0.5,-1l2.5,0l0.5,-1l2.5,0l0.5,-1l3.5,0l0.5,-1l2.5,0l0.5,-1l3.5,0l0.5,-1l3.5,0l0.5,-1l3.5,0l0.5,-1l3.5,0l0.5,-1l4.5,0l0.5,-1l3.5,0l0.5,-1l5.5,0l0.5,-1l5.5,0l0.5,-1l7.5,0l0.5,-1l7.5,0l0.5,-1l14.5,0l0.5,-1Z" style="fill:#fff;fill-rule:nonzero;stroke:#fff;stroke-width:1px;"/><rect x="202" y="289" width="61" height="23" style="fill:#fff;"/><rect x="398" y="292" width="63" height="24" style="fill:#fff;"/></g></svg>