<?xml version="1.0" encoding="UTF-8" standalone="no"?><!DOCTYPE svg PUBLIC "-//W3C//DTD SVG 1.1//EN" "http://www.w3.org/Graphics/SVG/1.1/DTD/svg11.dtd"><svg width="100%" height="100%" viewBox="0 0 695 676" version="1.1" xmlns="http://www.w3.org/2000/svg" xmlns:xlink="http://www.w3.org/1999/xlink" xml:space="preserve" xmlns:serif="http://www.serif.com/" style="fill-rule:evenodd;clip-rule:evenodd;stroke-linejoin:round;"><rect id="Artboard1" x="0" y="0" width="695" height="676" style="fill:none;"/><g id="color_1"><path d="M315,6l-0.5,1l-7.5,0l-0.5,1l-7.5,0l-0.5,1l-6.5,0l-0.5,1l-4.5,0l-0.5,1l-4.5,0l-0.5,1l-4.5,0l-0.5,1l-4.5,0l-0.5,1l-3.5,0l-0.5,1l-4.5,0l-0.5,1l-7.5,1l-0.5,1l-2.5,0l-0.5,1l-2.5,0l-0.5,1l-3.5,0l-0.5,1l-2.5,0l-0.5,1l-2.5,0l-0.5,1l-2.5,0l-0.5,1l-5.5,1l-2.5,2l-2.5,0l-0.5,1l-5.5,1l-2.5,2l-2.5,0l-2.5,2l-2.5,0l-0.5,1l-1.5,0l-0.5,1l-1.5,0l-0.5,1l-1.5,0l-2.5,2l-2.5,0l-0.5,1l-1.5,0l-0.5,1l-1.5,0l-0.5,1l-1.5,0l-0.5,1l-3.5,1l-1.5,2l-1.5,0l-0.5,1l-1.5,0l-0.5,1l-1.5,0l-0.5,1l-1.5,0l-0.5,1l-1.5,0l-0.5,1l-3.5,1l-1.5,2l-3.5,1l-1.5,2l-1.5,0l-4.5,4l-3.5,1l-1.5,2l-1.5,0l-1.5,2l-1.5,0l-2.5,3l-1.5,0l-1.5,2l-1.5,0l-2.5,3l-1.5,0l-3.5,4l-1.5,0l-2.5,3l-1.5,0l-2.5,3l-1.5,0l-4.5,5l-1.5,0l-7.5,8l-1.5,0l-21,21l0,1.5l-8,7.5l0,1.5l-5,4.5l0,1.5l-4,3.5l0,1.5l-3,2.5l0,1.5l-3,2.5l0,1.5l-3,2.5l0,1.5l-2,1.5l0,1.5l-2,1.5l0,1.5l-2,1.5l0,1.5l-4,4.5l-1,3.5l-4,4.5l-1,3.5l-2,1.5l0,1.5l-1,0.5l-1,3.5l-2,1.5l0,1.5l-1,0.5l0,1.5l-1,0.5l0,1.5l-1,0.5l0,1.5l-1,0.5l0,1.5l-1,0.5l0,1.5l-1,0.5l0,1.5l-1,0.5l0,1.5l-1,0.5l0,1.5l-2,2.5l0,2.5l-1,0.5l0,1.5l-2,2.5l0,2.5l-2,2.5l0,2.5l-1,0.5l0,1.5l-1,0.5l0,2.5l-2,2.5l0,2.5l-1,0.5l-1,5.5l-2,2.5l0,3.5l-1,0.5l0,2.5l-1,0.5l0,2.5l-1,0.5l0,2.5l-1,0.5l-1,7.5l-1,0.5l0,2.5l-1,0.5l0,3.5l-1,0.5l0,4.5l-1,0.5l0,4.5l-1,0.5l-1,9.5l-1,0.5l0,5.5l-1,0.5l0,6.5l-1,0.5l0,9.5l-1,0.5l0,11.5l-1,0.5l0,37.5l1,0.5l0,12.5l1,0.5l0,9.5l1,0.5l0,6.5l1,0.5l0,6.5l1,0.5l0,5.5l1,0.5l0,3.5l1,0.5l0,4.5l1,0.5l0,4.5l1,0.5l0,3.5l1,0.5l1,7.5l1,0.5l0,2.5l1,0.5l0,2.5l1,0.5l0,3.5l1,0.5l0,2.5l1,0.5l0,2.5l1,0.5l1,5.5l2,2.5l1,5.5l2,2.5l0,2.5l1,0.5l0,1.5l1,0.5l0,2.5l2,2.5l0,2.5l1,0.5l0,1.5l2,2.5l0,2.5l1,0.5l0,1.5l1,0.5l0,1.5l1,0.5l0,1.5l1,0.5l0,1.5l1,0.5l0,1.5l1,0.5l0,1.5l1,0.5l0,1.5l1,0.5l0,1.5l1,0.5l1,3.5l2,1.5l0,1.5l1,0.5l0,1.5l2,1.5l0,1.5l1,0.5l1,3.5l2,1.5l0,1.5l2,1.5l0,1.5l2,1.5l0,1.5l2,1.5l0,1.5l2,1.5l0,1.5l3,2.5l0,1.5l2,1.5l0,1.5l4,3.5l0,1.5l3,2.5l0,1.5l4,3.5l0,1.5l5,4.5l0,1.5l8,7.5l0,1.5l18,18l1.5,0l8.5,9l1.5,0l4.5,5l1.5,0l3.5,4l1.5,0l2.5,3l1.5,0l2.5,3l1.5,0l2.5,3l1.5,0l2.5,3l1.5,0l1.5,2l1.5,0l1.5,2l1.5,0l1.5,2l1.5,0l4.5,4l3.5,1l1.5,2l3.5,1l1.5,2l1.5,0l0.5,1l3.5,1l1.5,2l1.5,0l0.5,1l1.5,0l0.5,1l1.5,0l0.5,1l1.5,0l0.5,1l1.5,0l0.5,1l1.5,0l0.5,1l1.5,0l0.5,1l1.5,0l0.5,1l1.5,0l0.5,1l1.5,0l2.5,2l2.5,0l0.5,1l1.5,0l2.5,2l2.5,0l2.5,2l2.5,0l0.5,1l1.5,0l0.5,1l2.5,0l2.5,2l5.5,1l2.5,2l2.5,0l0.5,1l2.5,0l0.5,1l2.5,0l0.5,1l2.5,0l0.5,1l3.5,0l0.5,1l2.5,0l0.5,1l3.5,0l0.5,1l2.5,0l0.5,1l3.5,0l0.5,1l3.5,0l0.5,1l3.5,0l0.5,1l4.5,0l0.5,1l3.5,0l0.5,1l5.5,0l0.5,1l5.5,0l0.5,1l5.5,0l0.5,1l7.5,0l0.5,1l6.5,0l0.5,1l10.5,0l0.5,1l35.5,1l0.5,-1l19.5,0l0.5,-1l10.5,0l0.5,-1l13.5,-1l0.5,-1l5.5,0l0.5,-1l5.5,0l0.5,-1l4.5,0l0.5,-1l9.5,-1l0.5,-1l3.5,0l0.5,-1l7.5,-1l0.5,-1l2.5,0l0.5,-1l3.5,0l0.5,-1l2.5,0l0.5,-1l3.5,0l0.5,-1l2.5,0l0.5,-1l2.5,0l0.5,-1l5.5,-1l2.5,-2l2.5,0l0.5,-1l5.5,-1l0.5,-1l1.5,0l0.5,-1l2.5,0l2.5,-2l2.5,0l0.5,-1l1.5,0l0.5,-1l1.5,0l2.5,-2l2.5,0l0.5,-1l1.5,0l0.5,-1l1.5,0l0.5,-1l1.5,0l0.5,-1l1.5,0l0.5,-1l1.5,0l0.5,-1l1.5,0l0.5,-1l1.5,0l0.5,-1l1.5,0l0.5,-1l1.5,0l0.5,-1l1.5,0l0.5,-1l3.5,-1l1.5,-2l1.5,0l0.5,-1l3.5,-1l1.5,-2l1.5,0l0.5,-1l1.5,0l1.5,-2l3.5,-1l1.5,-2l1.5,0l1.5,-2l1.5,0l1.5,-2l1.5,0l1.5,-2l1.5,0l1.5,-2l1.5,0l1.5,-2l1.5,0l2.5,-3l1.5,0l2.5,-3l1.5,0l2.5,-3l1.5,0l3.5,-4l1.5,0l4.5,-5l1.5,0l7.5,-8l1.5,0l19,-19l0,-1.5l10,-9.5l0,-1.5l5,-4.5l0,-1.5l3,-2.5l0,-1.5l4,-3.5l0,-1.5l3,-2.5l0,-1.5l2,-1.5l0,-1.5l3,-2.5l0,-1.5l4,-4.5l1,-3.5l2,-1.5l0,-1.5l4,-4.5l0,-1.5l1,-0.5l1,-3.5l2,-1.5l0,-1.5l1,-0.5l0,-1.5l1,-0.5l1,-3.5l2,-1.5l0,-1.5l1,-0.5l0,-1.5l1,-0.5l0,-1.5l1,-0.5l0,-1.5l1,-0.5l0,-1.5l2,-2.5l0,-2.5l1,-0.5l0,-1.5l1,-0.5l0,-1.5l2,-2.5l0,-2.5l1,-0.5l0,-1.5l2,-2.5l0,-2.5l2,-2.5l0,-2.5l1,-0.5l0,-2.5l1,-0.5l0,-2.5l1,-0.5l0,-2.5l1,-0.5l0,-2.5l1,-0.5l0,-2.5l1,-0.5l0,-2.5l1,-0.5l0,-2.5l1,-0.5l0,-3.5l1,-0.5l0,-2.5l1,-0.5l0,-3.5l1,-0.5l0,-3.5l1,-0.5l0,-3.5l1,-0.5l0,-3.5l1,-0.5l0,-4.5l1,-0.5l0,-4.5l1,-0.5l0,-5.5l1,-0.5l0,-5.5l1,-0.5l0,-6.5l1,-0.5l0,-7.5l1,-0.5l0,-12.5l1,-0.5l0,-43.5l-1,-0.5l0,-11.5l-1,-0.5l0,-6.5l-1,-0.5l0,-6.5l-1,-0.5l0,-6.5l-1,-0.5l-1,-9.5l-1,-0.5l0,-3.5l-1,-0.5l0,-4.5l-1,-0.5l0,-3.5l-1,-0.5l-1,-7.5l-1,-0.5l0,-2.5l-1,-0.5l0,-3.5l-1,-0.5l0,-2.5l-1,-0.5l0,-2.5l-1,-0.5l0,-2.5l-1,-0.5l0,-3.5l-2,-2.5l-1,-5.5l-2,-2.5l-1,-5.5l-1,-0.5l0,-1.5l-1,-0.5l0,-2.5l-1,-0.5l0,-1.5l-2,-2.5l0,-2.5l-1,-0.5l0,-1.5l-1,-0.5l0,-1.5l-1,-0.5l0,-1.5l-1,-0.5l0,-1.5l-1,-0.5l0,-1.5l-1,-0.5l0,-1.5l-1,-0.5l0,-1.5l-1,-0.5l0,-1.5l-1,-0.5l0,-1.5l-1,-0.5l0,-1.5l-1,-0.5l0,-1.5l-1,-0.5l0,-1.5l-1,-0.5l-1,-3.5l-2,-1.5l0,-1.5l-1,-0.5l-1,-3.5l-2,-1.5l-1,-3.5l-2,-1.5l0,-1.5l-2,-1.5l0,-1.5l-2,-1.5l0,-1.5l-2,-1.5l0,-1.5l-2,-1.5l0,-1.5l-2,-1.5l0,-1.5l-3,-2.5l0,-1.5l-3,-2.5l0,-1.5l-3,-2.5l0,-1.5l-5,-4.5l0,-1.5l-5,-4.5l0,-1.5l-8,-7.5l0,-1.5l-17,-17l-1.5,0l-7.5,-8l-1.5,0l-4.5,-5l-1.5,0l-3.5,-4l-1.5,0l-2.5,-3l-1.5,0l-2.5,-3l-1.5,0l-2.5,-3l-1.5,0l-2.5,-3l-1.5,0l-1.5,-2l-1.5,0l-1.5,-2l-1.5,0l-4.5,-4l-3.5,-1l-4.5,-4l-1.5,0l-0.5,-1l-3.5,-1l-1.5,-2l-3.5,-1l-1.5,-2l-1.5,0l-0.5,-1l-1.5,0l-0.5,-1l-1.5,0l-0.5,-1l-1.5,0l-0.5,-1l-1.5,0l-0.5,-1l-1.5,0l-0.5,-1l-1.5,0l-0.5,-1l-1.5,0l-0.5,-1l-1.5,0l-0.5,-1l-1.5,0l-0.5,-1l-1.5,0l-0.5,-1l-1.5,0l-0.5,-1l-1.5,0l-2.5,-2l-2.5,0l-0.5,-1l-1.5,0l-2.5,-2l-2.5,0l-2.5,-2l-2.5,0l-0.5,-1l-1.5,0l-0.5,-1l-2.5,0l-2.5,-2l-2.5,0l-0.5,-1l-2.5,0l-0.5,-1l-2.5,0l-0.5,-1l-2.5,0l-0.5,-1l-2.5,0l-0.5,-1l-2.5,0l-0.5,-1l-2.5,0l-0.5,-1l-3.5,0l-0.5,-1l-3.5,0l-0.5,-1l-2.5,0l-0.5,-1l-3.5,0l-0.5,-1l-3.5,0l-0.5,-1l-4.5,0l-0.5,-1l-3.5,0l-0.5,-1l-4.5,0l-0.5,-1l-5.5,0l-0.5,-1l-4.5,0l-0.5,-1l-7.5,0l-0.5,-1l-7.5,0l-0.5,-1l-8.5,0l-0.5,-1l-14.5,0l-0.5,-1l-30.5,0l-0.5,1l-1,-1l-1.5,0l-0.5,1l-14.5,0Zm9,16.5l47.5,0l0.5,1l10.5,0l0.5,1l7.5,0l0.5,1l7.5,0l0.5,1l6.5,0l0.5,1l4.5,0l0.5,1l9.5,1l0.5,1l3.5,0l0.5,1l4.5,0l0.5,1l2.5,0l0.5,1l7.5,1l0.5,1l2.5,0l0.5,1l3.5,0l0.5,1l2.5,0l2.5,2l3.5,0l2.5,2l5.5,1l2.5,2l2.5,0l2.5,2l2.5,0l2.5,2l2.5,0l0.5,1l1.5,0l0.5,1l1.5,0l2.5,2l2.5,0l0.5,1l1.5,0l0.5,1l1.5,0l0.5,1l1.5,0l0.5,1l1.5,0l0.5,1l1.5,0l0.5,1l1.5,0l0.5,1l3.5,1l1.5,2l1.5,0l0.5,1l3.5,1l1.5,2l1.5,0l0.5,1l3.5,1l1.5,2l3.5,1l1.5,2l1.5,0l1.5,2l1.5,0l1.5,2l1.5,0l1.5,2l1.5,0l1.5,2l1.5,0l1.5,2l1.5,0l2.5,3l1.5,0l1.5,2l1.5,0l2.5,3l1.5,0l3.5,4l1.5,0l5.5,6l1.5,0l6.5,7l1.5,0l22.5,22.5l0,1.5l7,6.5l0,1.5l4,3.5l0,1.5l4,3.5l0,1.5l3,2.5l0,1.5l3,2.5l0,1.5l2,1.5l0,1.5l2,1.5l0,1.5l2,1.5l0,1.5l2,1.5l0,1.5l2,1.5l0,1.5l4,4.5l0,1.5l1,0.5l1,3.5l2,1.5l0,1.5l1,0.5l0,1.5l1,0.5l0,1.5l1,0.5l1,3.5l2,1.5l0,1.5l1,0.5l0,1.5l2,2.5l0,2.5l1,0.5l0,1.5l1,0.5l0,1.5l1,0.5l0,1.5l1,0.5l0,1.5l2,2.5l0,2.5l1,0.5l0,1.5l2,2.5l1,5.5l2,2.5l0,2.5l1,0.5l0,2.5l1,0.5l0,2.5l1,0.5l0,2.5l1,0.5l0,2.5l1,0.5l0,2.5l1,0.5l0,2.5l1,0.5l0,3.5l1,0.5l0,2.5l1,0.5l0,3.5l1,0.5l0,3.5l1,0.5l0,3.5l1,0.5l0,3.5l1,0.5l0,3.5l1,0.5l0,4.5l1,0.5l0,4.5l1,0.5l0,5.5l1,0.5l0,6.5l1,0.5l0,8.5l1,0.5l0,13.5l1,0.5l0,34.5l-1,0.5l0,13.5l-1,0.5l0,6.5l-1,0.5l0,6.5l-1,0.5l-1,11.5l-1,0.5l-1,9.5l-1,0.5l0,3.5l-1,0.5l-1,7.5l-1,0.5l0,2.5l-1,0.5l0,3.5l-1,0.5l0,2.5l-1,0.5l0,2.5l-1,0.5l0,2.5l-1,0.5l0,2.5l-1,0.5l0,2.5l-1,0.5l-1,5.5l-2,2.5l0,2.5l-1,0.5l0,1.5l-1,0.5l0,2.5l-2,2.5l0,2.5l-1,0.5l0,1.5l-1,0.5l0,1.5l-1,0.5l0,1.5l-1,0.5l0,1.5l-2,2.5l0,2.5l-1,0.5l0,1.5l-1,0.5l0,1.5l-1,0.5l0,1.5l-1,0.5l-1,3.5l-2,1.5l0,1.5l-1,0.5l-1,3.5l-2,1.5l0,1.5l-1,0.5l-1,3.5l-2,1.5l0,1.5l-4,4.5l-1,3.5l-3,2.5l0,1.5l-2,1.5l0,1.5l-2,1.5l0,1.5l-3,2.5l0,1.5l-3,2.5l0,1.5l-4,3.5l0,1.5l-4,3.5l0,1.5l-8,7.5l0,1.5l-18.5,18.5l-1.5,0l-7.5,8l-1.5,0l-4.5,5l-1.5,0l-3.5,4l-1.5,0l-2.5,3l-1.5,0l-2.5,3l-1.5,0l-2.5,3l-1.5,0l-1.5,2l-1.5,0l-1.5,2l-1.5,0l-1.5,2l-1.5,0l-1.5,2l-1.5,0l-4.5,4l-3.5,1l-1.5,2l-1.5,0l-0.5,1l-1.5,0l-1.5,2l-3.5,1l-1.5,2l-1.5,0l-0.5,1l-1.5,0l-0.5,1l-1.5,0l-0.5,1l-1.5,0l-0.5,1l-1.5,0l-0.5,1l-1.5,0l-0.5,1l-1.5,0l-0.5,1l-1.5,0l-0.5,1l-1.5,0l-2.5,2l-2.5,0l-0.5,1l-1.5,0l-0.5,1l-1.5,0l-2.5,2l-2.5,0l-0.5,1l-1.5,0l-2.5,2l-2.5,0l-2.5,2l-5.5,1l-2.5,2l-2.5,0l-0.5,1l-2.5,0l-0.5,1l-2.5,0l-0.5,1l-2.5,0l-0.5,1l-2.5,0l-0.5,1l-3.5,0l-0.5,1l-2.5,0l-0.5,1l-3.5,0l-0.5,1l-2.5,0l-0.5,1l-3.5,0l-0.5,1l-4.5,0l-0.5,1l-3.5,0l-0.5,1l-3.5,0l-0.5,1l-5.5,0l-0.5,1l-4.5,0l-0.5,1l-5.5,0l-0.5,1l-6.5,0l-0.5,1l-7.5,0l-0.5,1l-9.5,0l-0.5,1l-21.5,0l-0.5,1l-12.5,0l-0.5,-1l-19.5,0l-0.5,-1l-10.5,0l-0.5,-1l-7.5,0l-0.5,-1l-5.5,0l-0.5,-1l-5.5,0l-0.5,-1l-4.5,0l-0.5,-1l-9.5,-1l-0.5,-1l-3.5,0l-0.5,-1l-3.5,0l-0.5,-1l-7.5,-1l-0.5,-1l-2.5,0l-0.5,-1l-2.5,0l-0.5,-1l-3.5,0l-0.5,-1l-2.5,0l-0.5,-1l-2.5,0l-0.5,-1l-5.5,-1l-2.5,-2l-5.5,-1l-2.5,-2l-5.5,-1l-0.5,-1l-1.5,0l-2.5,-2l-2.5,0l-0.5,-1l-1.5,0l-0.5,-1l-1.5,0l-2.5,-2l-2.5,0l-0.5,-1l-1.5,0l-0.5,-1l-1.5,0l-0.5,-1l-1.5,0l-0.5,-1l-1.5,0l-0.5,-1l-1.5,0l-0.5,-1l-3.5,-1l-1.5,-2l-1.5,0l-0.5,-1l-1.5,0l-0.5,-1l-3.5,-1l-1.5,-2l-1.5,0l-0.5,-1l-1.5,0l-1.5,-2l-3.5,-1l-4.5,-4l-3.5,-1l-1.5,-2l-1.5,0l-1.5,-2l-1.5,0l-2.5,-3l-1.5,0l-1.5,-2l-1.5,0l-2.5,-3l-1.5,0l-3.5,-4l-1.5,0l-2.5,-3l-1.5,0l-5.5,-6l-1.5,0l-4.5,-5l-1.5,0l-25.5,-25.5l0,-1.5l-5,-4.5l0,-1.5l-6,-5.5l0,-1.5l-3,-2.5l0,-1.5l-3,-2.5l0,-1.5l-3,-2.5l0,-1.5l-3,-2.5l0,-1.5l-2,-1.5l0,-1.5l-2,-1.5l0,-1.5l-2,-1.5l0,-1.5l-4,-4.5l-1,-3.5l-2,-1.5l0,-1.5l-1,-0.5l0,-1.5l-1,-0.5l-1,-3.5l-2,-1.5l0,-1.5l-1,-0.5l0,-1.5l-1,-0.5l0,-1.5l-1,-0.5l0,-1.5l-1,-0.5l0,-1.5l-1,-0.5l0,-1.5l-1,-0.5l0,-1.5l-1,-0.5l0,-1.5l-1,-0.5l0,-1.5l-2,-2.5l0,-2.5l-1,-0.5l0,-1.5l-2,-2.5l0,-2.5l-2,-2.5l-1,-5.5l-2,-2.5l0,-2.5l-1,-0.5l0,-2.5l-1,-0.5l0,-2.5l-1,-0.5l0,-2.5l-1,-0.5l0,-2.5l-1,-0.5l0,-2.5l-1,-0.5l0,-3.5l-1,-0.5l0,-2.5l-1,-0.5l0,-3.5l-1,-0.5l0,-3.5l-1,-0.5l0,-3.5l-1,-0.5l0,-3.5l-1,-0.5l0,-3.5l-1,-0.5l-1,-9.5l-1,-0.5l0,-5.5l-1,-0.5l0,-7.5l-1,-0.5l0,-9.5l-1,-0.5l0,-12.5l-1,-0.5l0,-29.5l1,-0.5l0,-13.5l1,-0.5l0,-9.5l1,-0.5l0,-6.5l1,-0.5l0,-5.5l1,-0.5l0,-4.5l1,-0.5l1,-9.5l1,-0.5l0,-3.5l1,-0.5l0,-3.5l1,-0.5l0,-3.5l1,-0.5l1,-7.5l1,-0.5l0,-2.5l1,-0.5l0,-2.5l1,-0.5l0,-2.5l1,-0.5l0,-3.5l1,-0.5l0,-2.5l2,-2.5l0,-2.5l1,-0.5l0,-2.5l2,-2.5l0,-2.5l2,-2.5l0,-2.5l1,-0.5l0,-1.5l2,-2.5l0,-2.5l1,-0.5l0,-1.5l1,-0.5l0,-1.5l1,-0.5l0,-1.5l1,-0.5l0,-1.5l1,-0.5l0,-1.5l1,-0.5l0,-1.5l1,-0.5l0,-1.5l1,-0.5l0,-1.5l1,-0.5l0,-1.5l1,-0.5l1,-3.5l2,-1.5l0,-1.5l1,-0.5l0,-1.5l1,-0.5l1,-3.5l4,-4.5l1,-3.5l2,-1.5l0,-1.5l2,-1.5l0,-1.5l2,-1.5l0,-1.5l2,-1.5l0,-1.5l3,-2.5l0,-1.5l2,-1.5l0,-1.5l4,-3.5l0,-1.5l3,-2.5l0,-1.5l4,-3.5l0,-1.5l7,-6.5l0,-1.5l9,-8.5l0,-1.5l5.5,-5.5l1.5,0l14.5,-15l1.5,0l4.5,-5l1.5,0l3.5,-4l1.5,0l3.5,-4l1.5,0l2.5,-3l1.5,0l1.5,-2l1.5,0l2.5,-3l1.5,0l1.5,-2l1.5,0l1.5,-2l1.5,0l4.5,-4l3.5,-1l4.5,-4l1.5,0l0.5,-1l1.5,0l0.5,-1l3.5,-1l1.5,-2l3.5,-1l1.5,-2l1.5,0l0.5,-1l1.5,0l0.5,-1l1.5,0l0.5,-1l1.5,0l0.5,-1l1.5,0l0.5,-1l1.5,0l0.5,-1l1.5,0l0.5,-1l1.5,0l2.5,-2l2.5,0l0.5,-1l1.5,0l2.5,-2l2.5,0l2.5,-2l2.5,0l2.5,-2l2.5,0l2.5,-2l2.5,0l0.5,-1l5.5,-1l2.5,-2l2.5,0l0.5,-1l2.5,0l0.5,-1l3.5,0l0.5,-1l2.5,0l0.5,-1l3.5,0l0.5,-1l3.5,0l0.5,-1l3.5,0l0.5,-1l3.5,0l0.5,-1l3.5,0l0.5,-1l4.5,0l0.5,-1l9.5,-1l0.5,-1l6.5,0l0.5,-1l6.5,0l0.5,-1l8.5,0l0.5,-1l10.5,0l0.5,-1Z" style="fill:#fff;fill-rule:nonzero;stroke:#fff;stroke-width:1px;"/><path d="M527.591,135.809l10.335,14.437l2.198,13.423l-30.317,140.182l-4.881,12.049l-13.015,11.741l-8.469,2.877l-13.439,-0.631l-10.635,-4.889l-28.796,-27.768l-113.555,113.43l-9.875,4.299l-16.962,1.511l-9.204,-2.069l-9.931,-5.601l-9.6,-9.492l-6.448,-14.813l-0.096,-16.97l5.576,-14.174l111.43,-114.125l-27.382,-27.776l-3.572,-6.344l-2.917,-15.54l4.865,-14.877l10.195,-10.311l5.641,-2.861l128.882,-29.37l8.821,-3.232l14.845,-0.791l8.501,2.78l7.806,4.905Z" style="fill:#fff;stroke:#fff;stroke-width:1px;"/><path d="M562.242,393.634l7.009,9.768l1.514,9.064l-20.143,94.542l-3.267,8.121l-8.758,7.895l-5.71,1.922l-9.072,-0.456l-7.189,-3.324l-19.5,-18.807l-76.388,76.297l-6.656,2.879l-11.446,0.981l-6.217,-1.417l-6.716,-3.803l-6.501,-6.428l-4.386,-10.012l-0.104,-11.454l3.732,-9.554l74.951,-76.771l-18.545,-18.809l-2.425,-4.29l-2.004,-10.495l3.25,-10.03l6.858,-6.936l3.801,-1.918l86.924,-19.528l5.946,-2.161l10.018,-0.5l5.744,1.896l5.28,3.329Z" style="fill:#fff;stroke:#fff;stroke-width:0.67px;"/><path d="M251.242,166.634l7.009,9.768l1.514,9.064l-20.143,94.542l-3.267,8.121l-8.758,7.895l-5.71,1.922l-9.072,-0.456l-7.189,-3.324l-19.5,-18.807l-76.388,76.297l-6.656,2.879l-11.446,0.981l-6.217,-1.417l-6.716,-3.803l-6.501,-6.428l-4.386,-10.012l-0.104,-11.454l3.732,-9.554l74.951,-76.771l-18.545,-18.809l-2.425,-4.29l-2.004,-10.495l3.25,-10.03l6.858,-6.936l3.801,-1.918l86.924,-19.528l5.946,-2.161l10.018,-0.5l5.744,1.896l5.28,3.329Z" style="fill:#fff;stroke:#fff;stroke-width:0.67px;"/></g></svg>