<?xml version="1.0" encoding="UTF-8" standalone="no"?><!DOCTYPE svg PUBLIC "-//W3C//DTD SVG 1.1//EN" "http://www.w3.org/Graphics/SVG/1.1/DTD/svg11.dtd"><svg width="100%" height="100%" viewBox="0 0 742 724" version="1.1" xmlns="http://www.w3.org/2000/svg" xmlns:xlink="http://www.w3.org/1999/xlink" xml:space="preserve" xmlns:serif="http://www.serif.com/" style="fill-rule:evenodd;clip-rule:evenodd;stroke-linejoin:round;"><rect id="Artboard1" x="0" y="0" width="742" height="724" style="fill:none;"/><g id="color_1"><path d="M279,492l0,18.5l5,4l172.5,0l4,-4l0,-17.5l-1,-0.5l0,-1.5l-5,-4l-169.5,0l-0.5,1l-1.5,0l-4,4Zm0,-144l0,17.5l5,4l170.5,0l0.5,-1l1.5,0l4,-5l0,-15.5l-1,-0.5l0,-1.5l-1,-1l-1.5,0l-1.5,-2l-172.5,0l-4,5Zm0,-145l0,16.5l4,4l173.5,0l4,-4l0,-16.5l-4,-5l-173.5,0l-4,5Zm56,-196l-0.5,1l-8.5,0l-0.5,1l-7.5,0l-0.5,1l-6.5,0l-0.5,1l-5.5,0l-0.5,1l-9.5,1l-0.5,1l-3.5,0l-0.5,1l-4.5,0l-0.5,1l-3.5,0l-0.5,1l-3.5,0l-0.5,1l-3.5,0l-0.5,1l-7.5,1l-0.5,1l-2.5,0l-0.5,1l-2.5,0l-0.5,1l-2.5,0l-0.5,1l-2.5,0l-0.5,1l-2.5,0l-0.5,1l-2.5,0l-0.5,1l-5.5,1l-2.5,2l-5.5,1l-2.5,2l-2.5,0l-0.5,1l-1.5,0l-2.5,2l-2.5,0l-0.5,1l-1.5,0l-2.5,2l-2.5,0l-0.5,1l-1.5,0l-0.5,1l-1.5,0l-0.5,1l-1.5,0l-0.5,1l-1.5,0l-0.5,1l-1.5,0l-0.5,1l-1.5,0l-0.5,1l-1.5,0l-0.5,1l-1.5,0l-0.5,1l-1.5,0l-0.5,1l-3.5,1l-1.5,2l-1.5,0l-0.5,1l-3.5,1l-1.5,2l-1.5,0l-0.5,1l-3.5,1l-1.5,2l-1.5,0l-1.5,2l-1.5,0l-1.5,2l-1.5,0l-1.5,2l-1.5,0l-1.5,2l-1.5,0l-1.5,2l-1.5,0l-2.5,3l-1.5,0l-1.5,2l-1.5,0l-2.5,3l-1.5,0l-2.5,3l-1.5,0l-3.5,4l-1.5,0l-4.5,5l-1.5,0l-5.5,6l-1.5,0l-6.5,7l-1.5,0l-24,24l0,1.5l-9,8.5l0,1.5l-4,3.5l0,1.5l-4,3.5l0,1.5l-3,2.5l0,1.5l-3,2.5l0,1.5l-3,2.5l0,1.5l-2,1.5l0,1.5l-2,1.5l0,1.5l-3,2.5l-1,3.5l-2,1.5l0,1.5l-2,1.5l-1,3.5l-2,1.5l-1,3.5l-2,1.5l0,1.5l-1,0.5l0,1.5l-1,0.5l0,1.5l-1,0.5l-1,3.5l-2,1.5l0,1.5l-1,0.5l0,1.5l-1,0.5l0,1.5l-1,0.5l0,1.5l-1,0.5l0,1.5l-1,0.5l0,1.5l-2,2.5l0,2.5l-1,0.5l0,1.5l-1,0.5l0,1.5l-2,2.5l0,2.5l-1,0.5l0,1.5l-2,2.5l0,2.5l-2,2.5l0,2.5l-1,0.5l0,1.5l-1,0.5l0,2.5l-2,2.5l0,2.5l-1,0.5l0,2.5l-1,0.5l0,2.5l-1,0.5l0,2.5l-1,0.5l0,2.5l-1,0.5l0,2.5l-1,0.5l0,3.5l-1,0.5l0,2.5l-1,0.5l0,3.5l-1,0.5l0,3.5l-1,0.5l0,3.5l-1,0.5l0,4.5l-1,0.5l0,3.5l-1,0.5l-1,9.5l-1,0.5l0,5.5l-1,0.5l0,6.5l-1,0.5l0,6.5l-1,0.5l0,8.5l-1,0.5l0,13.5l-1,0.5l0,39.5l1,0.5l0,10.5l1,0.5l0,9.5l1,0.5l0,7.5l1,0.5l0,5.5l1,0.5l0,5.5l1,0.5l0,5.5l1,0.5l0,4.5l1,0.5l0,3.5l1,0.5l0,4.5l1,0.5l1,7.5l1,0.5l0,2.5l1,0.5l1,7.5l1,0.5l0,2.5l1,0.5l0,2.5l1,0.5l0,2.5l1,0.5l1,5.5l2,2.5l1,5.5l2,2.5l1,5.5l2,2.5l0,2.5l1,0.5l0,1.5l1,0.5l0,1.5l1,0.5l0,1.5l2,2.5l0,2.5l1,0.5l0,1.5l1,0.5l0,1.5l1,0.5l0,1.5l1,0.5l0,1.5l1,0.5l0,1.5l1,0.5l0,1.5l1,0.5l0,1.5l1,0.5l0,1.5l1,0.5l0,1.5l1,0.5l0,1.5l1,0.5l1,3.5l2,1.5l0,1.5l1,0.5l0,1.5l2,1.5l1,3.5l2,1.5l0,1.5l2,1.5l1,3.5l3,2.5l0,1.5l2,1.5l0,1.5l2,1.5l0,1.5l2,1.5l0,1.5l3,2.5l0,1.5l3,2.5l0,1.5l3,2.5l0,1.5l4,3.5l0,1.5l5,4.5l0,1.5l6,5.5l0,1.5l9,8.5l0,1.5l10,10l2,0.5l0,1.5l1.5,0l10.5,11l1.5,0l5.5,6l1.5,0l3.5,4l1.5,0l2.5,3l1.5,0l3.5,4l1.5,0l2.5,3l1.5,0l2.5,3l1.5,0l1.5,2l1.5,0l1.5,2l1.5,0l1.5,2l1.5,0l1.5,2l1.5,0l1.5,2l1.5,0l4.5,4l3.5,1l1.5,2l1.5,0l0.5,1l3.5,1l1.5,2l1.5,0l0.5,1l1.5,0l0.5,1l1.5,0l0.5,1l3.5,1l1.5,2l1.5,0l0.5,1l1.5,0l0.5,1l1.5,0l0.5,1l1.5,0l0.5,1l1.5,0l0.5,1l1.5,0l0.5,1l1.5,0l0.5,1l1.5,0l2.5,2l2.5,0l0.5,1l1.5,0l0.5,1l1.5,0l2.5,2l2.5,0l2.5,2l2.5,0l2.5,2l2.5,0l0.5,1l1.5,0l0.5,1l2.5,0l2.5,2l2.5,0l0.5,1l2.5,0l0.5,1l3.5,0l2.5,2l2.5,0l0.5,1l2.5,0l0.5,1l3.5,0l0.5,1l2.5,0l0.5,1l3.5,0l0.5,1l2.5,0l0.5,1l4.5,0l0.5,1l3.5,0l0.5,1l3.5,0l0.5,1l4.5,0l0.5,1l4.5,0l0.5,1l4.5,0l0.5,1l5.5,0l0.5,1l5.5,0l0.5,1l6.5,0l0.5,1l8.5,0l0.5,1l9.5,0l0.5,1l20.5,0l0.5,1l22.5,0l0.5,-1l16.5,0l0.5,-1l9.5,0l0.5,-1l7.5,0l0.5,-1l6.5,0l0.5,-1l11.5,-1l0.5,-1l9.5,-1l0.5,-1l3.5,0l0.5,-1l4.5,0l0.5,-1l3.5,0l0.5,-1l3.5,0l0.5,-1l3.5,0l0.5,-1l7.5,-1l0.5,-1l2.5,0l0.5,-1l2.5,0l0.5,-1l2.5,0l0.5,-1l2.5,0l0.5,-1l2.5,0l0.5,-1l5.5,-1l2.5,-2l3.5,0l0.5,-1l1.5,0l2.5,-2l2.5,0l0.5,-1l1.5,0l2.5,-2l2.5,0l2.5,-2l2.5,0l0.5,-1l1.5,0l0.5,-1l1.5,0l0.5,-1l1.5,0l0.5,-1l1.5,0l0.5,-1l1.5,0l0.5,-1l1.5,0l0.5,-1l1.5,0l0.5,-1l1.5,0l0.5,-1l1.5,0l0.5,-1l1.5,0l0.5,-1l1.5,0l0.5,-1l3.5,-1l1.5,-2l1.5,0l0.5,-1l3.5,-1l1.5,-2l1.5,0l0.5,-1l3.5,-1l4.5,-4l3.5,-1l1.5,-2l1.5,0l1.5,-2l1.5,0l1.5,-2l1.5,0l1.5,-2l1.5,0l2.5,-3l1.5,0l1.5,-2l1.5,0l3.5,-4l1.5,0l2.5,-3l1.5,0l3.5,-4l1.5,0l4.5,-5l1.5,0l5.5,-6l1.5,0l25,-25l0,-1.5l8,-7.5l0,-1.5l4,-3.5l0,-1.5l3,-2.5l0,-1.5l4,-3.5l0,-1.5l3,-2.5l0,-1.5l3,-2.5l0,-1.5l3,-2.5l0,-1.5l2,-1.5l0,-1.5l4,-4.5l1,-3.5l4,-4.5l1,-3.5l2,-1.5l1,-3.5l2,-1.5l0,-1.5l1,-0.5l0,-1.5l1,-0.5l0,-1.5l1,-0.5l0,-1.5l1,-0.5l0,-1.5l1,-0.5l1,-3.5l2,-1.5l0,-2.5l1,-0.5l0,-1.5l1,-0.5l0,-1.5l1,-0.5l0,-1.5l1,-0.5l0,-1.5l1,-0.5l0,-1.5l1,-0.5l0,-1.5l2,-2.5l0,-2.5l2,-2.5l0,-2.5l2,-2.5l0,-2.5l1,-0.5l0,-1.5l2,-2.5l0,-2.5l1,-0.5l1,-5.5l2,-2.5l0,-2.5l1,-0.5l0,-2.5l1,-0.5l0,-3.5l1,-0.5l0,-2.5l1,-0.5l0,-3.5l1,-0.5l0,-2.5l1,-0.5l0,-3.5l1,-0.5l0,-3.5l1,-0.5l0,-3.5l1,-0.5l0,-3.5l1,-0.5l0,-3.5l1,-0.5l0,-4.5l1,-0.5l0,-4.5l1,-0.5l0,-4.5l1,-0.5l0,-6.5l1,-0.5l0,-6.5l1,-0.5l0,-8.5l1,-0.5l0,-10.5l1,-0.5l0,-23.5l1,-0.5l0,-7.5l-1,-0.5l0,-21.5l-1,-0.5l0,-10.5l-1,-0.5l0,-7.5l-1,-0.5l0,-6.5l-1,-0.5l0,-5.5l-1,-0.5l0,-4.5l-1,-0.5l0,-5.5l-1,-0.5l0,-3.5l-1,-0.5l0,-3.5l-1,-0.5l0,-4.5l-1,-0.5l0,-2.5l-1,-0.5l-1,-7.5l-1,-0.5l0,-2.5l-1,-0.5l0,-3.5l-1,-0.5l0,-2.5l-1,-0.5l0,-2.5l-1,-0.5l0,-2.5l-1,-0.5l-1,-5.5l-2,-2.5l-1,-5.5l-2,-2.5l0,-2.5l-1,-0.5l0,-1.5l-2,-2.5l0,-2.5l-2,-2.5l0,-2.5l-1,-0.5l0,-1.5l-1,-0.5l0,-1.5l-2,-2.5l0,-2.5l-1,-0.5l0,-1.5l-1,-0.5l0,-1.5l-1,-0.5l0,-1.5l-1,-0.5l0,-1.5l-1,-0.5l0,-1.5l-1,-0.5l0,-1.5l-1,-0.5l0,-1.5l-1,-0.5l0,-1.5l-1,-0.5l-1,-3.5l-2,-1.5l0,-1.5l-1,-0.5l0,-1.5l-2,-1.5l0,-1.5l-1,-0.5l-1,-3.5l-2,-1.5l-1,-3.5l-4,-4.5l-1,-3.5l-2,-1.5l0,-1.5l-2,-1.5l0,-1.5l-2,-1.5l0,-1.5l-3,-2.5l0,-1.5l-3,-2.5l0,-1.5l-3,-2.5l0,-1.5l-3,-2.5l0,-1.5l-4,-3.5l0,-1.5l-5,-4.5l0,-1.5l-7,-6.5l0,-1.5l-22,-22l-1.5,0l-7.5,-8l-1.5,0l-2.5,-3l-1.5,0l-0.5,-2l-1.5,0l-3.5,-4l-1.5,0l-2.5,-3l-1.5,0l-3.5,-4l-1.5,0l-2.5,-3l-1.5,0l-1.5,-2l-1.5,0l-1.5,-2l-1.5,0l-1.5,-2l-1.5,0l-2.5,-3l-3.5,-1l-1.5,-2l-3.5,-1l-4.5,-4l-3.5,-1l-1.5,-2l-3.5,-1l-1.5,-2l-1.5,0l-0.5,-1l-3.5,-1l-1.5,-2l-1.5,0l-0.5,-1l-2.5,0l-1.5,-2l-1.5,0l-0.5,-1l-1.5,0l-0.5,-1l-1.5,0l-0.5,-1l-1.5,0l-0.5,-1l-1.5,0l-0.5,-1l-1.5,0l-0.5,-1l-1.5,0l-2.5,-2l-2.5,0l-0.5,-1l-1.5,0l-2.5,-2l-2.5,0l-0.5,-1l-1.5,0l-2.5,-2l-2.5,0l-0.5,-1l-1.5,0l-0.5,-1l-2.5,0l-2.5,-2l-2.5,0l-0.5,-1l-2.5,0l-0.5,-1l-2.5,0l-0.5,-1l-2.5,0l-0.5,-1l-2.5,0l-0.5,-1l-2.5,0l-0.5,-1l-2.5,0l-0.5,-1l-3.5,0l-0.5,-1l-2.5,0l-0.5,-1l-2.5,0l-0.5,-1l-3.5,0l-0.5,-1l-3.5,0l-0.5,-1l-3.5,0l-0.5,-1l-3.5,0l-0.5,-1l-4.5,0l-0.5,-1l-4.5,0l-0.5,-1l-4.5,0l-0.5,-1l-5.5,0l-0.5,-1l-5.5,0l-0.5,-1l-7.5,0l-0.5,-1l-7.5,0l-0.5,-1l-12.5,0l-0.5,-1l-51.5,0l-0.5,1l-10.5,0Zm4,19.5l14.5,0l0.5,-1l32.5,0l0.5,1l14.5,0l0.5,1l10.5,0l0.5,1l7.5,0l0.5,1l5.5,0l0.5,1l5.5,0l0.5,1l9.5,1l0.5,1l3.5,0l0.5,1l3.5,0l0.5,1l3.5,0l0.5,1l4.5,0l0.5,1l3.5,0l0.5,1l2.5,0l0.5,1l2.5,0l0.5,1l3.5,0l0.5,1l2.5,0l0.5,1l2.5,0l0.5,1l2.5,0l0.5,1l5.5,1l2.5,2l5.5,1l0.5,1l1.5,0l0.5,1l2.5,0l2.5,2l2.5,0l0.5,1l1.5,0l0.5,1l1.5,0l2.5,2l2.5,0l0.5,1l1.5,0l0.5,1l1.5,0l0.5,1l1.5,0l0.5,1l1.5,0l0.5,1l1.5,0l0.5,1l1.5,0l0.5,1l1.5,0l0.5,1l1.5,0l0.5,1l1.5,0l0.5,1l3.5,1l1.5,2l1.5,0l0.5,1l3.5,1l4.5,4l2.5,0l4.5,4l3.5,1l1.5,2l1.5,0l1.5,2l1.5,0l2.5,3l1.5,0l1.5,2l1.5,0l1.5,2l1.5,0l1.5,2l1.5,0l2.5,3l1.5,0l2.5,3l1.5,0l3.5,4l1.5,0l4.5,5l1.5,0l5.5,6l1.5,0l27.5,27.5l0,1.5l7,6.5l0,1.5l4,3.5l0,1.5l5,4.5l0,1.5l2,1.5l0,1.5l2,1.5l0,1.5l4,3.5l0,1.5l2,1.5l0,1.5l4,4.5l1,3.5l4,4.5l0,1.5l1,0.5l1,3.5l2,1.5l1,3.5l2,1.5l0,1.5l1,0.5l0,1.5l1,0.5l0,1.5l1,0.5l0,1.5l1,0.5l0,1.5l1,0.5l1,3.5l2,1.5l0,1.5l1,0.5l0,2.5l1,0.5l0,1.5l1,0.5l0,1.5l1,0.5l0,1.5l1,0.5l0,1.5l2,2.5l0,2.5l1,0.5l0,1.5l2,2.5l0,2.5l2,2.5l0,2.5l2,2.5l1,5.5l2,2.5l0,2.5l1,0.5l0,2.5l1,0.5l0,2.5l1,0.5l0,3.5l1,0.5l0,2.5l1,0.5l0,3.5l1,0.5l0,2.5l1,0.5l0,3.5l1,0.5l0,3.5l1,0.5l0,3.5l1,0.5l0,3.5l1,0.5l0,3.5l1,0.5l0,4.5l1,0.5l0,5.5l1,0.5l0,5.5l1,0.5l0,6.5l1,0.5l0,7.5l1,0.5l0,15.5l1,0.5l0,27.5l-1,0.5l0,17.5l-1,0.5l0,8.5l-1,0.5l0,7.5l-1,0.5l0,5.5l-1,0.5l0,6.5l-1,0.5l0,3.5l-1,0.5l0,4.5l-1,0.5l0,4.5l-1,0.5l0,3.5l-1,0.5l0,3.5l-1,0.5l-1,7.5l-1,0.5l0,2.5l-1,0.5l0,2.5l-1,0.5l0,3.5l-1,0.5l0,2.5l-1,0.5l0,2.5l-1,0.5l0,2.5l-1,0.5l-1,5.5l-1,0.5l0,1.5l-2,2.5l0,3.5l-2,2.5l0,2.5l-1,0.5l0,1.5l-2,2.5l0,2.5l-1,0.5l0,1.5l-2,2.5l0,2.5l-1,0.5l0,1.5l-1,0.5l0,1.5l-1,0.5l0,1.5l-1,0.5l0,1.5l-1,0.5l0,1.5l-1,0.5l0,1.5l-1,0.5l0,1.5l-1,0.5l0,1.5l-1,0.5l0,1.5l-1,0.5l-1,3.5l-2,1.5l0,1.5l-1,0.5l-1,3.5l-2,1.5l-1,3.5l-2,1.5l-1,3.5l-2,1.5l0,1.5l-2,1.5l0,1.5l-2,1.5l0,1.5l-2,1.5l0,1.5l-4,3.5l0,1.5l-2,1.5l0,1.5l-4,3.5l0,1.5l-4,3.5l0,1.5l-5,4.5l0,1.5l-9,8.5l-0.5,2l-1.5,0l0,1.5l-13.5,13.5l-1.5,0l-7.5,8l-1.5,0l-5.5,6l-1.5,0l-2.5,3l-1.5,0l-3.5,4l-1.5,0l-2.5,3l-1.5,0l-1.5,2l-1.5,0l-2.5,3l-1.5,0l-2.5,3l-1.5,0l-4.5,4l-3.5,1l-4.5,4l-3.5,1l-1.5,2l-3.5,1l-1.5,2l-1.5,0l-0.5,1l-3.5,1l-1.5,2l-1.5,0l-0.5,1l-1.5,0l-0.5,1l-3.5,1l-1.5,2l-2.5,0l-1.5,2l-2.5,0l-0.5,1l-1.5,0l-0.5,1l-1.5,0l-2.5,2l-2.5,0l-0.5,1l-1.5,0l-2.5,2l-2.5,0l-0.5,1l-1.5,0l-2.5,2l-2.5,0l-2.5,2l-2.5,0l-0.5,1l-2.5,0l-2.5,2l-2.5,0l-0.5,1l-2.5,0l-0.5,1l-3.5,0l-2.5,2l-3.5,0l-0.5,1l-2.5,0l-0.5,1l-2.5,0l-0.5,1l-2.5,0l-0.5,1l-4.5,0l-0.5,1l-3.5,0l-0.5,1l-3.5,0l-0.5,1l-3.5,0l-0.5,1l-4.5,0l-0.5,1l-4.5,0l-0.5,1l-5.5,0l-0.5,1l-5.5,0l-0.5,1l-5.5,0l-0.5,1l-7.5,0l-0.5,1l-8.5,0l-0.5,1l-14.5,0l-0.5,1l-34.5,0l-0.5,-1l-11.5,0l-0.5,-1l-10.5,0l-0.5,-1l-6.5,0l-0.5,-1l-7.5,0l-0.5,-1l-5.5,0l-0.5,-1l-4.5,0l-0.5,-1l-9.5,-1l-0.5,-1l-3.5,0l-0.5,-1l-3.5,0l-0.5,-1l-7.5,-1l-0.5,-1l-2.5,0l-0.5,-1l-3.5,0l-0.5,-1l-2.5,0l-0.5,-1l-2.5,0l-0.5,-1l-2.5,0l-0.5,-1l-2.5,0l-0.5,-1l-2.5,0l-0.5,-1l-5.5,-1l-0.5,-1l-1.5,0l-0.5,-1l-2.5,0l-2.5,-2l-5.5,-1l-0.5,-1l-1.5,0l-2.5,-2l-2.5,0l-0.5,-1l-1.5,0l-0.5,-1l-1.5,0l-2.5,-2l-2.5,0l-0.5,-1l-1.5,0l-0.5,-1l-1.5,0l-0.5,-1l-1.5,0l-0.5,-1l-1.5,0l-0.5,-1l-1.5,0l-0.5,-1l-1.5,0l-0.5,-1l-1.5,0l-0.5,-1l-1.5,0l-0.5,-1l-3.5,-1l-1.5,-2l-1.5,0l-0.5,-1l-3.5,-1l-1.5,-2l-1.5,0l-0.5,-1l-1.5,0l-1.5,-2l-3.5,-1l-4.5,-4l-3.5,-1l-2.5,-3l-1.5,0l-1.5,-2l-1.5,0l-1.5,-2l-1.5,0l-2.5,-3l-1.5,0l-2.5,-3l-1.5,0l-3.5,-4l-1.5,0l-1.5,-2l-1.5,0l-5.5,-6l-1.5,0l-4.5,-5l-1.5,0l-7.5,-8l-1.5,0l-17.5,-17.5l0,-1.5l-8,-7.5l0,-1.5l-6,-5.5l0,-1.5l-4,-3.5l0,-1.5l-4,-3.5l0,-1.5l-3,-2.5l0,-1.5l-2,-1.5l0,-1.5l-2,-1.5l0,-1.5l-4,-3.5l-1,-3.5l-4,-4.5l-1,-3.5l-2,-1.5l-1,-3.5l-2,-1.5l0,-1.5l-1,-0.5l-1,-3.5l-2,-1.5l0,-1.5l-1,-0.5l0,-1.5l-1,-0.5l0,-1.5l-1,-0.5l0,-1.5l-1,-0.5l0,-1.5l-1,-0.5l0,-1.5l-1,-0.5l0,-1.5l-2,-2.5l0,-2.5l-1,-0.5l0,-1.5l-1,-0.5l0,-1.5l-1,-0.5l0,-1.5l-2,-2.5l0,-2.5l-1,-0.5l0,-1.5l-2,-2.5l0,-2.5l-1,-0.5l0,-1.5l-1,-0.5l0,-2.5l-2,-2.5l0,-2.5l-1,-0.5l0,-2.5l-1,-0.5l0,-2.5l-1,-0.5l0,-2.5l-1,-0.5l0,-2.5l-1,-0.5l0,-2.5l-1,-0.5l0,-2.5l-1,-0.5l0,-3.5l-1,-0.5l0,-2.5l-1,-0.5l0,-3.5l-1,-0.5l0,-3.5l-1,-0.5l0,-3.5l-1,-0.5l0,-3.5l-1,-0.5l0,-3.5l-1,-0.5l0,-4.5l-1,-0.5l0,-4.5l-1,-0.5l0,-6.5l-1,-0.5l0,-6.5l-1,-0.5l0,-5.5l-1,-0.5l0,-10.5l-1,-0.5l0,-46.5l1,-0.5l0,-10.5l1,-0.5l0,-8.5l1,-0.5l0,-5.5l1,-0.5l0,-6.5l1,-0.5l0,-5.5l1,-0.5l1,-9.5l1,-0.5l0,-3.5l1,-0.5l0,-2.5l1,-0.5l0,-3.5l1,-0.5l1,-7.5l1,-0.5l0,-2.5l1,-0.5l0,-2.5l1,-0.5l0,-2.5l1,-0.5l0,-3.5l1,-0.5l0,-2.5l1,-0.5l1,-5.5l2,-2.5l1,-5.5l1,-0.5l0,-1.5l1,-0.5l0,-2.5l2,-2.5l0,-2.5l1,-0.5l0,-1.5l1,-0.5l0,-1.5l1,-0.5l0,-1.5l2,-2.5l0,-2.5l1,-0.5l0,-1.5l1,-0.5l0,-1.5l1,-0.5l0,-1.5l1,-0.5l0,-1.5l1,-0.5l0,-1.5l1,-0.5l0,-1.5l1,-0.5l1,-3.5l2,-1.5l0,-1.5l1,-0.5l1,-3.5l2,-1.5l0,-1.5l1,-0.5l1,-3.5l2,-1.5l0,-1.5l2,-1.5l0,-1.5l2,-1.5l0,-1.5l2,-1.5l0,-1.5l2,-1.5l0,-1.5l2,-1.5l0,-1.5l2,-1.5l0,-1.5l3,-2.5l0,-1.5l4,-3.5l0,-1.5l3,-2.5l0,-1.5l3,-2.5l0,-1.5l10,-9.5l0,-1.5l27.5,-27.5l1.5,0l5.5,-6l1.5,0l3.5,-4l1.5,0l3.5,-4l1.5,0l2.5,-3l1.5,0l2.5,-3l1.5,0l2.5,-3l1.5,0l2.5,-3l1.5,0l1.5,-2l1.5,0l1.5,-2l1.5,0l4.5,-4l3.5,-1l1.5,-2l3.5,-1l4.5,-4l1.5,0l0.5,-1l3.5,-1l1.5,-2l1.5,0l0.5,-1l2.5,0l1.5,-2l1.5,0l0.5,-1l1.5,0l0.5,-1l1.5,0l0.5,-1l1.5,0l0.5,-1l1.5,0l0.5,-1l1.5,0l2.5,-2l2.5,0l1.5,-2l2.5,0l0.5,-1l1.5,0l2.5,-2l5.5,-1l2.5,-2l5.5,-1l2.5,-2l2.5,0l0.5,-1l2.5,0l0.5,-1l2.5,0l0.5,-1l2.5,0l0.5,-1l2.5,0l0.5,-1l2.5,0l0.5,-1l3.5,0l0.5,-1l2.5,0l0.5,-1l3.5,0l0.5,-1l3.5,0l0.5,-1l3.5,0l0.5,-1l4.5,0l0.5,-1l3.5,0l0.5,-1l3.5,0l0.5,-1l4.5,0l0.5,-1l9.5,-1l0.5,-1l6.5,0l0.5,-1l8.5,0l0.5,-1l7.5,0l0.5,-1Z" style="fill:#fff;fill-rule:nonzero;stroke:#fff;stroke-width:1px;"/></g></svg>