<svg xmlns="http://www.w3.org/2000/svg" width="100%" height="100%" viewBox="0 0 48 48" fill="#fff"><path fill-rule="nonzero" d="M26,30.15l7.5,0c0.667,0 1.25,-0.25 1.75,-0.75c0.5,-0.5 0.75,-1.083 0.75,-1.75l0,-7.3c0,-0.667 -0.25,-1.25 -0.75,-1.75c-0.5,-0.5 -1.083,-0.75 -1.75,-0.75l-7.5,0l0,12.3Zm2.5,-2.5l0,-7.3l5,0l0,7.3l-5,0Zm-21.5,12.35c-0.8,0 -1.5,-0.3 -2.1,-0.9c-0.6,-0.6 -0.9,-1.3 -0.9,-2.1l0,-26c0,-0.8 0.3,-1.5 0.9,-2.1c0.6,-0.6 1.3,-0.9 2.1,-0.9l34,0c0.8,0 1.5,0.3 2.1,0.9c0.6,0.6 0.9,1.3 0.9,2.1l0,26c0,0.8 -0.3,1.5 -0.9,2.1c-0.6,0.6 -1.3,0.9 -2.1,0.9l-34,0Zm0,-3l34,0l0,-26l-34,0l0,26Zm0,0l0,-26l0,26Z"/><path fill-rule="nonzero" d="M13.81,18.111l-0.064,0.081l-0.064,0l-0.192,0.203l-0.064,0l0,0.061l-0.213,0.183l0,0.061l-0.171,0.183l0,0.061l-0.085,0.102l0,0.102l-0.043,0.02l0,0.102l-0.043,0.02l0,0.102l-0.043,0.02l0,0.142l-0.043,0.02l0,0.183l-0.043,0.02l0,0.346l-0.043,0.02l0,1.973l0.043,0.02l0,0.346l0.043,0.02l0,0.224l0.043,0.02l0,0.102l0.043,0.02l0.043,0.224l0.043,0.02l0,0.061l0.043,0.02l0,0.061l0.043,0.02l0.043,0.142l0.085,0.061l0,0.061l0.128,0.102l0,0.061l0.299,0.285l0.064,0l0.107,0.122l0.064,0l0.064,0.081l0.064,0l0.021,0.041l0.064,0l0.021,0.041l0.064,0l0.021,0.041l0.064,0l0.107,0.081l0.107,0l0.107,0.081l0.107,0l0.021,0.041l0.107,0l0.021,0.041l0.149,0l0.021,0.041l0.107,0l0.021,0.041l0.149,0l0.021,0.041l0.149,0l0.021,0.041l0.192,0l0.021,0.041l0.32,0.041l0.021,0.041l0.192,0l0.021,0.041l0.149,0l0.021,0.041l0.192,0l0.021,0.041l0.149,0l0.021,0.041l0.149,0l0.021,0.041l0.192,0l0.021,0.041l0.149,0l0.021,0.041l0.406,0.041l0.021,0.041l0.149,0l0.021,0.041l0.149,0l0.021,0.041l0.149,0l0.021,0.041l0.149,0l0.021,0.041l0.192,0l0.021,0.041l0.149,0l0.021,0.041l0.32,0.041l0.021,0.041l0.107,0l0.021,0.041l0.064,0l0.021,0.041l0.149,0.041l0.021,0.081l0.085,0.061l0,0.102l0.043,0.02l0,1.607l-0.192,0.224l-0.064,0l-0.107,0.081l-3.479,0l-0.021,-0.041l-0.149,-0.041l-0.107,-0.102l0,-0.061l-0.085,-0.102l0,-1.282l-2.796,0l0,1.526l0.043,0.02l0,0.346l0.043,0.02l0,0.183l0.043,0.02l0.043,0.305l0.085,0.102l0,0.102l0.043,0.02l0,0.061l0.043,0.02l0.043,0.142l0.085,0.061l0,0.061l0.085,0.061l0,0.061l0.427,0.407l0.064,0l0.064,0.081l0.064,0l0.021,0.041l0.064,0l0.021,0.041l0.064,0l0.021,0.041l0.064,0l0.107,0.081l0.107,0l0.021,0.041l0.107,0l0.021,0.041l0.149,0l0.021,0.041l0.235,0l0.021,0.041l5.443,0l0.021,-0.041l0.192,0l0.021,-0.041l0.149,0l0.021,-0.041l0.235,-0.041l0.021,-0.041l0.064,0l0.021,-0.041l0.064,0l0.021,-0.041l0.149,-0.041l0.064,-0.081l0.064,0l0.064,-0.081l0.064,0l0.384,-0.366l0,-0.061l0.085,-0.061l0,-0.061l0.085,-0.061l0,-0.061l0.043,-0.02l0,-0.061l0.085,-0.102l0,-0.102l0.043,-0.02l0,-0.102l0.043,-0.02l0,-0.102l0.043,-0.02l0,-0.142l0.043,-0.02l0,-0.264l0.043,-0.02l0,-0.549l0.043,-0.02l0,-0.183l-0.043,-0.02l0,-0.183l0.043,-0.02l0,-0.509l-0.043,-0.02l0.043,-0.041l0,-0.142l-0.043,-0.02l0.043,-0.041l0,-0.264l-0.043,-0.02l0,-0.671l-0.043,-0.02l0,-0.183l-0.043,-0.02l-0.043,-0.305l-0.085,-0.102l0,-0.102l-0.043,-0.02l-0.043,-0.142l-0.085,-0.061l0,-0.061l-0.085,-0.061l0,-0.061l-0.171,-0.142l0,-0.061l-0.085,-0.081l-0.064,0l-0.149,-0.163l-0.064,0l-0.064,-0.081l-0.064,0l-0.021,-0.041l-0.064,0l-0.021,-0.041l-0.064,0l-0.021,-0.041l-0.064,0l-0.021,-0.041l-0.064,0l-0.107,-0.081l-0.235,-0.041l-0.107,-0.081l-0.149,0l-0.021,-0.041l-0.107,0l-0.021,-0.041l-0.149,0l-0.021,-0.041l-0.149,0l-0.021,-0.041l-0.149,0l-0.021,-0.041l-0.192,0l-0.021,-0.041l-0.149,0l-0.021,-0.041l-0.192,0l-0.021,-0.041l-0.149,0l-0.021,-0.041l-0.192,0l-0.021,-0.041l-0.149,0l-0.021,-0.041l-0.149,0l-0.021,-0.041l-0.192,0l-0.021,-0.041l-0.149,0l-0.021,-0.041l-0.192,0l-0.021,-0.041l-0.149,0l-0.021,-0.041l-0.149,0l-0.021,-0.041l-0.192,0l-0.021,-0.041l-0.149,0l-0.021,-0.041l-0.149,0l-0.021,-0.041l-0.192,0l-0.021,-0.041l-0.149,0l-0.021,-0.041l-0.149,0l-0.021,-0.041l-0.149,0l-0.021,-0.041l-0.149,0l-0.021,-0.041l-0.149,0l-0.021,-0.041l-0.107,0l-0.021,-0.041l-0.064,0l-0.064,-0.081l-0.085,-0.02l0,-0.061l-0.085,-0.061l0,-0.102l-0.043,-0.02l0,-1.485l0.043,-0.02l0,-0.061l0.235,-0.224l0.107,0l0.021,-0.041l3.138,0l0.021,0.041l0.107,0l0.021,0.041l0.064,0l0.192,0.224l0,0.142l0.043,0.02l0,1.119l2.753,0l0,-1.363l-0.043,-0.02l0,-0.427l-0.043,-0.02l0,-0.224l-0.043,-0.02l0,-0.142l-0.043,-0.02l-0.043,-0.224l-0.043,-0.02l0,-0.061l-0.043,-0.02l0,-0.061l-0.043,-0.02l0,-0.061l-0.043,-0.02l-0.043,-0.142l-0.085,-0.061l0,-0.061l-0.128,-0.102l0,-0.061l-0.171,-0.163l-0.064,0l-0.149,-0.163l-0.064,0l-0.064,-0.081l-0.064,0l-0.021,-0.041l-0.064,0l-0.021,-0.041l-0.064,0l-0.107,-0.081l-0.107,0l-0.021,-0.041l-0.107,0l-0.021,-0.041l-0.149,0l-0.021,-0.041l-0.235,0l-0.021,-0.041l-1.43,0l-0.021,-0.041l-1.9,0l-0.021,0.041l-1.814,0l-0.021,0.041l-0.235,0l-0.021,0.041l-0.149,0l-0.021,0.041l-0.235,0.041l-0.021,0.041l-0.064,0l-0.021,0.041l-0.064,0l-0.021,0.041l-0.064,0l-0.021,0.041l-0.149,0.041Z"/></svg>
