<?xml version="1.0" encoding="UTF-8" standalone="no"?><!DOCTYPE svg PUBLIC "-//W3C//DTD SVG 1.1//EN" "http://www.w3.org/Graphics/SVG/1.1/DTD/svg11.dtd"><svg width="100%" height="100%" viewBox="0 0 695 676" version="1.1" xmlns="http://www.w3.org/2000/svg" xmlns:xlink="http://www.w3.org/1999/xlink" xml:space="preserve" xmlns:serif="http://www.serif.com/" style="fill-rule:evenodd;clip-rule:evenodd;stroke-linejoin:round;"><path d="M421.275,400.634l-3.88,3.88l0,1.94l-2.587,3.234l0,3.234l-1.293,0.647l0,95.072l1.293,0.647l0,3.234l1.293,0.647l0,1.94l6.467,6.467l1.94,0l0.647,1.293l3.234,0l0.647,1.293l7.114,0l0.647,-1.293l3.234,0l0.647,-1.293l1.94,0l1.94,-2.587l1.94,0l0,-1.94l2.587,-1.94l0,-1.94l1.293,-0.647l0,-48.506l2.587,-0.647l1.94,1.94l0,1.94l5.174,5.174l1.94,0l0.647,2.587l73.729,73.729l1.94,0l0.647,1.293l3.234,0l0.647,1.293l9.701,0l0.647,-1.293l3.234,0l1.94,-2.587l1.94,0l2.587,-2.587l0,-1.94l2.587,-3.234l0,-13.582l-1.293,-0.647l-1.293,-4.527l-84.077,-83.43l0.647,-2.587l48.506,0l0.647,-1.293l4.527,-1.293l5.174,-5.174l0,-3.234l1.293,-0.647l0,-3.234l1.293,-0.647l0,-5.821l-1.293,-0.647l0,-4.527l-1.293,-0.647l0,-1.94l-6.467,-6.467l-3.234,0l-0.647,-1.293l-76.963,0l-0.647,-1.293l-16.169,0l-0.647,1.293l-7.114,0l-0.647,1.293l-4.527,1.293Zm-248.351,-1.293l-6.467,6.467l0,1.94l-2.587,3.234l0,12.288l1.293,0.647l0,1.94l3.88,3.234l0,1.94l1.94,0l0.647,1.293l1.94,0l3.234,2.587l48.506,0l0.647,2.587l-85.371,84.724l0,1.94l-1.293,0.647l0,4.527l-1.293,0.647l0,7.114l1.293,0.647l0,3.234l1.293,0.647l0,1.94l5.174,5.174l1.94,0l0.647,1.293l3.234,0l0.647,1.293l9.701,0l0.647,-1.293l3.234,0l4.527,-5.174l1.94,0l0,-1.94l22.636,-22.636l1.94,0l5.174,-5.174l0,-1.94l49.8,-49.8l1.293,0.647l0,45.919l1.293,0.647l0,3.234l1.293,0.647l0,1.94l3.88,3.88l1.94,0l1.94,2.587l3.234,0l0.647,1.293l8.408,0l0.647,-1.293l3.234,0l0.647,-1.293l1.94,0l5.174,-5.174l0,-1.94l2.587,-3.234l0,-101.539l-1.293,-0.647l0,-1.94l-2.587,-1.94l0,-1.94l-1.293,-1.293l-1.94,0l-1.94,-2.587l-1.94,0l-0.647,-1.293l-4.527,0l-0.647,-1.293l-89.898,0l-0.647,1.293l-7.114,0l-0.647,1.293l-1.94,0Zm384.815,-269.047l-3.234,0l-0.647,-1.293l-12.288,0l-0.647,1.293l-4.527,1.293l-73.729,73.729l0,1.94l-2.587,0.647l-2.587,2.587l0,1.94l-4.527,4.527l-2.587,-1.94l0,-45.919l-1.293,-0.647l-1.293,-4.527l-5.174,-5.174l-3.234,0l-0.647,-1.293l-12.288,0l-0.647,1.293l-4.527,1.293l-3.88,3.88l0,1.94l-2.587,1.94l0,3.234l-1.293,0.647l0,95.072l1.293,0.647l0,3.234l1.293,0.647l0,1.94l7.761,7.761l3.234,0l0.647,1.293l98.952,0l0.647,-1.293l3.234,0l1.94,-2.587l1.94,0l2.587,-2.587l0,-1.94l2.587,-1.94l0,-4.527l1.293,-0.647l0,-5.821l-1.293,-0.647l0,-4.527l-2.587,-1.94l0,-1.94l-3.88,-3.88l-1.94,0l-0.647,-1.293l-3.234,0l-0.647,-1.293l-47.213,0l-0.647,-2.587l82.784,-82.137l0,-1.94l2.587,-1.94l0,-1.94l1.293,-0.647l0,-14.875l-1.293,-0.647l0,-1.94l-6.467,-6.467Zm-411.978,1.293l-5.174,5.174l0,1.94l-1.293,0.647l0,3.234l-1.293,0.647l0,8.408l1.293,0.647l0,3.234l1.293,0.647l0,1.94l62.088,61.441l0,1.94l2.587,0.647l0,1.94l19.402,18.756l-0.647,2.587l-48.506,0l-0.647,1.293l-4.527,1.293l-2.587,2.587l0,1.94l-2.587,1.94l0,3.234l-1.293,0.647l0,10.995l1.293,0.647l0,3.234l6.467,6.467l1.94,0l3.234,2.587l100.246,0l0.647,-1.293l4.527,-1.293l5.174,-5.174l0,-1.94l2.587,-3.234l0,-98.952l-1.293,-0.647l0,-3.234l-2.587,-1.94l0,-1.94l-1.293,-1.293l-1.94,0l-1.94,-2.587l-1.94,0l-0.647,-1.293l-12.288,0l-0.647,1.293l-4.527,1.293l-5.174,5.174l0,1.94l-2.587,3.234l0,45.919l-1.293,0.647l-23.93,-23.93l0,-1.94l-1.94,0l-8.408,-8.408l0,-1.94l-2.587,-2.587l-1.94,0l-3.234,-3.234l0,-1.94l-18.109,-18.109l-2.587,-0.647l0,-1.94l-19.402,-19.402l-1.94,0l-1.94,-2.587l-3.234,0l-0.647,-1.293l-10.995,0l-0.647,1.293l-4.527,1.293Z" style="fill:#fff;stroke:#fff;stroke-width:1.29px;"/><path d="M315,6l-0.5,1l-7.5,0l-0.5,1l-7.5,0l-0.5,1l-6.5,0l-0.5,1l-4.5,0l-0.5,1l-4.5,0l-0.5,1l-4.5,0l-0.5,1l-4.5,0l-0.5,1l-3.5,0l-0.5,1l-4.5,0l-0.5,1l-7.5,1l-0.5,1l-2.5,0l-0.5,1l-2.5,0l-0.5,1l-3.5,0l-0.5,1l-2.5,0l-0.5,1l-2.5,0l-0.5,1l-2.5,0l-0.5,1l-5.5,1l-2.5,2l-2.5,0l-0.5,1l-5.5,1l-2.5,2l-2.5,0l-2.5,2l-2.5,0l-0.5,1l-1.5,0l-0.5,1l-1.5,0l-0.5,1l-1.5,0l-2.5,2l-2.5,0l-0.5,1l-1.5,0l-0.5,1l-1.5,0l-0.5,1l-1.5,0l-0.5,1l-3.5,1l-1.5,2l-1.5,0l-0.5,1l-1.5,0l-0.5,1l-1.5,0l-0.5,1l-1.5,0l-0.5,1l-1.5,0l-0.5,1l-3.5,1l-1.5,2l-3.5,1l-1.5,2l-1.5,0l-4.5,4l-3.5,1l-1.5,2l-1.5,0l-1.5,2l-1.5,0l-2.5,3l-1.5,0l-1.5,2l-1.5,0l-2.5,3l-1.5,0l-3.5,4l-1.5,0l-2.5,3l-1.5,0l-2.5,3l-1.5,0l-4.5,5l-1.5,0l-7.5,8l-1.5,0l-21,21l0,1.5l-8,7.5l0,1.5l-5,4.5l0,1.5l-4,3.5l0,1.5l-3,2.5l0,1.5l-3,2.5l0,1.5l-3,2.5l0,1.5l-2,1.5l0,1.5l-2,1.5l0,1.5l-2,1.5l0,1.5l-4,4.5l-1,3.5l-4,4.5l-1,3.5l-2,1.5l0,1.5l-1,0.5l-1,3.5l-2,1.5l0,1.5l-1,0.5l0,1.5l-1,0.5l0,1.5l-1,0.5l0,1.5l-1,0.5l0,1.5l-1,0.5l0,1.5l-1,0.5l0,1.5l-1,0.5l0,1.5l-1,0.5l0,1.5l-2,2.5l0,2.5l-1,0.5l0,1.5l-2,2.5l0,2.5l-2,2.5l0,2.5l-1,0.5l0,1.5l-1,0.5l0,2.5l-2,2.5l0,2.5l-1,0.5l-1,5.5l-2,2.5l0,3.5l-1,0.5l0,2.5l-1,0.5l0,2.5l-1,0.5l0,2.5l-1,0.5l-1,7.5l-1,0.5l0,2.5l-1,0.5l0,3.5l-1,0.5l0,4.5l-1,0.5l0,4.5l-1,0.5l-1,9.5l-1,0.5l0,5.5l-1,0.5l0,6.5l-1,0.5l0,9.5l-1,0.5l0,11.5l-1,0.5l0,37.5l1,0.5l0,12.5l1,0.5l0,9.5l1,0.5l0,6.5l1,0.5l0,6.5l1,0.5l0,5.5l1,0.5l0,3.5l1,0.5l0,4.5l1,0.5l0,4.5l1,0.5l0,3.5l1,0.5l1,7.5l1,0.5l0,2.5l1,0.5l0,2.5l1,0.5l0,3.5l1,0.5l0,2.5l1,0.5l0,2.5l1,0.5l1,5.5l2,2.5l1,5.5l2,2.5l0,2.5l1,0.5l0,1.5l1,0.5l0,2.5l2,2.5l0,2.5l1,0.5l0,1.5l2,2.5l0,2.5l1,0.5l0,1.5l1,0.5l0,1.5l1,0.5l0,1.5l1,0.5l0,1.5l1,0.5l0,1.5l1,0.5l0,1.5l1,0.5l0,1.5l1,0.5l0,1.5l1,0.5l1,3.5l2,1.5l0,1.5l1,0.5l0,1.5l2,1.5l0,1.5l1,0.5l1,3.5l2,1.5l0,1.5l2,1.5l0,1.5l2,1.5l0,1.5l2,1.5l0,1.5l2,1.5l0,1.5l3,2.5l0,1.5l2,1.5l0,1.5l4,3.5l0,1.5l3,2.5l0,1.5l4,3.5l0,1.5l5,4.5l0,1.5l8,7.5l0,1.5l18,18l1.5,0l8.5,9l1.5,0l4.5,5l1.5,0l3.5,4l1.5,0l2.5,3l1.5,0l2.5,3l1.5,0l2.5,3l1.5,0l2.5,3l1.5,0l1.5,2l1.5,0l1.5,2l1.5,0l1.5,2l1.5,0l4.5,4l3.5,1l1.5,2l3.5,1l1.5,2l1.5,0l0.5,1l3.5,1l1.5,2l1.5,0l0.5,1l1.5,0l0.5,1l1.5,0l0.5,1l1.5,0l0.5,1l1.5,0l0.5,1l1.5,0l0.5,1l1.5,0l0.5,1l1.5,0l0.5,1l1.5,0l0.5,1l1.5,0l2.5,2l2.5,0l0.5,1l1.5,0l2.5,2l2.5,0l2.5,2l2.5,0l0.5,1l1.5,0l0.5,1l2.5,0l2.5,2l5.5,1l2.5,2l2.5,0l0.5,1l2.5,0l0.5,1l2.5,0l0.5,1l2.5,0l0.5,1l3.5,0l0.5,1l2.5,0l0.5,1l3.5,0l0.5,1l2.5,0l0.5,1l3.5,0l0.5,1l3.5,0l0.5,1l3.5,0l0.5,1l4.5,0l0.5,1l3.5,0l0.5,1l5.5,0l0.5,1l5.5,0l0.5,1l5.5,0l0.5,1l7.5,0l0.5,1l6.5,0l0.5,1l10.5,0l0.5,1l35.5,1l0.5,-1l19.5,0l0.5,-1l10.5,0l0.5,-1l13.5,-1l0.5,-1l5.5,0l0.5,-1l5.5,0l0.5,-1l4.5,0l0.5,-1l9.5,-1l0.5,-1l3.5,0l0.5,-1l7.5,-1l0.5,-1l2.5,0l0.5,-1l3.5,0l0.5,-1l2.5,0l0.5,-1l3.5,0l0.5,-1l2.5,0l0.5,-1l2.5,0l0.5,-1l5.5,-1l2.5,-2l2.5,0l0.5,-1l5.5,-1l0.5,-1l1.5,0l0.5,-1l2.5,0l2.5,-2l2.5,0l0.5,-1l1.5,0l0.5,-1l1.5,0l2.5,-2l2.5,0l0.5,-1l1.5,0l0.5,-1l1.5,0l0.5,-1l1.5,0l0.5,-1l1.5,0l0.5,-1l1.5,0l0.5,-1l1.5,0l0.5,-1l1.5,0l0.5,-1l1.5,0l0.5,-1l1.5,0l0.5,-1l1.5,0l0.5,-1l3.5,-1l1.5,-2l1.5,0l0.5,-1l3.5,-1l1.5,-2l1.5,0l0.5,-1l1.5,0l1.5,-2l3.5,-1l1.5,-2l1.5,0l1.5,-2l1.5,0l1.5,-2l1.5,0l1.5,-2l1.5,0l1.5,-2l1.5,0l1.5,-2l1.5,0l2.5,-3l1.5,0l2.5,-3l1.5,0l2.5,-3l1.5,0l3.5,-4l1.5,0l4.5,-5l1.5,0l7.5,-8l1.5,0l19,-19l0,-1.5l10,-9.5l0,-1.5l5,-4.5l0,-1.5l3,-2.5l0,-1.5l4,-3.5l0,-1.5l3,-2.5l0,-1.5l2,-1.5l0,-1.5l3,-2.5l0,-1.5l4,-4.5l1,-3.5l2,-1.5l0,-1.5l4,-4.5l0,-1.5l1,-0.5l1,-3.5l2,-1.5l0,-1.5l1,-0.5l0,-1.5l1,-0.5l1,-3.5l2,-1.5l0,-1.5l1,-0.5l0,-1.5l1,-0.5l0,-1.5l1,-0.5l0,-1.5l1,-0.5l0,-1.5l2,-2.5l0,-2.5l1,-0.5l0,-1.5l1,-0.5l0,-1.5l2,-2.5l0,-2.5l1,-0.5l0,-1.5l2,-2.5l0,-2.5l2,-2.5l0,-2.5l1,-0.5l0,-2.5l1,-0.5l0,-2.5l1,-0.5l0,-2.5l1,-0.5l0,-2.5l1,-0.5l0,-2.5l1,-0.5l0,-2.5l1,-0.5l0,-2.5l1,-0.5l0,-3.5l1,-0.5l0,-2.5l1,-0.5l0,-3.5l1,-0.5l0,-3.5l1,-0.5l0,-3.5l1,-0.5l0,-3.5l1,-0.5l0,-4.5l1,-0.5l0,-4.5l1,-0.5l0,-5.5l1,-0.5l0,-5.5l1,-0.5l0,-6.5l1,-0.5l0,-7.5l1,-0.5l0,-12.5l1,-0.5l0,-43.5l-1,-0.5l0,-11.5l-1,-0.5l0,-6.5l-1,-0.5l0,-6.5l-1,-0.5l0,-6.5l-1,-0.5l-1,-9.5l-1,-0.5l0,-3.5l-1,-0.5l0,-4.5l-1,-0.5l0,-3.5l-1,-0.5l-1,-7.5l-1,-0.5l0,-2.5l-1,-0.5l0,-3.5l-1,-0.5l0,-2.5l-1,-0.5l0,-2.5l-1,-0.5l0,-2.5l-1,-0.5l0,-3.5l-2,-2.5l-1,-5.5l-2,-2.5l-1,-5.5l-1,-0.5l0,-1.5l-1,-0.5l0,-2.5l-1,-0.5l0,-1.5l-2,-2.5l0,-2.5l-1,-0.5l0,-1.5l-1,-0.5l0,-1.5l-1,-0.5l0,-1.5l-1,-0.5l0,-1.5l-1,-0.5l0,-1.5l-1,-0.5l0,-1.5l-1,-0.5l0,-1.5l-1,-0.5l0,-1.5l-1,-0.5l0,-1.5l-1,-0.5l0,-1.5l-1,-0.5l0,-1.5l-1,-0.5l0,-1.5l-1,-0.5l-1,-3.5l-2,-1.5l0,-1.5l-1,-0.5l-1,-3.5l-2,-1.5l-1,-3.5l-2,-1.5l0,-1.5l-2,-1.5l0,-1.5l-2,-1.5l0,-1.5l-2,-1.5l0,-1.5l-2,-1.5l0,-1.5l-2,-1.5l0,-1.5l-3,-2.5l0,-1.5l-3,-2.5l0,-1.5l-3,-2.5l0,-1.5l-5,-4.5l0,-1.5l-5,-4.5l0,-1.5l-8,-7.5l0,-1.5l-17,-17l-1.5,0l-7.5,-8l-1.5,0l-4.5,-5l-1.5,0l-3.5,-4l-1.5,0l-2.5,-3l-1.5,0l-2.5,-3l-1.5,0l-2.5,-3l-1.5,0l-2.5,-3l-1.5,0l-1.5,-2l-1.5,0l-1.5,-2l-1.5,0l-4.5,-4l-3.5,-1l-4.5,-4l-1.5,0l-0.5,-1l-3.5,-1l-1.5,-2l-3.5,-1l-1.5,-2l-1.5,0l-0.5,-1l-1.5,0l-0.5,-1l-1.5,0l-0.5,-1l-1.5,0l-0.5,-1l-1.5,0l-0.5,-1l-1.5,0l-0.5,-1l-1.5,0l-0.5,-1l-1.5,0l-0.5,-1l-1.5,0l-0.5,-1l-1.5,0l-0.5,-1l-1.5,0l-0.5,-1l-1.5,0l-0.5,-1l-1.5,0l-2.5,-2l-2.5,0l-0.5,-1l-1.5,0l-2.5,-2l-2.5,0l-2.5,-2l-2.5,0l-0.5,-1l-1.5,0l-0.5,-1l-2.5,0l-2.5,-2l-2.5,0l-0.5,-1l-2.5,0l-0.5,-1l-2.5,0l-0.5,-1l-2.5,0l-0.5,-1l-2.5,0l-0.5,-1l-2.5,0l-0.5,-1l-2.5,0l-0.5,-1l-3.5,0l-0.5,-1l-3.5,0l-0.5,-1l-2.5,0l-0.5,-1l-3.5,0l-0.5,-1l-3.5,0l-0.5,-1l-4.5,0l-0.5,-1l-3.5,0l-0.5,-1l-4.5,0l-0.5,-1l-5.5,0l-0.5,-1l-4.5,0l-0.5,-1l-7.5,0l-0.5,-1l-7.5,0l-0.5,-1l-8.5,0l-0.5,-1l-14.5,0l-0.5,-1l-30.5,0l-0.5,1l-1,-1l-1.5,0l-0.5,1l-14.5,0Zm9,16.5l47.5,0l0.5,1l10.5,0l0.5,1l7.5,0l0.5,1l7.5,0l0.5,1l6.5,0l0.5,1l4.5,0l0.5,1l9.5,1l0.5,1l3.5,0l0.5,1l4.5,0l0.5,1l2.5,0l0.5,1l7.5,1l0.5,1l2.5,0l0.5,1l3.5,0l0.5,1l2.5,0l2.5,2l3.5,0l2.5,2l5.5,1l2.5,2l2.5,0l2.5,2l2.5,0l2.5,2l2.5,0l0.5,1l1.5,0l0.5,1l1.5,0l2.5,2l2.5,0l0.5,1l1.5,0l0.5,1l1.5,0l0.5,1l1.5,0l0.5,1l1.5,0l0.5,1l1.5,0l0.5,1l1.5,0l0.5,1l3.5,1l1.5,2l1.5,0l0.5,1l3.5,1l1.5,2l1.5,0l0.5,1l3.5,1l1.5,2l3.5,1l1.5,2l1.5,0l1.5,2l1.5,0l1.5,2l1.5,0l1.5,2l1.5,0l1.5,2l1.5,0l1.5,2l1.5,0l2.5,3l1.5,0l1.5,2l1.5,0l2.5,3l1.5,0l3.5,4l1.5,0l5.5,6l1.5,0l6.5,7l1.5,0l22.5,22.5l0,1.5l7,6.5l0,1.5l4,3.5l0,1.5l4,3.5l0,1.5l3,2.5l0,1.5l3,2.5l0,1.5l2,1.5l0,1.5l2,1.5l0,1.5l2,1.5l0,1.5l2,1.5l0,1.5l2,1.5l0,1.5l4,4.5l0,1.5l1,0.5l1,3.5l2,1.5l0,1.5l1,0.5l0,1.5l1,0.5l0,1.5l1,0.5l1,3.5l2,1.5l0,1.5l1,0.5l0,1.5l2,2.5l0,2.5l1,0.5l0,1.5l1,0.5l0,1.5l1,0.5l0,1.5l1,0.5l0,1.5l2,2.5l0,2.5l1,0.5l0,1.5l2,2.5l1,5.5l2,2.5l0,2.5l1,0.5l0,2.5l1,0.5l0,2.5l1,0.5l0,2.5l1,0.5l0,2.5l1,0.5l0,2.5l1,0.5l0,2.5l1,0.5l0,3.5l1,0.5l0,2.5l1,0.5l0,3.5l1,0.5l0,3.5l1,0.5l0,3.5l1,0.5l0,3.5l1,0.5l0,3.5l1,0.5l0,4.5l1,0.5l0,4.5l1,0.5l0,5.5l1,0.5l0,6.5l1,0.5l0,8.5l1,0.5l0,13.5l1,0.5l0,34.5l-1,0.5l0,13.5l-1,0.5l0,6.5l-1,0.5l0,6.5l-1,0.5l-1,11.5l-1,0.5l-1,9.5l-1,0.5l0,3.5l-1,0.5l-1,7.5l-1,0.5l0,2.5l-1,0.5l0,3.5l-1,0.5l0,2.5l-1,0.5l0,2.5l-1,0.5l0,2.5l-1,0.5l0,2.5l-1,0.5l0,2.5l-1,0.5l-1,5.5l-2,2.5l0,2.5l-1,0.5l0,1.5l-1,0.5l0,2.5l-2,2.5l0,2.5l-1,0.5l0,1.5l-1,0.5l0,1.5l-1,0.5l0,1.5l-1,0.5l0,1.5l-2,2.5l0,2.5l-1,0.5l0,1.5l-1,0.5l0,1.5l-1,0.5l0,1.5l-1,0.5l-1,3.5l-2,1.5l0,1.5l-1,0.5l-1,3.5l-2,1.5l0,1.5l-1,0.5l-1,3.5l-2,1.5l0,1.5l-4,4.5l-1,3.5l-3,2.5l0,1.5l-2,1.5l0,1.5l-2,1.5l0,1.5l-3,2.5l0,1.5l-3,2.5l0,1.5l-4,3.5l0,1.5l-4,3.5l0,1.5l-8,7.5l0,1.5l-18.5,18.5l-1.5,0l-7.5,8l-1.5,0l-4.5,5l-1.5,0l-3.5,4l-1.5,0l-2.5,3l-1.5,0l-2.5,3l-1.5,0l-2.5,3l-1.5,0l-1.5,2l-1.5,0l-1.5,2l-1.5,0l-1.5,2l-1.5,0l-1.5,2l-1.5,0l-4.5,4l-3.5,1l-1.5,2l-1.5,0l-0.5,1l-1.5,0l-1.5,2l-3.5,1l-1.5,2l-1.5,0l-0.5,1l-1.5,0l-0.5,1l-1.5,0l-0.5,1l-1.5,0l-0.5,1l-1.5,0l-0.5,1l-1.5,0l-0.5,1l-1.5,0l-0.5,1l-1.5,0l-0.5,1l-1.5,0l-2.5,2l-2.5,0l-0.5,1l-1.5,0l-0.5,1l-1.5,0l-2.5,2l-2.5,0l-0.5,1l-1.5,0l-2.5,2l-2.5,0l-2.5,2l-5.5,1l-2.5,2l-2.5,0l-0.5,1l-2.5,0l-0.5,1l-2.5,0l-0.5,1l-2.5,0l-0.5,1l-2.5,0l-0.5,1l-3.5,0l-0.5,1l-2.5,0l-0.5,1l-3.5,0l-0.5,1l-2.5,0l-0.5,1l-3.5,0l-0.5,1l-4.5,0l-0.5,1l-3.5,0l-0.5,1l-3.5,0l-0.5,1l-5.5,0l-0.5,1l-4.5,0l-0.5,1l-5.5,0l-0.5,1l-6.5,0l-0.5,1l-7.5,0l-0.5,1l-9.5,0l-0.5,1l-21.5,0l-0.5,1l-12.5,0l-0.5,-1l-19.5,0l-0.5,-1l-10.5,0l-0.5,-1l-7.5,0l-0.5,-1l-5.5,0l-0.5,-1l-5.5,0l-0.5,-1l-4.5,0l-0.5,-1l-9.5,-1l-0.5,-1l-3.5,0l-0.5,-1l-3.5,0l-0.5,-1l-7.5,-1l-0.5,-1l-2.5,0l-0.5,-1l-2.5,0l-0.5,-1l-3.5,0l-0.5,-1l-2.5,0l-0.5,-1l-2.5,0l-0.5,-1l-5.5,-1l-2.5,-2l-5.5,-1l-2.5,-2l-5.5,-1l-0.5,-1l-1.5,0l-2.5,-2l-2.5,0l-0.5,-1l-1.5,0l-0.5,-1l-1.5,0l-2.5,-2l-2.5,0l-0.5,-1l-1.5,0l-0.5,-1l-1.5,0l-0.5,-1l-1.5,0l-0.5,-1l-1.5,0l-0.5,-1l-1.5,0l-0.5,-1l-3.5,-1l-1.5,-2l-1.5,0l-0.5,-1l-1.5,0l-0.5,-1l-3.5,-1l-1.5,-2l-1.5,0l-0.5,-1l-1.5,0l-1.5,-2l-3.5,-1l-4.5,-4l-3.5,-1l-1.5,-2l-1.5,0l-1.5,-2l-1.5,0l-2.5,-3l-1.5,0l-1.5,-2l-1.5,0l-2.5,-3l-1.5,0l-3.5,-4l-1.5,0l-2.5,-3l-1.5,0l-5.5,-6l-1.5,0l-4.5,-5l-1.5,0l-25.5,-25.5l0,-1.5l-5,-4.5l0,-1.5l-6,-5.5l0,-1.5l-3,-2.5l0,-1.5l-3,-2.5l0,-1.5l-3,-2.5l0,-1.5l-3,-2.5l0,-1.5l-2,-1.5l0,-1.5l-2,-1.5l0,-1.5l-2,-1.5l0,-1.5l-4,-4.5l-1,-3.5l-2,-1.5l0,-1.5l-1,-0.5l0,-1.5l-1,-0.5l-1,-3.5l-2,-1.5l0,-1.5l-1,-0.5l0,-1.5l-1,-0.5l0,-1.5l-1,-0.5l0,-1.5l-1,-0.5l0,-1.5l-1,-0.5l0,-1.5l-1,-0.5l0,-1.5l-1,-0.5l0,-1.5l-1,-0.5l0,-1.5l-2,-2.5l0,-2.5l-1,-0.5l0,-1.5l-2,-2.5l0,-2.5l-2,-2.5l-1,-5.5l-2,-2.5l0,-2.5l-1,-0.5l0,-2.5l-1,-0.5l0,-2.5l-1,-0.5l0,-2.5l-1,-0.5l0,-2.5l-1,-0.5l0,-2.5l-1,-0.5l0,-3.5l-1,-0.5l0,-2.5l-1,-0.5l0,-3.5l-1,-0.5l0,-3.5l-1,-0.5l0,-3.5l-1,-0.5l0,-3.5l-1,-0.5l0,-3.5l-1,-0.5l-1,-9.5l-1,-0.5l0,-5.5l-1,-0.5l0,-7.5l-1,-0.5l0,-9.5l-1,-0.5l0,-12.5l-1,-0.5l0,-29.5l1,-0.5l0,-13.5l1,-0.5l0,-9.5l1,-0.5l0,-6.5l1,-0.5l0,-5.5l1,-0.5l0,-4.5l1,-0.5l1,-9.5l1,-0.5l0,-3.5l1,-0.5l0,-3.5l1,-0.5l0,-3.5l1,-0.5l1,-7.5l1,-0.5l0,-2.5l1,-0.5l0,-2.5l1,-0.5l0,-2.5l1,-0.5l0,-3.5l1,-0.5l0,-2.5l2,-2.5l0,-2.5l1,-0.5l0,-2.5l2,-2.5l0,-2.5l2,-2.5l0,-2.5l1,-0.5l0,-1.5l2,-2.5l0,-2.5l1,-0.5l0,-1.5l1,-0.5l0,-1.5l1,-0.5l0,-1.5l1,-0.5l0,-1.5l1,-0.5l0,-1.5l1,-0.5l0,-1.5l1,-0.5l0,-1.5l1,-0.5l0,-1.5l1,-0.5l0,-1.5l1,-0.5l1,-3.5l2,-1.5l0,-1.5l1,-0.5l0,-1.5l1,-0.5l1,-3.5l4,-4.5l1,-3.5l2,-1.5l0,-1.5l2,-1.5l0,-1.5l2,-1.5l0,-1.5l2,-1.5l0,-1.5l3,-2.5l0,-1.5l2,-1.5l0,-1.5l4,-3.5l0,-1.5l3,-2.5l0,-1.5l4,-3.5l0,-1.5l7,-6.5l0,-1.5l9,-8.5l0,-1.5l5.5,-5.5l1.5,0l14.5,-15l1.5,0l4.5,-5l1.5,0l3.5,-4l1.5,0l3.5,-4l1.5,0l2.5,-3l1.5,0l1.5,-2l1.5,0l2.5,-3l1.5,0l1.5,-2l1.5,0l1.5,-2l1.5,0l4.5,-4l3.5,-1l4.5,-4l1.5,0l0.5,-1l1.5,0l0.5,-1l3.5,-1l1.5,-2l3.5,-1l1.5,-2l1.5,0l0.5,-1l1.5,0l0.5,-1l1.5,0l0.5,-1l1.5,0l0.5,-1l1.5,0l0.5,-1l1.5,0l0.5,-1l1.5,0l0.5,-1l1.5,0l2.5,-2l2.5,0l0.5,-1l1.5,0l2.5,-2l2.5,0l2.5,-2l2.5,0l2.5,-2l2.5,0l2.5,-2l2.5,0l0.5,-1l5.5,-1l2.5,-2l2.5,0l0.5,-1l2.5,0l0.5,-1l3.5,0l0.5,-1l2.5,0l0.5,-1l3.5,0l0.5,-1l3.5,0l0.5,-1l3.5,0l0.5,-1l3.5,0l0.5,-1l3.5,0l0.5,-1l4.5,0l0.5,-1l9.5,-1l0.5,-1l6.5,0l0.5,-1l6.5,0l0.5,-1l8.5,0l0.5,-1l10.5,0l0.5,-1Z" style="fill:#fff;fill-rule:nonzero;stroke:#fff;stroke-width:1px;"/></svg>