<?xml version="1.0" encoding="UTF-8" standalone="no"?><!DOCTYPE svg PUBLIC "-//W3C//DTD SVG 1.1//EN" "http://www.w3.org/Graphics/SVG/1.1/DTD/svg11.dtd"><svg width="100%" height="100%" viewBox="0 0 695 676" version="1.1" xmlns="http://www.w3.org/2000/svg" xmlns:xlink="http://www.w3.org/1999/xlink" xml:space="preserve" xmlns:serif="http://www.serif.com/" style="fill-rule:evenodd;clip-rule:evenodd;stroke-linecap:round;stroke-linejoin:round;"><g><path d="M114.753,80.837l-1.527,1.502l0,3.754l-3.055,2.253l0,2.253l-6.109,5.256l0,2.253l-2.291,2.253l-2.291,0l-6.873,7.508l-2.291,0l-0.764,1.502l-5.345,1.502l-1.527,1.502l0,2.253l-1.527,0.751l1.527,1.502l-1.527,1.502l0,18.771l1.527,0.751l-1.527,1.502l1.527,1.502l0,2.253l-1.527,0.751l1.527,1.502l-1.527,1.502l1.527,1.502l0,78.838l-1.527,0.751l1.527,1.502l0,9.761l-1.527,0.751l1.527,1.502l0,5.256l-1.527,0.751l1.527,1.502l-1.527,1.502l0,2.253l1.527,0.751l0,5.256l-1.527,0.751l1.527,1.502l0,2.253l-1.527,0.751l1.527,1.502l-1.527,1.502l0,21.774l1.527,0.751l-1.527,1.502l0,9.761l1.527,0.751l-1.527,1.502l0,2.253l1.527,0.751l-1.527,1.502l1.527,1.502l0,5.256l-1.527,0.751l1.527,1.502l-1.527,1.502l0,2.253l1.527,0.751l-1.527,1.502l0,3.754l1.527,0.751l0,8.259l-1.527,0.751l1.527,1.502l0,36.791l-1.527,0.751l1.527,1.502l0,2.253l-1.527,0.751l1.527,1.502l-1.527,1.502l0,102.865l1.527,0.751l-1.527,1.502l0,5.256l1.527,0.751l-1.527,1.502l1.527,1.502l0,18.771l-1.527,0.751l1.527,1.502l0,6.758l-1.527,0.751l1.527,1.502l-1.527,1.502l1.527,1.502l0,2.253l-1.527,1.502l1.527,0.751l0,5.256l-1.527,0.751l0,2.253l1.527,0.751l0,9.761l-1.527,1.502l1.527,0.751l0,9.761l2.291,0l2.291,3.003l2.291,0l0.764,1.502l5.345,1.502l12.982,12.764l1.527,5.256l3.055,2.253l0,2.253l3.055,3.003l460.467,0l1.527,-1.502l0,-2.253l3.055,-2.253l1.527,-5.256l4.582,-3.754l0.764,-3.003l2.291,0l0.764,-3.003l2.291,0l3.818,-4.505l5.345,-1.502l2.291,-3.003l5.345,-1.502l0,-452.756l-2.291,0l-2.291,-3.003l-2.291,0l-0.764,-1.502l-2.291,0l-2.291,-3.003l-2.291,0l-12.982,-12.764l0,-2.253l-1.527,-0.751l-1.527,-5.256l-3.055,-3.003l-461.994,0Zm423.813,68.326l5.345,5.256l0,5.256l-1.527,0.751l0,3.754l-3.055,0.751l0,2.253l-3.055,0.751l-1.527,1.502l0,2.253l-2.291,2.253l-2.291,0l0,2.253l-3.055,0.751l0,2.253l-3.055,0.751l-1.527,1.502l0,2.253l-3.055,0.751l0,2.253l-2.291,2.253l-2.291,0l-4.582,4.505l0,2.253l-3.055,0.751l-1.527,1.502l0,2.253l-3.055,0.751l0,2.253l-2.291,2.253l-2.291,0l0,2.253l-3.055,0.751l0,2.253l-2.291,2.253l-2.291,0l0,2.253l-2.291,2.253l-2.291,0l0,2.253l-5.345,5.256l-2.291,0l0,2.253l-3.055,0.751l-1.527,1.502l0,2.253l-3.055,0.751l0,2.253l-2.291,2.253l-2.291,0l0,2.253l-2.291,2.253l-2.291,0l0,2.253l-17.563,17.269l-2.291,0l0,2.253l-2.291,2.253l-2.291,0l-1.527,1.502l0,2.253l-3.055,0.751l0,2.253l-3.055,0.751l0,2.253l-3.055,0.751l0,2.253l-6.873,6.758l-2.291,0l0,2.253l-3.055,0.751l-1.527,1.502l0,2.253l-3.055,0.751l-1.527,1.502l0,2.253l-3.055,0.751l-9.164,9.01l0,2.253l-3.055,0.751l0,2.253l-3.055,0.751l-1.527,1.502l0,2.253l-2.291,2.253l-2.291,0l0,2.253l-3.055,0.751l0,2.253l-3.055,0.751l-1.527,1.502l0,2.253l-3.055,0.751l-16.8,16.518l0,2.253l-3.055,0.751l-1.527,1.502l0,2.253l-3.055,0.751l0,2.253l-2.291,2.253l-2.291,0l0,2.253l-3.055,0.751l-21.382,21.024l0,2.253l-3.055,0.751l-1.527,1.502l0,2.253l-3.055,0.751l0,2.253l-2.291,2.253l-2.291,0l0,2.253l-2.291,2.253l-2.291,0l0,2.253l-3.055,0.751l-1.527,1.502l0,2.253l-3.055,0.751l0,2.253l-2.291,2.253l-2.291,0l0,2.253l-2.291,2.253l-2.291,0l0,2.253l-3.055,0.751l0,2.253l-14.509,14.266l-2.291,0l0,2.253l-5.345,5.256l-2.291,0l0,2.253l-3.055,0.751l-3.055,3.003l0,2.253l-3.818,3.754l-2.291,0l0,2.253l-3.055,0.751l-1.527,1.502l0,2.253l-5.345,5.256l-2.291,0l0,2.253l-5.345,5.256l-2.291,0l0,2.253l-2.291,2.253l-2.291,0l0,2.253l-3.055,0.751l-1.527,1.502l0,2.253l-3.055,0.751l-1.527,1.502l0,2.253l-3.055,0.751l0,2.253l-3.055,0.751l-1.527,1.502l0,2.253l-4.582,2.253l-0.764,3.003l-2.291,0l-4.582,4.505l-0.764,3.003l-2.291,0l-1.527,1.502l-0.764,3.003l-2.291,0l-4.582,4.505l0,2.253l-5.345,5.256l-2.291,0l0,2.253l-2.291,2.253l-2.291,0l-3.818,4.505l-5.345,0l-6.873,-6.758l0,-5.256l1.527,-0.751l0,-2.253l376.468,-370.164l8.4,0Zm-516.975,-132.148l2.291,0l5.345,-6.007l2.291,0l0.764,-1.502l2.291,0l3.818,-3.003l3.818,0l3.818,-3.003l29.781,0l3.818,3.003l3.818,0l0.764,1.502l2.291,0l2.291,3.003l5.345,1.502l3.818,4.505l2.291,0l0.764,3.003l2.291,0l0.764,3.003l6.109,5.256l0,3.754l3.055,2.253l0,2.253l3.055,3.003l460.467,0l1.527,-1.502l0,-2.253l1.527,-0.751l0,-2.253l1.527,-0.751l0,-2.253l3.055,-2.253l0,-2.253l12.982,-12.764l2.291,0l0.764,-1.502l2.291,0l2.291,-3.003l2.291,0l0.764,-1.502l3.818,0l3.818,-3.003l31.309,0l3.818,3.003l3.818,0l0.764,1.502l2.291,0l2.291,3.003l3.818,0l0.764,3.003l2.291,0l3.818,4.505l3.055,0.751l0,2.253l4.582,3.754l0,2.253l3.055,2.253l0,2.253l3.055,3.754l0,3.754l3.055,3.754l0,8.259l1.527,0.751l0,15.768l-1.527,0.751l0,6.758l-3.055,3.754l0,3.754l-1.527,0.751l-1.527,5.256l-4.582,3.754l0,2.253l-8.4,8.259l-2.291,0l-0.764,3.003l-3.818,0l-2.291,3.003l-2.291,0l-0.764,1.502l-2.291,0l-1.527,1.502l0,452.756l2.291,0l2.291,3.003l2.291,0l0.764,1.502l2.291,0l2.291,3.003l2.291,0l11.454,11.263l0,2.253l6.109,6.758l0,5.256l3.055,2.253l0,9.761l1.527,0.751l0,14.266l-1.527,0.751l0,8.259l-3.055,3.754l0,3.754l-1.527,0.751l0,2.253l-1.527,0.751l-1.527,5.256l-14.509,14.266l-5.345,1.502l-2.291,3.003l-3.818,0l-3.818,3.003l-3.818,0l-0.764,1.502l-28.254,0l-0.764,-1.502l-3.818,0l-3.818,-3.003l-3.818,0l-2.291,-3.003l-2.291,0l-5.345,-6.007l-2.291,0l-6.873,-6.758l0,-2.253l-3.055,-2.253l0,-2.253l-1.527,-0.751l-1.527,-5.256l-3.055,-3.003l-460.467,0l-3.055,3.003l0,2.253l-1.527,0.751l-1.527,5.256l-4.582,3.754l0,2.253l-6.873,6.758l-2.291,0l-3.818,4.505l-2.291,0l-0.764,1.502l-2.291,0l-3.818,3.003l-8.4,1.502l-0.764,1.502l-26.727,0l-0.764,-1.502l-5.345,0l-0.764,-1.502l-2.291,0l-0.764,-1.502l-5.345,-1.502l-6.873,-6.007l-2.291,0l-6.873,-6.758l0,-2.253l-4.582,-3.754l0,-2.253l-3.055,-2.253l0,-3.754l-3.055,-3.754l0,-5.256l-1.527,-0.751l0,-5.256l-1.527,-0.751l0,-14.266l1.527,-0.751l0,-8.259l1.527,-0.751l0,-3.754l1.527,-0.751l1.527,-5.256l6.109,-6.758l0,-2.253l9.927,-9.761l5.345,-1.502l2.291,-3.003l2.291,0l0.764,-1.502l2.291,0l1.527,-1.502l0,-452.756l-1.527,-1.502l-2.291,0l-2.291,-3.003l-5.345,-1.502l-16.036,-15.768l0,-2.253l-3.055,-2.253l0,-3.754l-3.055,-3.754l0,-5.256l-1.527,-0.751l0,-8.259l-1.527,-0.751l1.527,-17.269l1.527,-0.751l0,-5.256l3.055,-3.754l0,-3.754l3.055,-2.253l0,-2.253l4.582,-3.754l0,-2.253l5.345,-5.256Z" style="fill:#fff;fill-rule:nonzero;stroke:#000;stroke-width:0.76px;"/></g></svg>