<?xml version="1.0" encoding="UTF-8" standalone="no"?>
<!DOCTYPE svg PUBLIC "-//W3C//DTD SVG 1.1//EN" "http://www.w3.org/Graphics/SVG/1.1/DTD/svg11.dtd">
<svg width="100%" height="100%" viewBox="0 0 512 512" version="1.1" xmlns="http://www.w3.org/2000/svg" xmlns:xlink="http://www.w3.org/1999/xlink" xml:space="preserve" xmlns:serif="http://www.serif.com/" style="fill-rule:evenodd;clip-rule:evenodd;stroke-linejoin:round;stroke-miterlimit:2;">
    <rect x="-147" y="-75" width="802" height="636" style="fill:white;"/>
    <g transform="matrix(19.330074,0,0,19.330074,-2026.623586,279.077025)">
        <g transform="matrix(0.051733,-0,-0,0.051733,104.843031,-14.437452)">
        </g>
    </g>
    <g transform="matrix(19.330074,0,0,19.330074,-2020.623586,259.077025)">
        <g transform="matrix(1,0,0,1,-127.85,-10.4)">
            <path d="M254.4,17.3L254.4,10.7C254.5,10.6 254.6,10.4 254.6,10.2C254.6,10 254.5,9.8 254.4,9.7L254.4,7.1C254.6,7 254.8,6.8 254.8,6.5C254.8,6.2 254.7,6 254.4,5.9L254.4,5.2C254.6,5.2 254.8,5.1 254.9,4.9C255,4.7 255,4.6 255,4.3L255,4C255,3.8 255,3.6 254.9,3.4C254.8,3.2 254.6,3.1 254.4,3.1L254.4,2.4C254.6,2.3 254.8,2.1 254.8,1.8C254.8,1.4 254.5,1.1 254.1,1.1L237.6,1.1C237.2,1.1 236.9,1.4 236.9,1.8C236.9,2.1 237,2.3 237.3,2.4L237.3,3.2C237.1,3.2 236.9,3.3 236.8,3.5C236.7,3.7 236.7,3.8 236.7,4.1L236.7,4.4C236.7,4.6 236.7,4.8 236.8,5C236.9,5.2 237.1,5.3 237.3,5.3L237.3,6C237.1,6.1 236.9,6.3 236.9,6.6C236.9,6.9 237,7.1 237.3,7.2L237.3,9.8C237.2,9.9 237.1,10.1 237.1,10.3C237.1,10.5 237.2,10.7 237.3,10.8L237.3,17.4C236.9,17.4 236.7,17.7 236.7,18.1C236.7,18.5 237,18.8 237.4,18.8L244,18.8C244.4,18.8 244.7,18.5 244.7,18.1C244.7,17.7 244.4,17.4 244,17.4L244,10.8C244.2,10.7 244.3,10.5 244.3,10.3C244.3,10.1 244.2,9.9 244.1,9.8C244.3,8.9 245.1,8.3 246,8.3C246.9,8.3 247.7,8.9 247.9,9.8C247.8,9.9 247.7,10.1 247.7,10.3C247.7,10.5 247.8,10.7 248,10.8L248,17.4C247.6,17.4 247.3,17.7 247.3,18.1C247.3,18.5 247.6,18.8 248,18.8L254.6,18.8C255,18.8 255.3,18.5 255.3,18.1C255,17.6 254.7,17.3 254.4,17.3ZM241.5,17.3L238.6,17.3L238.6,16.1L241.5,16.1L241.5,17.3ZM241.5,14.8L238.6,14.8L238.6,10.8L241.5,10.8L241.5,14.8ZM241.5,9.5L238.6,9.5L238.6,7.2L241.5,7.2L241.5,9.5ZM253.1,17.3L250.2,17.3L250.2,16.1L253.1,16.1L253.1,17.3ZM253.1,14.8L250.2,14.8L250.2,10.8L253.1,10.8L253.1,14.8ZM253.1,9.5L250.2,9.5L250.2,7.2L253.1,7.2L253.1,9.5ZM253.1,5.8L238.6,5.8L238.6,5.1L253.1,5.1L253.1,5.8ZM253.2,3.2L238.7,3.2L238.7,2.5L253.2,2.5L253.2,3.2Z" style="fill:rgb(130,120,103);fill-rule:nonzero;"/>
        </g>
    </g>
</svg>
