{
  "asset": {
    "version": "2.0",
    "generator": "codex"
  },
  "scene": 0,
  "scenes": [
    {
      "nodes": [
        0
      ]
    }
  ],
  "nodes": [
    {
      "mesh": 0,
      "name": "MultiPrimitivePlane"
    }
  ],
  "meshes": [
    {
      "primitives": [
        {
          "attributes": {
            "POSITION": 0
          },
          "indices": 1,
          "material": 0,
          "mode": 4
        },
        {
          "attributes": {
            "POSITION": 0
          },
          "indices": 2,
          "material": 1,
          "mode": 4
        }
      ],
      "name": "MultiPrimitiveMesh"
    }
  ],
  "materials": [
    {
      "name": "Left",
      "pbrMetallicRoughness": {
        "baseColorFactor": [
          0.9,
          0.2,
          0.2,
          1
        ],
        "metallicFactor": 0,
        "roughnessFactor": 1
      },
      "doubleSided": true
    },
    {
      "name": "Right",
      "pbrMetallicRoughness": {
        "baseColorFactor": [
          0.2,
          0.8,
          0.2,
          1
        ],
        "metallicFactor": 0,
        "roughnessFactor": 1
      },
      "doubleSided": true
    }
  ],
  "accessors": [
    {
      "bufferView": 0,
      "componentType": 5126,
      "count": 8,
      "type": "VEC3",
      "min": [
        -1,
        -0.5,
        0
      ],
      "max": [
        1,
        0.5,
        0
      ]
    },
    {
      "bufferView": 1,
      "componentType": 5123,
      "count": 6,
      "type": "SCALAR"
    },
    {
      "bufferView": 2,
      "componentType": 5123,
      "count": 6,
      "type": "SCALAR"
    }
  ],
  "bufferViews": [
    {
      "buffer": 0,
      "byteOffset": 0,
      "byteLength": 96,
      "target": 34962
    },
    {
      "buffer": 0,
      "byteOffset": 96,
      "byteLength": 12,
      "target": 34963
    },
    {
      "buffer": 0,
      "byteOffset": 108,
      "byteLength": 12,
      "target": 34963
    }
  ],
  "buffers": [
    {
      "byteLength": 120,
      "uri": "data:application/octet-stream;base64,"
    }
  ]
}